<svg id="svg" version="1.1" xmlns="http://www.w3.org/2000/svg" xmlns:xlink="http://www.w3.org/1999/xlink" width="400" height="400" viewBox="0, 0, 400,400"><g id="svgg"><path id="path0" d="M192.775 25.352 C 192.651 25.479,190.401 25.772,187.775 26.003 C 150.748 29.257,116.961 46.981,93.991 75.200 C 93.006 76.410,92.110 77.490,91.999 77.600 C 87.357 82.219,76.434 101.284,72.346 111.900 C 72.156 112.395,71.825 113.205,71.612 113.700 C 66.304 126.020,62.800 146.685,62.800 165.669 L 62.800 174.800 68.764 174.800 L 74.729 174.800 74.944 162.900 C 75.146 151.709,75.376 148.426,76.366 142.600 C 77.453 136.202,79.174 128.582,79.980 126.600 C 80.158 126.160,80.723 124.450,81.235 122.800 C 84.755 111.444,93.213 95.504,100.761 86.000 C 106.563 78.695,115.616 69.398,120.626 65.600 C 121.932 64.610,123.540 63.306,124.200 62.702 C 124.860 62.098,125.610 61.603,125.867 61.602 C 126.123 61.601,126.393 61.450,126.467 61.268 C 126.645 60.822,133.093 56.521,137.361 54.000 C 141.009 51.846,149.097 47.918,152.900 46.454 C 154.401 45.876,156.160 45.127,156.895 44.753 C 157.277 44.559,157.941 44.400,158.371 44.400 C 158.801 44.400,159.264 44.220,159.400 44.000 C 159.536 43.780,159.999 43.600,160.429 43.600 C 160.859 43.600,161.523 43.442,161.905 43.249 C 163.403 42.492,173.368 39.961,177.000 39.414 C 177.880 39.282,180.122 38.917,181.981 38.604 C 191.605 36.983,207.979 36.981,218.200 38.599 C 225.514 39.757,228.583 40.411,234.200 42.010 C 235.080 42.261,236.297 42.562,236.905 42.679 C 237.513 42.796,238.108 43.051,238.229 43.246 C 238.349 43.441,238.876 43.600,239.400 43.600 C 239.924 43.600,240.464 43.780,240.600 44.000 C 240.736 44.220,241.199 44.400,241.629 44.400 C 242.059 44.400,242.723 44.559,243.105 44.753 C 243.487 44.948,244.295 45.308,244.900 45.553 C 245.505 45.799,246.495 46.204,247.100 46.454 C 247.705 46.703,248.560 47.052,249.000 47.229 C 268.439 55.051,290.760 72.977,302.010 89.800 C 302.745 90.900,303.450 91.890,303.575 92.000 C 303.793 92.192,304.234 92.890,308.377 99.600 C 312.571 106.391,318.366 119.995,320.476 128.000 C 320.679 128.770,321.018 130.030,321.228 130.800 C 322.380 135.009,323.711 141.946,324.450 147.600 C 324.666 149.250,324.939 156.045,325.056 162.700 L 325.270 174.800 331.235 174.800 L 337.200 174.800 337.197 165.300 C 337.191 149.374,335.676 137.535,331.990 124.600 C 331.739 123.720,331.438 122.503,331.321 121.895 C 331.204 121.287,330.949 120.692,330.754 120.571 C 330.559 120.451,330.400 119.949,330.400 119.456 C 330.400 118.963,330.257 118.389,330.082 118.180 C 329.907 117.971,329.535 117.080,329.255 116.200 C 328.724 114.526,328.150 113.078,327.553 111.905 C 327.359 111.523,327.200 111.017,327.200 110.780 C 327.200 109.907,322.202 99.569,319.291 94.419 C 317.399 91.073,310.928 81.160,309.405 79.276 C 299.599 67.143,290.709 58.528,280.400 51.168 C 276.197 48.167,269.772 44.000,269.349 44.000 C 269.225 44.000,268.644 43.658,268.057 43.241 C 262.533 39.307,244.696 32.135,234.200 29.627 C 233.100 29.365,231.570 28.990,230.800 28.795 C 226.311 27.656,219.850 26.621,213.200 25.974 C 208.418 25.508,193.076 25.041,192.775 25.352 M60.900 225.385 C 60.405 225.608,60.000 225.927,60.000 226.095 C 60.000 226.263,59.640 226.400,59.200 226.400 C 58.760 226.400,58.400 226.580,58.400 226.800 C 58.400 227.020,58.121 227.200,57.780 227.200 C 57.159 227.200,54.776 228.297,54.400 228.756 C 54.290 228.890,53.750 229.253,53.200 229.562 C 52.650 229.872,51.853 230.322,51.430 230.562 C 51.006 230.803,50.118 231.501,49.456 232.113 L 48.254 233.227 49.127 235.024 C 50.888 238.649,50.300 240.251,45.359 245.288 C 37.175 253.631,30.932 263.988,28.353 273.500 C 28.159 274.215,27.805 275.475,27.567 276.300 C 25.658 282.906,25.413 286.942,25.420 311.600 C 25.426 333.376,25.561 337.310,26.372 339.400 C 26.543 339.840,26.986 341.100,27.356 342.200 C 29.702 349.159,36.136 356.142,43.019 359.200 C 46.366 360.686,47.923 361.191,51.200 361.848 C 51.970 362.003,63.265 362.194,76.300 362.274 L 100.000 362.418 100.000 293.774 L 100.000 225.130 93.700 225.341 C 87.694 225.542,83.972 225.926,80.000 226.755 C 79.010 226.961,77.525 227.259,76.700 227.417 L 75.200 227.705 75.200 248.852 C 75.200 266.300,75.294 270.000,75.738 270.000 C 76.631 270.000,80.887 272.951,82.709 274.834 C 93.866 286.365,85.039 306.400,68.802 306.400 C 49.265 306.400,42.715 280.540,59.827 270.970 L 62.400 269.531 62.394 247.666 C 62.387 224.881,62.377 224.721,60.900 225.385 M300.371 274.658 C 300.336 333.483,300.624 329.992,295.700 331.311 L 294.000 331.766 294.000 337.683 L 294.000 343.600 295.005 343.600 C 296.627 343.600,298.135 344.608,299.395 346.534 C 300.030 347.505,300.164 348.737,300.322 355.034 L 300.506 362.400 323.223 362.400 C 345.238 362.400,347.208 362.312,351.800 361.121 C 363.651 358.048,371.952 348.862,374.343 336.176 C 374.947 332.971,374.978 291.095,374.379 286.600 C 372.083 269.347,365.560 255.899,354.009 244.600 C 349.924 240.605,349.261 238.668,350.809 235.256 C 351.704 233.283,351.809 232.400,351.147 232.400 C 350.898 232.400,350.403 232.084,350.047 231.697 C 349.691 231.311,348.905 230.740,348.300 230.430 C 347.695 230.119,347.200 229.715,347.200 229.532 C 347.200 229.350,346.840 229.200,346.400 229.200 C 345.960 229.200,345.600 229.053,345.600 228.874 C 345.600 228.476,342.999 227.200,342.186 227.200 C 341.864 227.200,341.600 227.020,341.600 226.800 C 341.600 226.580,341.345 226.400,341.033 226.400 C 340.722 226.400,340.407 226.233,340.333 226.028 C 340.260 225.823,339.660 225.598,339.000 225.528 L 337.800 225.400 337.697 247.475 L 337.593 269.549 340.023 270.844 C 351.308 276.859,353.576 294.272,344.011 301.459 C 343.675 301.711,342.967 302.297,342.437 302.760 C 334.761 309.477,321.013 306.741,315.074 297.315 C 309.434 288.363,313.260 275.099,322.735 270.752 L 324.800 269.805 324.800 248.748 L 324.800 227.691 323.500 227.430 C 315.619 225.851,313.434 225.579,306.700 225.340 L 300.400 225.116 300.371 274.658 M66.879 282.175 C 64.244 283.131,62.251 286.695,63.204 288.747 C 64.602 291.753,64.631 291.782,67.725 293.234 C 68.609 293.649,69.014 293.659,69.619 293.281 C 70.043 293.016,70.640 292.800,70.947 292.800 C 71.708 292.800,74.000 290.401,74.000 289.604 C 74.000 289.250,74.211 288.749,74.468 288.492 C 75.115 287.845,74.145 284.894,72.892 283.694 C 70.979 281.862,69.070 281.380,66.879 282.175 M329.031 282.415 C 327.128 283.365,326.000 284.514,326.000 285.503 C 326.000 285.908,325.802 286.438,325.560 286.680 C 324.583 287.657,327.545 292.800,329.084 292.800 C 329.374 292.800,329.968 293.023,330.405 293.296 C 331.038 293.691,331.362 293.691,331.995 293.296 C 332.432 293.023,333.091 292.800,333.459 292.800 C 335.216 292.800,337.824 287.891,336.875 286.372 C 336.614 285.953,336.400 285.370,336.400 285.075 C 336.400 282.815,331.659 281.103,329.031 282.415 " stroke="none" fill="#faba44" fill-rule="evenodd"></path><path id="path1" d="M112.667 212.667 C 112.520 212.813,112.400 249.353,112.400 293.867 L 112.400 374.800 118.600 374.800 L 124.800 374.800 124.800 293.600 L 124.800 212.400 118.867 212.400 C 115.603 212.400,112.813 212.520,112.667 212.667 M275.200 293.590 L 275.200 374.800 281.400 374.800 L 287.600 374.800 287.600 361.374 C 287.600 352.213,287.743 347.670,288.050 347.074 C 288.889 345.444,290.073 344.467,291.839 343.945 L 293.600 343.425 293.600 337.313 L 293.600 331.200 292.538 331.200 C 291.350 331.200,289.078 329.634,288.305 328.284 C 287.907 327.588,287.758 315.216,287.600 270.000 L 287.400 212.600 281.300 212.490 L 275.200 212.379 275.200 293.590 " stroke="none" fill="#34648c" fill-rule="evenodd"></path><path id="path2" d="M185.075 12.258 C 184.819 12.514,183.175 12.730,176.000 13.450 C 174.790 13.571,173.629 13.835,173.420 14.035 C 173.211 14.236,172.176 14.400,171.120 14.400 C 170.064 14.400,169.200 14.580,169.200 14.800 C 169.200 15.020,168.401 15.200,167.424 15.200 C 166.447 15.200,165.536 15.380,165.400 15.600 C 165.264 15.820,164.544 16.000,163.800 16.000 C 163.056 16.000,162.336 16.180,162.200 16.400 C 162.064 16.620,161.333 16.800,160.576 16.800 C 159.819 16.800,159.200 16.980,159.200 17.200 C 159.200 17.420,158.660 17.600,158.000 17.600 C 157.340 17.600,156.800 17.780,156.800 18.000 C 156.800 18.220,156.258 18.400,155.595 18.400 C 154.932 18.400,154.032 18.580,153.595 18.800 C 153.158 19.020,152.442 19.380,152.005 19.600 C 151.568 19.820,150.859 20.000,150.429 20.000 C 149.999 20.000,149.536 20.180,149.400 20.400 C 149.264 20.620,148.713 20.800,148.176 20.800 C 147.639 20.800,147.200 20.980,147.200 21.200 C 147.200 21.420,146.750 21.600,146.200 21.600 C 145.650 21.600,145.200 21.780,145.200 22.000 C 145.200 22.220,144.840 22.400,144.400 22.400 C 143.960 22.400,143.600 22.580,143.600 22.800 C 143.600 23.020,143.060 23.200,142.400 23.200 C 141.740 23.200,141.200 23.380,141.200 23.600 C 141.200 23.820,140.840 24.000,140.400 24.000 C 139.960 24.000,139.600 24.180,139.600 24.400 C 139.600 24.620,139.240 24.800,138.800 24.800 C 138.360 24.800,138.000 24.980,138.000 25.200 C 138.000 25.420,137.561 25.600,137.024 25.600 C 136.487 25.600,135.936 25.780,135.800 26.000 C 135.664 26.220,135.203 26.400,134.776 26.400 C 134.349 26.400,134.000 26.580,134.000 26.800 C 134.000 27.020,133.739 27.200,133.420 27.200 C 132.636 27.200,127.200 30.061,127.200 30.473 C 127.200 30.653,126.840 30.800,126.400 30.800 C 125.960 30.800,125.600 30.980,125.600 31.200 C 125.600 31.420,125.240 31.600,124.800 31.600 C 124.360 31.600,124.000 31.780,124.000 32.000 C 124.000 32.220,123.764 32.400,123.475 32.400 C 123.187 32.400,122.564 32.760,122.092 33.200 C 121.620 33.640,121.038 34.000,120.800 34.000 C 120.562 34.000,119.980 34.360,119.508 34.800 C 119.036 35.240,118.413 35.600,118.125 35.600 C 117.836 35.600,117.600 35.780,117.600 36.000 C 117.600 36.220,117.330 36.400,117.000 36.400 C 116.670 36.400,116.400 36.580,116.400 36.800 C 116.400 37.020,116.130 37.200,115.800 37.200 C 115.470 37.200,115.200 37.380,115.200 37.600 C 115.200 37.820,114.930 38.000,114.600 38.000 C 114.270 38.000,114.000 38.180,114.000 38.400 C 114.000 38.620,113.770 38.800,113.488 38.800 C 113.207 38.800,112.717 39.160,112.400 39.600 C 112.083 40.040,111.633 40.400,111.400 40.400 C 111.167 40.400,110.717 40.760,110.400 41.200 C 110.083 41.640,109.638 42.000,109.412 42.000 C 109.185 42.001,108.460 42.447,107.800 42.993 C 106.045 44.443,105.931 44.531,104.400 45.598 C 103.630 46.135,102.366 47.210,101.590 47.987 C 100.815 48.764,99.429 49.986,98.510 50.703 C 97.591 51.420,96.155 52.742,95.320 53.641 C 94.484 54.539,92.315 56.785,90.500 58.632 C 88.685 60.478,87.200 62.093,87.200 62.220 C 87.200 62.348,86.300 63.329,85.200 64.400 C 84.100 65.471,83.200 66.513,83.200 66.715 C 83.200 66.916,82.703 67.603,82.096 68.241 C 81.488 68.878,80.548 70.030,80.007 70.800 C 79.465 71.570,78.702 72.549,78.311 72.975 C 77.920 73.402,77.600 73.979,77.600 74.257 C 77.600 74.536,77.150 75.214,76.600 75.764 C 76.050 76.314,75.600 76.952,75.600 77.182 C 75.600 77.412,75.420 77.600,75.200 77.600 C 74.980 77.600,74.800 77.870,74.800 78.200 C 74.800 78.530,74.620 78.800,74.400 78.800 C 74.180 78.800,74.000 79.070,74.000 79.400 C 74.000 79.730,73.820 80.000,73.600 80.000 C 73.380 80.000,73.200 80.236,73.200 80.525 C 73.200 80.813,72.840 81.436,72.400 81.908 C 71.960 82.380,71.600 82.962,71.600 83.200 C 71.600 83.438,71.240 84.020,70.800 84.492 C 70.360 84.964,70.000 85.587,70.000 85.875 C 70.000 86.164,69.820 86.400,69.600 86.400 C 69.380 86.400,69.200 86.760,69.200 87.200 C 69.200 87.640,69.020 88.000,68.800 88.000 C 68.580 88.000,68.400 88.278,68.400 88.617 C 68.400 88.956,68.040 89.620,67.600 90.092 C 67.160 90.564,66.800 91.187,66.800 91.475 C 66.800 91.764,66.620 92.000,66.400 92.000 C 66.180 92.000,66.000 92.360,66.000 92.800 C 66.000 93.240,65.820 93.600,65.600 93.600 C 65.380 93.600,65.200 93.960,65.200 94.400 C 65.200 94.840,65.064 95.200,64.898 95.200 C 64.731 95.200,64.360 95.785,64.071 96.500 C 63.783 97.215,63.379 98.113,63.174 98.495 C 62.968 98.877,62.800 99.462,62.800 99.795 C 62.800 100.128,62.620 100.400,62.400 100.400 C 62.180 100.400,62.000 100.665,62.000 100.988 C 62.000 101.311,61.661 102.179,61.247 102.916 C 60.833 103.653,60.368 105.008,60.212 105.928 C 60.057 106.848,59.766 107.600,59.565 107.600 C 59.364 107.600,59.200 108.140,59.200 108.800 C 59.200 109.460,59.020 110.000,58.800 110.000 C 58.580 110.000,58.400 110.349,58.400 110.776 C 58.400 111.203,58.220 111.664,58.000 111.800 C 57.780 111.936,57.600 112.476,57.600 113.000 C 57.600 113.524,57.420 114.064,57.200 114.200 C 56.980 114.336,56.800 114.887,56.800 115.424 C 56.800 115.961,56.620 116.400,56.400 116.400 C 56.180 116.400,56.000 117.030,56.000 117.800 C 56.000 118.570,55.820 119.200,55.600 119.200 C 55.380 119.200,55.200 119.740,55.200 120.400 C 55.200 121.060,55.020 121.600,54.800 121.600 C 54.580 121.600,54.400 122.320,54.400 123.200 C 54.400 124.080,54.220 124.800,54.000 124.800 C 53.780 124.800,53.600 125.520,53.600 126.400 C 53.600 127.280,53.420 128.000,53.200 128.000 C 52.980 128.000,52.800 128.810,52.800 129.800 C 52.800 130.790,52.620 131.600,52.400 131.600 C 52.180 131.600,52.000 132.500,52.000 133.600 C 52.000 134.700,51.820 135.600,51.600 135.600 C 51.378 135.600,51.200 136.659,51.200 137.976 C 51.200 139.283,51.020 140.464,50.800 140.600 C 50.580 140.736,50.400 142.176,50.400 143.800 C 50.400 145.424,50.220 146.864,50.000 147.000 C 49.743 147.159,49.600 153.937,49.600 166.024 C 49.600 178.275,49.739 184.800,50.000 184.800 C 50.220 184.800,50.400 185.030,50.400 185.312 C 50.400 185.593,50.782 186.088,51.249 186.412 C 51.716 186.735,52.333 187.225,52.620 187.500 C 52.974 187.838,54.572 188.000,57.564 188.000 L 61.984 188.000 62.195 206.700 C 62.311 216.985,62.450 235.480,62.503 247.800 L 62.600 270.200 61.285 270.857 C 49.282 276.852,46.704 291.265,56.000 300.400 C 59.029 303.376,61.323 304.654,65.277 305.567 C 77.595 308.411,89.879 295.731,86.637 283.520 C 85.035 277.486,81.201 272.866,76.100 270.824 L 74.800 270.303 74.800 248.751 L 74.800 227.200 75.776 227.200 C 76.313 227.200,76.852 227.039,76.974 226.842 C 77.095 226.645,77.871 226.384,78.697 226.262 C 79.524 226.140,81.460 225.813,83.000 225.535 C 84.548 225.256,89.020 225.023,93.000 225.015 L 100.200 225.000 100.200 293.800 L 100.200 362.600 76.600 362.718 C 53.399 362.834,50.557 362.719,47.000 361.523 C 35.469 357.645,27.721 348.992,25.219 337.200 C 24.607 334.314,24.875 286.057,25.521 282.800 C 25.761 281.590,26.157 279.700,26.401 278.600 C 26.645 277.500,26.944 276.013,27.066 275.296 C 27.188 274.579,27.449 273.894,27.644 273.773 C 27.840 273.652,28.000 273.124,28.000 272.600 C 28.000 272.076,28.180 271.536,28.400 271.400 C 28.620 271.264,28.800 270.801,28.800 270.371 C 28.800 269.941,28.960 269.277,29.157 268.895 C 29.353 268.513,30.448 266.220,31.590 263.800 C 35.015 256.545,38.554 251.518,44.686 245.200 C 49.562 240.175,50.250 238.390,48.566 235.133 C 48.217 234.459,48.020 233.568,48.128 233.153 C 48.252 232.679,48.117 232.400,47.763 232.400 C 47.453 232.400,47.200 232.220,47.200 232.000 C 47.200 231.780,46.840 231.600,46.400 231.600 C 45.960 231.600,45.600 231.420,45.600 231.200 C 45.600 230.980,44.711 230.800,43.624 230.800 C 42.537 230.800,41.536 230.980,41.400 231.200 C 41.264 231.420,40.896 231.600,40.583 231.600 C 40.006 231.600,37.707 233.524,35.441 235.903 C 30.344 241.253,29.200 242.555,29.200 243.004 C 29.200 243.285,28.928 243.619,28.597 243.746 C 28.265 243.873,27.774 244.478,27.506 245.089 C 27.238 245.700,26.743 246.470,26.407 246.800 C 26.070 247.130,25.540 247.895,25.230 248.500 C 24.919 249.105,24.515 249.600,24.332 249.600 C 24.150 249.600,24.000 249.878,24.000 250.217 C 24.000 250.556,23.640 251.220,23.200 251.692 C 22.760 252.164,22.400 252.787,22.400 253.075 C 22.400 253.364,22.220 253.600,22.000 253.600 C 21.780 253.600,21.600 253.960,21.600 254.400 C 21.600 254.840,21.420 255.200,21.200 255.200 C 20.980 255.200,20.800 255.560,20.800 256.000 C 20.800 256.440,20.620 256.800,20.400 256.800 C 20.180 256.800,20.000 257.160,20.000 257.600 C 20.000 258.040,19.820 258.400,19.600 258.400 C 19.380 258.400,19.200 258.760,19.200 259.200 C 19.200 259.640,19.020 260.000,18.800 260.000 C 18.580 260.000,18.400 260.450,18.400 261.000 C 18.400 261.550,18.220 262.000,18.000 262.000 C 17.780 262.000,17.600 262.349,17.600 262.776 C 17.600 263.203,17.420 263.664,17.200 263.800 C 16.980 263.936,16.800 264.487,16.800 265.024 C 16.800 265.561,16.620 266.000,16.400 266.000 C 16.180 266.000,16.000 266.540,16.000 267.200 C 16.000 267.860,15.820 268.400,15.600 268.400 C 15.380 268.400,15.200 268.940,15.200 269.600 C 15.200 270.260,15.020 270.800,14.800 270.800 C 14.580 270.800,14.400 271.520,14.400 272.400 C 14.400 273.280,14.220 274.000,14.000 274.000 C 13.780 274.000,13.600 274.799,13.600 275.776 C 13.600 276.753,13.420 277.664,13.200 277.800 C 12.980 277.936,12.800 279.016,12.800 280.200 C 12.800 281.384,12.620 282.464,12.400 282.600 C 11.849 282.941,11.849 339.059,12.400 339.400 C 12.620 339.536,12.800 340.346,12.800 341.200 C 12.800 342.054,12.980 342.864,13.200 343.000 C 13.420 343.136,13.600 343.777,13.600 344.424 C 13.600 345.071,13.780 345.600,14.000 345.600 C 14.220 345.600,14.400 346.140,14.400 346.800 C 14.400 347.460,14.580 348.000,14.800 348.000 C 15.020 348.000,15.200 348.360,15.200 348.800 C 15.200 349.240,15.380 349.600,15.600 349.600 C 15.820 349.600,16.000 349.960,16.000 350.400 C 16.000 350.840,16.180 351.200,16.400 351.200 C 16.620 351.200,16.800 351.560,16.800 352.000 C 16.800 352.440,16.980 352.800,17.200 352.800 C 17.420 352.800,17.600 353.160,17.600 353.600 C 17.600 354.040,17.780 354.400,18.000 354.400 C 18.220 354.400,18.400 354.670,18.400 355.000 C 18.400 355.330,18.580 355.600,18.800 355.600 C 19.020 355.600,19.200 355.778,19.200 355.995 C 19.200 356.553,20.103 357.598,24.100 361.668 C 26.025 363.627,27.600 365.374,27.600 365.548 C 27.600 365.722,28.095 366.119,28.700 366.430 C 29.305 366.740,30.070 367.267,30.400 367.600 C 30.730 367.933,31.495 368.460,32.100 368.770 C 32.705 369.081,33.200 369.485,33.200 369.668 C 33.200 369.850,33.560 370.000,34.000 370.000 C 34.440 370.000,34.800 370.180,34.800 370.400 C 34.800 370.620,35.160 370.800,35.600 370.800 C 36.040 370.800,36.400 370.980,36.400 371.200 C 36.400 371.420,36.760 371.600,37.200 371.600 C 37.640 371.600,38.000 371.747,38.000 371.928 C 38.000 372.108,38.900 372.500,40.000 372.800 C 41.100 373.100,42.000 373.472,42.000 373.629 C 42.000 373.785,42.585 374.012,43.300 374.134 C 44.015 374.256,45.500 374.535,46.600 374.754 C 47.794 374.992,58.880 375.162,74.100 375.176 L 99.600 375.200 99.600 377.376 C 99.600 378.573,99.780 379.664,100.000 379.800 C 100.220 379.936,100.400 380.397,100.400 380.824 C 100.400 381.251,100.550 381.600,100.732 381.600 C 100.915 381.600,101.320 382.095,101.632 382.700 C 102.280 383.955,103.797 385.600,104.306 385.600 C 104.495 385.600,104.998 385.915,105.425 386.300 C 107.070 387.785,108.761 388.000,118.800 388.000 C 128.839 388.000,130.530 387.785,132.175 386.300 C 132.602 385.915,133.115 385.600,133.315 385.600 C 133.845 385.600,135.917 383.292,136.206 382.380 C 136.343 381.951,136.622 381.600,136.827 381.600 C 137.032 381.600,137.200 381.276,137.200 380.880 C 137.200 380.484,137.363 379.989,137.563 379.780 C 138.416 378.887,138.502 371.039,138.502 293.800 C 138.502 216.561,138.416 208.713,137.563 207.820 C 137.363 207.611,137.200 207.116,137.200 206.720 C 137.200 206.324,137.032 206.000,136.827 206.000 C 136.622 206.000,136.343 205.649,136.206 205.220 C 135.879 204.189,134.073 202.341,132.700 201.632 C 132.095 201.320,131.600 200.915,131.600 200.732 C 131.600 200.550,131.251 200.400,130.824 200.400 C 130.397 200.400,129.936 200.220,129.800 200.000 C 129.464 199.456,108.136 199.456,107.800 200.000 C 107.664 200.220,107.203 200.400,106.776 200.400 C 106.349 200.400,106.000 200.550,106.000 200.732 C 106.000 200.915,105.505 201.320,104.900 201.632 C 104.295 201.945,103.440 202.560,103.000 203.000 C 102.560 203.440,101.945 204.295,101.632 204.900 C 101.320 205.505,100.915 206.000,100.732 206.000 C 100.550 206.000,100.400 206.349,100.400 206.776 C 100.400 207.203,100.220 207.664,100.000 207.800 C 99.780 207.936,99.600 208.930,99.600 210.008 L 99.600 211.969 91.300 212.155 C 82.046 212.363,78.000 212.691,78.000 213.236 C 78.000 213.436,77.370 213.600,76.600 213.600 L 75.200 213.600 75.200 200.800 L 75.200 188.000 79.853 188.000 L 84.505 188.000 86.240 186.265 L 87.975 184.530 88.178 173.365 C 88.472 157.149,88.790 149.851,89.221 149.420 C 89.429 149.211,89.600 147.942,89.600 146.600 C 89.600 145.258,89.763 143.989,89.961 143.780 C 90.160 143.571,90.424 142.590,90.549 141.600 C 91.211 136.336,91.780 133.200,92.072 133.200 C 92.252 133.200,92.400 132.660,92.400 132.000 C 92.400 131.340,92.580 130.800,92.800 130.800 C 93.020 130.800,93.200 130.271,93.200 129.624 C 93.200 128.977,93.380 128.336,93.600 128.200 C 93.820 128.064,94.000 127.513,94.000 126.976 C 94.000 126.439,94.180 126.000,94.400 126.000 C 94.620 126.000,94.800 125.460,94.800 124.800 C 94.800 124.140,94.980 123.600,95.200 123.600 C 95.420 123.600,95.600 123.150,95.600 122.600 C 95.600 122.050,95.780 121.600,96.000 121.600 C 96.220 121.600,96.400 121.251,96.400 120.824 C 96.400 120.397,96.580 119.936,96.800 119.800 C 97.020 119.664,97.200 119.113,97.200 118.576 C 97.200 118.039,97.380 117.600,97.600 117.600 C 97.820 117.600,98.000 117.240,98.000 116.800 C 98.000 116.360,98.180 116.000,98.400 116.000 C 98.620 116.000,98.800 115.640,98.800 115.200 C 98.800 114.760,98.980 114.400,99.200 114.400 C 99.420 114.400,99.600 114.040,99.600 113.600 C 99.600 113.160,99.780 112.800,100.000 112.800 C 100.220 112.800,100.400 112.440,100.400 112.000 C 100.400 111.560,100.580 111.200,100.800 111.200 C 101.020 111.200,101.200 110.840,101.200 110.400 C 101.200 109.960,101.380 109.600,101.600 109.600 C 101.820 109.600,102.000 109.407,102.000 109.172 C 102.000 108.937,102.540 107.959,103.200 107.000 C 103.860 106.041,104.400 105.141,104.400 105.000 C 104.400 104.859,104.940 103.959,105.600 103.000 C 106.260 102.041,106.800 101.063,106.800 100.828 C 106.800 100.593,106.952 100.400,107.137 100.400 C 107.322 100.400,107.817 99.725,108.237 98.900 C 108.657 98.075,109.315 97.109,109.700 96.753 C 110.085 96.397,110.400 95.905,110.400 95.660 C 110.400 95.414,111.075 94.484,111.900 93.592 C 115.637 89.553,116.307 88.804,118.000 86.777 C 118.990 85.592,120.677 83.807,121.748 82.811 C 122.820 81.815,124.803 79.920,126.155 78.600 C 127.508 77.280,129.061 75.968,129.607 75.684 C 130.153 75.401,131.209 74.636,131.954 73.984 C 132.699 73.333,133.456 72.800,133.636 72.800 C 133.816 72.800,134.377 72.395,134.882 71.900 C 135.387 71.405,136.295 70.745,136.900 70.432 C 137.505 70.120,138.000 69.715,138.000 69.532 C 138.000 69.350,138.236 69.200,138.525 69.200 C 138.813 69.200,139.436 68.840,139.908 68.400 C 140.380 67.960,140.954 67.600,141.183 67.600 C 141.412 67.600,141.600 67.420,141.600 67.200 C 141.600 66.980,141.920 66.800,142.312 66.800 C 142.703 66.800,143.283 66.440,143.600 66.000 C 143.917 65.560,144.497 65.200,144.888 65.200 C 145.280 65.200,145.600 65.020,145.600 64.800 C 145.600 64.580,145.960 64.400,146.400 64.400 C 146.840 64.400,147.200 64.220,147.200 64.000 C 147.200 63.780,147.560 63.600,148.000 63.600 C 148.440 63.600,148.800 63.420,148.800 63.200 C 148.800 62.980,149.160 62.800,149.600 62.800 C 150.040 62.800,150.400 62.620,150.400 62.400 C 150.400 62.180,150.760 62.000,151.200 62.000 C 151.640 62.000,152.000 61.820,152.000 61.600 C 152.000 61.380,152.360 61.200,152.800 61.200 C 153.240 61.200,153.600 61.020,153.600 60.800 C 153.600 60.580,153.960 60.400,154.400 60.400 C 154.840 60.400,155.200 60.220,155.200 60.000 C 155.200 59.780,155.650 59.600,156.200 59.600 C 156.750 59.600,157.200 59.420,157.200 59.200 C 157.200 58.980,157.416 58.800,157.680 58.800 C 158.612 58.800,162.800 57.419,162.800 57.111 C 162.800 56.940,163.329 56.800,163.976 56.800 C 164.623 56.800,165.264 56.620,165.400 56.400 C 165.536 56.180,166.076 56.000,166.600 56.000 C 167.124 56.000,167.664 55.820,167.800 55.600 C 167.936 55.380,168.566 55.200,169.200 55.200 C 169.834 55.200,170.464 55.020,170.600 54.800 C 170.736 54.580,171.467 54.400,172.224 54.400 C 172.981 54.400,173.600 54.220,173.600 54.000 C 173.600 53.780,174.309 53.600,175.176 53.600 C 176.043 53.600,176.864 53.420,177.000 53.200 C 177.136 52.980,178.126 52.800,179.200 52.800 C 180.274 52.800,181.264 52.620,181.400 52.400 C 181.536 52.180,182.796 52.000,184.200 52.000 C 185.604 52.000,186.864 51.820,187.000 51.600 C 187.145 51.365,189.471 51.200,192.624 51.200 C 195.941 51.200,198.000 51.047,198.000 50.800 C 198.000 50.580,198.900 50.400,200.000 50.400 C 201.100 50.400,202.000 50.580,202.000 50.800 C 202.000 51.048,204.133 51.200,207.600 51.200 C 211.067 51.200,213.200 51.352,213.200 51.600 C 213.200 51.825,214.325 52.000,215.776 52.000 C 217.193 52.000,218.464 52.180,218.600 52.400 C 218.736 52.620,219.726 52.800,220.800 52.800 C 221.874 52.800,222.864 52.980,223.000 53.200 C 223.136 53.420,223.957 53.600,224.824 53.600 C 225.691 53.600,226.400 53.780,226.400 54.000 C 226.400 54.220,227.019 54.400,227.776 54.400 C 228.533 54.400,229.264 54.580,229.400 54.800 C 229.536 55.020,230.166 55.200,230.800 55.200 C 231.434 55.200,232.064 55.380,232.200 55.600 C 232.336 55.820,232.876 56.000,233.400 56.000 C 233.924 56.000,234.464 56.180,234.600 56.400 C 234.736 56.620,235.199 56.800,235.629 56.800 C 236.059 56.800,236.723 56.974,237.105 57.187 C 238.049 57.714,241.490 58.800,242.214 58.800 C 242.536 58.800,242.800 58.980,242.800 59.200 C 242.800 59.420,243.250 59.600,243.800 59.600 C 244.350 59.600,244.800 59.780,244.800 60.000 C 244.800 60.220,245.160 60.400,245.600 60.400 C 246.040 60.400,246.400 60.580,246.400 60.800 C 246.400 61.020,246.760 61.200,247.200 61.200 C 247.640 61.200,248.000 61.380,248.000 61.600 C 248.000 61.820,248.360 62.000,248.800 62.000 C 249.240 62.000,249.600 62.180,249.600 62.400 C 249.600 62.620,249.960 62.800,250.400 62.800 C 250.840 62.800,251.200 62.980,251.200 63.200 C 251.200 63.420,251.560 63.600,252.000 63.600 C 252.440 63.600,252.800 63.780,252.800 64.000 C 252.800 64.220,253.160 64.400,253.600 64.400 C 254.040 64.400,254.400 64.580,254.400 64.800 C 254.400 65.020,254.636 65.200,254.925 65.200 C 255.213 65.200,255.836 65.560,256.308 66.000 C 256.780 66.440,257.444 66.800,257.783 66.800 C 258.122 66.800,258.400 66.980,258.400 67.200 C 258.400 67.420,258.717 67.600,259.104 67.600 C 259.491 67.600,260.032 67.960,260.307 68.400 C 260.582 68.840,261.075 69.200,261.403 69.200 C 261.732 69.200,262.000 69.350,262.000 69.532 C 262.000 69.715,262.495 70.120,263.100 70.432 C 263.705 70.745,264.613 71.405,265.118 71.900 C 265.623 72.395,266.184 72.800,266.364 72.800 C 266.544 72.800,267.301 73.337,268.046 73.994 C 268.791 74.650,269.625 75.190,269.900 75.194 C 270.175 75.197,270.400 75.380,270.400 75.600 C 270.400 75.820,270.583 76.000,270.807 76.000 C 271.174 76.000,272.377 77.096,278.400 82.916 C 279.390 83.873,280.968 85.543,281.907 86.628 C 284.360 89.462,286.802 92.198,288.300 93.791 C 289.015 94.551,289.600 95.361,289.600 95.590 C 289.600 95.820,290.140 96.572,290.800 97.263 C 291.460 97.954,292.000 98.722,292.000 98.971 C 292.000 99.220,292.360 99.683,292.800 100.000 C 293.240 100.317,293.600 100.824,293.600 101.126 C 293.600 101.429,294.590 103.293,295.800 105.270 C 297.010 107.247,298.000 109.030,298.000 109.232 C 298.000 109.434,298.180 109.600,298.400 109.600 C 298.620 109.600,298.800 109.960,298.800 110.400 C 298.800 110.840,298.980 111.200,299.200 111.200 C 299.420 111.200,299.600 111.560,299.600 112.000 C 299.600 112.440,299.780 112.800,300.000 112.800 C 300.220 112.800,300.400 113.160,300.400 113.600 C 300.400 114.040,300.580 114.400,300.800 114.400 C 301.020 114.400,301.200 114.760,301.200 115.200 C 301.200 115.640,301.380 116.000,301.600 116.000 C 301.820 116.000,302.000 116.360,302.000 116.800 C 302.000 117.240,302.180 117.600,302.400 117.600 C 302.620 117.600,302.800 118.039,302.800 118.576 C 302.800 119.113,302.980 119.664,303.200 119.800 C 303.420 119.936,303.600 120.397,303.600 120.824 C 303.600 121.251,303.780 121.600,304.000 121.600 C 304.220 121.600,304.400 122.050,304.400 122.600 C 304.400 123.150,304.580 123.600,304.800 123.600 C 305.020 123.600,305.200 124.140,305.200 124.800 C 305.200 125.460,305.380 126.000,305.600 126.000 C 305.820 126.000,306.000 126.439,306.000 126.976 C 306.000 127.513,306.180 128.064,306.400 128.200 C 306.620 128.336,306.800 128.977,306.800 129.624 C 306.800 130.271,306.980 130.800,307.200 130.800 C 307.420 130.800,307.600 131.340,307.600 132.000 C 307.600 132.660,307.780 133.200,308.000 133.200 C 308.220 133.200,308.400 133.920,308.400 134.800 C 308.400 135.680,308.580 136.400,308.800 136.400 C 309.020 136.400,309.200 137.210,309.200 138.200 C 309.200 139.190,309.357 140.000,309.549 140.000 C 310.372 140.000,311.540 156.725,311.831 172.703 L 312.044 184.407 313.742 186.203 L 315.439 188.000 320.119 188.000 L 324.800 188.000 324.800 200.800 L 324.800 213.600 323.680 213.600 C 323.064 213.600,322.389 213.436,322.180 213.235 C 321.584 212.663,317.688 212.350,308.700 212.152 L 300.400 211.969 300.400 209.785 C 300.400 208.583,300.220 207.600,300.000 207.600 C 299.780 207.600,299.600 207.240,299.600 206.800 C 299.600 206.360,299.420 206.000,299.200 206.000 C 298.980 206.000,298.800 205.752,298.800 205.448 C 298.800 204.709,295.892 201.747,294.838 201.412 C 294.377 201.266,294.000 200.978,294.000 200.773 C 294.000 200.568,293.651 200.400,293.224 200.400 C 292.797 200.400,292.336 200.220,292.200 200.000 C 292.045 199.749,287.937 199.600,281.200 199.600 C 274.463 199.600,270.355 199.749,270.200 200.000 C 270.064 200.220,269.603 200.400,269.176 200.400 C 268.749 200.400,268.400 200.538,268.400 200.706 C 268.400 200.874,267.702 201.443,266.848 201.970 C 265.994 202.498,264.998 203.434,264.634 204.050 C 264.270 204.667,263.753 205.402,263.486 205.685 C 261.987 207.273,262.000 206.503,262.000 293.800 C 262.000 381.097,261.987 380.327,263.486 381.915 C 263.753 382.198,264.273 382.938,264.640 383.560 C 265.008 384.183,265.817 384.992,266.440 385.360 C 267.062 385.727,267.802 386.247,268.085 386.514 C 269.418 387.772,271.504 388.000,281.705 388.000 C 288.105 388.000,292.046 387.850,292.200 387.600 C 292.336 387.380,292.797 387.200,293.224 387.200 C 293.651 387.200,294.000 387.032,294.000 386.827 C 294.000 386.622,294.377 386.334,294.838 386.188 C 295.892 385.853,298.800 382.891,298.800 382.152 C 298.800 381.848,298.980 381.600,299.200 381.600 C 299.420 381.600,299.600 381.251,299.600 380.824 C 299.600 380.397,299.780 379.936,300.000 379.800 C 300.220 379.664,300.400 378.583,300.400 377.397 L 300.400 375.241 327.580 375.121 C 348.660 375.027,354.873 374.888,355.260 374.500 C 355.535 374.225,356.176 374.000,356.685 374.000 C 357.194 374.000,357.968 373.820,358.405 373.600 C 358.842 373.380,359.558 373.020,359.995 372.800 C 360.432 372.580,361.062 372.400,361.395 372.400 C 361.728 372.400,362.000 372.220,362.000 372.000 C 362.000 371.780,362.360 371.600,362.800 371.600 C 363.240 371.600,363.600 371.420,363.600 371.200 C 363.600 370.980,363.960 370.800,364.400 370.800 C 364.840 370.800,365.200 370.620,365.200 370.400 C 365.200 370.180,365.560 370.000,366.000 370.000 C 366.440 370.000,366.800 369.820,366.800 369.600 C 366.800 369.380,367.036 369.200,367.325 369.200 C 367.613 369.200,368.198 368.880,368.625 368.489 C 369.051 368.098,370.030 367.340,370.800 366.803 C 371.570 366.267,372.830 365.143,373.600 364.305 C 374.370 363.467,375.990 361.728,377.200 360.439 C 380.050 357.405,380.800 356.479,380.800 355.995 C 380.800 355.778,380.980 355.600,381.200 355.600 C 381.420 355.600,381.600 355.330,381.600 355.000 C 381.600 354.670,381.780 354.400,382.000 354.400 C 382.220 354.400,382.400 354.040,382.400 353.600 C 382.400 353.160,382.580 352.800,382.800 352.800 C 383.020 352.800,383.200 352.440,383.200 352.000 C 383.200 351.560,383.380 351.200,383.600 351.200 C 383.820 351.200,384.000 350.840,384.000 350.400 C 384.000 349.960,384.180 349.600,384.400 349.600 C 384.620 349.600,384.800 349.240,384.800 348.800 C 384.800 348.360,384.980 348.000,385.200 348.000 C 385.420 348.000,385.600 347.460,385.600 346.800 C 385.600 346.140,385.780 345.600,386.000 345.600 C 386.220 345.600,386.400 345.060,386.400 344.400 C 386.400 343.740,386.580 343.200,386.800 343.200 C 387.020 343.200,387.200 342.401,387.200 341.424 C 387.200 340.447,387.380 339.536,387.600 339.400 C 388.151 339.059,388.151 282.941,387.600 282.600 C 387.380 282.464,387.200 281.384,387.200 280.200 C 387.200 279.016,387.020 277.936,386.800 277.800 C 386.580 277.664,386.400 276.753,386.400 275.776 C 386.400 274.799,386.220 274.000,386.000 274.000 C 385.780 274.000,385.600 273.280,385.600 272.400 C 385.600 271.520,385.420 270.800,385.200 270.800 C 384.980 270.800,384.800 270.260,384.800 269.600 C 384.800 268.940,384.620 268.400,384.400 268.400 C 384.180 268.400,384.000 267.860,384.000 267.200 C 384.000 266.540,383.820 266.000,383.600 266.000 C 383.380 266.000,383.200 265.561,383.200 265.024 C 383.200 264.487,383.020 263.936,382.800 263.800 C 382.580 263.664,382.400 263.203,382.400 262.776 C 382.400 262.349,382.220 262.000,382.000 262.000 C 381.780 262.000,381.600 261.550,381.600 261.000 C 381.600 260.450,381.420 260.000,381.200 260.000 C 380.980 260.000,380.800 259.640,380.800 259.200 C 380.800 258.760,380.620 258.400,380.400 258.400 C 380.180 258.400,380.000 258.040,380.000 257.600 C 380.000 257.160,379.820 256.800,379.600 256.800 C 379.380 256.800,379.200 256.440,379.200 256.000 C 379.200 255.560,379.020 255.200,378.800 255.200 C 378.580 255.200,378.400 254.840,378.400 254.400 C 378.400 253.960,378.220 253.600,378.000 253.600 C 377.780 253.600,377.600 253.364,377.600 253.075 C 377.600 252.787,377.240 252.164,376.800 251.692 C 376.360 251.220,376.000 250.556,376.000 250.217 C 376.000 249.878,375.832 249.600,375.627 249.600 C 375.422 249.600,375.135 249.225,374.989 248.766 C 374.652 247.703,371.596 243.600,371.142 243.600 C 370.954 243.600,370.800 243.327,370.800 242.993 C 370.800 242.659,369.675 241.225,368.300 239.807 C 366.925 238.389,365.242 236.638,364.559 235.915 C 362.341 233.564,359.999 231.600,359.417 231.600 C 359.104 231.600,358.736 231.420,358.600 231.200 C 358.464 230.980,357.564 230.800,356.600 230.800 C 355.636 230.800,354.736 230.980,354.600 231.200 C 354.464 231.420,354.081 231.600,353.748 231.600 C 352.980 231.600,352.000 232.566,352.000 233.323 C 352.000 233.641,351.730 234.549,351.400 235.338 C 350.009 238.667,350.684 240.575,354.606 244.400 C 360.993 250.629,365.915 257.831,369.943 266.840 C 371.115 269.463,372.800 274.597,372.800 275.547 C 372.800 275.990,372.961 276.452,373.158 276.574 C 373.355 276.695,373.619 277.471,373.746 278.297 C 373.873 279.124,374.186 280.970,374.442 282.400 C 375.122 286.198,375.413 334.234,374.774 337.200 C 372.324 348.573,365.674 356.512,355.000 360.806 C 350.249 362.717,348.944 362.800,323.700 362.800 L 300.000 362.800 300.000 356.820 C 300.000 348.096,299.252 345.669,296.200 344.494 C 292.806 343.188,290.226 343.814,288.514 346.359 C 287.607 347.708,287.600 347.817,287.600 361.259 L 287.600 374.800 281.400 374.800 L 275.200 374.800 275.200 293.590 L 275.200 212.379 281.300 212.490 L 287.400 212.600 287.600 270.000 C 287.817 332.387,287.644 328.277,290.143 330.184 C 292.279 331.813,296.245 331.360,298.136 329.271 C 300.024 327.185,300.000 327.886,300.000 274.705 L 300.000 224.738 307.500 224.936 C 315.273 225.142,317.547 225.428,324.100 227.025 L 325.200 227.293 325.200 248.775 L 325.200 270.257 323.100 271.201 C 315.985 274.398,311.435 283.913,313.403 291.480 C 318.037 309.301,340.287 311.043,348.370 294.219 C 351.442 287.824,347.749 275.337,342.000 272.681 C 341.670 272.529,340.500 271.904,339.400 271.293 L 337.400 270.181 337.286 248.791 C 337.167 226.629,337.238 224.800,338.218 224.800 C 338.719 224.800,338.800 222.234,338.800 206.400 L 338.800 188.000 342.853 188.000 L 346.905 188.000 348.653 186.253 L 350.400 184.505 350.400 166.076 C 350.400 154.222,350.257 147.559,350.000 147.400 C 349.780 147.264,349.600 145.824,349.600 144.200 C 349.600 142.576,349.420 141.136,349.200 141.000 C 348.980 140.864,348.800 139.694,348.800 138.400 C 348.800 137.106,348.620 135.936,348.400 135.800 C 348.180 135.664,348.000 134.663,348.000 133.576 C 348.000 132.489,347.820 131.600,347.600 131.600 C 347.380 131.600,347.200 130.790,347.200 129.800 C 347.200 128.810,347.020 128.000,346.800 128.000 C 346.580 128.000,346.400 127.280,346.400 126.400 C 346.400 125.520,346.220 124.800,346.000 124.800 C 345.780 124.800,345.600 124.181,345.600 123.424 C 345.600 122.667,345.420 121.936,345.200 121.800 C 344.980 121.664,344.800 121.023,344.800 120.376 C 344.800 119.729,344.620 119.200,344.400 119.200 C 344.180 119.200,344.000 118.671,344.000 118.024 C 344.000 117.377,343.820 116.736,343.600 116.600 C 343.380 116.464,343.200 115.913,343.200 115.376 C 343.200 114.839,343.020 114.400,342.800 114.400 C 342.580 114.400,342.400 113.860,342.400 113.200 C 342.400 112.540,342.220 112.000,342.000 112.000 C 341.780 112.000,341.600 111.694,341.600 111.320 C 341.600 110.238,340.255 106.000,339.911 106.000 C 339.740 106.000,339.600 105.561,339.600 105.024 C 339.600 104.487,339.420 103.936,339.200 103.800 C 338.980 103.664,338.800 103.203,338.800 102.776 C 338.800 102.349,338.620 102.000,338.400 102.000 C 338.180 102.000,338.000 101.640,338.000 101.200 C 338.000 100.760,337.820 100.400,337.600 100.400 C 337.380 100.400,337.200 100.128,337.200 99.795 C 337.200 99.462,337.032 98.877,336.826 98.495 C 336.621 98.113,336.217 97.215,335.929 96.500 C 335.640 95.785,335.269 95.200,335.102 95.200 C 334.936 95.200,334.800 94.855,334.800 94.433 C 334.800 94.012,334.665 93.607,334.500 93.533 C 334.335 93.460,333.767 92.545,333.237 91.500 C 332.708 90.455,332.123 89.600,331.937 89.600 C 331.752 89.600,331.600 89.240,331.600 88.800 C 331.600 88.360,331.420 88.000,331.200 88.000 C 330.980 88.000,330.800 87.640,330.800 87.200 C 330.800 86.760,330.620 86.400,330.400 86.400 C 330.180 86.400,330.000 86.164,330.000 85.875 C 330.000 85.587,329.640 84.964,329.200 84.492 C 328.760 84.020,328.400 83.396,328.400 83.105 C 328.400 82.814,328.040 82.317,327.600 82.000 C 327.160 81.683,326.800 81.103,326.800 80.712 C 326.800 80.320,326.620 80.000,326.400 80.000 C 326.180 80.000,326.000 79.730,326.000 79.400 C 326.000 79.070,325.820 78.800,325.600 78.800 C 325.380 78.800,325.200 78.608,325.200 78.373 C 325.200 77.908,323.186 75.082,322.700 74.867 C 322.535 74.793,322.400 74.505,322.400 74.226 C 322.400 73.947,321.860 73.154,321.200 72.463 C 320.540 71.772,320.000 71.063,320.000 70.888 C 320.000 70.712,319.280 69.772,318.400 68.800 C 317.520 67.828,316.800 66.886,316.800 66.707 C 316.800 66.529,315.855 65.410,314.700 64.221 C 313.545 63.032,311.700 61.046,310.600 59.808 C 307.311 56.108,303.019 51.807,301.375 50.565 C 300.527 49.924,298.853 48.455,297.655 47.300 C 296.456 46.145,295.351 45.200,295.199 45.200 C 294.956 45.200,294.314 44.723,292.517 43.207 C 292.251 42.983,291.935 42.800,291.813 42.800 C 291.692 42.800,291.028 42.260,290.337 41.600 C 289.646 40.940,288.878 40.400,288.629 40.400 C 288.380 40.400,287.917 40.040,287.600 39.600 C 287.283 39.160,286.838 38.800,286.612 38.799 C 286.385 38.799,285.570 38.259,284.800 37.600 C 284.030 36.941,283.175 36.401,282.900 36.401 C 282.625 36.400,282.400 36.220,282.400 36.000 C 282.400 35.780,282.080 35.600,281.688 35.600 C 281.297 35.600,280.717 35.240,280.400 34.800 C 280.083 34.360,279.503 34.000,279.112 34.000 C 278.720 34.000,278.400 33.850,278.400 33.668 C 278.400 33.485,277.905 33.080,277.300 32.768 C 276.695 32.456,276.110 32.111,276.000 32.001 C 275.890 31.890,275.080 31.419,274.200 30.954 C 273.320 30.489,271.405 29.454,269.945 28.654 C 268.484 27.854,266.999 27.200,266.645 27.200 C 266.290 27.200,266.000 27.020,266.000 26.800 C 266.000 26.580,265.640 26.400,265.200 26.400 C 264.760 26.400,264.400 26.220,264.400 26.000 C 264.400 25.780,263.860 25.600,263.200 25.600 C 262.540 25.600,262.000 25.420,262.000 25.200 C 262.000 24.980,261.640 24.800,261.200 24.800 C 260.760 24.800,260.400 24.620,260.400 24.400 C 260.400 24.180,260.040 24.000,259.600 24.000 C 259.160 24.000,258.800 23.820,258.800 23.600 C 258.800 23.380,258.350 23.200,257.800 23.200 C 257.250 23.200,256.800 23.020,256.800 22.800 C 256.800 22.580,256.451 22.400,256.024 22.400 C 255.597 22.400,255.136 22.220,255.000 22.000 C 254.864 21.780,254.313 21.600,253.776 21.600 C 253.239 21.600,252.800 21.420,252.800 21.200 C 252.800 20.980,252.438 20.800,251.995 20.800 C 251.217 20.800,250.831 20.658,248.905 19.662 C 248.413 19.408,247.569 19.200,247.029 19.200 C 246.489 19.200,245.936 19.020,245.800 18.800 C 245.664 18.580,245.023 18.400,244.376 18.400 C 243.729 18.400,243.200 18.220,243.200 18.000 C 243.200 17.780,242.660 17.600,242.000 17.600 C 241.340 17.600,240.800 17.420,240.800 17.200 C 240.800 16.980,240.181 16.800,239.424 16.800 C 238.667 16.800,237.936 16.620,237.800 16.400 C 237.664 16.180,236.944 16.000,236.200 16.000 C 235.456 16.000,234.736 15.820,234.600 15.600 C 234.464 15.380,233.553 15.200,232.576 15.200 C 231.599 15.200,230.800 15.020,230.800 14.800 C 230.800 14.580,229.911 14.400,228.824 14.400 C 227.737 14.400,226.736 14.220,226.600 14.000 C 226.464 13.780,225.409 13.600,224.256 13.600 C 223.103 13.600,221.989 13.434,221.780 13.231 C 220.973 12.448,185.817 11.516,185.075 12.258 M215.800 25.567 C 217.780 25.794,220.435 26.164,221.700 26.390 C 227.071 27.348,228.293 27.578,230.000 27.957 C 232.443 28.499,234.720 29.066,236.400 29.551 C 237.170 29.773,238.430 30.126,239.200 30.334 C 247.384 32.551,261.629 38.602,268.600 42.824 C 269.700 43.490,270.915 44.138,271.300 44.264 C 271.685 44.390,272.000 44.652,272.000 44.847 C 272.000 45.041,272.187 45.200,272.415 45.200 C 272.775 45.200,276.026 47.327,281.712 51.282 C 288.733 56.166,301.358 68.187,306.812 75.181 C 307.575 76.160,308.628 77.458,309.151 78.064 C 310.895 80.085,315.365 86.561,317.667 90.400 C 321.299 96.456,325.646 104.949,327.188 109.000 C 327.356 109.440,327.697 110.295,327.946 110.900 C 328.801 112.974,329.120 113.802,329.600 115.200 C 329.864 115.970,330.232 116.960,330.416 117.400 C 331.836 120.785,334.886 132.792,335.853 138.800 C 337.148 146.855,337.270 148.595,337.461 161.700 L 337.657 175.200 331.262 175.200 L 324.868 175.200 324.649 164.500 C 324.439 154.193,324.137 149.792,323.228 143.800 C 322.447 138.649,322.369 138.207,321.998 136.800 C 321.795 136.030,321.334 134.140,320.974 132.600 C 318.818 123.386,311.066 103.612,308.822 101.600 C 308.699 101.490,308.333 100.860,308.009 100.200 C 307.178 98.508,301.443 89.868,299.247 87.000 C 295.165 81.667,293.556 79.874,287.338 73.723 C 284.181 70.600,280.474 67.185,279.099 66.133 C 277.725 65.082,276.152 63.812,275.604 63.311 C 275.056 62.810,274.484 62.400,274.333 62.400 C 274.181 62.400,273.819 62.164,273.529 61.875 C 272.874 61.225,266.179 56.714,264.231 55.611 C 263.444 55.165,262.125 54.412,261.300 53.937 C 257.284 51.626,249.725 48.061,245.400 46.437 C 244.080 45.942,242.687 45.370,242.305 45.168 C 241.923 44.966,241.259 44.800,240.829 44.800 C 240.399 44.800,239.949 44.641,239.830 44.448 C 239.710 44.254,239.204 43.997,238.706 43.876 C 238.208 43.755,237.170 43.473,236.400 43.250 C 226.452 40.371,220.631 39.291,210.000 38.356 C 198.584 37.351,182.790 38.398,173.200 40.794 C 172.210 41.041,170.680 41.400,169.800 41.592 C 168.920 41.783,167.480 42.148,166.600 42.403 C 165.720 42.657,164.503 42.962,163.895 43.079 C 163.287 43.196,162.692 43.451,162.571 43.646 C 162.451 43.841,161.924 44.000,161.400 44.000 C 160.876 44.000,160.336 44.180,160.200 44.400 C 160.064 44.620,159.549 44.800,159.056 44.800 C 158.563 44.800,157.989 44.943,157.780 45.118 C 157.571 45.293,156.680 45.678,155.800 45.972 C 154.920 46.267,153.390 46.864,152.400 47.300 C 151.410 47.736,149.970 48.362,149.200 48.692 C 145.325 50.348,137.970 54.205,135.938 55.647 C 135.354 56.061,134.762 56.400,134.623 56.400 C 134.339 56.400,127.113 61.190,126.800 61.586 C 126.690 61.725,125.970 62.277,125.200 62.814 C 123.678 63.873,123.610 63.928,119.200 67.617 C 110.071 75.254,98.457 88.906,93.211 98.169 C 92.765 98.956,92.010 100.275,91.533 101.100 C 87.438 108.186,82.520 119.704,80.729 126.400 C 80.523 127.170,80.173 128.430,79.951 129.200 C 79.569 130.524,79.281 131.657,78.377 135.400 C 76.494 143.195,75.648 151.451,75.355 164.900 L 75.130 175.200 68.736 175.200 L 62.342 175.200 62.542 162.100 C 62.753 148.316,63.000 145.409,64.778 135.800 C 68.148 117.574,76.499 98.103,87.732 82.284 C 89.014 80.478,90.459 78.550,90.942 78.000 C 91.425 77.450,92.107 76.590,92.456 76.088 C 94.642 72.953,105.254 61.970,110.272 57.649 C 114.797 53.752,125.468 46.000,126.307 46.000 C 126.495 46.000,126.998 45.685,127.425 45.300 C 127.851 44.915,128.740 44.336,129.400 44.012 C 130.060 43.689,131.320 42.956,132.200 42.383 C 133.595 41.475,140.226 38.152,144.400 36.270 C 148.256 34.531,157.029 31.356,160.800 30.334 C 161.570 30.126,162.830 29.771,163.600 29.547 C 164.370 29.323,165.720 28.983,166.600 28.792 C 167.480 28.600,169.010 28.241,170.000 27.994 C 173.428 27.137,179.364 26.198,184.955 25.628 C 187.130 25.406,189.017 25.117,189.148 24.985 C 189.517 24.617,211.744 25.102,215.800 25.567 M124.800 293.600 L 124.800 374.800 118.600 374.800 L 112.400 374.800 112.400 293.867 C 112.400 249.353,112.520 212.813,112.667 212.667 C 112.813 212.520,115.603 212.400,118.867 212.400 L 124.800 212.400 124.800 293.600 M71.701 281.654 C 77.703 284.866,75.515 294.004,68.746 293.999 C 62.356 293.993,59.861 285.312,65.296 281.998 C 66.771 281.099,70.309 280.909,71.701 281.654 M334.704 281.998 C 338.126 284.084,338.720 289.358,335.849 292.170 C 329.852 298.044,320.822 289.069,326.614 282.990 C 328.529 280.980,332.280 280.520,334.704 281.998 " stroke="none" fill="#040404" fill-rule="evenodd"></path><path id="path3" d="M190.900 25.476 C 191.285 25.576,191.915 25.576,192.300 25.476 C 192.685 25.375,192.370 25.293,191.600 25.293 C 190.830 25.293,190.515 25.375,190.900 25.476 M207.700 25.476 C 208.085 25.576,208.715 25.576,209.100 25.476 C 209.485 25.375,209.170 25.293,208.400 25.293 C 207.630 25.293,207.315 25.375,207.700 25.476 M186.707 25.890 C 187.426 25.979,188.506 25.977,189.107 25.886 C 189.708 25.795,189.120 25.722,187.800 25.724 C 186.480 25.726,185.988 25.801,186.707 25.890 M211.107 25.890 C 211.826 25.979,212.906 25.977,213.507 25.886 C 214.108 25.795,213.520 25.722,212.200 25.724 C 210.880 25.726,210.388 25.801,211.107 25.890 M179.900 26.682 C 180.395 26.778,181.205 26.778,181.700 26.682 C 182.195 26.587,181.790 26.509,180.800 26.509 C 179.810 26.509,179.405 26.587,179.900 26.682 M218.705 26.683 C 219.202 26.779,219.922 26.775,220.305 26.675 C 220.687 26.575,220.280 26.496,219.400 26.501 C 218.520 26.505,218.207 26.587,218.705 26.683 M230.800 28.782 C 231.130 29.005,231.745 29.191,232.167 29.194 C 233.190 29.202,232.871 28.973,231.400 28.644 C 230.524 28.448,230.362 28.485,230.800 28.782 M163.200 30.018 C 162.762 30.315,162.924 30.352,163.800 30.156 C 165.271 29.827,165.590 29.598,164.567 29.606 C 164.145 29.609,163.530 29.795,163.200 30.018 M237.200 30.341 C 237.530 30.534,238.340 30.809,239.000 30.952 C 239.768 31.118,239.984 31.084,239.600 30.859 C 239.270 30.666,238.460 30.391,237.800 30.248 C 237.032 30.082,236.816 30.116,237.200 30.341 M160.400 30.818 C 159.962 31.115,160.124 31.152,161.000 30.956 C 162.471 30.627,162.790 30.398,161.767 30.406 C 161.345 30.409,160.730 30.595,160.400 30.818 M197.500 37.496 C 198.875 37.574,201.125 37.574,202.500 37.496 C 203.875 37.418,202.750 37.354,200.000 37.354 C 197.250 37.354,196.125 37.418,197.500 37.496 M189.300 37.876 C 189.685 37.976,190.315 37.976,190.700 37.876 C 191.085 37.775,190.770 37.693,190.000 37.693 C 189.230 37.693,188.915 37.775,189.300 37.876 M209.505 37.883 C 210.002 37.979,210.722 37.975,211.105 37.875 C 211.487 37.775,211.080 37.696,210.200 37.701 C 209.320 37.705,209.007 37.787,209.505 37.883 M185.100 38.282 C 185.595 38.378,186.405 38.378,186.900 38.282 C 187.395 38.187,186.990 38.109,186.000 38.109 C 185.010 38.109,184.605 38.187,185.100 38.282 M213.100 38.282 C 213.595 38.378,214.405 38.378,214.900 38.282 C 215.395 38.187,214.990 38.109,214.000 38.109 C 213.010 38.109,212.605 38.187,213.100 38.282 M219.300 39.076 C 219.685 39.176,220.315 39.176,220.700 39.076 C 221.085 38.975,220.770 38.893,220.000 38.893 C 219.230 38.893,218.915 38.975,219.300 39.076 M261.200 39.379 C 261.200 39.489,261.740 39.859,262.400 40.200 C 263.060 40.541,263.600 40.731,263.600 40.621 C 263.600 40.511,263.060 40.141,262.400 39.800 C 261.740 39.459,261.200 39.269,261.200 39.379 M167.200 41.618 C 166.762 41.915,166.924 41.952,167.800 41.756 C 169.271 41.427,169.590 41.198,168.567 41.206 C 168.145 41.209,167.530 41.395,167.200 41.618 M230.833 41.344 C 230.925 41.423,231.540 41.608,232.200 41.756 C 233.076 41.952,233.238 41.915,232.800 41.618 C 232.260 41.253,230.432 40.998,230.833 41.344 M270.600 44.607 C 271.040 44.966,271.760 45.435,272.200 45.651 L 273.000 46.044 272.200 45.393 C 271.760 45.034,271.040 44.565,270.600 44.349 L 269.800 43.956 270.600 44.607 M127.300 45.646 C 125.937 46.519,125.495 47.106,126.700 46.443 C 127.618 45.939,129.056 44.827,128.800 44.819 C 128.690 44.816,128.015 45.188,127.300 45.646 M117.985 52.029 L 116.600 53.258 118.100 52.181 C 119.426 51.230,119.857 50.800,119.485 50.800 C 119.422 50.800,118.747 51.353,117.985 52.029 M280.400 50.925 C 280.400 51.024,281.061 51.609,281.868 52.225 C 282.676 52.841,283.211 53.141,283.056 52.891 C 282.740 52.379,280.400 50.647,280.400 50.925 M140.300 52.229 C 138.805 53.040,138.896 53.378,140.400 52.600 C 141.060 52.259,141.600 51.894,141.600 51.790 C 141.600 51.532,141.557 51.547,140.300 52.229 M258.400 51.779 C 258.400 51.889,258.940 52.259,259.600 52.600 C 260.260 52.941,260.800 53.131,260.800 53.021 C 260.800 52.911,260.260 52.541,259.600 52.200 C 258.940 51.859,258.400 51.669,258.400 51.779 M284.917 54.264 C 285.261 54.823,289.200 58.154,289.200 57.886 C 289.200 57.782,288.172 56.820,286.916 55.749 C 285.660 54.677,284.761 54.009,284.917 54.264 M134.500 55.646 C 133.137 56.519,132.695 57.106,133.900 56.443 C 134.818 55.939,136.256 54.827,136.000 54.819 C 135.890 54.816,135.215 55.188,134.500 55.646 M264.600 55.407 C 265.040 55.766,265.760 56.235,266.200 56.451 L 267.000 56.844 266.200 56.193 C 265.760 55.834,265.040 55.365,264.600 55.149 L 263.800 54.756 264.600 55.407 M108.181 60.100 L 106.600 61.800 108.394 60.200 C 109.380 59.320,110.265 58.555,110.361 58.500 C 110.456 58.445,110.360 58.400,110.148 58.400 C 109.936 58.400,109.051 59.165,108.181 60.100 M290.000 58.525 C 290.000 58.594,290.585 59.179,291.300 59.825 L 292.600 61.000 291.425 59.700 C 290.330 58.488,290.000 58.216,290.000 58.525 M273.200 60.925 C 273.200 61.024,273.861 61.609,274.668 62.225 C 275.476 62.841,276.011 63.141,275.856 62.891 C 275.540 62.379,273.200 60.647,273.200 60.925 M297.400 65.588 C 299.380 67.671,301.045 69.456,301.100 69.554 C 301.155 69.653,301.284 69.649,301.387 69.546 C 301.490 69.443,299.825 67.658,297.687 65.579 L 293.800 61.800 297.400 65.588 M102.589 65.300 L 99.800 68.200 102.700 65.411 C 105.394 62.820,105.783 62.400,105.489 62.400 C 105.428 62.400,104.123 63.705,102.589 65.300 M118.175 67.700 L 117.000 69.000 118.300 67.825 C 119.512 66.730,119.784 66.400,119.475 66.400 C 119.406 66.400,118.821 66.985,118.175 67.700 M280.400 66.525 C 280.400 66.594,280.985 67.179,281.700 67.825 L 283.000 69.000 281.825 67.700 C 280.730 66.488,280.400 66.216,280.400 66.525 M111.594 73.900 L 106.600 79.000 111.700 74.006 C 114.505 71.259,116.800 68.964,116.800 68.906 C 116.800 68.619,116.233 69.163,111.594 73.900 M285.000 70.800 C 286.083 71.900,287.060 72.800,287.170 72.800 C 287.280 72.800,286.483 71.900,285.400 70.800 C 284.317 69.700,283.340 68.800,283.230 68.800 C 283.120 68.800,283.917 69.700,285.000 70.800 M97.407 70.793 C 96.552 71.669,95.930 72.445,96.026 72.518 C 96.122 72.591,96.898 71.874,97.752 70.925 C 99.701 68.759,99.477 68.673,97.407 70.793 M301.600 70.125 C 301.600 70.194,302.185 70.779,302.900 71.425 L 304.200 72.600 303.025 71.300 C 301.930 70.088,301.600 69.816,301.600 70.125 M304.400 73.064 C 304.400 73.282,304.895 73.897,305.500 74.430 L 306.600 75.400 305.600 74.200 C 305.050 73.540,304.555 72.925,304.500 72.833 C 304.445 72.742,304.400 72.845,304.400 73.064 M290.800 76.600 C 292.217 78.030,293.467 79.200,293.577 79.200 C 293.687 79.200,292.617 78.030,291.200 76.600 C 289.783 75.170,288.533 74.000,288.423 74.000 C 288.313 74.000,289.383 75.170,290.800 76.600 M295.568 81.900 C 296.751 83.275,297.800 84.400,297.897 84.400 C 298.162 84.400,294.934 80.606,294.120 79.959 C 293.732 79.652,294.384 80.525,295.568 81.900 M102.959 83.300 C 101.207 85.321,100.687 86.000,100.890 86.000 C 101.007 86.000,101.767 85.190,102.579 84.200 C 104.081 82.366,104.379 81.663,102.959 83.300 M314.015 85.900 C 314.926 87.275,315.738 88.400,315.822 88.400 C 316.090 88.400,314.449 85.838,313.389 84.600 C 312.823 83.940,313.105 84.525,314.015 85.900 M299.200 86.400 C 299.897 87.280,300.557 88.000,300.667 88.000 C 300.777 88.000,300.297 87.280,299.600 86.400 C 298.903 85.520,298.243 84.800,298.133 84.800 C 298.023 84.800,298.503 85.520,299.200 86.400 M99.944 87.100 C 98.793 88.489,98.306 89.200,98.504 89.200 C 98.614 89.200,99.186 88.570,99.773 87.800 C 100.863 86.371,100.995 85.832,99.944 87.100 M82.253 91.191 C 81.674 92.067,81.200 92.917,81.200 93.080 C 81.200 93.244,81.442 93.023,81.739 92.589 C 83.041 90.681,83.678 89.600,83.499 89.600 C 83.393 89.600,82.832 90.316,82.253 91.191 M319.841 95.400 C 320.441 96.500,321.102 97.580,321.310 97.800 C 321.903 98.427,320.141 95.095,319.406 94.200 C 319.045 93.760,319.241 94.300,319.841 95.400 M92.614 97.835 C 92.241 98.404,92.005 98.938,92.089 99.022 C 92.173 99.107,92.558 98.641,92.944 97.988 C 93.806 96.528,93.548 96.409,92.614 97.835 M307.800 99.200 C 308.141 99.860,308.511 100.400,308.621 100.400 C 308.731 100.400,308.541 99.860,308.200 99.200 C 307.859 98.540,307.489 98.000,307.379 98.000 C 307.269 98.000,307.459 98.540,307.800 99.200 M91.014 100.635 C 90.641 101.204,90.405 101.738,90.489 101.822 C 90.573 101.907,90.958 101.441,91.344 100.788 C 92.206 99.328,91.948 99.209,91.014 100.635 M309.160 101.400 C 309.834 102.705,310.388 103.428,310.385 103.000 C 310.383 102.780,310.014 102.150,309.564 101.600 C 309.021 100.936,308.885 100.869,309.160 101.400 M333.656 131.200 C 333.656 131.530,333.811 132.160,334.000 132.600 C 334.217 133.104,334.344 133.178,334.344 132.800 C 334.344 132.470,334.189 131.840,334.000 131.400 C 333.783 130.896,333.656 130.822,333.656 131.200 M321.256 132.000 C 321.256 132.330,321.411 132.960,321.600 133.400 C 321.817 133.904,321.944 133.978,321.944 133.600 C 321.944 133.270,321.789 132.640,321.600 132.200 C 321.383 131.696,321.256 131.622,321.256 132.000 M78.249 132.615 C 78.112 132.973,78.015 133.566,78.034 133.933 C 78.053 134.300,78.227 134.069,78.421 133.420 C 78.798 132.158,78.665 131.533,78.249 132.615 M334.468 134.800 C 334.488 135.839,335.118 137.546,335.132 136.600 C 335.138 136.160,334.989 135.440,334.800 135.000 C 334.589 134.510,334.461 134.432,334.468 134.800 M322.868 139.600 C 322.888 140.639,323.518 142.346,323.532 141.400 C 323.538 140.960,323.389 140.240,323.200 139.800 C 322.989 139.310,322.861 139.232,322.868 139.600 M76.649 140.215 C 76.512 140.573,76.421 141.346,76.446 141.933 C 76.480 142.732,76.570 142.598,76.804 141.400 C 77.135 139.700,77.062 139.140,76.649 140.215 M64.101 142.200 C 64.105 143.080,64.187 143.393,64.283 142.895 C 64.379 142.398,64.375 141.678,64.275 141.295 C 64.175 140.913,64.096 141.320,64.101 142.200 M323.872 145.400 C 323.999 146.500,324.169 147.475,324.251 147.567 C 324.532 147.882,324.320 145.399,323.980 144.400 C 323.751 143.726,323.716 144.051,323.872 145.400 M75.853 145.236 C 75.714 145.931,75.621 146.972,75.647 147.550 C 75.672 148.128,75.855 147.627,76.052 146.439 C 76.437 144.121,76.273 143.134,75.853 145.236 M336.501 147.400 C 336.505 148.280,336.587 148.593,336.683 148.095 C 336.779 147.598,336.775 146.878,336.675 146.495 C 336.575 146.113,336.496 146.520,336.501 147.400 M63.314 148.600 C 63.317 149.700,63.395 150.103,63.487 149.495 C 63.579 148.886,63.577 147.986,63.482 147.495 C 63.387 147.003,63.311 147.500,63.314 148.600 M324.493 151.200 C 324.493 151.970,324.575 152.285,324.676 151.900 C 324.776 151.515,324.776 150.885,324.676 150.500 C 324.575 150.115,324.493 150.430,324.493 151.200 M75.293 151.600 C 75.293 152.370,75.375 152.685,75.476 152.300 C 75.576 151.915,75.576 151.285,75.476 150.900 C 75.375 150.515,75.293 150.830,75.293 151.600 M336.901 152.600 C 336.905 153.480,336.987 153.793,337.083 153.295 C 337.179 152.798,337.175 152.078,337.075 151.695 C 336.975 151.313,336.896 151.720,336.901 152.600 M62.901 153.400 C 62.905 154.280,62.987 154.593,63.083 154.095 C 63.179 153.598,63.175 152.878,63.075 152.495 C 62.975 152.113,62.896 152.520,62.901 153.400 M324.948 156.800 C 324.948 159.110,325.014 160.055,325.095 158.900 C 325.176 157.745,325.176 155.855,325.095 154.700 C 325.014 153.545,324.948 154.490,324.948 156.800 M74.950 157.400 C 74.951 159.820,75.016 160.758,75.096 159.485 C 75.176 158.212,75.175 156.232,75.094 155.085 C 75.014 153.938,74.949 154.980,74.950 157.400 M337.374 164.800 C 337.374 170.410,337.430 172.705,337.499 169.900 C 337.568 167.095,337.568 162.505,337.499 159.700 C 337.430 156.895,337.374 159.190,337.374 164.800 M62.572 165.800 C 62.572 170.860,62.629 172.875,62.699 170.277 C 62.769 167.680,62.768 163.540,62.698 161.077 C 62.628 158.615,62.571 160.740,62.572 165.800 M85.200 225.600 L 83.400 225.880 85.000 225.900 C 85.880 225.911,87.050 225.776,87.600 225.600 C 88.863 225.195,87.802 225.195,85.200 225.600 M300.194 275.000 C 300.194 302.500,300.242 313.691,300.300 299.869 C 300.358 286.047,300.358 263.547,300.300 249.869 C 300.242 236.191,300.194 247.500,300.194 275.000 M314.305 225.883 C 314.802 225.979,315.522 225.975,315.905 225.875 C 316.287 225.775,315.880 225.696,315.000 225.701 C 314.120 225.705,313.807 225.787,314.305 225.883 M80.200 226.400 C 79.111 226.677,79.093 226.707,80.000 226.725 C 80.550 226.735,81.360 226.589,81.800 226.400 C 82.786 225.976,81.866 225.976,80.200 226.400 M318.200 226.381 C 318.968 226.729,321.110 226.956,320.767 226.653 C 320.675 226.572,319.880 226.396,319.000 226.262 C 317.885 226.093,317.642 226.129,318.200 226.381 M324.986 248.800 C 324.986 260.130,325.037 264.765,325.100 259.100 C 325.162 253.435,325.162 244.165,325.100 238.500 C 325.037 232.835,324.986 237.470,324.986 248.800 M49.392 238.247 C 49.388 239.659,49.510 240.496,49.664 240.107 C 50.040 239.156,50.059 236.711,49.694 236.140 C 49.532 235.887,49.396 236.835,49.392 238.247 M350.006 238.033 C 350.009 238.785,350.177 239.661,350.379 239.979 C 350.616 240.354,350.665 239.930,350.518 238.779 C 350.235 236.570,349.998 236.225,350.006 238.033 M350.800 241.041 C 350.800 241.247,352.555 243.122,354.700 245.208 L 358.600 249.000 354.800 245.013 C 352.710 242.819,350.955 240.944,350.900 240.846 C 350.845 240.747,350.800 240.835,350.800 241.041 M45.591 244.700 L 42.200 248.200 45.700 244.809 C 47.625 242.944,49.200 241.369,49.200 241.309 C 49.200 241.018,48.741 241.449,45.591 244.700 M39.144 251.900 C 37.993 253.289,37.506 254.000,37.704 254.000 C 37.814 254.000,38.386 253.370,38.973 252.600 C 40.063 251.171,40.195 250.632,39.144 251.900 M35.014 257.835 C 34.641 258.404,34.405 258.938,34.489 259.022 C 34.573 259.107,34.958 258.641,35.344 257.988 C 36.206 256.528,35.948 256.409,35.014 257.835 M80.971 273.497 C 81.615 274.209,82.230 274.704,82.338 274.596 C 82.445 274.488,82.458 274.355,82.367 274.300 C 82.275 274.245,81.660 273.751,81.000 273.201 L 79.800 272.203 80.971 273.497 M318.000 274.200 C 317.028 275.190,316.323 276.000,316.433 276.000 C 316.543 276.000,317.428 275.190,318.400 274.200 C 319.372 273.210,320.077 272.400,319.967 272.400 C 319.857 272.400,318.972 273.210,318.000 274.200 M28.046 273.267 C 28.021 273.634,27.896 274.264,27.770 274.667 C 27.552 275.362,27.563 275.363,27.997 274.687 C 28.248 274.296,28.373 273.666,28.273 273.287 C 28.111 272.668,28.088 272.666,28.046 273.267 M346.399 276.700 C 346.922 277.415,347.413 278.000,347.489 278.000 C 347.793 278.000,346.801 276.500,346.145 275.967 C 345.713 275.616,345.810 275.896,346.399 276.700 M26.454 279.867 C 26.425 280.344,26.296 281.064,26.170 281.467 C 25.952 282.161,25.964 282.162,26.396 281.488 C 26.647 281.097,26.775 280.377,26.681 279.888 C 26.509 279.001,26.509 279.001,26.454 279.867 M66.200 281.796 C 62.662 283.359,61.468 287.550,63.584 290.974 C 64.428 292.340,66.845 293.801,67.718 293.474 C 68.002 293.367,67.871 293.180,67.400 293.017 C 65.088 292.219,64.576 291.698,63.204 288.747 C 62.176 286.534,64.415 282.954,67.400 282.038 C 70.017 281.235,73.482 283.152,74.202 285.800 C 74.439 286.671,74.574 286.806,74.695 286.290 C 75.414 283.241,69.731 280.235,66.200 281.796 M328.283 282.036 C 327.449 282.476,326.414 283.413,325.985 284.118 C 325.161 285.469,324.921 287.020,325.600 286.600 C 325.820 286.464,326.000 285.979,326.000 285.522 C 326.000 283.430,330.100 281.269,332.600 282.043 C 334.337 282.581,336.400 284.230,336.400 285.080 C 336.400 285.372,336.614 285.953,336.875 286.372 C 337.880 287.981,335.191 292.800,333.288 292.800 C 332.826 292.800,332.336 292.980,332.200 293.200 C 331.777 293.884,333.341 293.634,334.577 292.819 C 341.243 288.425,335.340 278.311,328.283 282.036 M312.649 283.415 C 312.512 283.773,312.415 284.366,312.434 284.733 C 312.453 285.100,312.627 284.869,312.821 284.220 C 313.198 282.958,313.065 282.333,312.649 283.415 M374.109 284.400 C 374.109 285.390,374.187 285.795,374.282 285.300 C 374.378 284.805,374.378 283.995,374.282 283.500 C 374.187 283.005,374.109 283.410,374.109 284.400 M25.429 286.029 C 25.276 287.379,25.233 288.566,25.333 288.667 C 25.434 288.767,25.644 287.747,25.800 286.400 C 25.956 285.053,25.999 283.866,25.895 283.762 C 25.791 283.658,25.581 284.678,25.429 286.029 M325.208 288.600 C 325.201 289.820,326.641 291.915,328.096 292.802 C 329.486 293.649,330.609 293.862,330.200 293.200 C 330.064 292.980,329.639 292.800,329.255 292.800 C 328.424 292.800,326.003 290.410,325.994 289.581 C 325.991 289.261,325.813 288.730,325.600 288.400 C 325.279 287.903,325.211 287.937,325.208 288.600 M74.267 288.667 C 74.120 288.813,74.000 289.229,74.000 289.591 C 74.000 290.487,71.677 292.800,70.776 292.800 C 70.375 292.800,69.920 293.006,69.764 293.258 C 69.562 293.585,69.814 293.634,70.640 293.431 C 72.090 293.073,74.256 291.029,74.588 289.705 C 74.852 288.655,74.716 288.217,74.267 288.667 M312.406 290.433 C 312.409 290.965,312.589 291.670,312.806 292.000 C 313.082 292.422,313.123 292.185,312.942 291.200 C 312.625 289.475,312.398 289.149,312.406 290.433 M55.600 301.000 C 56.795 302.210,57.863 303.200,57.973 303.200 C 58.083 303.200,57.195 302.210,56.000 301.000 C 54.805 299.790,53.737 298.800,53.627 298.800 C 53.517 298.800,54.405 299.790,55.600 301.000 M81.781 300.900 L 80.200 302.600 81.900 301.019 C 83.481 299.548,83.784 299.200,83.481 299.200 C 83.416 299.200,82.651 299.965,81.781 300.900 M317.800 300.800 C 318.659 301.680,319.452 302.400,319.562 302.400 C 319.672 302.400,319.059 301.680,318.200 300.800 C 317.341 299.920,316.548 299.200,316.438 299.200 C 316.328 299.200,316.941 299.920,317.800 300.800 M64.400 305.982 C 64.730 306.205,65.345 306.391,65.767 306.394 C 66.790 306.402,66.471 306.173,65.000 305.844 C 64.124 305.648,63.962 305.685,64.400 305.982 M72.000 306.000 C 71.176 306.264,71.141 306.326,71.800 306.354 C 72.240 306.373,72.870 306.213,73.200 306.000 C 73.901 305.547,73.414 305.547,72.000 306.000 M326.800 305.982 C 327.130 306.205,327.745 306.391,328.167 306.394 C 329.190 306.402,328.871 306.173,327.400 305.844 C 326.524 305.648,326.362 305.685,326.800 305.982 M334.400 306.000 C 333.576 306.264,333.541 306.326,334.200 306.354 C 334.640 306.373,335.270 306.213,335.600 306.000 C 336.301 305.547,335.814 305.547,334.400 306.000 M299.116 328.417 C 298.748 329.059,297.851 329.946,297.123 330.390 C 296.396 330.834,296.011 331.198,296.269 331.199 C 296.897 331.201,299.112 329.312,299.641 328.323 C 300.322 327.051,299.851 327.136,299.116 328.417 M293.776 331.718 C 293.667 332.004,293.633 334.839,293.700 338.018 L 293.824 343.800 293.912 337.728 C 293.998 331.781,294.019 331.652,294.900 331.482 L 295.800 331.309 294.887 331.254 C 294.386 331.225,293.885 331.433,293.776 331.718 M25.462 336.200 C 25.596 337.080,25.772 337.875,25.853 337.967 C 26.156 338.310,25.929 336.168,25.581 335.400 C 25.329 334.842,25.293 335.085,25.462 336.200 M371.078 345.805 C 370.712 346.572,370.495 347.200,370.596 347.200 C 370.870 347.200,372.084 344.751,371.901 344.568 C 371.814 344.481,371.444 345.038,371.078 345.805 M300.161 356.400 C 300.161 359.810,300.222 361.205,300.297 359.500 C 300.372 357.795,300.372 355.005,300.297 353.300 C 300.222 351.595,300.161 352.990,300.161 356.400 M37.294 356.090 C 38.482 357.100,40.800 358.547,40.800 358.279 C 40.800 358.188,39.765 357.449,38.500 356.637 C 37.235 355.825,36.692 355.579,37.294 356.090 M50.033 361.747 C 50.125 361.828,50.920 362.004,51.800 362.138 C 52.915 362.307,53.158 362.271,52.600 362.019 C 51.832 361.671,49.690 361.444,50.033 361.747 " stroke="none" fill="#9a4040" fill-rule="evenodd"></path><path id="path4" d="M188.223 25.147 C 187.575 25.286,192.875 25.400,200.000 25.400 C 207.125 25.400,212.425 25.286,211.777 25.147 C 210.244 24.818,189.756 24.818,188.223 25.147 M181.200 26.000 L 180.200 26.320 181.200 26.330 C 181.750 26.336,183.010 26.197,184.000 26.020 L 185.800 25.700 184.000 25.690 C 183.010 25.684,181.750 25.824,181.200 26.000 M214.433 25.751 C 214.525 25.834,215.860 26.011,217.400 26.145 C 219.224 26.303,219.921 26.261,219.400 26.022 C 218.646 25.677,214.076 25.428,214.433 25.751 M176.000 26.812 C 175.581 27.091,175.942 27.133,177.200 26.950 C 179.441 26.625,179.760 26.398,177.967 26.406 C 177.215 26.409,176.330 26.592,176.000 26.812 M220.833 26.544 C 220.925 26.624,221.810 26.806,222.800 26.950 C 224.058 27.133,224.419 27.091,224.000 26.812 C 223.460 26.453,220.432 26.197,220.833 26.544 M171.600 27.621 C 171.170 27.914,171.454 27.954,172.600 27.762 C 174.584 27.430,174.904 27.198,173.367 27.206 C 172.725 27.209,171.930 27.396,171.600 27.621 M225.633 27.347 C 225.725 27.428,226.520 27.614,227.400 27.762 C 228.546 27.954,228.830 27.914,228.400 27.621 C 227.860 27.253,225.232 26.993,225.633 27.347 M168.400 28.400 C 167.605 28.914,168.604 28.914,169.800 28.400 L 170.600 28.056 169.800 28.034 C 169.360 28.022,168.730 28.187,168.400 28.400 M230.400 28.400 C 231.942 28.894,232.764 28.894,232.000 28.400 C 231.670 28.187,230.950 28.027,230.400 28.046 L 229.400 28.080 230.400 28.400 M164.800 29.200 C 164.036 29.694,164.858 29.694,166.400 29.200 L 167.400 28.880 166.400 28.846 C 165.850 28.827,165.130 28.987,164.800 29.200 M233.600 29.200 C 235.142 29.694,235.964 29.694,235.200 29.200 C 234.870 28.987,234.150 28.827,233.600 28.846 L 232.600 28.880 233.600 29.200 M162.000 30.000 C 161.467 30.345,161.467 30.388,162.000 30.388 C 162.330 30.388,162.870 30.213,163.200 30.000 C 163.733 29.655,163.733 29.612,163.200 29.612 C 162.870 29.612,162.330 29.787,162.000 30.000 M159.200 30.800 C 158.667 31.145,158.667 31.188,159.200 31.188 C 159.530 31.188,160.070 31.013,160.400 30.800 C 160.933 30.455,160.933 30.412,160.400 30.412 C 160.070 30.412,159.530 30.587,159.200 30.800 M239.600 30.800 C 239.930 31.013,240.470 31.188,240.800 31.188 C 241.333 31.188,241.333 31.145,240.800 30.800 C 240.470 30.587,239.930 30.412,239.600 30.412 C 239.067 30.412,239.067 30.455,239.600 30.800 M154.400 32.400 C 153.867 32.745,153.867 32.788,154.400 32.788 C 154.730 32.788,155.270 32.613,155.600 32.400 C 156.133 32.055,156.133 32.012,155.600 32.012 C 155.270 32.012,154.730 32.187,154.400 32.400 M248.176 33.609 C 249.263 34.033,250.216 34.318,250.293 34.240 C 250.484 34.050,247.307 32.795,246.692 32.819 C 246.421 32.829,247.089 33.185,248.176 33.609 M144.200 36.385 C 142.880 37.023,141.985 37.558,142.210 37.573 C 142.436 37.588,143.696 37.066,145.010 36.413 C 146.325 35.759,147.220 35.225,147.000 35.225 C 146.780 35.225,145.520 35.747,144.200 36.385 M255.149 36.441 C 256.551 37.097,257.770 37.563,257.858 37.476 C 258.044 37.290,253.467 35.189,252.950 35.223 C 252.757 35.236,253.747 35.784,255.149 36.441 M137.000 39.813 C 134.580 41.028,132.150 42.382,131.600 42.823 C 131.050 43.263,131.950 42.895,133.600 42.004 C 135.250 41.113,137.725 39.839,139.100 39.172 C 140.475 38.505,141.600 37.878,141.600 37.780 C 141.600 37.501,141.654 37.477,137.000 39.813 M189.400 38.000 L 187.400 38.274 189.600 38.285 C 190.810 38.291,193.150 38.168,194.800 38.012 L 197.800 37.729 194.600 37.728 C 192.840 37.727,190.500 37.849,189.400 38.000 M205.200 38.012 C 206.850 38.168,209.190 38.294,210.400 38.291 L 212.600 38.287 210.400 37.983 C 209.190 37.816,206.850 37.690,205.200 37.704 L 202.200 37.729 205.200 38.012 M258.400 37.758 C 258.400 37.870,259.075 38.271,259.900 38.648 C 260.725 39.026,261.535 39.405,261.700 39.491 C 261.865 39.577,262.000 39.555,262.000 39.442 C 262.000 39.330,261.325 38.929,260.500 38.552 C 259.675 38.174,258.865 37.795,258.700 37.709 C 258.535 37.623,258.400 37.645,258.400 37.758 M182.400 38.800 L 181.000 39.095 182.600 39.119 C 183.480 39.133,184.560 38.989,185.000 38.800 C 186.042 38.352,184.526 38.352,182.400 38.800 M215.000 38.800 C 215.440 38.989,216.520 39.136,217.400 39.126 L 219.000 39.108 217.400 38.777 C 216.520 38.595,215.440 38.448,215.000 38.451 L 214.200 38.456 215.000 38.800 M177.400 39.600 L 176.200 39.905 177.400 39.925 C 178.060 39.935,178.960 39.789,179.400 39.600 L 180.200 39.256 179.400 39.275 C 178.960 39.286,178.060 39.432,177.400 39.600 M220.800 39.600 C 221.350 39.776,222.340 39.917,223.000 39.913 L 224.200 39.905 223.000 39.600 C 222.340 39.432,221.350 39.291,220.800 39.287 L 219.800 39.280 220.800 39.600 M262.433 39.757 C 262.525 39.843,263.230 40.262,264.000 40.688 C 269.355 43.647,270.950 44.472,270.600 44.100 C 270.380 43.867,269.480 43.271,268.600 42.776 C 264.392 40.410,261.758 39.120,262.433 39.757 M173.200 40.400 L 172.200 40.720 173.200 40.754 C 173.750 40.773,174.470 40.613,174.800 40.400 C 175.564 39.906,174.742 39.906,173.200 40.400 M225.200 40.400 C 225.530 40.613,226.250 40.773,226.800 40.754 L 227.800 40.720 226.800 40.400 C 225.258 39.906,224.436 39.906,225.200 40.400 M170.000 41.200 L 169.000 41.520 170.000 41.554 C 170.550 41.573,171.270 41.413,171.600 41.200 C 172.364 40.706,171.542 40.706,170.000 41.200 M228.800 41.200 C 229.130 41.413,229.760 41.578,230.200 41.566 L 231.000 41.544 230.200 41.200 C 229.004 40.686,228.005 40.686,228.800 41.200 M166.800 42.000 C 165.976 42.264,165.941 42.326,166.600 42.354 C 167.040 42.373,167.670 42.213,168.000 42.000 C 168.701 41.547,168.214 41.547,166.800 42.000 M232.000 41.982 C 232.330 42.205,232.945 42.391,233.367 42.394 C 234.390 42.402,234.071 42.173,232.600 41.844 C 231.724 41.648,231.562 41.685,232.000 41.982 M164.000 42.800 C 163.176 43.064,163.141 43.126,163.800 43.154 C 164.240 43.173,164.870 43.013,165.200 42.800 C 165.901 42.347,165.414 42.347,164.000 42.800 M234.800 42.782 C 235.130 43.005,235.745 43.191,236.167 43.194 C 237.190 43.202,236.871 42.973,235.400 42.644 C 234.524 42.448,234.362 42.485,234.800 42.782 M161.400 43.600 C 160.629 43.931,160.631 43.945,161.476 43.972 C 161.958 43.987,162.464 43.820,162.600 43.600 C 162.892 43.127,162.501 43.127,161.400 43.600 M238.000 43.652 C 238.550 43.889,239.313 44.244,239.695 44.441 C 240.077 44.639,240.707 44.793,241.095 44.784 C 241.962 44.765,239.913 43.839,238.200 43.476 C 237.059 43.234,237.049 43.242,238.000 43.652 M128.900 44.144 C 128.405 44.389,128.000 44.733,128.000 44.909 C 128.000 45.214,128.698 44.903,130.000 44.020 C 130.781 43.489,130.056 43.572,128.900 44.144 M159.000 44.400 C 158.229 44.731,158.231 44.745,159.076 44.772 C 159.558 44.787,160.064 44.620,160.200 44.400 C 160.492 43.927,160.101 43.927,159.000 44.400 M154.000 46.223 C 152.130 46.987,150.057 47.867,149.394 48.180 C 148.731 48.492,147.671 48.945,147.039 49.185 C 146.406 49.426,145.982 49.715,146.096 49.829 C 146.209 49.943,147.269 49.598,148.451 49.064 C 152.720 47.133,154.227 46.498,155.800 45.972 C 157.402 45.436,158.521 44.784,157.780 44.817 C 157.571 44.827,155.870 45.459,154.000 46.223 M242.200 45.200 C 242.336 45.420,242.676 45.600,242.955 45.600 C 243.545 45.600,247.489 47.163,251.154 48.849 C 252.559 49.496,253.799 49.934,253.910 49.823 C 254.020 49.713,253.635 49.442,253.054 49.221 C 252.473 49.000,251.233 48.471,250.299 48.045 C 245.429 45.827,241.799 44.552,242.200 45.200 M272.620 45.539 C 273.510 46.333,281.669 51.635,281.446 51.275 C 281.139 50.778,272.970 45.200,272.550 45.200 C 272.379 45.200,272.411 45.353,272.620 45.539 M122.600 48.250 C 117.970 51.460,117.528 52.150,122.000 49.185 C 126.230 46.381,126.742 45.993,126.180 46.016 C 125.971 46.024,124.360 47.030,122.600 48.250 M142.270 51.479 C 141.648 51.805,141.226 52.160,141.333 52.266 C 141.542 52.476,144.000 51.300,144.000 50.990 C 144.000 50.692,143.494 50.835,142.270 51.479 M256.000 50.990 C 256.000 51.295,258.456 52.477,258.662 52.271 C 258.765 52.168,258.271 51.795,257.563 51.442 C 256.176 50.750,256.000 50.699,256.000 50.990 M114.400 54.283 C 110.747 57.158,110.000 57.817,110.000 58.166 C 110.000 58.289,111.800 56.928,114.000 55.141 C 117.529 52.275,118.285 51.590,117.900 51.604 C 117.845 51.606,116.270 52.811,114.400 54.283 M283.153 52.679 C 283.897 53.296,285.742 54.843,287.253 56.119 C 288.764 57.394,290.000 58.326,290.000 58.190 C 290.000 57.751,283.668 52.470,282.400 51.852 C 282.070 51.691,282.409 52.063,283.153 52.679 M139.500 53.029 C 138.895 53.357,138.400 53.710,138.400 53.813 C 138.400 54.199,139.032 53.957,140.000 53.200 C 141.189 52.270,141.011 52.209,139.500 53.029 M260.000 53.167 C 260.963 53.952,261.600 54.208,261.600 53.810 C 261.600 53.706,261.015 53.335,260.300 52.986 L 259.000 52.352 260.000 53.167 M136.072 55.043 C 135.122 55.612,134.431 56.164,134.536 56.269 C 134.720 56.453,138.000 54.444,138.000 54.147 C 138.000 53.905,137.872 53.965,136.072 55.043 M262.800 54.767 C 263.763 55.552,264.400 55.808,264.400 55.410 C 264.400 55.306,263.815 54.935,263.100 54.586 L 261.800 53.952 262.800 54.767 M129.599 59.220 C 115.843 68.551,100.095 85.081,93.413 97.200 C 92.565 98.738,94.104 96.681,96.405 93.200 C 103.035 83.171,111.856 73.635,123.000 64.448 C 123.440 64.085,124.430 63.350,125.200 62.814 C 125.970 62.277,126.690 61.725,126.800 61.587 C 126.910 61.449,128.440 60.381,130.200 59.213 C 133.433 57.069,134.327 56.400,133.958 56.400 C 133.847 56.400,131.885 57.669,129.599 59.220 M266.200 56.697 C 266.420 56.913,268.040 58.050,269.800 59.222 C 271.560 60.394,273.238 61.588,273.529 61.876 C 273.819 62.164,274.181 62.400,274.333 62.400 C 274.484 62.400,275.056 62.810,275.604 63.311 C 276.152 63.812,277.680 65.050,279.000 66.062 C 282.143 68.472,291.308 77.309,293.600 80.139 C 294.590 81.361,295.556 82.370,295.747 82.381 C 297.272 82.466,283.409 68.981,276.400 63.562 C 271.336 59.646,264.579 55.098,266.200 56.697 M104.200 63.263 C 101.433 65.937,98.439 69.042,97.547 70.163 C 96.654 71.283,97.445 70.599,99.304 68.642 C 101.163 66.685,104.285 63.588,106.242 61.760 C 108.199 59.932,109.672 58.429,109.515 58.418 C 109.359 58.408,106.967 60.588,104.200 63.263 M296.044 64.016 C 299.258 67.197,302.465 70.494,303.169 71.342 C 303.873 72.190,304.532 72.802,304.633 72.701 C 304.895 72.439,294.775 61.981,292.285 59.941 C 291.138 59.001,292.830 60.835,296.044 64.016 M94.200 73.872 C 91.360 77.312,91.319 77.876,94.147 74.600 C 95.191 73.390,95.901 72.404,95.723 72.409 C 95.545 72.414,94.860 73.072,94.200 73.872 M306.221 75.000 C 307.834 76.968,308.549 77.463,307.233 75.700 C 305.679 73.617,305.311 73.200,305.029 73.200 C 304.874 73.200,305.410 74.010,306.221 75.000 M90.998 77.763 C 90.779 78.073,89.520 79.828,88.201 81.663 C 85.550 85.350,82.772 89.552,81.763 91.400 C 80.560 93.606,81.858 91.849,85.606 86.200 C 87.649 83.120,89.946 79.835,90.709 78.900 C 91.472 77.965,91.939 77.200,91.746 77.200 C 91.554 77.200,91.217 77.453,90.998 77.763 M308.400 77.333 C 308.400 77.466,309.798 79.515,311.507 81.887 C 313.216 84.259,315.478 87.595,316.535 89.300 C 318.334 92.201,319.420 93.517,318.351 91.500 C 316.773 88.521,308.400 76.601,308.400 77.333 M296.400 83.395 C 296.730 83.832,297.318 84.544,297.706 84.977 C 298.095 85.410,299.603 87.444,301.058 89.497 C 302.513 91.550,303.789 93.145,303.892 93.041 C 303.996 92.938,303.552 92.166,302.907 91.327 C 302.262 90.487,300.692 88.409,299.418 86.708 C 298.144 85.008,296.809 83.388,296.451 83.108 C 295.859 82.646,295.854 82.672,296.400 83.395 M318.809 93.100 C 318.814 93.265,319.185 93.850,319.633 94.400 L 320.448 95.400 319.814 94.100 C 319.211 92.865,318.789 92.445,318.809 93.100 M304.622 94.700 C 306.759 97.995,307.324 98.800,307.499 98.800 C 307.605 98.800,307.371 98.305,306.978 97.700 C 304.841 94.405,304.276 93.600,304.101 93.600 C 303.995 93.600,304.229 94.095,304.622 94.700 M79.414 95.435 C 79.041 96.004,78.827 96.561,78.939 96.672 C 79.050 96.783,79.429 96.318,79.781 95.637 C 80.559 94.133,80.344 94.015,79.414 95.435 M323.046 100.884 C 324.101 103.021,325.036 104.697,325.123 104.610 C 325.311 104.422,322.093 97.976,321.522 97.400 C 321.305 97.180,321.990 98.748,323.046 100.884 M92.186 99.300 L 91.552 100.600 92.367 99.600 C 93.152 98.637,93.408 98.000,93.010 98.000 C 92.906 98.000,92.535 98.585,92.186 99.300 M307.769 99.600 C 307.896 99.930,308.111 100.515,308.246 100.900 C 308.382 101.285,308.659 101.600,308.861 101.600 C 309.224 101.600,308.875 100.806,307.983 99.600 C 307.588 99.067,307.565 99.067,307.769 99.600 M90.622 101.822 C 90.245 102.398,90.016 102.949,90.114 103.047 C 90.212 103.145,90.600 102.754,90.978 102.178 C 91.355 101.602,91.584 101.051,91.486 100.953 C 91.388 100.855,91.000 101.246,90.622 101.822 M309.267 102.302 C 310.219 104.457,312.952 109.582,313.080 109.453 C 313.291 109.242,309.679 102.000,309.363 102.000 C 309.237 102.000,309.193 102.136,309.267 102.302 M74.629 104.861 C 74.036 106.051,73.776 107.157,74.187 106.746 C 74.500 106.433,75.623 103.600,75.435 103.600 C 75.338 103.600,74.975 104.168,74.629 104.861 M325.217 105.500 C 325.226 105.665,325.578 106.430,326.000 107.200 C 326.921 108.882,327.065 108.255,326.171 106.461 C 325.567 105.252,325.181 104.863,325.217 105.500 M73.232 108.100 C 73.040 108.595,72.306 110.440,71.600 112.200 C 70.038 116.091,68.736 120.069,68.952 120.286 C 69.040 120.373,69.472 119.310,69.912 117.922 C 70.353 116.535,71.093 114.455,71.557 113.300 C 73.667 108.045,73.976 107.200,73.784 107.200 C 73.672 107.200,73.423 107.605,73.232 108.100 M86.059 110.845 C 85.859 111.370,85.401 112.503,85.042 113.361 C 84.683 114.220,84.452 114.986,84.529 115.062 C 84.606 115.139,85.148 114.091,85.733 112.733 C 86.319 111.376,86.714 110.180,86.610 110.077 C 86.507 109.974,86.259 110.319,86.059 110.845 M314.980 114.200 C 316.253 117.619,316.946 119.188,317.111 119.022 C 317.350 118.783,315.625 114.351,315.079 113.800 C 314.816 113.535,314.783 113.670,314.980 114.200 M329.227 114.867 C 329.212 115.014,329.804 116.994,330.543 119.267 C 331.282 121.540,332.113 124.210,332.392 125.200 C 333.273 128.339,333.641 129.217,333.396 127.600 C 333.190 126.239,331.083 119.008,330.424 117.400 C 329.506 115.161,329.252 114.623,329.227 114.867 M82.682 119.291 C 80.579 124.969,78.161 133.494,78.546 133.879 C 78.664 133.997,78.866 133.578,78.994 132.947 C 79.463 130.644,80.675 126.497,82.246 121.824 C 83.574 117.873,83.893 116.025,82.682 119.291 M317.458 120.400 C 317.969 122.395,318.744 124.204,318.742 123.400 C 318.741 122.960,318.394 121.880,317.971 121.000 C 317.548 120.120,317.317 119.850,317.458 120.400 M67.867 123.067 C 67.509 124.323,67.287 125.420,67.372 125.505 C 67.456 125.590,67.823 124.637,68.187 123.387 C 68.550 122.137,68.773 121.040,68.682 120.948 C 68.591 120.857,68.224 121.811,67.867 123.067 M318.931 125.050 C 320.008 128.771,320.802 131.755,321.207 133.600 C 321.473 134.810,321.850 136.213,322.045 136.719 C 322.240 137.224,322.413 138.214,322.428 138.919 C 322.444 139.623,322.612 140.560,322.803 141.000 C 323.529 142.677,322.653 137.656,321.301 132.400 C 320.538 129.430,319.822 126.503,319.710 125.895 C 319.599 125.287,319.329 124.680,319.111 124.545 C 318.878 124.401,318.804 124.610,318.931 125.050 M66.650 127.250 C 66.317 128.917,66.640 129.240,67.000 127.600 C 67.152 126.909,67.193 126.259,67.091 126.158 C 66.989 126.056,66.791 126.547,66.650 127.250 M333.668 129.800 C 333.662 130.240,333.811 130.960,334.000 131.400 C 334.438 132.419,334.438 131.368,334.000 130.000 C 333.743 129.196,333.677 129.157,333.668 129.800 M65.800 130.800 C 65.648 131.491,65.614 132.147,65.724 132.257 C 65.834 132.367,66.048 131.891,66.200 131.200 C 66.352 130.509,66.386 129.853,66.276 129.743 C 66.166 129.633,65.952 130.109,65.800 130.800 M334.468 133.200 C 334.462 133.750,334.611 134.560,334.800 135.000 L 335.144 135.800 335.132 135.000 C 335.126 134.560,334.976 133.750,334.800 133.200 L 334.480 132.200 334.468 133.200 M65.049 133.815 C 64.912 134.173,64.816 134.856,64.836 135.333 C 64.862 135.947,64.985 135.808,65.259 134.856 C 65.657 133.472,65.494 132.658,65.049 133.815 M77.704 136.625 C 76.952 140.238,76.713 142.367,77.168 141.400 C 77.374 140.960,77.556 140.042,77.572 139.360 C 77.587 138.678,77.795 137.561,78.033 136.878 C 78.271 136.195,78.406 135.324,78.332 134.943 C 78.259 134.561,77.976 135.318,77.704 136.625 M335.286 137.200 C 335.283 137.970,335.424 139.050,335.600 139.600 C 336.050 141.004,336.065 139.537,335.623 137.400 L 335.292 135.800 335.286 137.200 M64.276 138.010 C 64.130 138.555,64.027 139.450,64.046 140.000 C 64.071 140.718,64.184 140.557,64.449 139.427 C 64.855 137.695,64.700 136.425,64.276 138.010 M336.087 142.600 C 336.091 143.260,336.232 144.340,336.400 145.000 L 336.705 146.200 336.713 144.800 C 336.717 144.030,336.576 142.950,336.400 142.400 C 336.089 141.430,336.080 141.435,336.087 142.600 M63.490 143.150 C 63.331 143.893,63.220 145.063,63.244 145.750 C 63.281 146.817,63.341 146.736,63.649 145.200 C 63.848 144.210,63.959 143.040,63.896 142.600 C 63.818 142.059,63.686 142.237,63.490 143.150 M323.240 143.633 C 323.262 144.605,323.431 145.850,323.616 146.400 C 323.826 147.027,323.866 146.430,323.723 144.800 C 323.455 141.756,323.183 141.098,323.240 143.633 M76.467 143.650 C 76.430 144.228,76.305 145.308,76.189 146.050 C 75.996 147.286,76.015 147.317,76.408 146.414 C 76.645 145.871,76.770 144.791,76.686 144.014 C 76.577 142.992,76.516 142.891,76.467 143.650 M324.023 150.033 C 324.036 151.445,324.202 153.320,324.393 154.200 C 324.629 155.289,324.669 154.522,324.517 151.800 C 324.263 147.220,323.989 146.241,324.023 150.033 M336.886 149.000 C 336.882 149.880,337.016 151.590,337.183 152.800 L 337.487 155.000 337.521 152.800 C 337.539 151.590,337.405 149.880,337.223 149.000 L 336.892 147.400 336.886 149.000 M62.689 150.156 C 62.530 151.232,62.424 153.212,62.454 154.556 C 62.505 156.851,62.530 156.781,62.861 153.400 C 63.256 149.377,63.136 147.128,62.689 150.156 M75.471 152.140 C 75.292 154.306,75.232 156.166,75.338 156.271 C 75.630 156.563,76.084 151.615,75.931 149.800 C 75.848 148.803,75.674 149.686,75.471 152.140 M324.890 167.900 L 324.800 175.200 331.300 175.111 L 337.800 175.022 331.509 174.901 L 325.218 174.780 325.099 167.690 L 324.980 160.600 324.890 167.900 M74.800 168.190 L 74.800 174.780 68.500 174.901 L 62.200 175.022 68.700 175.111 L 75.200 175.200 75.200 168.400 C 75.200 164.660,75.110 161.600,75.000 161.600 C 74.890 161.600,74.800 164.565,74.800 168.190 M85.214 225.150 C 84.671 225.304,87.776 225.357,92.114 225.267 L 100.000 225.105 100.000 293.767 L 100.000 362.429 75.300 362.304 C 49.729 362.175,49.896 362.185,45.400 360.570 C 44.893 360.387,44.746 360.420,45.000 360.659 C 45.220 360.867,46.030 361.233,46.800 361.474 C 50.844 362.737,53.189 362.835,76.600 362.718 L 100.200 362.600 100.200 293.800 L 100.200 225.000 93.200 224.935 C 89.350 224.900,85.756 224.996,85.214 225.150 M300.600 225.035 C 302.324 225.307,315.740 225.427,314.800 225.162 C 314.250 225.007,310.650 224.886,306.800 224.894 C 302.950 224.902,300.160 224.966,300.600 225.035 M62.497 247.653 L 62.400 269.906 60.263 270.951 C 59.088 271.526,57.783 272.389,57.363 272.868 C 56.784 273.529,57.034 273.447,58.400 272.524 C 59.390 271.856,60.589 271.188,61.064 271.039 C 62.827 270.488,62.812 270.702,62.700 247.555 L 62.593 225.400 62.497 247.653 M80.400 226.012 C 79.981 226.291,80.342 226.333,81.600 226.150 C 83.841 225.825,84.160 225.598,82.367 225.606 C 81.615 225.609,80.730 225.792,80.400 226.012 M316.433 225.744 C 316.525 225.824,317.410 226.006,318.400 226.150 C 319.658 226.333,320.019 226.291,319.600 226.012 C 319.060 225.653,316.032 225.397,316.433 225.744 M337.395 248.100 L 337.400 270.200 338.672 270.836 C 339.371 271.185,340.422 271.785,341.007 272.168 C 341.591 272.551,342.153 272.780,342.256 272.678 C 342.484 272.449,340.191 271.005,338.699 270.438 L 337.607 270.022 337.498 248.011 L 337.390 226.000 337.395 248.100 M76.990 226.816 C 76.821 227.089,77.123 227.138,77.866 226.960 C 79.399 226.592,79.544 226.400,78.290 226.400 C 77.717 226.400,77.132 226.587,76.990 226.816 M321.600 226.800 C 323.142 227.294,323.964 227.294,323.200 226.800 C 322.870 226.587,322.150 226.427,321.600 226.446 L 320.600 226.480 321.600 226.800 M74.800 248.736 L 74.800 270.272 75.852 270.751 C 76.430 271.014,76.995 271.138,77.107 271.026 C 77.219 270.914,76.833 270.641,76.249 270.418 L 75.186 270.015 75.293 248.607 C 75.352 236.833,75.265 227.200,75.100 227.200 C 74.935 227.200,74.800 236.891,74.800 248.736 M48.032 233.400 C 48.030 233.840,48.286 234.650,48.600 235.200 C 49.330 236.478,49.334 236.204,48.612 234.200 C 48.295 233.320,48.034 232.960,48.032 233.400 M350.790 235.826 C 350.576 236.390,350.422 237.515,350.450 238.326 C 350.494 239.618,350.537 239.546,350.801 237.740 C 350.967 236.608,351.225 235.483,351.375 235.240 C 351.525 234.998,351.542 234.800,351.414 234.800 C 351.285 234.800,351.005 235.262,350.790 235.826 M49.309 238.000 C 49.309 238.990,49.387 239.395,49.482 238.900 C 49.578 238.405,49.578 237.595,49.482 237.100 C 49.387 236.605,49.309 237.010,49.309 238.000 M350.801 240.356 C 350.801 240.662,352.476 242.642,354.524 244.756 C 359.196 249.578,360.891 251.667,363.847 256.243 C 367.208 261.446,367.282 261.549,366.547 260.000 C 364.722 256.156,359.031 248.701,354.792 244.600 C 353.427 243.280,351.971 241.660,351.557 241.000 C 351.142 240.340,350.802 240.050,350.801 240.356 M48.206 241.488 L 47.504 242.600 48.430 241.711 C 48.939 241.222,49.255 240.722,49.132 240.599 C 49.009 240.476,48.592 240.876,48.206 241.488 M44.786 245.100 L 42.600 247.400 44.900 245.214 C 47.037 243.182,47.383 242.800,47.086 242.800 C 47.024 242.800,45.989 243.835,44.786 245.100 M40.999 249.089 C 39.220 251.202,36.675 254.626,35.866 255.996 C 34.669 258.023,35.432 257.333,36.857 255.100 C 37.594 253.945,39.159 251.861,40.335 250.469 C 41.510 249.078,42.411 247.877,42.335 247.802 C 42.260 247.727,41.659 248.306,40.999 249.089 M34.496 258.100 C 33.912 258.828,31.843 263.073,32.303 262.600 C 32.762 262.129,35.236 257.600,35.035 257.600 C 34.960 257.600,34.717 257.825,34.496 258.100 M367.200 261.650 C 367.200 261.998,368.437 264.400,368.617 264.400 C 368.704 264.400,368.661 264.085,368.521 263.700 C 368.233 262.906,367.200 261.303,367.200 261.650 M370.412 268.800 C 370.412 269.130,370.587 269.670,370.800 270.000 C 371.145 270.533,371.188 270.533,371.188 270.000 C 371.188 269.670,371.013 269.130,370.800 268.800 C 370.455 268.267,370.412 268.267,370.412 268.800 M29.067 269.067 C 28.920 269.213,28.811 269.708,28.825 270.167 C 28.849 270.933,28.882 270.923,29.234 270.042 C 29.626 269.063,29.544 268.589,29.067 269.067 M324.800 269.587 C 324.800 269.800,324.305 270.243,323.700 270.571 C 322.392 271.281,322.730 271.397,324.181 270.736 C 325.036 270.346,325.648 269.200,325.000 269.200 C 324.890 269.200,324.800 269.374,324.800 269.587 M371.212 271.200 C 371.212 271.530,371.387 272.070,371.600 272.400 C 371.945 272.933,371.988 272.933,371.988 272.400 C 371.988 272.070,371.813 271.530,371.600 271.200 C 371.255 270.667,371.212 270.667,371.212 271.200 M77.600 271.337 C 77.600 271.423,78.365 271.998,79.300 272.615 C 80.261 273.249,80.752 273.434,80.429 273.042 C 79.887 272.382,77.600 271.004,77.600 271.337 M321.189 271.858 C 315.909 275.372,311.948 282.822,312.501 288.200 C 312.663 289.775,312.667 289.770,312.733 287.877 C 312.946 281.769,316.610 275.166,321.600 271.897 C 322.150 271.537,322.505 271.233,322.389 271.221 C 322.273 271.209,321.733 271.496,321.189 271.858 M344.089 274.542 C 344.810 275.280,345.477 275.818,345.571 275.738 C 345.802 275.540,343.537 273.200,343.114 273.200 C 342.929 273.200,343.367 273.804,344.089 274.542 M372.012 273.600 C 372.012 273.930,372.187 274.470,372.400 274.800 C 372.745 275.333,372.788 275.333,372.788 274.800 C 372.788 274.470,372.613 273.930,372.400 273.600 C 372.055 273.067,372.012 273.067,372.012 273.600 M27.467 273.867 C 27.320 274.013,27.211 274.508,27.225 274.967 C 27.249 275.733,27.282 275.723,27.634 274.842 C 28.026 273.863,27.944 273.389,27.467 273.867 M55.402 274.398 C 55.003 274.839,54.807 275.200,54.967 275.200 C 55.388 275.200,56.528 273.995,56.312 273.779 C 56.211 273.678,55.802 273.956,55.402 274.398 M83.150 276.300 C 91.556 286.921,85.824 302.414,72.323 305.562 C 68.336 306.492,64.942 305.962,60.038 303.644 C 58.587 302.958,54.176 298.865,53.092 297.200 C 52.735 296.650,52.433 296.424,52.421 296.699 C 52.379 297.698,57.893 302.987,60.180 304.141 C 77.704 312.981,95.395 292.318,83.834 276.512 C 83.155 275.584,82.457 274.819,82.281 274.812 C 82.106 274.806,82.497 275.475,83.150 276.300 M53.449 276.900 C 52.403 278.271,50.785 281.741,50.822 282.533 C 50.834 282.790,51.204 282.110,51.645 281.023 C 52.086 279.936,52.970 278.271,53.610 277.323 C 54.976 275.298,54.875 275.031,53.449 276.900 M26.649 277.015 C 26.512 277.373,26.416 278.056,26.436 278.533 C 26.462 279.147,26.585 279.008,26.859 278.056 C 27.257 276.672,27.094 275.858,26.649 277.015 M347.066 278.378 C 347.677 279.466,348.249 280.284,348.337 280.196 C 348.527 280.006,346.459 276.400,346.160 276.400 C 346.047 276.400,346.454 277.290,347.066 278.378 M373.040 277.466 C 373.408 278.999,373.600 279.144,373.600 277.890 C 373.600 277.317,373.413 276.732,373.184 276.590 C 372.911 276.421,372.862 276.723,373.040 277.466 M373.646 280.200 C 373.715 281.831,374.315 283.187,374.354 281.800 C 374.373 281.140,374.213 280.330,374.000 280.000 C 373.681 279.506,373.618 279.541,373.646 280.200 M25.849 280.615 C 25.712 280.973,25.620 281.836,25.644 282.533 C 25.682 283.637,25.733 283.571,26.036 282.025 C 26.393 280.205,26.294 279.457,25.849 280.615 M71.200 281.800 C 71.750 282.114,72.380 282.372,72.600 282.372 C 72.820 282.372,72.550 282.114,72.000 281.800 C 71.450 281.486,70.820 281.228,70.600 281.228 C 70.380 281.228,70.650 281.486,71.200 281.800 M328.000 281.800 C 327.450 282.114,327.180 282.372,327.400 282.372 C 327.620 282.372,328.250 282.114,328.800 281.800 C 329.350 281.486,329.620 281.228,329.400 281.228 C 329.180 281.228,328.550 281.486,328.000 281.800 M50.167 284.636 C 49.593 287.695,50.777 294.541,52.098 295.800 C 52.388 296.077,52.421 295.953,52.205 295.400 C 52.033 294.960,51.612 293.880,51.269 293.000 C 50.857 291.942,50.638 290.011,50.623 287.300 C 50.598 282.772,50.559 282.546,50.167 284.636 M349.399 287.604 C 349.399 290.008,349.521 291.666,349.671 291.288 C 350.025 290.396,350.025 284.805,349.672 283.916 C 349.522 283.540,349.400 285.200,349.399 287.604 M25.052 285.300 C 24.719 286.544,24.792 336.037,25.128 336.885 C 25.278 337.262,25.400 325.606,25.400 310.985 C 25.400 296.363,25.376 284.400,25.347 284.400 C 25.317 284.400,25.185 284.805,25.052 285.300 M374.600 311.000 C 374.600 325.613,374.722 337.262,374.872 336.885 C 375.021 336.508,375.144 324.860,375.144 311.000 C 375.144 297.140,375.021 285.492,374.872 285.115 C 374.722 284.738,374.600 296.386,374.600 311.000 M74.600 287.602 C 74.600 289.100,74.732 290.118,74.894 289.863 C 75.281 289.254,75.286 285.300,74.900 285.063 C 74.735 284.962,74.600 286.105,74.600 287.602 M325.067 285.067 C 324.700 285.434,324.729 289.509,325.100 289.738 C 325.265 289.840,325.400 288.771,325.400 287.362 C 325.400 285.953,325.385 284.800,325.367 284.800 C 325.348 284.800,325.213 284.920,325.067 285.067 M336.711 290.426 C 336.340 291.072,336.180 291.600,336.354 291.600 C 336.683 291.600,337.724 289.591,337.507 289.374 C 337.440 289.307,337.082 289.780,336.711 290.426 M313.028 291.400 C 313.775 296.445,318.705 302.497,323.804 304.628 C 326.003 305.546,325.433 305.008,322.900 303.773 C 318.788 301.768,313.696 295.419,313.572 292.143 C 313.556 291.734,313.374 291.040,313.168 290.600 C 312.894 290.019,312.856 290.238,313.028 291.400 M325.600 290.759 C 325.600 291.131,327.954 293.399,328.103 293.171 C 328.164 293.077,327.626 292.430,326.907 291.734 C 326.188 291.038,325.600 290.599,325.600 290.759 M72.975 292.050 C 72.152 292.925,72.052 293.147,72.641 292.791 C 73.367 292.351,74.643 290.800,74.278 290.800 C 74.208 290.800,73.621 291.363,72.975 292.050 M66.538 293.694 C 66.792 293.856,67.810 293.988,68.800 293.988 C 69.790 293.988,70.808 293.856,71.062 293.694 C 71.316 293.532,70.298 293.400,68.800 293.400 C 67.302 293.400,66.284 293.532,66.538 293.694 M329.163 293.724 C 329.342 293.903,330.369 293.990,331.444 293.918 L 333.400 293.787 331.119 293.594 C 329.864 293.487,328.984 293.546,329.163 293.724 M347.742 295.443 C 347.590 295.859,346.920 297.010,346.255 298.000 C 345.589 298.990,345.359 299.544,345.745 299.232 C 346.666 298.486,348.565 295.231,348.258 294.925 C 348.126 294.793,347.894 295.026,347.742 295.443 M342.906 301.546 C 338.453 305.398,333.490 306.573,326.600 305.409 C 325.940 305.297,326.300 305.471,327.400 305.795 C 332.319 307.245,339.215 305.509,343.356 301.780 C 345.446 299.898,345.050 299.692,342.906 301.546 M299.471 326.488 C 299.304 327.307,298.687 328.567,298.098 329.288 C 297.190 330.401,297.168 330.479,297.955 329.801 C 299.190 328.736,300.080 326.949,299.911 325.873 C 299.810 325.233,299.693 325.397,299.471 326.488 M25.646 338.800 C 25.627 339.350,25.787 340.070,26.000 340.400 C 26.494 341.164,26.494 340.342,26.000 338.800 L 25.680 337.800 25.646 338.800 M373.829 339.429 C 373.681 340.015,373.651 340.584,373.761 340.694 C 373.871 340.804,374.081 340.415,374.229 339.829 C 374.376 339.242,374.406 338.673,374.296 338.563 C 374.186 338.453,373.976 338.842,373.829 339.429 M373.000 342.000 C 372.850 342.473,372.817 342.950,372.927 343.060 C 373.037 343.170,373.250 342.873,373.400 342.400 C 373.550 341.927,373.583 341.450,373.473 341.340 C 373.363 341.230,373.150 341.527,373.000 342.000 M294.600 343.991 C 295.260 344.162,296.160 344.426,296.600 344.578 C 297.131 344.762,297.064 344.649,296.400 344.242 C 295.850 343.904,294.950 343.640,294.400 343.655 C 293.485 343.680,293.502 343.708,294.600 343.991 M28.045 345.404 C 28.517 346.636,30.576 350.000,30.859 350.000 C 31.041 350.000,30.536 348.965,29.737 347.700 C 28.238 345.329,27.777 344.702,28.045 345.404 M369.403 349.094 C 368.569 350.362,367.191 352.089,366.343 352.931 C 364.394 354.864,364.303 355.433,366.239 353.578 C 367.894 351.993,371.388 347.255,371.109 346.976 C 371.006 346.872,370.238 347.826,369.403 349.094 M299.458 348.400 C 299.775 350.125,300.002 350.451,299.994 349.167 C 299.991 348.635,299.811 347.930,299.594 347.600 C 299.318 347.178,299.277 347.415,299.458 348.400 M31.926 351.400 C 32.708 352.587,35.066 354.882,36.605 355.954 C 37.042 356.259,36.680 355.817,35.800 354.973 C 34.920 354.129,33.510 352.709,32.668 351.819 C 31.473 350.557,31.309 350.465,31.926 351.400 M362.203 356.454 C 361.105 357.296,359.176 358.474,357.916 359.073 C 356.657 359.671,355.705 360.238,355.800 360.333 C 356.229 360.762,361.963 357.423,364.367 355.344 C 365.450 354.408,363.704 355.303,362.203 356.454 M38.200 357.089 C 39.117 358.018,43.414 360.408,44.125 360.384 C 44.386 360.375,43.548 359.835,42.262 359.184 C 40.976 358.533,39.356 357.613,38.662 357.139 C 37.496 356.343,37.461 356.340,38.200 357.089 M354.350 360.583 C 352.970 361.963,349.475 362.176,324.600 362.399 L 299.800 362.620 323.600 362.710 C 348.038 362.802,347.666 362.819,353.906 361.322 C 354.812 361.104,355.564 360.400,354.890 360.400 C 354.694 360.400,354.451 360.483,354.350 360.583 " stroke="none" fill="#604718" fill-rule="evenodd"></path></g></svg>