<svg id="svg" version="1.1" xmlns="http://www.w3.org/2000/svg" xmlns:xlink="http://www.w3.org/1999/xlink" width="400" height="400" viewBox="0, 0, 400,400"><g id="svgg"><path id="path0" d="M195.800 8.800 C 195.664 9.020,195.111 9.200,194.571 9.200 C 194.031 9.200,193.277 9.354,192.895 9.541 C 192.513 9.729,191.513 10.214,190.673 10.619 C 188.796 11.524,184.800 15.298,184.800 16.165 C 184.800 16.514,184.639 16.800,184.442 16.800 C 184.245 16.800,183.366 18.285,182.488 20.100 C 178.120 29.129,177.200 31.155,177.200 31.752 C 177.200 32.108,177.020 32.400,176.800 32.400 C 176.580 32.400,176.400 32.760,176.400 33.200 C 176.400 33.640,176.220 34.000,176.000 34.000 C 175.780 34.000,175.600 34.360,175.600 34.800 C 175.600 35.240,175.420 35.600,175.200 35.600 C 174.980 35.600,174.800 35.960,174.800 36.400 C 174.800 36.840,174.620 37.200,174.400 37.200 C 174.180 37.200,174.000 37.560,174.000 38.000 C 174.000 38.440,173.820 38.800,173.600 38.800 C 173.380 38.800,173.200 39.160,173.200 39.600 C 173.200 40.040,173.020 40.400,172.800 40.400 C 172.580 40.400,172.400 40.760,172.400 41.200 C 172.400 41.640,172.220 42.000,172.000 42.000 C 171.780 42.000,171.600 42.360,171.600 42.800 C 171.600 43.240,171.454 43.600,171.275 43.600 C 171.096 43.600,170.702 44.230,170.400 45.000 C 170.098 45.770,169.704 46.400,169.525 46.400 C 169.346 46.400,169.200 46.760,169.200 47.200 C 169.200 47.640,169.020 48.000,168.800 48.000 C 168.580 48.000,168.400 48.360,168.400 48.800 C 168.400 49.240,168.220 49.600,168.000 49.600 C 167.780 49.600,167.600 49.960,167.600 50.400 C 167.600 50.840,167.420 51.200,167.200 51.200 C 166.980 51.200,166.800 51.560,166.800 52.000 C 166.800 52.440,166.620 52.800,166.400 52.800 C 166.180 52.800,166.000 53.160,166.000 53.600 C 166.000 54.040,165.820 54.400,165.600 54.400 C 165.380 54.400,165.200 54.760,165.200 55.200 C 165.200 55.640,165.020 56.000,164.800 56.000 C 164.580 56.000,164.400 56.360,164.400 56.800 C 164.400 57.240,164.220 57.600,164.000 57.600 C 163.780 57.600,163.600 57.960,163.600 58.400 C 163.600 58.840,163.420 59.200,163.200 59.200 C 162.980 59.200,162.800 59.404,162.800 59.653 C 162.800 59.903,162.170 61.343,161.400 62.854 C 160.630 64.365,160.000 65.871,160.000 66.200 C 160.000 66.530,159.820 66.800,159.600 66.800 C 159.380 66.800,159.200 67.160,159.200 67.600 C 159.200 68.040,159.020 68.400,158.800 68.400 C 158.580 68.400,158.400 68.760,158.400 69.200 C 158.400 69.640,158.220 70.000,158.000 70.000 C 157.780 70.000,157.600 70.360,157.600 70.800 C 157.600 71.240,157.420 71.600,157.200 71.600 C 156.980 71.600,156.800 71.960,156.800 72.400 C 156.800 72.840,156.620 73.200,156.400 73.200 C 156.180 73.200,156.000 73.560,156.000 74.000 C 156.000 74.440,155.820 74.800,155.600 74.800 C 155.380 74.800,155.200 75.160,155.200 75.600 C 155.200 76.040,155.020 76.400,154.800 76.400 C 154.580 76.400,154.400 76.760,154.400 77.200 C 154.400 77.640,154.220 78.000,154.000 78.000 C 153.780 78.000,153.600 78.360,153.600 78.800 C 153.600 79.240,153.420 79.600,153.200 79.600 C 152.980 79.600,152.800 79.960,152.800 80.400 C 152.800 80.840,152.620 81.200,152.400 81.200 C 152.180 81.200,152.000 81.441,152.000 81.736 C 152.000 82.031,151.100 84.039,150.000 86.200 C 148.900 88.361,148.000 90.369,148.000 90.664 C 148.000 90.959,147.820 91.200,147.600 91.200 C 147.380 91.200,147.200 91.545,147.200 91.967 C 147.200 92.388,147.059 92.793,146.886 92.867 C 146.419 93.065,143.600 98.953,143.600 99.730 C 143.600 100.098,143.420 100.400,143.200 100.400 C 142.980 100.400,142.800 100.760,142.800 101.200 C 142.800 101.640,142.620 102.000,142.400 102.000 C 142.180 102.000,142.000 102.360,142.000 102.800 C 142.000 103.240,141.820 103.600,141.600 103.600 C 141.380 103.600,141.200 103.960,141.200 104.400 C 141.200 104.840,141.020 105.200,140.800 105.200 C 140.580 105.200,140.400 105.560,140.400 106.000 C 140.400 106.440,140.220 106.800,140.000 106.800 C 139.780 106.800,139.600 107.160,139.600 107.600 C 139.600 108.040,139.420 108.400,139.200 108.400 C 138.980 108.400,138.800 108.760,138.800 109.200 C 138.800 109.640,138.654 110.000,138.475 110.000 C 138.296 110.000,137.902 110.630,137.600 111.400 C 137.298 112.170,136.904 112.800,136.725 112.800 C 136.546 112.800,136.400 113.160,136.400 113.600 C 136.400 114.040,136.220 114.400,136.000 114.400 C 135.780 114.400,135.600 114.760,135.600 115.200 C 135.600 115.640,135.420 116.000,135.200 116.000 C 134.980 116.000,134.800 116.360,134.800 116.800 C 134.800 117.240,134.620 117.600,134.400 117.600 C 134.180 117.600,134.000 117.960,134.000 118.400 C 134.000 118.840,133.820 119.200,133.600 119.200 C 133.380 119.200,133.200 119.560,133.200 120.000 C 133.200 120.440,133.020 120.800,132.800 120.800 C 132.580 120.800,132.400 121.160,132.400 121.600 C 132.400 122.040,132.220 122.400,132.000 122.400 C 131.780 122.400,131.600 122.760,131.600 123.200 C 131.600 123.822,131.333 124.000,130.400 124.000 C 129.740 124.000,129.200 124.180,129.200 124.400 C 129.200 124.626,128.067 124.800,126.600 124.800 C 125.133 124.800,124.000 124.974,124.000 125.200 C 124.000 125.425,122.875 125.600,121.424 125.600 C 120.007 125.600,118.736 125.780,118.600 126.000 C 118.464 126.220,117.193 126.400,115.776 126.400 C 114.359 126.400,113.200 126.555,113.200 126.743 C 113.200 126.932,111.004 127.215,108.320 127.372 C 105.636 127.529,103.128 127.825,102.746 128.029 C 102.365 128.233,101.061 128.400,99.850 128.400 C 98.638 128.400,97.536 128.580,97.400 128.800 C 97.264 129.020,95.993 129.200,94.576 129.200 C 93.125 129.200,92.000 129.375,92.000 129.600 C 92.000 129.825,90.875 130.000,89.424 130.000 C 88.007 130.000,86.736 130.180,86.600 130.400 C 86.464 130.620,85.204 130.800,83.800 130.800 C 82.396 130.800,81.136 130.980,81.000 131.200 C 80.864 131.420,79.593 131.600,78.176 131.600 C 76.725 131.600,75.600 131.775,75.600 132.000 C 75.600 132.225,74.475 132.400,73.024 132.400 C 71.607 132.400,70.336 132.580,70.200 132.800 C 70.064 133.020,68.804 133.200,67.400 133.200 C 65.996 133.200,64.736 133.380,64.600 133.600 C 64.464 133.820,63.294 134.000,62.000 134.000 C 60.706 134.000,59.536 134.180,59.400 134.400 C 59.264 134.620,58.094 134.800,56.800 134.800 C 55.506 134.800,54.336 134.980,54.200 135.200 C 54.064 135.420,52.894 135.600,51.600 135.600 C 50.306 135.600,49.136 135.780,49.000 136.000 C 48.864 136.220,47.593 136.400,46.176 136.400 C 44.725 136.400,43.600 136.575,43.600 136.800 C 43.600 137.029,42.400 137.200,40.800 137.200 C 39.200 137.200,38.000 137.371,38.000 137.600 C 38.000 137.829,36.800 138.000,35.200 138.000 C 33.600 138.000,32.400 138.171,32.400 138.400 C 32.400 138.626,31.267 138.800,29.800 138.800 C 28.333 138.800,27.200 138.974,27.200 139.200 C 27.200 139.425,26.075 139.600,24.624 139.600 C 23.207 139.600,21.936 139.780,21.800 140.000 C 21.664 140.220,20.393 140.400,18.976 140.400 C 17.525 140.400,16.400 140.575,16.400 140.800 C 16.400 141.020,15.511 141.200,14.424 141.200 C 13.337 141.200,12.336 141.380,12.200 141.600 C 12.064 141.820,11.513 142.000,10.976 142.000 C 10.439 142.000,10.000 142.180,10.000 142.400 C 10.000 142.620,9.640 142.800,9.200 142.800 C 8.760 142.800,8.400 142.960,8.400 143.157 C 8.400 143.353,7.975 143.620,7.454 143.751 C 6.156 144.076,2.000 148.232,2.000 149.205 C 2.000 149.422,1.820 149.600,1.600 149.600 C 1.380 149.600,1.200 149.945,1.200 150.367 C 1.200 150.788,0.975 151.208,0.700 151.300 C -0.021 151.540,-0.021 166.460,0.700 166.700 C 0.975 166.792,1.200 167.212,1.200 167.633 C 1.200 168.055,1.380 168.400,1.600 168.400 C 1.820 168.400,2.000 168.670,2.000 169.000 C 2.000 169.330,2.180 169.600,2.400 169.600 C 2.620 169.600,2.800 169.790,2.800 170.022 C 2.800 170.254,3.925 171.513,5.300 172.819 C 6.675 174.124,8.340 175.740,9.000 176.408 C 17.096 184.609,19.650 187.127,22.986 190.200 C 25.136 192.180,30.339 197.178,34.548 201.307 C 43.886 210.469,43.033 209.622,47.432 214.101 C 49.429 216.136,52.751 219.330,54.814 221.200 C 56.877 223.070,62.391 228.380,67.067 233.000 C 71.743 237.620,75.981 241.790,76.485 242.266 C 76.988 242.742,78.859 244.639,80.642 246.482 C 82.425 248.325,84.990 250.814,86.342 252.014 C 88.812 254.206,89.896 257.675,88.400 258.600 C 88.180 258.736,88.000 259.827,88.000 261.024 C 88.000 262.221,87.820 263.200,87.600 263.200 C 87.380 263.200,87.200 264.190,87.200 265.400 C 87.200 266.610,87.020 267.600,86.800 267.600 C 86.578 267.600,86.400 268.667,86.400 270.000 C 86.400 271.333,86.222 272.400,86.000 272.400 C 85.778 272.400,85.600 273.467,85.600 274.800 C 85.600 276.133,85.422 277.200,85.200 277.200 C 84.980 277.200,84.800 278.089,84.800 279.176 C 84.800 280.263,84.620 281.264,84.400 281.400 C 84.180 281.536,84.000 282.526,84.000 283.600 C 84.000 284.674,83.820 285.664,83.600 285.800 C 83.380 285.936,83.200 287.016,83.200 288.200 C 83.200 289.384,83.020 290.464,82.800 290.600 C 82.580 290.736,82.400 291.827,82.400 293.024 C 82.400 294.221,82.220 295.200,82.000 295.200 C 81.759 295.200,81.600 296.827,81.600 299.281 L 81.600 303.361 83.420 305.081 C 85.152 306.717,86.400 307.269,86.400 306.400 C 86.400 306.180,86.715 305.999,87.100 305.998 C 90.546 305.987,93.257 303.539,93.742 300.000 C 93.952 298.468,94.586 294.643,95.200 291.200 C 95.416 289.990,95.788 287.830,96.028 286.400 C 96.268 284.970,96.623 282.900,96.818 281.800 C 97.012 280.700,97.349 278.720,97.566 277.400 C 97.945 275.095,98.466 272.063,99.216 267.800 C 99.410 266.700,99.747 264.720,99.966 263.400 C 100.185 262.080,100.558 260.010,100.796 258.800 C 102.319 251.058,101.927 249.528,97.310 245.194 C 94.708 242.752,74.386 222.966,57.260 206.200 C 44.526 193.734,42.483 191.743,36.963 186.426 C 10.194 160.637,9.733 160.062,12.500 155.996 C 14.166 153.547,14.898 153.270,22.600 152.165 C 26.560 151.597,30.970 150.960,32.400 150.750 C 33.830 150.541,36.170 150.203,37.600 150.000 C 39.030 149.797,41.460 149.438,43.000 149.201 C 44.540 148.964,47.060 148.598,48.600 148.388 C 50.140 148.177,52.660 147.816,54.200 147.587 C 55.740 147.357,58.260 146.990,59.800 146.771 C 61.340 146.552,63.770 146.201,65.200 145.990 C 66.630 145.779,69.150 145.413,70.800 145.177 C 72.450 144.941,74.790 144.592,76.000 144.400 C 78.000 144.083,79.410 143.879,87.000 142.804 C 88.320 142.617,90.705 142.270,92.300 142.032 C 93.895 141.794,96.415 141.427,97.900 141.216 C 99.385 141.004,101.770 140.656,103.200 140.443 C 105.780 140.057,109.987 139.455,114.600 138.811 C 127.465 137.015,137.167 135.458,138.212 135.021 C 139.971 134.286,140.337 133.672,146.694 120.800 C 149.790 114.530,156.009 101.930,160.514 92.800 C 165.018 83.670,172.613 68.280,177.391 58.600 C 182.169 48.920,188.065 36.974,190.493 32.053 C 195.932 21.026,197.084 19.817,201.384 20.623 C 204.322 21.175,202.980 18.745,224.911 63.200 C 229.199 71.890,236.884 87.460,241.989 97.800 C 247.095 108.140,252.998 120.110,255.106 124.400 C 260.523 135.425,260.246 135.131,266.004 135.964 C 267.652 136.203,270.260 136.586,271.800 136.817 C 273.340 137.047,276.490 137.496,278.800 137.814 C 281.110 138.133,284.260 138.582,285.800 138.814 C 287.340 139.046,289.860 139.406,291.400 139.614 C 292.940 139.823,295.280 140.162,296.600 140.368 C 302.970 141.362,305.202 141.697,307.600 142.020 C 309.030 142.212,311.460 142.564,313.000 142.803 C 314.540 143.042,317.060 143.410,318.600 143.621 C 322.307 144.131,325.975 144.667,329.400 145.200 C 330.940 145.440,333.460 145.800,335.000 146.000 C 336.540 146.200,339.060 146.558,340.600 146.797 C 342.140 147.036,344.660 147.410,346.200 147.629 C 347.740 147.848,350.080 148.188,351.400 148.385 C 352.720 148.582,355.150 148.935,356.800 149.169 C 358.450 149.404,361.015 149.777,362.500 149.998 C 368.862 150.945,370.449 151.172,375.000 151.779 C 385.106 153.128,386.132 153.474,387.562 156.018 C 389.409 159.304,388.358 162.148,383.741 166.362 C 382.453 167.537,377.436 172.391,372.591 177.149 C 367.746 181.907,360.456 189.026,356.391 192.969 C 349.058 200.081,346.379 202.695,317.682 230.741 C 309.498 238.739,302.333 245.653,301.758 246.104 C 298.420 248.730,297.823 251.190,299.014 257.400 C 299.352 259.160,299.793 261.680,299.994 263.000 C 300.196 264.320,300.558 266.480,300.800 267.800 C 301.042 269.120,301.405 271.190,301.606 272.400 C 302.037 274.991,302.723 278.994,303.216 281.800 C 303.410 282.900,303.755 284.925,303.984 286.300 C 304.485 289.311,305.139 293.082,305.630 295.800 C 305.972 297.687,306.437 300.422,307.195 305.000 C 307.377 306.100,307.723 308.125,307.963 309.500 C 308.203 310.875,308.594 313.125,308.832 314.500 C 309.070 315.875,309.423 317.900,309.616 319.000 C 309.810 320.100,310.146 322.080,310.364 323.400 C 310.582 324.720,310.958 326.880,311.200 328.200 C 311.442 329.520,311.797 331.590,311.989 332.800 C 312.328 334.938,314.604 348.231,316.647 360.000 C 319.010 373.620,319.081 374.300,318.285 375.825 C 316.191 379.836,312.726 380.493,307.800 377.812 C 306.260 376.974,303.380 375.439,301.400 374.399 C 299.420 373.360,296.000 371.564,293.800 370.407 C 291.600 369.251,287.730 367.220,285.200 365.895 C 282.670 364.570,279.454 362.867,278.054 362.111 C 276.653 361.354,273.593 359.738,271.254 358.519 C 268.914 357.300,265.380 355.451,263.400 354.409 C 261.420 353.368,257.460 351.294,254.600 349.801 C 251.740 348.308,248.230 346.453,246.800 345.677 C 245.370 344.902,242.400 343.338,240.200 342.202 C 234.392 339.202,222.921 333.184,214.600 328.774 C 212.400 327.607,209.160 325.921,207.400 325.027 C 205.640 324.132,204.140 323.265,204.067 323.100 C 203.993 322.935,203.599 322.800,203.190 322.800 C 202.782 322.800,202.336 322.620,202.200 322.400 C 202.064 322.180,201.182 322.000,200.241 322.000 C 198.392 322.000,195.979 323.158,179.400 331.996 C 175.437 334.109,169.362 337.291,162.600 340.797 C 160.180 342.052,156.940 343.755,155.400 344.582 C 151.746 346.545,145.694 349.744,140.200 352.614 C 128.635 358.657,121.073 362.632,117.800 364.390 C 116.260 365.216,112.570 367.132,109.600 368.646 C 106.630 370.161,104.110 371.493,104.000 371.606 C 103.890 371.719,102.360 372.541,100.600 373.432 C 98.840 374.324,95.600 376.022,93.400 377.206 C 88.355 379.922,85.684 380.191,83.584 378.193 C 81.031 375.766,80.832 374.531,81.971 368.200 C 82.582 364.811,83.154 361.508,83.566 359.000 C 83.783 357.680,84.158 355.520,84.400 354.200 C 84.642 352.880,84.995 350.810,85.185 349.600 C 85.374 348.390,86.387 342.540,87.437 336.600 C 90.086 321.598,90.013 320.282,86.423 318.356 C 85.680 317.958,84.885 317.445,84.656 317.216 C 83.595 316.155,81.228 316.751,79.454 318.525 C 77.628 320.351,77.213 321.600,77.204 325.300 C 77.202 326.345,77.020 327.200,76.800 327.200 C 76.580 327.200,76.400 328.190,76.400 329.400 C 76.400 330.610,76.220 331.600,76.000 331.600 C 75.780 331.600,75.600 332.590,75.600 333.800 C 75.600 335.010,75.420 336.000,75.200 336.000 C 74.980 336.000,74.800 336.979,74.800 338.176 C 74.800 339.373,74.620 340.464,74.400 340.600 C 74.180 340.736,74.000 341.827,74.000 343.024 C 74.000 344.221,73.820 345.200,73.600 345.200 C 73.380 345.200,73.200 346.190,73.200 347.400 C 73.200 348.610,73.020 349.600,72.800 349.600 C 72.578 349.600,72.400 350.667,72.400 352.000 C 72.400 353.333,72.222 354.400,72.000 354.400 C 71.778 354.400,71.600 355.467,71.600 356.800 C 71.600 358.133,71.422 359.200,71.200 359.200 C 70.980 359.200,70.800 360.089,70.800 361.176 C 70.800 362.263,70.620 363.264,70.400 363.400 C 70.180 363.536,70.000 364.526,70.000 365.600 C 70.000 366.674,69.820 367.664,69.600 367.800 C 69.063 368.132,69.063 378.400,69.600 378.400 C 69.820 378.400,70.000 378.940,70.000 379.600 C 70.000 380.260,70.180 380.800,70.400 380.800 C 70.620 380.800,70.800 381.160,70.800 381.600 C 70.800 382.040,70.980 382.400,71.200 382.400 C 71.420 382.400,71.600 382.688,71.600 383.040 C 71.600 383.843,77.056 389.209,78.630 389.954 C 79.273 390.258,80.232 390.708,80.761 390.954 C 82.145 391.597,93.008 391.552,93.660 390.900 C 93.935 390.625,94.484 390.400,94.880 390.400 C 95.276 390.400,95.600 390.220,95.600 390.000 C 95.600 389.780,95.960 389.600,96.400 389.600 C 96.840 389.600,97.200 389.420,97.200 389.200 C 97.200 388.980,97.560 388.800,98.000 388.800 C 98.440 388.800,98.800 388.620,98.800 388.400 C 98.800 388.180,99.160 388.000,99.600 388.000 C 100.040 388.000,100.400 387.820,100.400 387.600 C 100.400 387.380,100.760 387.200,101.200 387.200 C 101.640 387.200,102.001 387.065,102.001 386.900 C 102.002 386.735,102.992 386.150,104.200 385.600 C 105.408 385.050,106.398 384.465,106.399 384.300 C 106.399 384.135,106.760 384.000,107.200 384.000 C 107.640 384.000,108.000 383.842,108.000 383.649 C 108.000 383.455,108.540 383.073,109.200 382.800 C 109.860 382.527,110.400 382.145,110.400 381.951 C 110.400 381.758,110.760 381.600,111.200 381.600 C 111.640 381.600,112.000 381.420,112.000 381.200 C 112.000 380.980,112.360 380.800,112.800 380.800 C 113.240 380.800,113.600 380.620,113.600 380.400 C 113.600 380.180,113.960 380.000,114.400 380.000 C 114.840 380.000,115.200 379.820,115.200 379.600 C 115.200 379.380,115.560 379.200,116.000 379.200 C 116.440 379.200,116.800 379.020,116.800 378.800 C 116.800 378.580,117.160 378.400,117.600 378.400 C 118.040 378.400,118.400 378.220,118.400 378.000 C 118.400 377.780,118.760 377.600,119.200 377.600 C 119.640 377.600,120.000 377.454,120.000 377.275 C 120.000 377.096,120.630 376.702,121.400 376.400 C 122.170 376.098,122.800 375.704,122.800 375.525 C 122.800 375.346,123.147 375.200,123.571 375.200 C 123.996 375.200,124.613 374.930,124.943 374.600 C 125.273 374.270,125.826 374.000,126.171 374.000 C 126.517 374.000,126.800 373.820,126.800 373.600 C 126.800 373.380,127.160 373.200,127.600 373.200 C 128.040 373.200,128.400 373.020,128.400 372.800 C 128.400 372.580,128.760 372.400,129.200 372.400 C 129.640 372.400,130.000 372.220,130.000 372.000 C 130.000 371.780,130.360 371.600,130.800 371.600 C 131.240 371.600,131.600 371.420,131.600 371.200 C 131.600 370.980,131.960 370.800,132.400 370.800 C 132.840 370.800,133.200 370.620,133.200 370.400 C 133.200 370.180,133.560 370.000,134.000 370.000 C 134.440 370.000,134.800 369.864,134.800 369.698 C 134.800 369.531,135.385 369.141,136.100 368.830 C 136.815 368.519,137.490 368.157,137.600 368.027 C 137.710 367.896,138.655 367.358,139.700 366.832 C 140.745 366.305,141.600 365.723,141.600 365.537 C 141.600 365.352,141.960 365.200,142.400 365.200 C 142.840 365.200,143.200 365.020,143.200 364.800 C 143.200 364.580,143.560 364.400,144.000 364.400 C 144.440 364.400,144.800 364.220,144.800 364.000 C 144.800 363.780,145.160 363.600,145.600 363.600 C 146.040 363.600,146.400 363.420,146.400 363.200 C 146.400 362.980,146.760 362.800,147.200 362.800 C 147.640 362.800,148.000 362.620,148.000 362.400 C 148.000 362.180,148.360 362.000,148.800 362.000 C 149.240 362.000,149.600 361.820,149.600 361.600 C 149.600 361.380,149.960 361.200,150.400 361.200 C 150.840 361.200,151.200 361.054,151.200 360.875 C 151.200 360.696,151.830 360.302,152.600 360.000 C 153.370 359.698,154.000 359.304,154.000 359.125 C 154.000 358.946,154.207 358.800,154.460 358.800 C 155.091 358.800,159.368 356.705,159.533 356.315 C 159.607 356.142,160.012 356.000,160.433 356.000 C 160.855 356.000,161.200 355.820,161.200 355.600 C 161.200 355.380,161.560 355.200,162.000 355.200 C 162.440 355.200,162.800 355.020,162.800 354.800 C 162.800 354.580,163.160 354.400,163.600 354.400 C 164.040 354.400,164.401 354.265,164.401 354.100 C 164.402 353.935,165.392 353.350,166.600 352.800 C 167.808 352.250,168.798 351.699,168.799 351.575 C 168.799 351.451,169.430 351.102,170.200 350.800 C 170.970 350.498,171.600 350.104,171.600 349.925 C 171.600 349.746,171.960 349.600,172.400 349.600 C 172.840 349.600,173.200 349.420,173.200 349.200 C 173.200 348.980,173.560 348.800,174.000 348.800 C 174.440 348.800,174.800 348.620,174.800 348.400 C 174.800 348.180,175.070 348.000,175.400 348.000 C 175.730 348.000,176.000 347.820,176.000 347.600 C 176.000 347.380,176.360 347.200,176.800 347.200 C 177.240 347.200,177.600 347.020,177.600 346.800 C 177.600 346.580,177.960 346.400,178.400 346.400 C 178.840 346.400,179.200 346.220,179.200 346.000 C 179.200 345.780,179.560 345.600,180.000 345.600 C 180.440 345.600,180.800 345.420,180.800 345.200 C 180.800 344.980,181.145 344.800,181.567 344.800 C 181.988 344.800,182.393 344.665,182.467 344.500 C 182.540 344.335,183.455 343.767,184.500 343.237 C 185.545 342.708,186.400 342.123,186.400 341.937 C 186.400 341.752,186.697 341.600,187.060 341.600 C 187.837 341.600,192.139 339.572,192.333 339.115 C 192.407 338.942,192.812 338.800,193.233 338.800 C 193.655 338.800,194.000 338.620,194.000 338.400 C 194.000 338.180,194.360 338.000,194.800 338.000 C 195.240 338.000,195.600 337.820,195.600 337.600 C 195.600 337.380,195.945 337.200,196.367 337.200 C 196.788 337.200,197.193 337.065,197.267 336.900 C 197.340 336.735,197.979 336.278,198.687 335.885 L 199.974 335.170 203.687 337.085 C 205.729 338.138,207.460 339.135,207.533 339.300 C 207.607 339.465,208.012 339.600,208.433 339.600 C 208.855 339.600,209.200 339.738,209.200 339.906 C 209.200 340.277,212.169 341.600,213.003 341.600 C 213.331 341.600,213.600 341.746,213.600 341.925 C 213.600 342.104,214.230 342.498,215.000 342.800 C 215.770 343.102,216.400 343.496,216.400 343.675 C 216.400 343.854,216.670 344.000,217.000 344.000 C 217.330 344.000,217.600 344.180,217.600 344.400 C 217.600 344.620,217.960 344.800,218.400 344.800 C 218.840 344.800,219.200 344.980,219.200 345.200 C 219.200 345.420,219.560 345.600,220.000 345.600 C 220.440 345.600,220.800 345.780,220.800 346.000 C 220.800 346.220,221.160 346.400,221.600 346.400 C 222.040 346.400,222.400 346.580,222.400 346.800 C 222.400 347.020,222.760 347.200,223.200 347.200 C 223.640 347.200,224.000 347.380,224.000 347.600 C 224.000 347.820,224.360 348.000,224.800 348.000 C 225.240 348.000,225.600 348.180,225.600 348.400 C 225.600 348.620,225.960 348.800,226.400 348.800 C 226.840 348.800,227.200 348.980,227.200 349.200 C 227.200 349.420,227.470 349.600,227.800 349.600 C 228.130 349.600,228.400 349.780,228.400 350.000 C 228.400 350.220,228.760 350.400,229.200 350.400 C 229.640 350.400,230.001 350.535,230.003 350.700 C 230.005 350.865,230.410 351.201,230.903 351.446 C 234.250 353.109,237.020 354.645,237.133 354.900 C 237.207 355.065,237.612 355.200,238.033 355.200 C 238.455 355.200,238.800 355.380,238.800 355.600 C 238.800 355.820,239.160 356.000,239.600 356.000 C 240.040 356.000,240.400 356.180,240.400 356.400 C 240.400 356.620,240.760 356.800,241.200 356.800 C 241.640 356.800,242.000 356.980,242.000 357.200 C 242.000 357.420,242.360 357.600,242.800 357.600 C 243.240 357.600,243.600 357.766,243.600 357.968 C 243.600 358.171,244.140 358.455,244.800 358.600 C 245.460 358.745,246.000 359.029,246.000 359.232 C 246.000 359.434,246.360 359.600,246.800 359.600 C 247.240 359.600,247.600 359.746,247.600 359.925 C 247.600 360.104,248.230 360.498,249.000 360.800 C 249.770 361.102,250.400 361.496,250.400 361.675 C 250.400 361.854,250.760 362.000,251.200 362.000 C 251.640 362.000,252.000 362.180,252.000 362.400 C 252.000 362.620,252.360 362.800,252.800 362.800 C 253.240 362.800,253.600 362.980,253.600 363.200 C 253.600 363.420,253.960 363.600,254.400 363.600 C 254.840 363.600,255.200 363.780,255.200 364.000 C 255.200 364.220,255.560 364.400,256.000 364.400 C 256.440 364.400,256.800 364.580,256.800 364.800 C 256.800 365.020,257.160 365.200,257.600 365.200 C 258.040 365.200,258.400 365.380,258.400 365.600 C 258.400 365.820,258.760 366.000,259.200 366.000 C 259.640 366.000,260.000 366.180,260.000 366.400 C 260.000 366.620,260.270 366.800,260.600 366.800 C 260.930 366.800,261.201 366.935,261.203 367.100 C 261.205 367.265,261.610 367.598,262.103 367.840 C 264.511 369.022,266.613 370.230,266.733 370.500 C 266.807 370.665,267.212 370.800,267.633 370.800 C 268.055 370.800,268.400 370.980,268.400 371.200 C 268.400 371.420,268.760 371.600,269.200 371.600 C 269.640 371.600,270.000 371.780,270.000 372.000 C 270.000 372.220,270.360 372.400,270.800 372.400 C 271.240 372.400,271.600 372.580,271.600 372.800 C 271.600 373.020,271.960 373.200,272.400 373.200 C 272.840 373.200,273.200 373.380,273.200 373.600 C 273.200 373.820,273.560 374.000,274.000 374.000 C 274.440 374.000,274.800 374.166,274.800 374.368 C 274.800 374.571,275.340 374.855,276.000 375.000 C 276.660 375.145,277.200 375.429,277.200 375.632 C 277.200 375.834,277.560 376.000,278.000 376.000 C 278.440 376.000,278.800 376.146,278.800 376.325 C 278.800 376.504,279.430 376.898,280.200 377.200 C 280.970 377.502,281.600 377.896,281.600 378.075 C 281.600 378.254,281.960 378.400,282.400 378.400 C 282.840 378.400,283.200 378.580,283.200 378.800 C 283.200 379.020,283.560 379.200,284.000 379.200 C 284.440 379.200,284.800 379.380,284.800 379.600 C 284.800 379.820,285.160 380.000,285.600 380.000 C 286.040 380.000,286.400 380.180,286.400 380.400 C 286.400 380.620,286.760 380.800,287.200 380.800 C 287.640 380.800,288.000 380.980,288.000 381.200 C 288.000 381.420,288.360 381.600,288.800 381.600 C 289.240 381.600,289.600 381.745,289.600 381.921 C 289.600 382.098,290.497 382.683,291.594 383.221 C 292.690 383.760,293.590 384.335,293.594 384.500 C 293.597 384.665,293.960 384.800,294.400 384.800 C 294.840 384.800,295.200 384.946,295.200 385.125 C 295.200 385.304,295.830 385.698,296.600 386.000 C 297.370 386.302,298.000 386.696,298.000 386.875 C 298.000 387.054,298.234 387.200,298.520 387.200 C 299.256 387.200,301.193 388.141,301.197 388.500 C 301.199 388.665,301.560 388.800,302.000 388.800 C 302.440 388.800,302.800 388.980,302.800 389.200 C 302.800 389.420,303.160 389.600,303.600 389.600 C 304.040 389.600,304.400 389.780,304.400 390.000 C 304.400 390.220,304.724 390.400,305.120 390.400 C 305.516 390.400,306.065 390.625,306.340 390.900 C 306.695 391.255,308.550 391.400,312.720 391.400 L 318.600 391.400 321.000 390.085 C 323.270 388.841,326.000 386.701,326.000 386.166 C 326.000 386.031,326.540 385.417,327.200 384.800 C 327.860 384.183,328.400 383.391,328.400 383.040 C 328.400 382.688,328.580 382.400,328.800 382.400 C 329.020 382.400,329.200 382.040,329.200 381.600 C 329.200 381.160,329.380 380.800,329.600 380.800 C 329.820 380.800,330.000 380.260,330.000 379.600 C 330.000 378.940,330.180 378.400,330.400 378.400 C 330.646 378.400,330.800 376.408,330.800 373.224 C 330.800 370.204,330.633 367.944,330.400 367.800 C 330.180 367.664,330.000 366.674,330.000 365.600 C 330.000 364.526,329.820 363.536,329.600 363.400 C 329.380 363.264,329.200 362.263,329.200 361.176 C 329.200 360.089,329.020 359.200,328.800 359.200 C 328.578 359.200,328.400 358.133,328.400 356.800 C 328.400 355.467,328.222 354.400,328.000 354.400 C 327.778 354.400,327.600 353.333,327.600 352.000 C 327.600 350.667,327.422 349.600,327.200 349.600 C 326.980 349.600,326.800 348.610,326.800 347.400 C 326.800 346.190,326.620 345.200,326.400 345.200 C 326.178 345.200,326.000 344.133,326.000 342.800 C 326.000 341.480,325.837 340.400,325.638 340.400 C 325.440 340.400,325.148 338.507,324.990 336.194 C 324.833 333.880,324.545 331.890,324.352 331.770 C 324.158 331.651,324.000 330.699,324.000 329.656 C 324.000 328.613,323.837 327.589,323.637 327.380 C 323.437 327.171,323.175 326.100,323.054 325.000 C 322.934 323.900,322.639 321.830,322.400 320.400 C 322.161 318.970,321.866 316.900,321.746 315.800 C 321.625 314.700,321.363 313.629,321.163 313.420 C 320.963 313.211,320.800 312.187,320.800 311.144 C 320.800 310.101,320.620 309.136,320.400 309.000 C 320.180 308.864,320.000 307.773,320.000 306.576 C 320.000 305.379,319.820 304.400,319.600 304.400 C 319.380 304.400,319.200 303.421,319.200 302.224 C 319.200 301.027,319.020 299.936,318.800 299.800 C 318.580 299.664,318.400 298.573,318.400 297.376 C 318.400 296.179,318.220 295.200,318.000 295.200 C 317.780 295.200,317.600 294.221,317.600 293.024 C 317.600 291.827,317.420 290.736,317.200 290.600 C 316.980 290.464,316.800 289.384,316.800 288.200 C 316.800 287.016,316.620 285.936,316.400 285.800 C 316.180 285.664,316.000 284.674,316.000 283.600 C 316.000 282.526,315.820 281.536,315.600 281.400 C 315.380 281.264,315.200 280.263,315.200 279.176 C 315.200 278.089,315.020 277.200,314.800 277.200 C 314.578 277.200,314.400 276.133,314.400 274.800 C 314.400 273.467,314.222 272.400,314.000 272.400 C 313.778 272.400,313.600 271.333,313.600 270.000 C 313.600 268.667,313.422 267.600,313.200 267.600 C 312.980 267.600,312.800 266.621,312.800 265.424 C 312.800 264.227,312.620 263.136,312.400 263.000 C 312.180 262.864,312.000 261.874,312.000 260.800 C 312.000 259.726,311.820 258.736,311.600 258.600 C 310.124 257.687,311.187 254.334,313.673 252.061 C 315.034 250.817,321.581 244.400,328.223 237.800 C 334.864 231.200,342.062 224.180,344.217 222.200 C 346.373 220.220,353.389 213.380,359.808 207.000 C 366.227 200.620,373.426 193.600,375.806 191.400 C 379.142 188.317,386.961 180.605,391.859 175.568 C 392.047 175.375,393.325 174.143,394.700 172.831 C 396.075 171.518,397.200 170.254,397.200 170.022 C 397.200 169.790,397.380 169.600,397.600 169.600 C 397.820 169.600,398.000 169.330,398.000 169.000 C 398.000 168.670,398.180 168.400,398.400 168.400 C 398.620 168.400,398.800 168.055,398.800 167.633 C 398.800 167.212,399.025 166.792,399.300 166.700 C 399.676 166.575,399.800 164.671,399.800 159.000 C 399.800 153.329,399.676 151.425,399.300 151.300 C 399.025 151.208,398.800 150.788,398.800 150.367 C 398.800 149.945,398.620 149.600,398.400 149.600 C 398.180 149.600,398.000 149.330,398.000 149.000 C 398.000 148.670,397.820 148.400,397.600 148.400 C 397.380 148.400,397.200 148.202,397.200 147.960 C 397.200 147.338,393.664 144.073,392.647 143.756 C 392.181 143.611,391.710 143.381,391.600 143.246 C 391.166 142.713,389.568 142.000,388.805 142.000 C 388.362 142.000,388.000 141.820,388.000 141.600 C 388.000 141.380,387.100 141.200,386.000 141.200 C 384.900 141.200,384.000 141.020,384.000 140.800 C 384.000 140.571,382.800 140.400,381.200 140.400 C 379.600 140.400,378.400 140.229,378.400 140.000 C 378.400 139.771,377.200 139.600,375.600 139.600 C 374.000 139.600,372.800 139.429,372.800 139.200 C 372.800 138.974,371.667 138.800,370.200 138.800 C 368.733 138.800,367.600 138.626,367.600 138.400 C 367.600 138.171,366.400 138.000,364.800 138.000 C 363.200 138.000,362.000 137.829,362.000 137.600 C 362.000 137.374,360.867 137.200,359.400 137.200 C 357.933 137.200,356.800 137.026,356.800 136.800 C 356.800 136.576,355.693 136.400,354.280 136.400 C 352.894 136.400,351.589 136.235,351.380 136.034 C 351.171 135.832,349.875 135.562,348.500 135.434 C 347.125 135.305,344.875 135.095,343.500 134.966 C 342.125 134.838,340.829 134.568,340.620 134.366 C 340.411 134.165,339.207 134.000,337.944 134.000 C 336.681 134.000,335.536 133.820,335.400 133.600 C 335.264 133.380,334.004 133.200,332.600 133.200 C 331.196 133.200,329.936 133.020,329.800 132.800 C 329.664 132.580,328.393 132.400,326.976 132.400 C 325.525 132.400,324.400 132.225,324.400 132.000 C 324.400 131.775,323.275 131.600,321.824 131.600 C 320.407 131.600,319.136 131.420,319.000 131.200 C 318.864 130.980,317.593 130.800,316.176 130.800 C 314.725 130.800,313.600 130.625,313.600 130.400 C 313.600 130.176,312.493 130.000,311.080 130.000 C 309.694 130.000,308.389 129.835,308.180 129.634 C 307.971 129.432,306.720 129.171,305.400 129.052 C 304.080 128.934,301.740 128.641,300.200 128.401 C 298.660 128.161,295.105 127.763,292.300 127.516 C 289.495 127.270,287.200 126.918,287.200 126.734 C 287.200 126.550,285.940 126.400,284.400 126.400 C 282.800 126.400,281.600 126.229,281.600 126.000 C 281.600 125.771,280.400 125.600,278.800 125.600 C 277.200 125.600,276.000 125.429,276.000 125.200 C 276.000 124.974,274.867 124.800,273.400 124.800 C 271.933 124.800,270.800 124.626,270.800 124.400 C 270.800 124.180,270.260 124.000,269.600 124.000 C 268.667 124.000,268.400 123.822,268.400 123.200 C 268.400 122.760,268.220 122.400,268.000 122.400 C 267.780 122.400,267.600 122.040,267.600 121.600 C 267.600 121.160,267.420 120.800,267.200 120.800 C 266.980 120.800,266.800 120.440,266.800 120.000 C 266.800 119.560,266.620 119.200,266.400 119.200 C 266.180 119.200,266.000 118.840,266.000 118.400 C 266.000 117.960,265.820 117.600,265.600 117.600 C 265.380 117.600,265.200 117.240,265.200 116.800 C 265.200 116.360,265.020 116.000,264.800 116.000 C 264.580 116.000,264.400 115.640,264.400 115.200 C 264.400 114.760,264.220 114.400,264.000 114.400 C 263.780 114.400,263.600 114.040,263.600 113.600 C 263.600 113.160,263.420 112.800,263.200 112.800 C 262.980 112.800,262.800 112.440,262.800 112.000 C 262.800 111.560,262.620 111.200,262.400 111.200 C 262.180 111.200,262.000 110.930,262.000 110.600 C 262.000 110.270,261.820 110.000,261.600 110.000 C 261.380 110.000,261.200 109.640,261.200 109.200 C 261.200 108.760,261.020 108.400,260.800 108.400 C 260.580 108.400,260.400 108.040,260.400 107.600 C 260.400 107.160,260.220 106.800,260.000 106.800 C 259.780 106.800,259.600 106.440,259.600 106.000 C 259.600 105.560,259.436 105.200,259.235 105.200 C 259.034 105.200,258.749 104.480,258.600 103.600 C 258.451 102.720,258.166 102.000,257.965 102.000 C 257.764 102.000,257.600 101.640,257.600 101.200 C 257.600 100.760,257.465 100.399,257.300 100.397 C 256.949 100.393,256.000 98.463,256.000 97.754 C 256.000 97.486,255.857 97.207,255.683 97.133 C 255.388 97.009,250.369 86.995,249.151 84.100 C 248.851 83.385,248.469 82.800,248.302 82.800 C 248.136 82.800,248.000 82.440,248.000 82.000 C 248.000 81.560,247.820 81.200,247.600 81.200 C 247.380 81.200,247.200 80.840,247.200 80.400 C 247.200 79.960,247.020 79.600,246.800 79.600 C 246.580 79.600,246.400 79.240,246.400 78.800 C 246.400 78.360,246.220 78.000,246.000 78.000 C 245.780 78.000,245.600 77.640,245.600 77.200 C 245.600 76.760,245.420 76.400,245.200 76.400 C 244.980 76.400,244.800 76.040,244.800 75.600 C 244.800 75.160,244.620 74.800,244.400 74.800 C 244.180 74.800,244.000 74.440,244.000 74.000 C 244.000 73.560,243.820 73.200,243.600 73.200 C 243.380 73.200,243.200 72.840,243.200 72.400 C 243.200 71.960,243.020 71.600,242.800 71.600 C 242.580 71.600,242.400 71.240,242.400 70.800 C 242.400 70.360,242.220 70.000,242.000 70.000 C 241.780 70.000,241.600 69.733,241.600 69.406 C 241.600 68.669,237.164 59.450,236.721 59.267 C 236.545 59.193,236.400 58.788,236.400 58.367 C 236.400 57.945,236.220 57.600,236.000 57.600 C 235.780 57.600,235.600 57.240,235.600 56.800 C 235.600 56.360,235.420 56.000,235.200 56.000 C 234.980 56.000,234.800 55.640,234.800 55.200 C 234.800 54.760,234.620 54.400,234.400 54.400 C 234.180 54.400,234.000 54.040,234.000 53.600 C 234.000 53.160,233.820 52.800,233.600 52.800 C 233.380 52.800,233.200 52.440,233.200 52.000 C 233.200 51.560,233.020 51.200,232.800 51.200 C 232.580 51.200,232.400 50.840,232.400 50.400 C 232.400 49.960,232.220 49.600,232.000 49.600 C 231.780 49.600,231.600 49.240,231.600 48.800 C 231.600 48.360,231.420 48.000,231.200 48.000 C 230.980 48.000,230.800 47.640,230.800 47.200 C 230.800 46.760,230.620 46.400,230.400 46.400 C 230.180 46.400,230.000 46.040,230.000 45.600 C 230.000 45.160,229.820 44.800,229.600 44.800 C 229.380 44.800,229.200 44.530,229.200 44.200 C 229.200 43.870,229.020 43.600,228.800 43.600 C 228.580 43.600,228.400 43.240,228.400 42.800 C 228.400 42.360,228.220 42.000,228.000 42.000 C 227.780 42.000,227.600 41.640,227.600 41.200 C 227.600 40.760,227.420 40.400,227.200 40.400 C 226.980 40.400,226.800 40.040,226.800 39.600 C 226.800 39.160,226.620 38.800,226.400 38.800 C 226.180 38.800,226.000 38.440,226.000 38.000 C 226.000 37.560,225.836 37.200,225.635 37.200 C 225.434 37.200,225.149 36.480,225.000 35.600 C 224.851 34.720,224.566 34.000,224.365 34.000 C 224.164 34.000,224.000 33.640,224.000 33.200 C 224.000 32.760,223.865 32.399,223.700 32.397 C 223.341 32.393,222.400 30.456,222.400 29.720 C 222.400 29.434,222.220 29.200,222.000 29.200 C 221.780 29.200,221.600 28.988,221.600 28.728 C 221.600 27.968,215.936 16.800,215.551 16.800 C 215.358 16.800,215.200 16.525,215.200 16.189 C 215.200 14.792,209.399 10.000,207.707 10.000 C 207.208 10.000,206.800 9.820,206.800 9.600 C 206.800 9.380,206.260 9.200,205.600 9.200 C 204.940 9.200,204.400 9.020,204.400 8.800 C 204.400 8.559,202.741 8.400,200.224 8.400 C 197.871 8.400,195.939 8.575,195.800 8.800 " stroke="none" fill="#050504" fill-rule="evenodd"></path><path id="path1" d="M196.977 22.089 C 196.171 22.642,195.147 24.169,193.977 26.564 C 193.000 28.564,192.065 30.260,191.900 30.333 C 191.735 30.407,191.599 30.677,191.598 30.933 C 191.597 31.190,189.167 36.313,186.198 42.319 C 183.229 48.324,180.800 53.409,180.800 53.619 C 180.800 53.828,180.649 54.000,180.464 54.000 C 180.279 54.000,179.890 54.720,179.600 55.600 C 179.310 56.480,178.921 57.200,178.736 57.200 C 178.551 57.200,178.400 57.560,178.400 58.000 C 178.400 58.440,178.220 58.800,178.000 58.800 C 177.780 58.800,177.600 59.160,177.600 59.600 C 177.600 60.040,177.420 60.400,177.200 60.400 C 176.980 60.400,176.800 60.634,176.800 60.920 C 176.800 61.656,175.859 63.593,175.500 63.597 C 175.335 63.599,175.200 63.818,175.200 64.084 C 175.200 64.351,173.506 67.996,171.437 72.184 C 167.824 79.494,154.372 106.760,145.470 124.814 C 139.648 136.622,140.834 135.789,127.200 137.647 C 123.012 138.218,119.895 138.662,116.400 139.184 C 114.750 139.431,112.140 139.811,110.600 140.028 C 109.060 140.246,106.630 140.604,105.200 140.824 C 103.770 141.045,101.340 141.394,99.800 141.600 C 98.260 141.806,95.740 142.165,94.200 142.398 C 92.660 142.631,90.230 142.990,88.800 143.196 C 85.528 143.669,81.306 144.299,78.200 144.778 C 76.880 144.982,74.360 145.352,72.600 145.600 C 70.840 145.848,68.410 146.208,67.200 146.400 C 65.990 146.592,63.650 146.938,62.000 147.170 C 60.350 147.401,58.370 147.688,57.600 147.806 C 56.830 147.924,54.850 148.208,53.200 148.436 C 51.550 148.664,49.120 149.026,47.800 149.239 C 45.326 149.640,35.576 151.035,20.200 153.189 C 14.831 153.941,13.538 154.660,12.408 157.521 C 11.217 160.535,11.012 160.297,34.361 183.000 C 37.755 186.300,42.093 190.530,44.000 192.400 C 47.671 196.000,50.765 199.015,73.971 221.612 C 100.199 247.151,101.945 248.916,102.251 250.199 C 102.585 251.602,102.097 255.527,100.384 265.200 C 99.168 272.071,98.837 273.989,97.969 279.200 C 97.731 280.630,97.377 282.700,97.182 283.800 C 96.988 284.900,96.629 286.970,96.385 288.400 C 96.141 289.830,95.781 291.900,95.585 293.000 C 95.389 294.100,95.061 296.080,94.856 297.400 C 94.651 298.720,94.389 300.070,94.275 300.400 C 94.160 300.730,93.964 301.474,93.838 302.053 C 93.340 304.338,90.590 306.400,88.040 306.400 C 86.121 306.400,85.600 307.103,85.600 309.694 C 85.600 310.654,85.440 311.611,85.245 311.820 C 85.050 312.029,84.812 313.215,84.716 314.455 L 84.542 316.709 86.232 317.531 C 89.982 319.352,90.709 322.299,89.262 329.800 C 89.050 330.900,88.762 332.520,88.623 333.400 C 88.484 334.280,88.199 335.900,87.989 337.000 C 87.581 339.147,86.683 344.506,85.810 350.000 C 84.680 357.117,83.168 365.885,82.709 367.986 C 81.180 374.979,82.777 378.800,87.229 378.800 C 88.977 378.800,92.376 377.503,92.733 376.700 C 92.807 376.535,93.197 376.400,93.600 376.400 C 94.003 376.400,94.393 376.265,94.467 376.100 C 94.605 375.789,95.334 375.385,102.400 371.704 C 104.710 370.501,108.580 368.472,111.000 367.196 C 113.420 365.921,117.200 363.948,119.400 362.812 C 121.600 361.677,123.571 360.580,123.780 360.374 C 123.989 360.168,124.469 360.000,124.847 360.000 C 125.224 360.000,125.593 359.865,125.667 359.700 C 125.740 359.535,126.880 358.839,128.200 358.154 C 129.520 357.469,132.130 356.101,134.000 355.113 C 140.623 351.615,147.847 347.846,151.400 346.035 C 153.380 345.026,155.060 344.065,155.133 343.900 C 155.207 343.735,155.597 343.600,156.000 343.600 C 156.403 343.600,156.793 343.465,156.867 343.300 C 156.940 343.135,158.080 342.439,159.400 341.754 C 162.406 340.194,167.443 337.541,172.481 334.864 C 174.616 333.730,178.486 331.711,181.081 330.377 C 183.677 329.044,185.971 327.783,186.180 327.576 C 186.389 327.369,186.869 327.200,187.247 327.200 C 187.624 327.200,187.993 327.065,188.067 326.900 C 188.140 326.735,189.190 326.080,190.400 325.444 C 191.610 324.808,193.770 323.653,195.200 322.876 C 197.291 321.741,198.231 321.466,200.000 321.472 C 202.315 321.480,201.975 321.330,213.400 327.401 C 224.812 333.465,226.327 334.108,233.200 335.802 C 234.630 336.155,243.990 338.522,254.000 341.062 C 264.010 343.602,272.920 345.851,273.800 346.059 C 276.472 346.690,277.886 347.049,286.200 349.211 C 290.600 350.354,294.811 351.383,295.558 351.496 L 296.915 351.701 296.680 349.951 C 296.332 347.366,295.775 343.986,294.808 338.600 C 294.335 335.960,293.794 332.810,293.608 331.600 C 293.421 330.390,292.706 326.160,292.019 322.200 C 289.226 306.108,287.917 298.488,287.587 296.400 C 287.396 295.190,287.042 293.120,286.800 291.800 C 286.558 290.480,286.189 288.365,285.980 287.100 C 285.771 285.835,285.429 283.765,285.220 282.500 C 285.011 281.235,284.642 279.120,284.400 277.800 C 283.975 275.481,283.670 273.690,282.834 268.600 C 282.617 267.280,282.242 265.120,282.000 263.800 C 281.758 262.480,281.398 260.410,281.200 259.200 C 281.002 257.990,280.642 255.920,280.400 254.600 C 279.835 251.518,279.249 247.883,278.949 245.600 L 278.712 243.800 293.856 229.008 C 302.185 220.872,312.150 211.124,316.000 207.345 C 319.850 203.567,323.630 199.894,324.400 199.184 C 325.170 198.474,332.426 191.402,340.523 183.468 C 348.621 175.534,355.596 168.798,356.023 168.499 C 357.599 167.395,357.135 167.193,351.200 166.405 C 349.550 166.186,347.030 165.823,345.600 165.600 C 344.170 165.377,341.740 165.020,340.200 164.808 C 338.660 164.596,331.820 163.603,325.000 162.602 C 318.180 161.600,311.340 160.610,309.800 160.403 C 308.260 160.195,303.310 159.476,298.800 158.805 C 294.290 158.134,289.250 157.396,287.600 157.165 C 285.950 156.935,283.520 156.590,282.200 156.400 C 280.880 156.210,278.450 155.863,276.800 155.630 C 275.150 155.397,272.630 155.023,271.200 154.800 C 269.770 154.577,267.250 154.203,265.600 153.970 C 263.950 153.737,261.430 153.371,260.000 153.157 C 258.570 152.944,256.230 152.603,254.800 152.401 C 249.445 151.643,248.762 151.476,248.422 150.841 C 248.038 150.124,246.747 146.607,245.616 143.200 C 245.214 141.990,244.607 140.280,244.267 139.400 C 243.927 138.520,242.096 133.390,240.197 128.000 C 234.566 112.011,234.361 111.434,233.999 110.600 C 233.809 110.160,233.269 108.630,232.800 107.200 C 232.331 105.770,231.797 104.240,231.614 103.800 C 231.431 103.360,231.090 102.460,230.857 101.800 C 230.045 99.500,223.902 82.160,221.930 76.600 C 220.837 73.520,219.677 70.190,219.352 69.200 C 219.026 68.210,218.598 67.040,218.400 66.600 C 218.202 66.160,217.773 64.990,217.447 64.000 C 217.120 63.010,216.287 60.670,215.595 58.800 C 214.903 56.930,214.003 54.410,213.595 53.200 C 213.188 51.990,212.461 49.920,211.980 48.600 C 211.499 47.280,210.157 43.500,208.997 40.200 C 207.837 36.900,206.498 33.120,206.022 31.800 C 205.546 30.480,204.887 28.590,204.558 27.600 C 203.914 25.661,203.664 25.015,202.662 22.700 C 201.867 20.863,199.184 20.574,196.977 22.089 " stroke="none" fill="#fbd36b" fill-rule="evenodd"></path><path id="path2" d="M202.400 21.781 C 202.400 21.947,202.772 22.921,203.630 25.000 C 203.811 25.440,204.229 26.610,204.558 27.600 C 204.887 28.590,205.546 30.480,206.022 31.800 C 206.498 33.120,207.837 36.900,208.997 40.200 C 210.157 43.500,211.499 47.280,211.980 48.600 C 212.461 49.920,213.188 51.990,213.595 53.200 C 214.003 54.410,214.903 56.930,215.595 58.800 C 216.287 60.670,217.120 63.010,217.447 64.000 C 217.773 64.990,218.202 66.160,218.400 66.600 C 218.598 67.040,219.026 68.210,219.352 69.200 C 219.677 70.190,220.837 73.520,221.930 76.600 C 223.902 82.160,230.045 99.500,230.857 101.800 C 231.090 102.460,231.431 103.360,231.614 103.800 C 231.797 104.240,232.331 105.770,232.800 107.200 C 233.269 108.630,233.809 110.160,233.999 110.600 C 234.361 111.434,234.566 112.011,240.197 128.000 C 242.096 133.390,243.927 138.520,244.267 139.400 C 244.607 140.280,245.214 141.990,245.616 143.200 C 246.747 146.607,248.038 150.124,248.422 150.841 C 248.762 151.476,249.445 151.643,254.800 152.401 C 256.230 152.603,258.570 152.944,260.000 153.157 C 261.430 153.371,263.950 153.737,265.600 153.970 C 267.250 154.203,269.770 154.577,271.200 154.800 C 272.630 155.023,275.150 155.397,276.800 155.630 C 278.450 155.863,280.880 156.210,282.200 156.400 C 283.520 156.590,285.950 156.935,287.600 157.165 C 289.250 157.396,294.290 158.134,298.800 158.805 C 303.310 159.476,308.260 160.195,309.800 160.403 C 311.340 160.610,318.180 161.600,325.000 162.602 C 331.820 163.603,338.660 164.596,340.200 164.808 C 341.740 165.020,344.170 165.377,345.600 165.600 C 347.030 165.823,349.550 166.186,351.200 166.405 C 357.135 167.193,357.599 167.395,356.023 168.499 C 355.596 168.798,348.621 175.534,340.523 183.468 C 332.426 191.402,325.170 198.474,324.400 199.184 C 323.630 199.894,319.850 203.567,316.000 207.345 C 312.150 211.124,302.185 220.872,293.856 229.008 L 278.712 243.800 278.949 245.600 C 279.249 247.883,279.835 251.518,280.400 254.600 C 280.642 255.920,281.002 257.990,281.200 259.200 C 281.398 260.410,281.758 262.480,282.000 263.800 C 282.242 265.120,282.611 267.235,282.820 268.500 C 283.029 269.765,283.371 271.835,283.580 273.100 C 283.789 274.365,284.158 276.480,284.400 277.800 C 284.825 280.119,285.130 281.910,285.966 287.000 C 286.183 288.320,286.558 290.480,286.800 291.800 C 287.042 293.120,287.396 295.190,287.587 296.400 C 287.917 298.488,289.226 306.108,292.019 322.200 C 292.706 326.160,293.421 330.390,293.608 331.600 C 293.794 332.810,294.335 335.960,294.808 338.600 C 295.775 343.986,296.332 347.366,296.680 349.951 L 296.915 351.701 295.558 351.496 C 294.811 351.383,290.600 350.354,286.200 349.211 C 281.800 348.067,277.480 346.958,276.600 346.747 C 275.720 346.536,274.370 346.210,273.600 346.022 C 271.753 345.572,235.806 336.437,234.000 335.959 C 233.230 335.755,231.880 335.430,231.000 335.236 C 230.120 335.042,228.545 334.612,227.500 334.281 C 224.829 333.434,225.125 333.742,228.700 335.528 C 231.647 337.000,237.521 340.075,243.200 343.118 C 246.415 344.841,250.588 347.035,257.600 350.691 C 264.285 354.176,270.130 357.247,273.800 359.202 C 275.340 360.022,278.940 361.905,281.800 363.385 C 284.660 364.866,288.260 366.757,289.800 367.587 C 293.791 369.739,301.781 373.943,304.600 375.376 C 305.920 376.046,307.090 376.686,307.200 376.798 C 308.048 377.655,311.159 378.800,312.643 378.800 C 317.136 378.800,318.967 375.339,317.616 369.400 C 317.416 368.520,316.954 365.910,316.589 363.600 C 315.809 358.662,315.406 356.274,314.798 353.000 C 314.554 351.680,314.169 349.430,313.945 348.000 C 313.720 346.570,313.364 344.410,313.155 343.200 C 312.945 341.990,312.605 340.010,312.400 338.800 C 312.195 337.590,311.835 335.520,311.600 334.200 C 311.365 332.880,310.999 330.765,310.786 329.500 C 310.574 328.235,310.226 326.165,310.014 324.900 C 309.801 323.635,309.441 321.565,309.214 320.300 C 308.282 315.120,307.490 310.551,306.820 306.500 C 306.391 303.905,305.708 299.974,305.170 297.000 C 304.971 295.900,304.636 293.920,304.427 292.600 C 304.218 291.280,303.847 289.120,303.603 287.800 C 303.360 286.480,303.002 284.410,302.809 283.200 C 302.484 281.169,300.627 270.104,299.586 264.000 C 298.924 260.118,298.404 257.226,297.980 255.069 C 297.101 250.600,297.736 249.123,302.465 244.638 C 305.844 241.434,321.315 226.358,357.800 190.718 C 361.980 186.635,367.830 180.952,370.800 178.089 C 389.504 160.057,389.914 159.463,386.399 155.460 C 384.886 153.737,385.384 153.845,366.800 151.208 C 362.070 150.537,356.850 149.796,355.200 149.562 C 353.550 149.328,351.030 148.962,349.600 148.750 C 348.170 148.537,345.740 148.190,344.200 147.979 C 342.660 147.767,340.230 147.421,338.800 147.210 C 337.370 146.999,334.940 146.648,333.400 146.429 C 331.860 146.210,329.340 145.828,327.800 145.579 C 326.260 145.330,323.920 144.976,322.600 144.791 C 316.720 143.970,310.439 143.062,306.200 142.420 C 304.880 142.220,302.360 141.851,300.600 141.600 C 296.842 141.064,293.142 140.524,289.800 140.024 C 286.914 139.591,282.348 138.913,278.800 138.390 C 277.370 138.179,274.940 137.839,273.400 137.636 C 263.731 136.358,261.890 135.969,260.431 134.892 C 259.439 134.160,246.000 108.100,246.000 106.908 C 246.000 106.628,245.820 106.400,245.600 106.400 C 245.380 106.400,245.200 106.040,245.200 105.600 C 245.200 105.160,245.065 104.799,244.900 104.797 C 244.541 104.793,243.600 102.856,243.600 102.120 C 243.600 101.834,243.420 101.600,243.200 101.600 C 242.980 101.600,242.800 101.240,242.800 100.800 C 242.800 100.360,242.620 100.000,242.400 100.000 C 242.180 100.000,242.000 99.808,242.000 99.574 C 242.000 99.339,239.367 93.804,236.148 87.274 C 232.930 80.743,226.971 68.650,222.907 60.400 C 206.940 27.989,204.666 23.502,203.732 22.568 C 202.798 21.635,202.400 21.399,202.400 21.781 M60.400 208.600 C 61.146 209.370,61.847 210.000,61.957 210.000 C 62.067 210.000,61.546 209.370,60.800 208.600 C 60.054 207.830,59.353 207.200,59.243 207.200 C 59.133 207.200,59.654 207.830,60.400 208.600 M92.000 239.325 C 92.000 239.394,92.585 239.979,93.300 240.625 L 94.600 241.800 93.425 240.500 C 92.330 239.288,92.000 239.016,92.000 239.325 " stroke="none" fill="#fbbb23" fill-rule="evenodd"></path><path id="path3" d="M199.100 21.082 C 199.595 21.178,200.405 21.178,200.900 21.082 C 201.395 20.987,200.990 20.909,200.000 20.909 C 199.010 20.909,198.605 20.987,199.100 21.082 M181.586 50.701 C 180.745 52.387,180.740 52.400,180.947 52.400 C 181.205 52.400,182.442 49.908,182.269 49.736 C 182.195 49.662,181.888 50.096,181.586 50.701 M165.482 83.411 C 164.892 84.615,164.494 85.600,164.598 85.600 C 164.867 85.600,166.884 81.551,166.705 81.371 C 166.623 81.289,166.073 82.207,165.482 83.411 M162.684 89.014 C 161.871 90.656,161.293 92.000,161.398 92.000 C 161.665 92.000,164.485 86.351,164.306 86.173 C 164.227 86.093,163.497 87.372,162.684 89.014 M235.600 86.143 C 235.600 86.578,238.387 92.000,238.610 92.000 C 238.720 92.000,238.157 90.695,237.358 89.100 C 235.860 86.107,235.600 85.670,235.600 86.143 M150.485 113.815 C 149.561 115.677,148.893 117.200,148.998 117.200 C 149.265 117.200,152.485 110.751,152.307 110.574 C 152.228 110.495,151.408 111.953,150.485 113.815 M146.682 121.411 C 146.092 122.615,145.694 123.600,145.798 123.600 C 146.067 123.600,148.084 119.551,147.905 119.371 C 147.823 119.289,147.273 120.207,146.682 121.411 M133.400 136.400 C 132.322 136.674,132.302 136.706,133.200 136.713 C 133.750 136.717,134.650 136.576,135.200 136.400 C 136.544 135.969,135.092 135.969,133.400 136.400 M264.800 136.400 C 265.350 136.576,266.160 136.720,266.600 136.720 C 267.233 136.720,267.192 136.654,266.400 136.400 C 265.850 136.224,265.040 136.080,264.600 136.080 C 263.967 136.080,264.008 136.146,264.800 136.400 M128.000 137.200 L 127.000 137.520 128.000 137.520 C 128.550 137.520,129.450 137.376,130.000 137.200 L 131.000 136.880 130.000 136.880 C 129.450 136.880,128.550 137.024,128.000 137.200 M122.200 138.000 L 121.000 138.305 122.200 138.325 C 122.860 138.335,123.760 138.189,124.200 138.000 L 125.000 137.656 124.200 137.675 C 123.760 137.686,122.860 137.832,122.200 138.000 M276.200 138.000 C 276.640 138.189,277.360 138.338,277.800 138.332 C 278.443 138.323,278.404 138.257,277.600 138.000 C 276.232 137.562,275.181 137.562,276.200 138.000 M116.800 138.800 L 115.800 139.120 116.800 139.120 C 117.350 139.120,118.250 138.976,118.800 138.800 L 119.800 138.480 118.800 138.480 C 118.250 138.480,117.350 138.624,116.800 138.800 M281.600 138.800 C 282.968 139.238,284.019 139.238,283.000 138.800 C 282.560 138.611,281.840 138.462,281.400 138.468 C 280.757 138.477,280.796 138.543,281.600 138.800 M111.200 139.600 L 109.800 139.895 111.200 139.919 C 111.970 139.933,112.960 139.789,113.400 139.600 L 114.200 139.256 113.400 139.281 C 112.960 139.294,111.970 139.438,111.200 139.600 M287.000 139.581 C 287.768 139.929,289.910 140.156,289.567 139.853 C 289.475 139.772,288.680 139.596,287.800 139.462 C 286.685 139.293,286.442 139.329,287.000 139.581 M105.800 140.400 L 104.600 140.705 105.800 140.725 C 106.460 140.735,107.360 140.589,107.800 140.400 L 108.600 140.056 107.800 140.075 C 107.360 140.086,106.460 140.232,105.800 140.400 M292.400 140.379 C 292.730 140.604,293.525 140.791,294.167 140.794 C 295.704 140.802,295.384 140.570,293.400 140.238 C 292.254 140.046,291.970 140.086,292.400 140.379 M100.600 141.200 L 99.400 141.505 100.600 141.525 C 101.260 141.535,102.160 141.389,102.600 141.200 L 103.400 140.856 102.600 140.875 C 102.160 140.886,101.260 141.032,100.600 141.200 M297.800 141.181 C 298.568 141.529,300.710 141.756,300.367 141.453 C 300.275 141.372,299.480 141.196,298.600 141.062 C 297.485 140.893,297.242 140.929,297.800 141.181 M94.600 142.000 L 93.000 142.286 94.400 142.315 C 95.170 142.331,96.160 142.189,96.600 142.000 C 97.543 141.595,96.862 141.595,94.600 142.000 M303.400 141.981 C 304.168 142.329,306.310 142.556,305.967 142.253 C 305.875 142.172,305.080 141.996,304.200 141.862 C 303.085 141.693,302.842 141.729,303.400 141.981 M89.400 142.800 L 87.800 143.086 89.200 143.137 C 89.970 143.165,90.870 143.013,91.200 142.800 C 91.855 142.377,91.762 142.377,89.400 142.800 M308.800 142.779 C 309.130 143.004,309.925 143.191,310.567 143.194 C 312.104 143.202,311.784 142.970,309.800 142.638 C 308.654 142.446,308.370 142.486,308.800 142.779 M314.200 143.590 C 314.964 143.928,317.514 144.157,317.167 143.856 C 317.075 143.776,316.190 143.604,315.200 143.473 C 313.998 143.314,313.666 143.353,314.200 143.590 M82.705 143.883 C 83.202 143.979,83.922 143.975,84.305 143.875 C 84.687 143.775,84.280 143.696,83.400 143.701 C 82.520 143.705,82.207 143.787,82.705 143.883 M78.200 144.400 L 76.600 144.686 78.000 144.715 C 78.770 144.731,79.760 144.589,80.200 144.400 C 81.143 143.995,80.462 143.995,78.200 144.400 M320.900 144.676 C 321.285 144.776,321.915 144.776,322.300 144.676 C 322.685 144.575,322.370 144.493,321.600 144.493 C 320.830 144.493,320.515 144.575,320.900 144.676 M72.800 145.200 L 71.000 145.480 72.600 145.512 C 73.480 145.529,74.560 145.389,75.000 145.200 C 75.927 144.802,75.361 144.802,72.800 145.200 M66.305 146.283 C 66.802 146.379,67.522 146.375,67.905 146.275 C 68.287 146.175,67.880 146.096,67.000 146.101 C 66.120 146.105,65.807 146.187,66.305 146.283 M331.900 146.282 C 332.395 146.378,333.205 146.378,333.700 146.282 C 334.195 146.187,333.790 146.109,332.800 146.109 C 331.810 146.109,331.405 146.187,331.900 146.282 M60.700 147.082 C 61.195 147.178,62.005 147.178,62.500 147.082 C 62.995 146.987,62.590 146.909,61.600 146.909 C 60.610 146.909,60.205 146.987,60.700 147.082 M337.505 147.083 C 338.002 147.179,338.722 147.175,339.105 147.075 C 339.487 146.975,339.080 146.896,338.200 146.901 C 337.320 146.905,337.007 146.987,337.505 147.083 M341.400 147.597 C 342.164 147.928,345.114 148.155,344.767 147.856 C 344.675 147.777,343.700 147.609,342.600 147.482 C 341.313 147.333,340.885 147.374,341.400 147.597 M55.505 147.883 C 56.002 147.979,56.722 147.975,57.105 147.875 C 57.487 147.775,57.080 147.696,56.200 147.701 C 55.320 147.705,55.007 147.787,55.505 147.883 M49.500 148.682 C 49.995 148.778,50.805 148.778,51.300 148.682 C 51.795 148.587,51.390 148.509,50.400 148.509 C 49.410 148.509,49.005 148.587,49.500 148.682 M348.705 148.683 C 349.202 148.779,349.922 148.775,350.305 148.675 C 350.687 148.575,350.280 148.496,349.400 148.501 C 348.520 148.505,348.207 148.587,348.705 148.683 M44.305 149.483 C 44.802 149.579,45.522 149.575,45.905 149.475 C 46.287 149.375,45.880 149.296,45.000 149.301 C 44.120 149.305,43.807 149.387,44.305 149.483 M354.305 149.483 C 354.802 149.579,355.522 149.575,355.905 149.475 C 356.287 149.375,355.880 149.296,355.000 149.301 C 354.120 149.305,353.807 149.387,354.305 149.483 M37.000 150.400 C 35.930 150.672,35.908 150.705,36.800 150.705 C 37.350 150.705,38.340 150.568,39.000 150.400 C 40.070 150.128,40.092 150.095,39.200 150.095 C 38.650 150.095,37.660 150.232,37.000 150.400 M31.400 151.200 C 29.737 151.623,31.374 151.642,33.400 151.223 C 34.745 150.945,34.809 150.892,33.800 150.893 C 33.140 150.894,32.060 151.032,31.400 151.200 M26.000 152.020 C 25.326 152.249,25.651 152.284,27.000 152.128 C 28.100 152.001,29.075 151.831,29.167 151.749 C 29.482 151.468,26.999 151.680,26.000 152.020 M370.900 151.876 C 371.285 151.976,371.915 151.976,372.300 151.876 C 372.685 151.775,372.370 151.693,371.600 151.693 C 370.830 151.693,370.515 151.775,370.900 151.876 M20.400 152.800 L 19.400 153.120 20.400 153.132 C 20.950 153.138,21.760 152.989,22.200 152.800 L 23.000 152.456 22.200 152.468 C 21.760 152.474,20.950 152.624,20.400 152.800 M13.520 155.100 C 12.953 155.705,12.381 156.650,12.249 157.200 C 12.018 158.159,12.029 158.156,12.516 157.119 C 12.796 156.525,13.455 155.580,13.982 155.019 C 14.509 154.459,14.852 154.000,14.745 154.000 C 14.637 154.000,14.086 154.495,13.520 155.100 M18.003 167.397 C 18.551 168.055,19.148 168.703,19.328 168.838 C 19.509 168.972,22.434 171.842,25.828 175.215 C 29.223 178.588,32.000 181.212,32.000 181.046 C 32.000 180.879,31.770 180.531,31.489 180.271 C 31.208 180.012,27.834 176.740,23.992 173.000 C 20.150 169.260,17.455 166.738,18.003 167.397 M372.992 176.100 L 369.400 179.800 373.100 176.208 C 376.536 172.872,376.982 172.400,376.692 172.400 C 376.632 172.400,374.967 174.065,372.992 176.100 M38.381 187.286 C 41.780 190.743,44.645 193.488,44.748 193.386 C 44.850 193.284,44.852 193.155,44.753 193.100 C 44.653 193.045,41.788 190.300,38.386 187.000 L 32.200 181.000 38.381 187.286 M360.394 188.300 L 355.000 193.800 360.500 188.406 C 363.525 185.439,366.000 182.964,366.000 182.906 C 366.000 182.619,365.406 183.191,360.394 188.300 M49.408 197.900 C 49.896 198.602,62.983 211.551,63.093 211.440 C 63.196 211.338,49.865 197.989,49.371 197.700 C 49.277 197.645,49.294 197.735,49.408 197.900 M345.194 203.100 L 339.800 208.600 345.300 203.206 C 350.409 198.194,350.981 197.600,350.694 197.600 C 350.636 197.600,348.161 200.075,345.194 203.100 M69.981 218.100 C 73.601 221.769,76.620 224.714,76.690 224.644 C 76.801 224.532,64.379 212.101,63.670 211.614 C 63.522 211.512,66.361 214.431,69.981 218.100 M329.800 218.000 C 327.167 220.640,325.103 222.800,325.213 222.800 C 325.323 222.800,327.567 220.640,330.200 218.000 C 332.833 215.360,334.897 213.200,334.787 213.200 C 334.677 213.200,332.433 215.360,329.800 218.000 M77.200 225.112 C 77.200 225.304,77.650 225.883,78.200 226.400 C 78.750 226.917,79.200 227.210,79.200 227.052 C 79.200 226.893,78.750 226.314,78.200 225.764 C 77.650 225.214,77.200 224.920,77.200 225.112 M87.000 234.737 C 90.300 238.102,93.720 241.415,94.600 242.099 C 95.480 242.783,96.020 243.169,95.800 242.957 C 95.580 242.746,92.160 239.433,88.200 235.596 L 81.000 228.620 87.000 234.737 M311.593 235.900 L 307.000 240.600 311.700 236.007 C 314.285 233.480,316.400 231.365,316.400 231.307 C 316.400 231.018,315.860 231.534,311.593 235.900 M98.794 246.200 C 100.208 247.740,101.442 249.090,101.536 249.200 C 101.631 249.310,101.517 249.040,101.284 248.600 C 101.050 248.160,99.816 246.810,98.541 245.600 L 96.223 243.400 98.794 246.200 M299.641 247.414 C 298.959 248.192,298.400 248.948,298.400 249.094 C 298.400 249.240,298.536 249.189,298.703 248.980 C 298.870 248.771,299.533 248.015,300.178 247.300 C 300.822 246.585,301.245 246.000,301.116 246.000 C 300.988 246.000,300.324 246.636,299.641 247.414 M101.876 251.446 C 102.140 254.155,102.332 254.533,102.362 252.400 C 102.376 251.410,102.230 250.351,102.037 250.046 C 101.821 249.705,101.759 250.242,101.876 251.446 M297.849 250.215 C 297.712 250.573,297.625 251.616,297.656 252.533 C 297.709 254.101,297.729 254.070,297.992 252.000 C 298.290 249.655,298.251 249.168,297.849 250.215 M101.000 258.800 C 100.846 259.710,100.804 260.538,100.907 260.640 C 101.010 260.743,101.213 260.077,101.360 259.160 C 101.507 258.243,101.548 257.415,101.453 257.320 C 101.358 257.224,101.154 257.890,101.000 258.800 M298.468 258.000 C 298.488 259.039,299.118 260.746,299.132 259.800 C 299.138 259.360,298.989 258.640,298.800 258.200 C 298.589 257.710,298.461 257.632,298.468 258.000 M100.256 262.884 C 100.121 263.388,100.028 264.250,100.049 264.800 C 100.072 265.389,100.231 265.071,100.436 264.025 C 100.803 262.152,100.673 261.327,100.256 262.884 M99.293 269.600 C 99.293 270.370,99.375 270.685,99.476 270.300 C 99.576 269.915,99.576 269.285,99.476 268.900 C 99.375 268.515,99.293 268.830,99.293 269.600 M300.887 271.800 C 300.891 272.240,301.032 273.140,301.200 273.800 C 301.474 274.878,301.506 274.898,301.513 274.000 C 301.517 273.450,301.376 272.550,301.200 272.000 C 300.949 271.216,300.881 271.173,300.887 271.800 M98.493 274.000 C 98.493 274.770,98.575 275.085,98.676 274.700 C 98.776 274.315,98.776 273.685,98.676 273.300 C 98.575 272.915,98.493 273.230,98.493 274.000 M97.659 278.600 C 97.620 279.260,97.496 280.250,97.383 280.800 L 97.177 281.800 97.608 280.814 C 97.844 280.272,97.968 279.282,97.883 278.614 L 97.728 277.400 97.659 278.600 M302.093 278.800 C 302.093 279.570,302.175 279.885,302.276 279.500 C 302.376 279.115,302.376 278.485,302.276 278.100 C 302.175 277.715,302.093 278.030,302.093 278.800 M96.893 283.600 C 96.893 284.370,96.975 284.685,97.076 284.300 C 97.176 283.915,97.176 283.285,97.076 282.900 C 96.975 282.515,96.893 282.830,96.893 283.600 M302.893 283.600 C 302.893 284.370,302.975 284.685,303.076 284.300 C 303.176 283.915,303.176 283.285,303.076 282.900 C 302.975 282.515,302.893 282.830,302.893 283.600 M96.059 287.800 C 96.020 288.460,95.896 289.450,95.783 290.000 L 95.577 291.000 96.008 290.014 C 96.244 289.472,96.368 288.482,96.283 287.814 L 96.128 286.600 96.059 287.800 M303.693 288.000 C 303.693 288.770,303.775 289.085,303.876 288.700 C 303.976 288.315,303.976 287.685,303.876 287.300 C 303.775 286.915,303.693 287.230,303.693 288.000 M95.254 292.800 C 95.219 293.350,95.096 294.250,94.983 294.800 L 94.777 295.800 95.207 294.815 C 95.443 294.274,95.565 293.374,95.478 292.815 L 95.320 291.800 95.254 292.800 M304.428 293.033 C 304.444 293.675,304.616 294.560,304.810 295.000 C 305.047 295.534,305.086 295.202,304.927 294.000 C 304.646 291.880,304.388 291.380,304.428 293.033 M94.454 297.200 C 94.419 297.750,94.296 298.650,94.183 299.200 L 93.977 300.200 94.407 299.215 C 94.643 298.674,94.765 297.774,94.678 297.215 L 94.520 296.200 94.454 297.200 M305.293 297.600 C 305.293 298.370,305.375 298.685,305.476 298.300 C 305.576 297.915,305.576 297.285,305.476 296.900 C 305.375 296.515,305.293 296.830,305.293 297.600 M88.800 306.000 L 87.800 306.320 88.876 306.360 C 89.468 306.382,90.064 306.220,90.200 306.000 C 90.481 305.545,90.220 305.545,88.800 306.000 M306.806 307.033 C 306.809 307.675,306.984 308.470,307.195 308.800 C 307.455 309.209,307.499 308.890,307.332 307.800 C 307.029 305.823,306.798 305.486,306.806 307.033 M307.628 311.633 C 307.644 312.165,307.819 312.960,308.019 313.400 C 308.271 313.958,308.307 313.715,308.138 312.600 C 307.855 310.743,307.587 310.236,307.628 311.633 M308.406 316.433 C 308.409 316.965,308.589 317.670,308.806 318.000 C 309.082 318.422,309.123 318.185,308.942 317.200 C 308.625 315.475,308.398 315.149,308.406 316.433 M85.218 317.421 C 85.482 317.739,85.932 318.000,86.218 318.000 C 86.504 318.000,87.337 318.489,88.069 319.086 C 89.163 319.978,89.258 320.007,88.605 319.249 C 87.718 318.221,84.390 316.425,85.218 317.421 M309.206 321.033 C 309.209 321.455,309.395 322.070,309.618 322.400 C 309.915 322.838,309.952 322.676,309.756 321.800 C 309.427 320.329,309.198 320.010,309.206 321.033 M196.624 322.213 C 196.196 322.536,196.025 322.800,196.244 322.800 C 196.462 322.800,196.811 322.637,197.020 322.439 C 197.229 322.240,197.760 321.991,198.200 321.885 L 199.000 321.693 198.200 321.659 C 197.760 321.641,197.051 321.890,196.624 322.213 M202.546 322.202 C 204.005 322.963,204.375 322.968,203.376 322.213 C 202.949 321.890,202.330 321.621,202.000 321.615 C 201.670 321.610,201.916 321.874,202.546 322.202 M193.900 323.627 C 193.075 324.063,192.400 324.508,192.400 324.618 C 192.400 324.727,193.120 324.449,194.000 324.000 C 194.880 323.551,195.600 323.097,195.600 322.992 C 195.600 322.730,195.597 322.731,193.900 323.627 M205.600 323.620 C 206.987 324.561,207.778 324.835,206.800 324.036 C 206.250 323.586,205.620 323.217,205.400 323.215 C 205.180 323.213,205.270 323.396,205.600 323.620 M89.649 325.400 C 89.616 325.840,89.496 326.650,89.383 327.200 L 89.177 328.200 89.606 327.219 C 89.842 326.679,89.961 325.869,89.872 325.419 C 89.713 324.621,89.707 324.621,89.649 325.400 M310.006 325.633 C 310.009 326.165,310.189 326.870,310.406 327.200 C 310.682 327.622,310.723 327.385,310.542 326.400 C 310.225 324.675,309.998 324.349,310.006 325.633 M88.849 330.000 C 88.816 330.330,88.689 331.050,88.567 331.600 C 88.375 332.464,88.407 332.503,88.799 331.888 C 89.048 331.497,89.175 330.777,89.081 330.288 C 88.986 329.800,88.882 329.670,88.849 330.000 M310.846 330.400 C 310.827 330.950,310.987 331.670,311.200 332.000 C 311.694 332.764,311.694 331.942,311.200 330.400 L 310.880 329.400 310.846 330.400 M223.233 332.949 C 223.645 333.317,226.000 334.400,226.000 334.221 C 226.000 333.990,223.782 332.800,223.353 332.800 C 223.196 332.800,223.142 332.867,223.233 332.949 M87.822 335.422 C 87.672 336.225,87.638 336.972,87.748 337.082 C 87.858 337.192,88.072 336.625,88.222 335.822 C 88.373 335.019,88.406 334.273,88.296 334.163 C 88.186 334.053,87.973 334.619,87.822 335.422 M311.606 335.033 C 311.609 335.455,311.795 336.070,312.018 336.400 C 312.315 336.838,312.352 336.676,312.156 335.800 C 311.827 334.329,311.598 334.010,311.606 335.033 M169.671 336.378 C 167.426 337.587,166.494 338.258,167.815 337.714 C 169.199 337.144,172.000 335.590,172.000 335.392 C 172.000 335.121,172.026 335.110,169.671 336.378 M164.711 338.960 C 162.616 340.205,162.284 340.663,164.200 339.665 C 166.205 338.620,167.119 338.003,166.600 338.044 C 166.380 338.061,165.530 338.474,164.711 338.960 M87.000 340.400 C 86.848 341.091,86.814 341.747,86.924 341.857 C 87.034 341.967,87.248 341.491,87.400 340.800 C 87.552 340.109,87.586 339.453,87.476 339.343 C 87.366 339.233,87.152 339.709,87.000 340.400 M312.406 339.833 C 312.409 340.255,312.595 340.870,312.818 341.200 C 313.115 341.638,313.152 341.476,312.956 340.600 C 312.627 339.129,312.398 338.810,312.406 339.833 M86.222 345.022 C 86.072 345.825,86.028 346.562,86.126 346.660 C 86.224 346.757,86.427 346.181,86.578 345.378 C 86.728 344.575,86.772 343.838,86.674 343.740 C 86.576 343.643,86.373 344.219,86.222 345.022 M313.268 344.200 C 313.262 344.640,313.411 345.360,313.600 345.800 C 314.038 346.819,314.038 345.768,313.600 344.400 C 313.343 343.596,313.277 343.557,313.268 344.200 M85.418 349.818 C 85.265 350.839,85.222 351.755,85.322 351.855 C 85.422 351.955,85.629 351.202,85.782 350.182 C 85.935 349.161,85.978 348.245,85.878 348.145 C 85.778 348.045,85.571 348.798,85.418 349.818 M314.080 349.000 C 314.080 349.440,314.224 350.250,314.400 350.800 C 314.654 351.592,314.720 351.633,314.720 351.000 C 314.720 350.560,314.576 349.750,314.400 349.200 C 314.146 348.408,314.080 348.367,314.080 349.000 M139.286 352.363 C 136.416 353.872,135.079 354.748,136.615 354.113 C 138.141 353.482,142.400 351.186,142.400 350.994 C 142.400 350.718,142.485 350.681,139.286 352.363 M84.600 354.400 C 84.446 355.310,84.404 356.138,84.507 356.240 C 84.610 356.343,84.813 355.677,84.960 354.760 C 85.107 353.843,85.148 353.015,85.053 352.920 C 84.958 352.824,84.754 353.490,84.600 354.400 M314.868 353.600 C 314.888 354.639,315.518 356.346,315.532 355.400 C 315.538 354.960,315.389 354.240,315.200 353.800 C 314.989 353.310,314.861 353.232,314.868 353.600 M132.725 355.755 C 131.474 356.449,130.304 357.169,130.125 357.356 C 129.780 357.716,134.184 355.518,135.200 354.823 C 136.460 353.961,134.901 354.548,132.725 355.755 M83.856 358.484 C 83.721 358.988,83.628 359.850,83.649 360.400 C 83.672 360.989,83.831 360.671,84.036 359.625 C 84.403 357.752,84.273 356.927,83.856 358.484 M315.668 358.200 C 315.662 358.640,315.811 359.360,316.000 359.800 C 316.438 360.819,316.438 359.768,316.000 358.400 C 315.743 357.596,315.677 357.557,315.668 358.200 M82.893 365.200 C 82.893 365.970,82.975 366.285,83.076 365.900 C 83.176 365.515,83.176 364.885,83.076 364.500 C 82.975 364.115,82.893 364.430,82.893 365.200 M115.900 364.629 C 114.405 365.440,114.496 365.778,116.000 365.000 C 116.660 364.659,117.200 364.294,117.200 364.190 C 117.200 363.932,117.157 363.947,115.900 364.629 M82.269 367.956 C 82.121 368.695,82.020 369.683,82.044 370.150 C 82.068 370.618,82.247 370.190,82.442 369.200 C 82.637 368.210,82.738 367.223,82.667 367.006 C 82.596 366.790,82.417 367.217,82.269 367.956 M317.287 367.400 C 317.291 367.840,317.432 368.740,317.600 369.400 C 317.874 370.478,317.906 370.498,317.913 369.600 C 317.917 369.050,317.776 368.150,317.600 367.600 C 317.349 366.816,317.281 366.773,317.287 367.400 M108.086 368.763 C 105.216 370.272,103.879 371.148,105.415 370.513 C 106.941 369.882,111.200 367.586,111.200 367.394 C 111.200 367.118,111.285 367.081,108.086 368.763 M293.600 369.784 C 293.600 369.894,294.320 370.351,295.200 370.800 C 296.080 371.249,296.800 371.526,296.800 371.416 C 296.800 371.306,296.080 370.849,295.200 370.400 C 294.320 369.951,293.600 369.674,293.600 369.784 M81.693 372.400 C 81.693 373.170,81.775 373.485,81.876 373.100 C 81.976 372.715,81.976 372.085,81.876 371.700 C 81.775 371.315,81.693 371.630,81.693 372.400 M318.109 373.200 C 318.109 374.190,318.187 374.595,318.282 374.100 C 318.378 373.605,318.378 372.795,318.282 372.300 C 318.187 371.805,318.109 372.210,318.109 373.200 M100.300 372.827 C 99.475 373.263,98.800 373.708,98.800 373.818 C 98.800 373.927,99.520 373.649,100.400 373.200 C 101.280 372.751,102.000 372.297,102.000 372.192 C 102.000 371.930,101.997 371.931,100.300 372.827 M82.000 375.985 C 82.000 376.358,84.760 378.978,84.936 378.773 C 85.017 378.678,84.390 377.954,83.542 377.164 C 82.694 376.374,82.000 375.844,82.000 375.985 M86.300 379.082 C 86.795 379.178,87.605 379.178,88.100 379.082 C 88.595 378.987,88.190 378.909,87.200 378.909 C 86.210 378.909,85.805 378.987,86.300 379.082 M312.100 379.076 C 312.485 379.176,313.115 379.176,313.500 379.076 C 313.885 378.975,313.570 378.893,312.800 378.893 C 312.030 378.893,311.715 378.975,312.100 379.076 " stroke="none" fill="#9f7d37" fill-rule="evenodd"></path><path id="path4" d="M199.300 20.676 C 199.685 20.776,200.315 20.776,200.700 20.676 C 201.085 20.575,200.770 20.493,200.000 20.493 C 199.230 20.493,198.915 20.575,199.300 20.676 M196.624 21.413 C 195.625 22.168,195.995 22.163,197.454 21.402 C 198.084 21.074,198.330 20.810,198.000 20.815 C 197.670 20.821,197.051 21.090,196.624 21.413 M202.222 21.184 C 202.674 21.367,203.619 22.171,204.322 22.972 C 205.025 23.773,205.600 24.260,205.600 24.054 C 205.600 23.401,202.747 20.799,202.060 20.825 C 201.561 20.845,201.600 20.932,202.222 21.184 M194.869 23.239 C 194.128 24.424,194.457 24.513,195.319 23.361 C 195.714 22.832,195.892 22.400,195.715 22.400 C 195.538 22.400,195.157 22.778,194.869 23.239 M190.640 31.671 C 190.072 32.809,189.667 33.801,189.740 33.873 C 189.847 33.981,190.524 32.737,191.902 29.900 C 191.982 29.735,191.963 29.600,191.859 29.600 C 191.756 29.600,191.207 30.532,190.640 31.671 M208.111 29.900 C 208.197 30.065,209.839 33.395,211.758 37.300 C 213.678 41.205,215.338 44.400,215.448 44.400 C 215.558 44.400,215.573 44.265,215.483 44.100 C 215.392 43.935,213.746 40.605,211.825 36.700 C 209.904 32.795,208.247 29.600,208.143 29.600 C 208.038 29.600,208.024 29.735,208.111 29.900 M188.552 35.900 C 188.174 36.725,187.795 37.535,187.709 37.700 C 187.623 37.865,187.645 38.000,187.758 38.000 C 187.870 38.000,188.271 37.325,188.648 36.500 C 189.026 35.675,189.405 34.865,189.491 34.700 C 189.577 34.535,189.555 34.400,189.442 34.400 C 189.330 34.400,188.929 35.075,188.552 35.900 M182.282 48.611 C 181.692 49.815,181.294 50.800,181.398 50.800 C 181.667 50.800,183.684 46.751,183.505 46.571 C 183.423 46.489,182.873 47.407,182.282 48.611 M216.441 46.600 C 216.441 46.820,217.503 49.070,218.800 51.600 C 220.097 54.130,221.159 56.020,221.159 55.800 C 221.159 55.580,220.097 53.330,218.800 50.800 C 217.503 48.270,216.441 46.380,216.441 46.600 M224.507 63.100 C 224.591 63.265,225.700 65.515,226.970 68.100 C 228.240 70.685,229.362 72.800,229.463 72.800 C 229.565 72.800,229.578 72.665,229.493 72.500 C 229.409 72.335,228.300 70.085,227.030 67.500 C 225.760 64.915,224.638 62.800,224.537 62.800 C 224.435 62.800,224.422 62.935,224.507 63.100 M173.752 65.900 C 173.374 66.725,172.995 67.535,172.909 67.700 C 172.823 67.865,172.845 68.000,172.958 68.000 C 173.070 68.000,173.471 67.325,173.848 66.500 C 174.226 65.675,174.605 64.865,174.691 64.700 C 174.777 64.535,174.755 64.400,174.642 64.400 C 174.530 64.400,174.129 65.075,173.752 65.900 M231.242 76.600 C 231.242 76.820,232.663 79.790,234.400 83.200 C 236.137 86.610,237.558 89.220,237.558 89.000 C 237.558 88.780,236.137 85.810,234.400 82.400 C 232.663 78.990,231.242 76.380,231.242 76.600 M166.272 81.019 C 165.332 82.989,165.464 83.324,166.447 81.462 C 166.893 80.616,167.187 79.854,167.101 79.767 C 167.014 79.681,166.641 80.244,166.272 81.019 M164.581 84.437 C 164.229 85.118,164.012 85.745,164.099 85.832 C 164.186 85.919,164.556 85.362,164.922 84.595 C 165.744 82.870,165.459 82.738,164.581 84.437 M159.029 95.661 C 158.683 96.355,158.400 97.025,158.400 97.150 C 158.400 97.497,159.433 95.894,159.721 95.100 C 160.136 93.955,159.706 94.304,159.029 95.661 M240.279 95.100 C 240.567 95.894,241.600 97.497,241.600 97.150 C 241.600 96.802,240.363 94.400,240.183 94.400 C 240.096 94.400,240.139 94.715,240.279 95.100 M157.352 99.100 C 156.974 99.925,156.595 100.735,156.509 100.900 C 156.423 101.065,156.445 101.200,156.558 101.200 C 156.670 101.200,157.071 100.525,157.448 99.700 C 157.826 98.875,158.205 98.065,158.291 97.900 C 158.377 97.735,158.355 97.600,158.242 97.600 C 158.130 97.600,157.729 98.275,157.352 99.100 M241.701 97.900 C 241.782 98.065,244.168 102.920,247.002 108.689 C 249.836 114.458,252.215 119.119,252.288 119.046 C 252.454 118.879,241.983 97.600,241.734 97.600 C 241.635 97.600,241.619 97.735,241.701 97.900 M151.078 111.820 C 149.609 114.814,149.745 115.169,151.246 112.260 C 151.910 110.973,152.386 109.853,152.304 109.771 C 152.223 109.689,151.671 110.611,151.078 111.820 M252.400 119.790 C 252.400 119.895,252.759 120.570,253.199 121.290 C 254.138 122.831,254.269 122.481,253.390 120.780 C 252.841 119.719,252.400 119.278,252.400 119.790 M142.629 128.861 C 142.283 129.555,142.000 130.225,142.000 130.350 C 142.000 130.697,143.033 129.094,143.321 128.300 C 143.736 127.155,143.306 127.504,142.629 128.861 M256.400 127.794 C 256.400 128.221,259.308 133.448,259.932 134.141 C 260.900 135.218,262.595 136.004,263.880 135.973 C 264.742 135.952,264.562 135.828,263.100 135.435 C 260.606 134.764,259.947 134.110,258.196 130.566 C 256.894 127.931,256.400 127.168,256.400 127.794 M140.968 132.211 C 140.600 132.987,139.847 133.977,139.295 134.411 C 138.744 134.845,138.483 135.200,138.717 135.200 C 139.266 135.200,141.474 132.524,141.729 131.549 C 142.036 130.375,141.701 130.667,140.968 132.211 M136.200 135.600 C 135.093 135.882,135.077 135.909,136.000 135.947 C 136.550 135.969,137.270 135.813,137.600 135.600 C 138.281 135.160,137.929 135.160,136.200 135.600 M131.200 136.400 C 129.850 136.684,129.843 136.695,131.000 136.700 C 131.660 136.703,132.740 136.568,133.400 136.400 C 135.060 135.978,133.207 135.978,131.200 136.400 M266.400 136.400 C 266.950 136.576,268.030 136.717,268.800 136.713 L 270.200 136.705 269.000 136.400 C 267.239 135.952,265.001 135.952,266.400 136.400 M125.600 137.200 L 124.200 137.495 125.600 137.507 C 126.370 137.515,127.450 137.376,128.000 137.200 L 129.000 136.880 128.000 136.893 C 127.450 136.900,126.370 137.038,125.600 137.200 M271.800 137.200 C 272.460 137.368,273.630 137.506,274.400 137.507 L 275.800 137.508 274.200 137.177 C 272.045 136.731,270.034 136.751,271.800 137.200 M277.600 137.984 C 278.580 138.314,282.295 138.542,281.967 138.253 C 281.875 138.172,280.630 138.003,279.200 137.877 C 277.570 137.734,276.973 137.774,277.600 137.984 M119.105 138.283 C 119.602 138.379,120.322 138.375,120.705 138.275 C 121.087 138.175,120.680 138.096,119.800 138.101 C 118.920 138.105,118.607 138.187,119.105 138.283 M283.000 138.792 C 283.757 139.125,287.521 139.363,287.167 139.056 C 287.075 138.976,285.920 138.805,284.600 138.676 C 283.076 138.526,282.492 138.569,283.000 138.792 M113.500 139.082 C 113.995 139.178,114.805 139.178,115.300 139.082 C 115.795 138.987,115.390 138.909,114.400 138.909 C 113.410 138.909,113.005 138.987,113.500 139.082 M289.000 139.580 C 289.880 139.764,292.130 140.126,294.000 140.384 C 295.870 140.642,298.264 141.021,299.320 141.226 C 300.376 141.432,301.816 141.579,302.520 141.554 C 304.012 141.500,303.699 141.424,299.400 140.799 C 297.640 140.543,295.300 140.180,294.200 139.993 C 291.217 139.484,286.914 139.143,289.000 139.580 M107.905 139.883 C 108.402 139.979,109.122 139.975,109.505 139.875 C 109.887 139.775,109.480 139.696,108.600 139.701 C 107.720 139.705,107.407 139.787,107.905 139.883 M100.800 140.807 C 100.179 141.011,100.709 141.051,102.200 140.912 C 103.520 140.789,104.675 140.624,104.767 140.544 C 105.089 140.265,101.788 140.484,100.800 140.807 M95.200 141.602 C 94.600 141.795,95.240 141.837,96.800 141.706 C 98.230 141.586,99.475 141.423,99.567 141.344 C 99.889 141.065,96.188 141.284,95.200 141.602 M89.800 142.420 C 89.261 142.665,89.654 142.705,91.000 142.541 C 92.100 142.407,93.075 142.231,93.167 142.149 C 93.517 141.836,90.561 142.074,89.800 142.420 M306.033 142.144 C 306.125 142.223,307.370 142.386,308.800 142.506 C 310.360 142.637,311.000 142.595,310.400 142.402 C 309.412 142.084,305.711 141.865,306.033 142.144 M84.200 143.214 C 83.678 143.448,84.163 143.488,85.600 143.332 C 86.810 143.200,87.875 143.026,87.967 142.946 C 88.321 142.636,84.957 142.875,84.200 143.214 M311.633 142.944 C 311.725 143.024,312.880 143.189,314.200 143.312 C 315.691 143.451,316.221 143.411,315.600 143.207 C 314.612 142.884,311.311 142.665,311.633 142.944 M78.600 144.020 C 78.061 144.265,78.454 144.305,79.800 144.141 C 80.900 144.007,81.875 143.831,81.967 143.749 C 82.317 143.436,79.361 143.674,78.600 144.020 M317.233 143.750 C 317.325 143.832,318.480 144.009,319.800 144.143 C 321.384 144.304,321.928 144.262,321.400 144.021 C 320.644 143.676,316.879 143.431,317.233 143.750 M73.400 144.820 C 72.861 145.065,73.254 145.105,74.600 144.941 C 75.700 144.807,76.675 144.631,76.767 144.549 C 77.117 144.236,74.161 144.474,73.400 144.820 M322.833 144.550 C 322.925 144.632,324.080 144.804,325.400 144.931 C 326.955 145.080,327.448 145.042,326.800 144.821 C 325.814 144.484,322.510 144.259,322.833 144.550 M67.800 145.620 C 67.261 145.865,67.654 145.905,69.000 145.741 C 70.100 145.607,71.075 145.431,71.167 145.349 C 71.517 145.036,68.561 145.274,67.800 145.620 M328.033 145.350 C 328.125 145.432,329.280 145.604,330.600 145.731 C 332.155 145.880,332.648 145.842,332.000 145.621 C 331.014 145.284,327.710 145.059,328.033 145.350 M62.400 146.400 L 61.400 146.720 62.400 146.713 C 62.950 146.709,63.940 146.568,64.600 146.400 L 65.800 146.095 64.600 146.087 C 63.940 146.083,62.950 146.224,62.400 146.400 M335.400 146.400 C 337.161 146.848,339.399 146.848,338.000 146.400 C 337.450 146.224,336.370 146.083,335.600 146.087 L 334.200 146.095 335.400 146.400 M56.800 147.200 L 55.800 147.520 56.800 147.513 C 57.350 147.509,58.340 147.368,59.000 147.200 L 60.200 146.895 59.000 146.887 C 58.340 146.883,57.350 147.024,56.800 147.200 M341.000 147.223 C 343.137 147.665,344.604 147.650,343.200 147.200 C 342.650 147.024,341.570 146.883,340.800 146.886 L 339.400 146.892 341.000 147.223 M51.400 148.000 C 49.737 148.423,51.374 148.442,53.400 148.023 C 54.745 147.745,54.809 147.692,53.800 147.693 C 53.140 147.694,52.060 147.832,51.400 148.000 M344.833 147.750 C 344.925 147.832,346.080 148.004,347.400 148.131 C 348.955 148.280,349.448 148.242,348.800 148.021 C 347.814 147.684,344.510 147.459,344.833 147.750 M45.600 148.800 L 44.600 149.120 45.600 149.113 C 46.150 149.109,47.140 148.968,47.800 148.800 L 49.000 148.495 47.800 148.487 C 47.140 148.483,46.150 148.624,45.600 148.800 M351.800 148.800 C 353.597 149.257,355.264 149.257,354.200 148.800 C 353.760 148.611,352.770 148.465,352.000 148.475 L 350.600 148.495 351.800 148.800 M40.400 149.600 L 39.400 149.920 40.400 149.913 C 40.950 149.909,41.940 149.768,42.600 149.600 L 43.800 149.295 42.600 149.287 C 41.940 149.283,40.950 149.424,40.400 149.600 M357.400 149.600 C 358.060 149.768,359.140 149.905,359.800 149.905 L 361.000 149.905 359.800 149.600 C 359.140 149.432,358.060 149.295,357.400 149.295 L 356.200 149.295 357.400 149.600 M34.800 150.400 L 33.800 150.720 34.800 150.713 C 35.350 150.709,36.340 150.568,37.000 150.400 L 38.200 150.095 37.000 150.087 C 36.340 150.083,35.350 150.224,34.800 150.400 M363.000 150.400 C 363.660 150.568,364.650 150.709,365.200 150.713 L 366.200 150.720 365.200 150.400 C 364.650 150.224,363.660 150.083,363.000 150.087 L 361.800 150.095 363.000 150.400 M29.400 151.200 C 28.330 151.472,28.308 151.505,29.200 151.505 C 29.750 151.505,30.740 151.368,31.400 151.200 C 32.470 150.928,32.492 150.895,31.600 150.895 C 31.050 150.895,30.060 151.032,29.400 151.200 M368.200 151.200 C 368.860 151.368,369.940 151.505,370.600 151.505 L 371.800 151.505 370.600 151.200 C 369.940 151.032,368.860 150.895,368.200 150.895 L 367.000 150.895 368.200 151.200 M23.800 152.000 L 22.200 152.286 23.600 152.303 C 24.370 152.313,25.450 152.176,26.000 152.000 C 27.285 151.588,26.099 151.588,23.800 152.000 M373.800 152.000 C 374.460 152.168,375.720 152.304,376.600 152.303 L 378.200 152.300 376.400 151.980 C 373.957 151.545,372.070 151.560,373.800 152.000 M18.200 152.800 L 16.600 153.086 18.000 153.103 C 18.770 153.113,19.850 152.976,20.400 152.800 C 21.685 152.388,20.499 152.388,18.200 152.800 M379.400 152.800 C 380.060 152.968,381.230 153.106,382.000 153.107 L 383.400 153.108 381.800 152.777 C 379.645 152.331,377.634 152.351,379.400 152.800 M13.874 154.500 C 13.151 155.215,12.982 155.445,13.499 155.012 C 14.016 154.579,14.925 154.008,15.519 153.745 C 16.276 153.409,16.389 153.255,15.894 153.232 C 15.506 153.215,14.597 153.785,13.874 154.500 M384.786 153.919 C 386.996 155.005,388.105 156.983,387.904 159.481 C 387.812 160.626,387.886 161.470,388.069 161.358 C 390.105 160.099,386.565 153.125,383.938 153.219 C 383.642 153.230,384.024 153.545,384.786 153.919 M11.843 157.033 C 11.499 157.930,11.541 161.116,11.900 161.338 C 12.065 161.440,12.200 160.371,12.200 158.962 C 12.200 156.151,12.194 156.118,11.843 157.033 M385.954 163.500 C 385.177 164.325,380.685 168.769,375.971 173.375 C 358.956 190.003,354.064 194.845,354.406 194.724 C 354.597 194.656,357.149 192.260,360.077 189.399 C 382.629 167.365,386.661 163.390,387.123 162.739 C 387.949 161.571,387.488 161.872,385.954 163.500 M16.433 166.500 C 16.525 166.555,17.140 167.050,17.800 167.600 L 19.000 168.600 18.030 167.500 C 17.497 166.895,16.882 166.400,16.664 166.400 C 16.445 166.400,16.342 166.445,16.433 166.500 M26.194 175.809 C 29.937 179.554,35.080 184.594,37.623 187.009 C 40.572 189.811,40.065 189.240,36.223 185.432 C 32.910 182.150,27.767 177.110,24.794 174.232 C 21.164 170.720,21.624 171.238,26.194 175.809 M352.200 196.468 C 351.540 197.146,345.319 203.303,338.376 210.150 C 331.433 216.998,327.293 221.153,329.176 219.384 C 331.059 217.615,336.290 212.550,340.800 208.128 C 345.310 203.706,350.167 198.989,351.594 197.644 C 353.021 196.300,354.011 195.208,353.794 195.218 C 353.577 195.228,352.860 195.790,352.200 196.468 M57.401 206.238 C 67.897 216.678,74.400 222.989,74.400 222.734 C 74.400 222.611,68.955 217.238,62.300 210.793 C 55.645 204.348,53.440 202.299,57.401 206.238 M323.926 224.088 C 323.335 224.699,322.988 225.200,323.156 225.200 C 323.535 225.200,325.399 223.245,325.168 223.089 C 325.076 223.026,324.516 223.476,323.926 224.088 M309.100 238.534 C 303.215 244.309,298.400 249.279,298.400 249.578 C 298.400 249.876,298.921 249.401,299.557 248.523 C 300.193 247.645,301.228 246.523,301.857 246.030 C 303.388 244.829,320.405 227.996,320.066 228.016 C 319.920 228.025,314.985 232.758,309.100 238.534 M87.949 236.108 C 92.047 240.145,96.280 244.248,97.356 245.224 C 98.432 246.201,99.827 247.702,100.456 248.560 C 101.085 249.418,101.600 249.879,101.600 249.584 C 101.600 249.109,81.578 229.178,80.805 228.883 C 80.637 228.819,83.852 232.070,87.949 236.108 M101.720 252.400 C 101.720 253.610,101.795 254.105,101.887 253.500 C 101.978 252.895,101.978 251.905,101.887 251.300 C 101.795 250.695,101.720 251.190,101.720 252.400 M298.120 252.400 C 298.120 253.610,298.195 254.105,298.287 253.500 C 298.378 252.895,298.378 251.905,298.287 251.300 C 298.195 250.695,298.120 251.190,298.120 252.400 M298.475 256.200 C 298.465 256.860,298.611 257.760,298.800 258.200 L 299.144 259.000 299.125 258.200 C 299.114 257.760,298.968 256.860,298.800 256.200 L 298.495 255.000 298.475 256.200 M101.022 257.022 C 100.872 257.825,100.828 258.562,100.926 258.660 C 101.024 258.757,101.227 258.181,101.378 257.378 C 101.528 256.575,101.572 255.838,101.474 255.740 C 101.376 255.643,101.173 256.219,101.022 257.022 M299.287 260.600 C 299.283 261.260,299.424 262.250,299.600 262.800 L 299.920 263.800 299.913 262.800 C 299.909 262.250,299.768 261.260,299.600 260.600 L 299.295 259.400 299.287 260.600 M100.222 261.422 C 100.072 262.225,100.038 262.972,100.148 263.082 C 100.258 263.192,100.472 262.625,100.622 261.822 C 100.773 261.019,100.806 260.273,100.696 260.163 C 100.586 260.053,100.373 260.619,100.222 261.422 M99.400 266.400 C 99.246 267.310,99.211 268.144,99.321 268.254 C 99.431 268.364,99.646 267.710,99.800 266.800 C 99.954 265.890,99.989 265.056,99.879 264.946 C 99.769 264.836,99.554 265.490,99.400 266.400 M300.080 265.600 C 300.080 266.150,300.224 267.050,300.400 267.600 L 300.720 268.600 300.720 267.600 C 300.720 267.050,300.576 266.150,300.400 265.600 L 300.080 264.600 300.080 265.600 M300.880 270.000 C 300.880 270.550,301.024 271.450,301.200 272.000 L 301.520 273.000 301.520 272.000 C 301.520 271.450,301.376 270.550,301.200 270.000 L 300.880 269.000 300.880 270.000 M98.578 270.978 C 98.427 271.781,98.394 272.527,98.504 272.637 C 98.614 272.747,98.827 272.181,98.978 271.378 C 99.128 270.575,99.162 269.828,99.052 269.718 C 98.942 269.608,98.728 270.175,98.578 270.978 M97.800 275.600 C 97.646 276.510,97.604 277.338,97.707 277.440 C 97.810 277.543,98.013 276.877,98.160 275.960 C 98.307 275.043,98.348 274.215,98.253 274.120 C 98.158 274.024,97.954 274.690,97.800 275.600 M301.680 274.800 C 301.680 275.350,301.824 276.250,302.000 276.800 L 302.320 277.800 302.320 276.800 C 302.320 276.250,302.176 275.350,302.000 274.800 L 301.680 273.800 301.680 274.800 M302.468 279.600 C 302.487 281.250,303.117 282.956,303.132 281.400 C 303.138 280.740,302.989 279.840,302.800 279.400 C 302.487 278.673,302.457 278.691,302.468 279.600 M97.049 279.815 C 96.912 280.173,96.818 280.946,96.840 281.533 C 96.873 282.391,96.952 282.295,97.246 281.040 C 97.622 279.439,97.495 278.653,97.049 279.815 M303.280 284.000 C 303.280 284.550,303.424 285.450,303.600 286.000 L 303.920 287.000 303.920 286.000 C 303.920 285.450,303.776 284.550,303.600 284.000 L 303.280 283.000 303.280 284.000 M96.178 284.978 C 96.027 285.781,95.994 286.527,96.104 286.637 C 96.214 286.747,96.427 286.181,96.578 285.378 C 96.728 284.575,96.762 283.828,96.652 283.718 C 96.542 283.608,96.328 284.175,96.178 284.978 M304.087 288.800 C 304.091 289.350,304.232 290.340,304.400 291.000 L 304.705 292.200 304.713 291.000 C 304.717 290.340,304.576 289.350,304.400 288.800 L 304.080 287.800 304.087 288.800 M95.456 289.284 C 95.321 289.788,95.228 290.650,95.249 291.200 C 95.272 291.789,95.431 291.471,95.636 290.425 C 96.003 288.552,95.873 287.727,95.456 289.284 M94.676 293.610 C 94.530 294.155,94.427 295.050,94.446 295.600 C 94.471 296.318,94.584 296.157,94.849 295.027 C 95.255 293.295,95.100 292.025,94.676 293.610 M304.875 293.400 C 304.886 293.840,305.032 294.740,305.200 295.400 L 305.505 296.600 305.525 295.400 C 305.535 294.740,305.389 293.840,305.200 293.400 L 304.856 292.600 304.875 293.400 M305.675 298.000 C 305.686 298.550,305.832 299.540,306.000 300.200 L 306.305 301.400 306.325 300.000 C 306.335 299.230,306.189 298.240,306.000 297.800 C 305.688 297.074,305.658 297.093,305.675 298.000 M93.856 298.484 C 93.721 298.988,93.627 299.760,93.646 300.200 C 93.665 300.640,93.845 300.298,94.046 299.440 C 94.436 297.778,94.270 296.940,93.856 298.484 M306.659 303.800 C 306.793 304.900,306.969 305.875,307.051 305.967 C 307.364 306.317,307.126 303.361,306.780 302.600 C 306.535 302.061,306.495 302.454,306.659 303.800 M92.000 303.907 C 92.000 304.076,91.505 304.522,90.900 304.897 C 90.295 305.272,89.980 305.583,90.200 305.587 C 90.420 305.592,91.140 305.153,91.800 304.612 C 92.460 304.071,92.775 303.622,92.500 303.614 C 92.225 303.606,92.000 303.738,92.000 303.907 M307.459 308.600 C 307.593 309.700,307.769 310.675,307.851 310.767 C 308.164 311.117,307.926 308.161,307.580 307.400 C 307.335 306.861,307.295 307.254,307.459 308.600 M308.281 313.200 C 308.406 314.410,308.574 315.475,308.654 315.567 C 308.935 315.887,308.717 312.991,308.387 312.000 C 308.171 311.354,308.134 311.780,308.281 313.200 M309.056 317.800 C 309.174 318.900,309.434 320.430,309.633 321.200 C 309.832 321.970,310.011 323.140,310.029 323.800 C 310.048 324.460,310.163 324.748,310.285 324.441 C 310.512 323.867,309.818 319.140,309.193 317.000 C 308.922 316.074,308.891 316.257,309.056 317.800 M87.600 319.236 C 88.370 319.986,89.074 320.556,89.164 320.502 C 89.430 320.345,87.879 318.763,87.004 318.299 C 86.562 318.065,86.830 318.486,87.600 319.236 M89.482 322.821 C 89.608 323.799,89.775 324.675,89.855 324.767 C 90.181 325.142,89.960 322.155,89.621 321.621 C 89.384 321.246,89.335 321.670,89.482 322.821 M199.505 321.883 C 200.002 321.979,200.722 321.975,201.105 321.875 C 201.487 321.775,201.080 321.696,200.200 321.701 C 199.320 321.705,199.007 321.787,199.505 321.883 M204.003 323.090 C 204.007 323.455,206.065 324.469,206.308 324.225 C 206.400 324.134,205.918 323.771,205.237 323.419 C 204.557 323.067,204.001 322.919,204.003 323.090 M190.300 325.829 C 189.695 326.157,189.200 326.510,189.200 326.613 C 189.200 326.999,189.832 326.757,190.800 326.000 C 191.989 325.070,191.811 325.009,190.300 325.829 M310.611 326.600 C 310.927 329.101,311.644 333.260,312.023 334.800 C 312.473 336.622,312.198 333.942,311.531 330.000 C 310.961 326.633,310.312 324.234,310.611 326.600 M187.289 327.465 C 186.568 327.820,186.043 328.177,186.124 328.257 C 186.295 328.428,188.800 327.224,188.800 326.971 C 188.800 326.729,188.747 326.746,187.289 327.465 M88.655 329.055 C 88.513 330.086,88.474 331.008,88.569 331.102 C 88.663 331.196,88.865 330.439,89.018 329.418 C 89.171 328.398,89.210 327.476,89.104 327.371 C 88.998 327.265,88.796 328.023,88.655 329.055 M212.033 327.357 C 212.483 327.781,215.313 329.220,215.442 329.091 C 215.524 329.010,214.855 328.551,213.957 328.072 C 212.470 327.277,211.610 326.958,212.033 327.357 M183.900 329.227 C 183.075 329.663,182.400 330.108,182.400 330.218 C 182.400 330.327,183.120 330.049,184.000 329.600 C 184.880 329.151,185.600 328.697,185.600 328.592 C 185.600 328.330,185.597 328.331,183.900 329.227 M216.000 329.384 C 216.000 329.494,216.720 329.951,217.600 330.400 C 218.480 330.849,219.200 331.126,219.200 331.016 C 219.200 330.906,218.480 330.449,217.600 330.000 C 216.720 329.551,216.000 329.274,216.000 329.384 M178.311 332.160 C 176.216 333.405,175.884 333.863,177.800 332.865 C 179.805 331.820,180.719 331.203,180.200 331.244 C 179.980 331.261,179.130 331.674,178.311 332.160 M88.093 332.800 C 88.093 333.570,88.175 333.885,88.276 333.500 C 88.376 333.115,88.376 332.485,88.276 332.100 C 88.175 331.715,88.093 332.030,88.093 332.800 M221.600 332.387 C 222.526 333.078,230.000 336.833,230.000 336.607 C 230.000 336.497,228.155 335.462,225.900 334.308 C 221.523 332.066,220.645 331.674,221.600 332.387 M312.438 337.269 C 312.402 338.281,312.856 340.873,313.616 344.000 C 313.890 345.127,313.912 345.010,313.726 343.400 C 313.370 340.310,312.480 336.073,312.438 337.269 M87.054 338.354 C 86.900 339.318,86.858 340.191,86.961 340.294 C 87.230 340.563,87.715 337.745,87.507 337.122 C 87.412 336.836,87.208 337.390,87.054 338.354 M166.700 338.229 C 166.095 338.557,165.600 338.910,165.600 339.013 C 165.600 339.399,166.232 339.157,167.200 338.400 C 168.389 337.470,168.211 337.409,166.700 338.229 M233.800 338.713 C 234.332 339.259,242.078 343.256,242.257 343.076 C 242.334 342.999,240.373 341.894,237.899 340.619 C 235.424 339.345,233.580 338.487,233.800 338.713 M86.255 343.055 C 86.113 344.086,86.074 345.008,86.169 345.102 C 86.263 345.196,86.465 344.439,86.618 343.418 C 86.771 342.398,86.810 341.476,86.704 341.371 C 86.598 341.265,86.396 342.023,86.255 343.055 M157.400 343.200 C 156.740 343.637,156.380 343.992,156.600 343.988 C 157.001 343.982,159.176 342.423,158.800 342.412 C 158.690 342.408,158.060 342.763,157.400 343.200 M243.000 343.518 C 243.220 343.744,245.740 345.142,248.600 346.624 C 251.460 348.106,253.620 349.135,253.400 348.911 C 253.180 348.687,250.660 347.289,247.800 345.805 C 244.940 344.321,242.780 343.291,243.000 343.518 M152.700 345.627 C 151.875 346.063,151.200 346.508,151.200 346.618 C 151.200 346.727,151.920 346.449,152.800 346.000 C 153.680 345.551,154.400 345.097,154.400 344.992 C 154.400 344.730,154.397 344.731,152.700 345.627 M314.086 346.800 C 314.083 347.570,314.224 348.650,314.400 349.200 C 314.850 350.604,314.865 349.137,314.423 347.000 L 314.092 345.400 314.086 346.800 M85.418 347.818 C 85.265 348.839,85.222 349.755,85.322 349.855 C 85.422 349.955,85.629 349.202,85.782 348.182 C 85.935 347.161,85.978 346.245,85.878 346.145 C 85.778 346.045,85.571 346.798,85.418 347.818 M147.000 348.627 C 146.340 348.970,145.620 349.439,145.400 349.669 C 145.180 349.899,145.765 349.705,146.700 349.236 C 147.635 348.767,148.400 348.297,148.400 348.192 C 148.400 347.916,148.328 347.939,147.000 348.627 M255.600 350.162 C 255.600 350.287,256.860 351.024,258.400 351.800 C 259.940 352.576,261.200 353.120,261.200 353.011 C 261.200 352.901,260.075 352.225,258.700 351.509 C 255.551 349.867,255.600 349.889,255.600 350.162 M314.875 351.800 C 314.865 352.460,315.011 353.360,315.200 353.800 L 315.544 354.600 315.525 353.800 C 315.514 353.360,315.368 352.460,315.200 351.800 L 314.895 350.600 314.875 351.800 M84.622 352.622 C 84.472 353.425,84.428 354.162,84.526 354.260 C 84.624 354.357,84.827 353.781,84.978 352.978 C 85.128 352.175,85.172 351.438,85.074 351.340 C 84.976 351.243,84.773 351.819,84.622 352.622 M135.500 354.629 C 134.895 354.957,134.400 355.310,134.400 355.413 C 134.400 355.799,135.032 355.557,136.000 354.800 C 137.189 353.870,137.011 353.809,135.500 354.629 M265.000 355.098 C 265.561 355.661,273.285 359.648,273.466 359.467 C 273.547 359.386,271.586 358.279,269.107 357.008 C 266.628 355.736,264.780 354.877,265.000 355.098 M315.687 356.200 C 315.683 356.860,315.824 357.850,316.000 358.400 L 316.320 359.400 316.313 358.400 C 316.309 357.850,316.168 356.860,316.000 356.200 L 315.695 355.000 315.687 356.200 M83.822 357.022 C 83.672 357.825,83.638 358.572,83.748 358.682 C 83.858 358.792,84.072 358.225,84.222 357.422 C 84.373 356.619,84.406 355.873,84.296 355.763 C 84.186 355.653,83.973 356.219,83.822 357.022 M127.900 358.629 C 127.295 358.957,126.800 359.310,126.800 359.413 C 126.800 359.799,127.432 359.557,128.400 358.800 C 129.589 357.870,129.411 357.809,127.900 358.629 M274.200 359.918 C 274.420 360.144,276.940 361.542,279.800 363.024 C 282.660 364.506,284.820 365.535,284.600 365.311 C 284.380 365.087,281.860 363.689,279.000 362.205 C 276.140 360.721,273.980 359.691,274.200 359.918 M316.487 361.000 C 316.483 361.660,316.624 362.650,316.800 363.200 L 317.120 364.200 317.113 363.200 C 317.109 362.650,316.968 361.660,316.800 361.000 L 316.495 359.800 316.487 361.000 M83.000 362.000 C 82.846 362.910,82.804 363.738,82.907 363.840 C 83.010 363.943,83.213 363.277,83.360 362.360 C 83.507 361.443,83.548 360.615,83.453 360.520 C 83.358 360.424,83.154 361.090,83.000 362.000 M116.731 364.535 C 113.420 366.388,113.316 366.780,116.600 365.027 C 119.536 363.460,119.969 363.179,119.367 363.233 C 119.165 363.251,117.979 363.837,116.731 364.535 M317.280 365.600 C 317.280 366.150,317.424 367.050,317.600 367.600 L 317.920 368.600 317.920 367.600 C 317.920 367.050,317.776 366.150,317.600 365.600 L 317.280 364.600 317.280 365.600 M82.178 366.578 C 82.027 367.381,81.994 368.127,82.104 368.237 C 82.214 368.347,82.427 367.781,82.578 366.978 C 82.728 366.175,82.762 365.428,82.652 365.318 C 82.542 365.208,82.328 365.775,82.178 366.578 M285.200 365.795 C 285.200 365.902,286.505 366.641,288.100 367.437 C 291.492 369.129,291.294 368.627,287.859 366.827 C 285.440 365.559,285.200 365.466,285.200 365.795 M81.450 370.850 C 81.115 372.526,81.144 374.893,81.506 375.458 C 81.668 375.710,81.809 374.495,81.819 372.758 C 81.841 369.233,81.808 369.062,81.450 370.850 M318.172 372.660 C 318.188 374.453,318.332 375.713,318.494 375.460 C 318.858 374.890,318.820 371.747,318.432 370.400 C 318.261 369.805,318.156 370.719,318.172 372.660 M296.200 371.505 C 296.420 371.733,298.670 372.999,301.200 374.318 C 303.730 375.638,306.880 377.306,308.200 378.025 C 311.862 380.019,314.658 379.953,316.700 377.822 L 318.200 376.257 316.730 377.490 C 314.158 379.647,312.089 379.654,308.066 377.519 C 300.386 373.444,295.852 371.146,296.200 371.505 M95.900 375.477 C 94.856 376.058,94.063 376.597,94.140 376.673 C 94.300 376.834,98.000 374.814,98.000 374.566 C 98.000 374.315,97.943 374.340,95.900 375.477 M83.178 377.700 C 83.937 378.525,84.837 379.186,85.178 379.168 C 85.716 379.141,85.719 379.108,85.200 378.919 C 84.870 378.800,83.970 378.139,83.200 377.451 L 81.800 376.200 83.178 377.700 M90.200 378.422 C 89.320 378.838,88.834 379.184,89.120 379.190 C 89.702 379.201,92.000 378.084,92.000 377.790 C 92.000 377.556,92.118 377.514,90.200 378.422 M86.500 379.476 C 86.885 379.576,87.515 379.576,87.900 379.476 C 88.285 379.375,87.970 379.293,87.200 379.293 C 86.430 379.293,86.115 379.375,86.500 379.476 " stroke="none" fill="#87631c" fill-rule="evenodd"></path></g></svg>