<svg id="svg" version="1.1" xmlns="http://www.w3.org/2000/svg" xmlns:xlink="http://www.w3.org/1999/xlink" width="400" height="400" viewBox="0, 0, 400,400"><g id="svgg"><path id="path0" d="M192.400 63.237 C 177.266 65.207,162.975 70.974,153.832 78.800 C 147.714 84.036,143.855 87.873,142.051 90.514 C 141.717 91.001,141.164 91.670,140.822 92.000 C 138.778 93.968,133.587 102.891,131.397 108.200 C 130.580 110.180,129.752 112.113,129.556 112.495 C 129.360 112.877,129.200 113.464,129.200 113.800 C 129.200 114.136,129.038 114.723,128.839 115.105 C 127.899 116.914,126.330 124.550,125.562 131.049 C 124.807 137.443,125.765 149.119,127.585 155.700 C 128.997 160.806,129.223 161.491,130.753 165.308 C 144.036 198.456,179.162 217.612,214.200 210.818 C 215.300 210.605,216.830 210.321,217.600 210.188 C 218.370 210.055,219.360 209.801,219.800 209.625 C 220.240 209.449,221.860 208.912,223.400 208.432 C 227.016 207.305,226.927 207.342,232.844 204.470 C 236.952 202.476,245.157 197.463,246.000 196.432 C 246.110 196.297,246.830 195.676,247.600 195.051 C 251.547 191.847,257.427 185.656,259.995 182.000 C 260.536 181.230,261.298 180.251,261.689 179.825 C 262.080 179.398,262.400 178.813,262.400 178.525 C 262.400 178.236,262.580 178.000,262.800 178.000 C 263.020 178.000,263.200 177.803,263.200 177.562 C 263.200 177.321,263.569 176.605,264.021 175.970 C 272.466 164.110,276.697 141.381,273.545 124.800 C 271.345 113.225,263.830 95.712,259.642 92.400 C 259.503 92.290,258.588 91.210,257.610 90.000 C 255.334 87.186,249.981 81.830,247.400 79.785 C 246.300 78.913,245.310 78.095,245.200 77.966 C 244.482 77.127,237.104 72.586,233.629 70.845 C 221.147 64.589,204.961 61.602,192.400 63.237 M193.800 237.793 C 193.580 237.896,190.430 238.171,186.800 238.403 C 176.319 239.073,168.164 240.209,158.400 242.360 C 156.739 242.726,155.921 242.923,151.700 243.973 C 150.875 244.179,149.570 244.527,148.800 244.746 C 148.030 244.966,146.950 245.263,146.400 245.406 C 141.279 246.738,128.308 251.376,123.000 253.773 C 121.900 254.269,120.201 255.019,119.224 255.438 C 110.742 259.078,94.401 268.550,87.200 274.000 C 86.430 274.582,84.720 275.855,83.400 276.829 C 82.080 277.802,80.910 278.699,80.800 278.822 C 80.690 278.944,79.759 279.679,78.732 280.454 C 69.567 287.368,56.244 300.816,47.498 311.980 L 44.850 315.361 45.525 316.566 C 45.896 317.229,46.605 318.191,47.100 318.704 C 47.595 319.217,48.000 319.771,48.000 319.935 C 48.000 320.099,48.585 320.867,49.300 321.641 C 50.015 322.415,51.224 323.847,51.986 324.824 C 52.749 325.801,54.098 327.381,54.985 328.336 C 55.872 329.291,56.958 330.536,57.399 331.104 C 59.686 334.049,75.251 348.800,76.072 348.800 C 76.716 348.800,79.930 352.360,79.476 352.571 C 79.214 352.693,79.415 352.689,79.923 352.562 C 80.541 352.408,81.071 352.581,81.523 353.085 C 81.895 353.499,82.830 354.273,83.600 354.806 C 84.370 355.338,85.232 355.998,85.515 356.273 C 85.798 356.547,86.563 357.087,87.215 357.472 C 87.867 357.857,88.400 358.314,88.400 358.486 C 88.400 358.659,88.670 358.800,89.000 358.800 C 89.330 358.800,89.600 358.980,89.600 359.200 C 89.600 359.420,89.870 359.600,90.200 359.600 C 90.530 359.600,90.800 359.780,90.800 360.000 C 90.800 360.220,91.070 360.400,91.400 360.400 C 91.730 360.400,92.000 360.550,92.000 360.732 C 92.000 360.915,92.495 361.320,93.100 361.632 C 93.705 361.945,94.549 362.515,94.975 362.900 C 95.402 363.285,95.987 363.600,96.275 363.600 C 96.564 363.600,96.800 363.780,96.800 364.000 C 96.800 364.220,97.070 364.400,97.400 364.400 C 97.730 364.400,98.000 364.580,98.000 364.800 C 98.000 365.020,98.203 365.200,98.451 365.200 C 98.700 365.200,99.958 365.920,101.247 366.800 C 102.536 367.680,103.701 368.400,103.835 368.400 C 104.204 368.400,106.971 369.723,107.200 370.008 C 107.310 370.146,107.734 370.382,108.142 370.533 C 108.580 370.695,108.791 371.045,108.659 371.391 C 108.536 371.712,108.635 372.098,108.879 372.249 C 109.138 372.409,109.212 372.342,109.055 372.089 C 108.908 371.851,108.945 371.558,109.137 371.439 C 109.551 371.183,111.592 372.064,111.597 372.500 C 111.599 372.665,111.960 372.800,112.400 372.800 C 112.840 372.800,113.200 372.980,113.200 373.200 C 113.200 373.420,113.560 373.600,114.000 373.600 C 114.440 373.600,114.800 373.780,114.800 374.000 C 114.800 374.220,115.160 374.400,115.600 374.400 C 116.040 374.400,116.400 374.580,116.400 374.800 C 116.400 375.020,116.779 375.200,117.243 375.200 C 117.774 375.200,118.011 375.394,117.884 375.725 C 117.739 376.104,118.003 376.202,118.841 376.079 C 119.528 375.979,120.000 376.091,120.000 376.355 C 120.000 376.600,120.360 376.800,120.800 376.800 C 121.240 376.800,121.600 376.980,121.600 377.200 C 121.600 377.420,121.960 377.600,122.400 377.600 C 122.840 377.600,123.200 377.780,123.200 378.000 C 123.200 378.220,123.650 378.400,124.200 378.400 C 124.750 378.400,125.200 378.580,125.200 378.800 C 125.200 379.020,125.650 379.200,126.200 379.200 C 126.750 379.200,127.200 379.380,127.200 379.600 C 127.200 379.820,127.560 380.000,128.000 380.000 C 128.440 380.000,128.800 380.180,128.800 380.400 C 128.800 380.620,129.340 380.800,130.000 380.800 C 130.660 380.800,131.200 380.999,131.200 381.243 C 131.200 381.486,131.465 381.584,131.788 381.460 C 132.112 381.336,132.657 381.514,132.999 381.856 C 133.341 382.198,133.885 382.376,134.207 382.253 C 134.530 382.129,135.015 382.264,135.285 382.553 C 135.555 382.842,136.095 382.996,136.483 382.894 C 136.898 382.786,137.295 382.981,137.443 383.367 C 137.601 383.781,137.961 383.939,138.416 383.795 C 138.812 383.669,139.367 383.812,139.647 384.113 C 139.928 384.413,140.570 384.580,141.074 384.484 C 141.665 384.371,142.077 384.537,142.237 384.951 C 142.409 385.400,142.772 385.522,143.438 385.355 C 144.064 385.198,144.467 385.308,144.608 385.676 C 144.753 386.056,145.271 386.184,146.211 386.075 C 147.254 385.953,147.600 386.063,147.600 386.515 C 147.600 386.941,147.982 387.101,148.900 387.059 C 149.615 387.027,150.169 387.183,150.131 387.408 C 150.090 387.649,150.720 387.752,151.678 387.661 C 152.742 387.560,153.409 387.691,153.628 388.045 C 153.836 388.382,154.513 388.536,155.437 388.456 C 156.613 388.355,156.866 388.451,156.683 388.927 C 156.498 389.410,156.814 389.513,158.327 389.462 C 159.477 389.424,160.170 389.566,160.123 389.831 C 160.072 390.115,160.812 390.198,162.287 390.076 C 164.124 389.924,164.488 389.994,164.306 390.468 C 164.124 390.942,164.507 391.014,166.442 390.874 C 168.018 390.760,168.800 390.853,168.800 391.152 C 168.800 391.437,169.747 391.600,171.400 391.600 C 172.867 391.600,174.000 391.774,174.000 392.000 C 174.000 392.233,175.333 392.400,177.200 392.400 C 179.067 392.400,180.400 392.567,180.400 392.800 C 180.400 393.047,182.475 393.200,185.824 393.200 C 189.337 393.200,191.160 393.341,191.000 393.600 C 190.838 393.862,193.863 394.000,199.776 394.000 C 205.525 394.000,208.800 393.855,208.800 393.600 C 208.800 393.353,210.867 393.200,214.200 393.200 C 217.533 393.200,219.600 393.047,219.600 392.800 C 219.600 392.567,220.933 392.400,222.800 392.400 C 224.667 392.400,226.000 392.233,226.000 392.000 C 226.000 391.775,227.125 391.600,228.576 391.600 C 230.037 391.600,231.272 391.407,231.428 391.155 C 231.598 390.880,232.516 390.777,233.829 390.886 C 235.216 391.001,235.927 390.912,235.877 390.631 C 235.830 390.367,236.603 390.206,237.872 390.216 C 239.092 390.225,239.914 390.060,239.872 389.816 C 239.829 389.569,240.570 389.426,241.688 389.464 C 242.932 389.506,243.546 389.369,243.488 389.064 C 243.432 388.768,244.007 388.612,245.078 388.633 C 246.078 388.652,246.724 388.491,246.678 388.233 C 246.635 387.995,247.140 387.749,247.800 387.686 C 248.460 387.623,249.393 387.374,249.874 387.132 C 250.354 386.891,251.108 386.787,251.548 386.902 C 252.022 387.026,252.435 386.885,252.562 386.556 C 252.679 386.250,253.310 386.000,253.964 386.000 C 254.618 386.000,255.275 385.803,255.423 385.562 C 255.572 385.322,256.127 385.208,256.657 385.309 C 257.256 385.423,257.748 385.264,257.959 384.887 C 258.167 384.517,258.620 384.364,259.124 384.496 C 259.642 384.632,260.034 384.489,260.179 384.110 C 260.329 383.720,260.754 383.575,261.391 383.696 C 261.931 383.799,262.426 383.722,262.492 383.524 C 262.558 383.326,263.059 383.135,263.606 383.098 C 264.153 383.061,264.796 382.775,265.035 382.461 C 265.274 382.147,265.722 381.974,266.031 382.077 C 266.340 382.180,266.816 382.041,267.089 381.768 C 267.362 381.495,267.949 381.366,268.393 381.482 C 268.847 381.601,269.200 381.498,269.200 381.247 C 269.200 381.001,269.650 380.800,270.200 380.800 C 270.750 380.800,271.200 380.620,271.200 380.400 C 271.200 380.180,271.560 380.000,272.000 380.000 C 272.440 380.000,272.800 379.820,272.800 379.600 C 272.800 379.380,273.250 379.200,273.800 379.200 C 274.350 379.200,274.800 379.020,274.800 378.800 C 274.800 378.580,275.250 378.400,275.800 378.400 C 276.350 378.400,276.800 378.220,276.800 378.000 C 276.800 377.780,277.160 377.600,277.600 377.600 C 278.040 377.600,278.400 377.420,278.400 377.200 C 278.400 376.980,278.850 376.800,279.400 376.800 C 279.950 376.800,280.400 376.620,280.400 376.400 C 280.400 376.180,280.760 376.000,281.200 376.000 C 281.640 376.000,282.000 375.820,282.000 375.600 C 282.000 375.380,282.360 375.200,282.800 375.200 C 283.240 375.200,283.600 375.020,283.600 374.800 C 283.600 374.580,283.960 374.400,284.400 374.400 C 284.840 374.400,285.200 374.220,285.200 374.000 C 285.200 373.780,285.560 373.600,286.000 373.600 C 286.440 373.600,286.800 373.420,286.800 373.200 C 286.800 372.980,287.160 372.800,287.600 372.800 C 288.040 372.800,288.400 372.620,288.400 372.400 C 288.400 372.180,288.760 372.000,289.200 372.000 C 289.640 372.000,290.001 371.865,290.003 371.700 C 290.008 371.268,292.048 370.382,292.456 370.635 C 292.645 370.752,292.800 370.647,292.800 370.401 C 292.800 370.156,293.790 369.503,295.000 368.949 C 296.210 368.395,297.200 367.775,297.200 367.571 C 297.200 367.367,297.384 367.200,297.608 367.200 C 297.832 367.200,298.777 366.711,299.708 366.114 C 300.639 365.517,301.514 365.060,301.652 365.098 C 301.791 365.137,302.224 364.815,302.614 364.384 C 303.005 363.953,303.590 363.600,303.915 363.600 C 304.240 363.600,304.797 363.284,305.153 362.897 C 305.509 362.511,306.295 361.940,306.900 361.630 C 307.505 361.319,308.000 360.915,308.000 360.732 C 308.000 360.550,308.236 360.400,308.525 360.400 C 308.813 360.400,309.407 360.085,309.845 359.700 C 311.085 358.609,312.395 357.950,312.812 358.207 C 313.020 358.336,313.084 358.162,312.953 357.821 C 312.822 357.479,312.869 357.200,313.057 357.200 C 313.246 357.199,313.878 356.794,314.463 356.300 C 315.047 355.805,316.565 354.680,317.837 353.800 C 319.108 352.920,320.700 351.674,321.374 351.030 C 322.048 350.387,323.246 349.392,324.036 348.820 C 327.022 346.656,342.400 332.064,342.400 331.394 C 342.400 331.280,343.512 330.017,344.872 328.587 C 346.232 327.158,347.807 325.323,348.372 324.511 C 348.937 323.699,350.075 322.308,350.900 321.420 C 351.725 320.531,352.400 319.618,352.400 319.390 C 352.400 319.163,352.760 318.717,353.200 318.400 C 353.640 318.083,354.000 317.593,354.000 317.312 C 354.000 317.030,354.167 316.800,354.371 316.800 C 355.600 316.800,353.408 312.359,351.213 310.400 C 351.090 310.290,350.182 309.210,349.195 308.000 C 340.101 296.849,323.715 281.479,313.800 274.800 C 312.700 274.059,311.710 273.336,311.600 273.194 C 309.689 270.723,285.361 257.104,276.600 253.601 C 276.160 253.425,275.170 253.007,274.400 252.672 C 270.772 251.092,260.163 247.295,256.400 246.229 C 255.850 246.073,254.860 245.788,254.200 245.596 C 243.607 242.502,234.404 240.631,222.600 239.171 C 215.462 238.289,194.842 237.301,193.800 237.793 " stroke="none" fill="#4494fc" fill-rule="evenodd"></path><path id="path1" d="M182.400 6.400 C 182.400 6.638,180.878 6.800,178.633 6.800 C 176.562 6.800,174.807 6.970,174.733 7.178 C 174.660 7.386,173.385 7.594,171.900 7.641 C 170.415 7.688,169.200 7.861,169.200 8.026 C 169.200 8.191,168.255 8.428,167.100 8.554 C 161.885 9.119,160.800 9.297,160.800 9.584 C 160.800 9.752,159.675 9.994,158.300 10.120 C 156.925 10.246,155.440 10.448,155.000 10.569 C 150.940 11.684,147.578 12.522,146.496 12.688 C 145.779 12.798,145.094 13.049,144.973 13.244 C 144.852 13.440,144.324 13.600,143.800 13.600 C 143.276 13.600,142.736 13.780,142.600 14.000 C 142.464 14.220,141.813 14.400,141.153 14.400 C 140.455 14.400,140.056 14.567,140.200 14.800 C 140.344 15.034,139.936 15.200,139.218 15.200 C 138.542 15.200,137.677 15.359,137.295 15.553 C 136.634 15.889,135.154 16.525,133.400 17.227 C 132.960 17.403,131.880 17.776,131.000 18.055 C 130.120 18.335,129.229 18.707,129.020 18.882 C 128.811 19.057,128.316 19.200,127.920 19.200 C 127.524 19.200,127.200 19.380,127.200 19.600 C 127.200 19.820,126.845 20.000,126.412 20.000 C 125.979 20.000,124.983 20.360,124.200 20.800 C 123.417 21.240,122.511 21.600,122.188 21.600 C 121.865 21.600,121.600 21.780,121.600 22.000 C 121.600 22.220,121.240 22.400,120.800 22.400 C 120.360 22.400,120.000 22.580,120.000 22.800 C 120.000 23.020,119.595 23.206,119.100 23.213 C 118.605 23.220,117.858 23.484,117.441 23.800 C 117.024 24.116,116.529 24.280,116.341 24.164 C 116.153 24.048,116.000 24.143,116.000 24.376 C 116.000 24.609,115.640 24.800,115.200 24.800 C 114.760 24.800,114.400 24.980,114.400 25.200 C 114.400 25.420,114.040 25.600,113.600 25.600 C 113.160 25.600,112.800 25.780,112.800 26.000 C 112.800 26.220,112.530 26.400,112.200 26.400 C 111.870 26.400,111.600 26.580,111.600 26.800 C 111.600 27.020,111.329 27.200,110.997 27.200 C 110.306 27.200,106.268 29.248,106.067 29.700 C 105.993 29.865,105.588 30.000,105.167 30.000 C 104.745 30.000,104.400 30.135,104.400 30.301 C 104.400 30.466,103.545 31.047,102.500 31.591 C 101.455 32.135,100.510 32.689,100.400 32.822 C 100.290 32.955,99.615 33.319,98.900 33.630 C 98.185 33.941,97.600 34.331,97.600 34.498 C 97.600 34.664,97.330 34.800,97.000 34.800 C 96.670 34.800,96.400 34.980,96.400 35.200 C 96.400 35.420,96.130 35.600,95.800 35.600 C 95.470 35.600,95.200 35.780,95.200 36.000 C 95.200 36.220,94.930 36.400,94.600 36.400 C 94.270 36.400,94.000 36.580,94.000 36.800 C 94.000 37.020,93.770 37.200,93.488 37.200 C 93.207 37.200,92.717 37.560,92.400 38.000 C 92.083 38.440,91.638 38.800,91.412 38.800 C 91.185 38.801,90.482 39.247,89.848 39.792 C 89.214 40.337,88.572 40.706,88.421 40.613 C 88.269 40.519,87.893 40.793,87.585 41.221 C 87.276 41.650,86.868 42.000,86.679 42.000 C 86.490 42.000,85.539 42.652,84.567 43.448 C 83.595 44.245,82.800 44.742,82.800 44.552 C 82.800 44.363,82.372 44.656,81.849 45.204 C 81.325 45.752,80.397 46.560,79.786 47.000 C 79.176 47.440,78.143 48.273,77.492 48.851 C 75.552 50.573,75.200 50.843,75.200 50.608 C 75.200 50.486,74.027 51.559,72.593 52.993 C 71.159 54.427,69.836 55.600,69.654 55.600 C 69.095 55.600,67.598 57.065,67.874 57.341 C 68.017 57.483,67.920 57.600,67.660 57.600 C 67.039 57.600,58.400 66.235,58.400 66.855 C 58.400 67.118,58.299 67.232,58.176 67.109 C 57.839 66.773,56.000 68.745,56.000 69.442 C 56.000 69.775,55.820 69.936,55.600 69.800 C 55.380 69.664,55.200 69.747,55.200 69.984 C 55.200 70.221,54.030 71.585,52.600 73.015 C 51.170 74.445,50.000 75.773,50.000 75.967 C 50.000 76.161,49.370 76.950,48.600 77.720 C 47.830 78.490,47.200 79.236,47.200 79.377 C 47.200 79.691,46.523 80.519,45.204 81.819 C 44.656 82.358,44.363 82.800,44.552 82.800 C 44.742 82.800,44.245 83.595,43.448 84.567 C 42.652 85.539,42.000 86.529,42.000 86.767 C 42.000 87.005,41.820 87.200,41.600 87.200 C 41.380 87.200,41.200 87.481,41.200 87.824 C 41.200 88.167,41.020 88.336,40.800 88.200 C 40.580 88.064,40.400 88.284,40.400 88.688 C 40.400 89.093,40.040 89.683,39.600 90.000 C 39.160 90.317,38.800 90.857,38.800 91.200 C 38.800 91.543,38.440 92.083,38.000 92.400 C 37.560 92.717,37.200 93.307,37.200 93.712 C 37.200 94.116,37.020 94.336,36.800 94.200 C 36.580 94.064,36.400 94.233,36.400 94.576 C 36.400 94.919,36.220 95.200,36.000 95.200 C 35.780 95.200,35.600 95.470,35.600 95.800 C 35.600 96.130,35.420 96.400,35.200 96.400 C 34.980 96.400,34.800 96.678,34.800 97.017 C 34.800 97.356,34.440 98.020,34.000 98.492 C 33.560 98.964,33.200 99.587,33.200 99.875 C 33.200 100.164,33.020 100.400,32.800 100.400 C 32.580 100.400,32.400 100.678,32.400 101.017 C 32.400 101.356,32.040 102.020,31.600 102.492 C 31.160 102.964,30.800 103.587,30.800 103.875 C 30.800 104.164,30.590 104.400,30.333 104.400 C 30.077 104.400,29.987 104.521,30.135 104.668 C 30.282 104.816,30.123 105.363,29.781 105.885 C 28.639 107.628,27.200 110.513,27.200 111.060 C 27.200 111.357,27.020 111.600,26.800 111.600 C 26.580 111.600,26.400 111.870,26.400 112.200 C 26.400 112.530,26.220 112.800,26.000 112.800 C 25.780 112.800,25.600 113.160,25.600 113.600 C 25.600 114.040,25.420 114.400,25.200 114.400 C 24.980 114.400,24.800 114.760,24.800 115.200 C 24.800 115.640,24.609 116.000,24.376 116.000 C 24.143 116.000,24.048 116.153,24.164 116.341 C 24.280 116.529,24.116 117.024,23.800 117.441 C 23.484 117.858,23.220 118.605,23.213 119.100 C 23.206 119.595,23.020 120.000,22.800 120.000 C 22.580 120.000,22.400 120.360,22.400 120.800 C 22.400 121.240,22.220 121.600,22.000 121.600 C 21.780 121.600,21.600 121.865,21.600 122.188 C 21.600 122.511,21.240 123.417,20.800 124.200 C 20.360 124.983,20.000 125.979,20.000 126.412 C 20.000 126.845,19.820 127.200,19.600 127.200 C 19.380 127.200,19.200 127.661,19.200 128.224 C 19.200 128.804,19.027 129.140,18.800 129.000 C 18.580 128.864,18.400 129.036,18.400 129.383 C 18.400 130.371,17.439 133.200,17.103 133.200 C 16.936 133.200,16.800 133.639,16.800 134.176 C 16.800 134.713,16.620 135.264,16.400 135.400 C 16.180 135.536,16.000 136.087,16.000 136.624 C 16.000 137.161,15.820 137.600,15.600 137.600 C 15.380 137.600,15.200 138.241,15.200 139.024 C 15.200 139.871,15.038 140.347,14.800 140.200 C 14.573 140.060,14.400 140.398,14.400 140.982 C 14.400 141.548,14.242 142.323,14.049 142.705 C 13.476 143.840,12.800 146.198,12.800 147.062 C 12.800 147.504,12.670 147.997,12.511 148.156 C 12.352 148.315,11.900 149.740,11.506 151.323 C 11.113 152.905,10.692 154.560,10.570 155.000 C 10.448 155.440,10.246 156.925,10.120 158.300 C 9.994 159.675,9.752 160.800,9.584 160.800 C 9.297 160.800,9.119 161.885,8.554 167.100 C 8.428 168.255,8.163 169.200,7.963 169.200 C 7.763 169.200,7.600 170.460,7.600 172.000 C 7.600 173.600,7.429 174.800,7.200 174.800 C 6.961 174.800,6.800 176.333,6.800 178.600 C 6.800 180.867,6.639 182.400,6.400 182.400 C 6.139 182.400,6.000 188.533,6.000 200.000 C 6.000 211.467,6.139 217.600,6.400 217.600 C 6.639 217.600,6.800 219.141,6.800 221.424 C 6.800 223.871,6.944 225.158,7.200 225.000 C 7.526 224.799,7.873 229.070,7.647 230.500 C 7.621 230.665,7.780 230.800,8.000 230.800 C 8.220 230.800,8.400 231.779,8.400 232.976 C 8.400 234.173,8.580 235.264,8.800 235.400 C 9.020 235.536,9.200 236.436,9.200 237.400 C 9.200 238.364,9.354 239.248,9.541 239.364 C 9.729 239.480,10.002 240.858,10.148 242.426 C 10.293 243.993,10.572 245.574,10.767 245.938 C 10.961 246.302,11.211 247.140,11.320 247.800 C 11.430 248.460,11.719 249.510,11.963 250.134 C 12.206 250.757,12.311 251.420,12.196 251.606 C 12.081 251.792,12.170 252.058,12.393 252.196 C 12.617 252.334,12.800 252.889,12.800 253.429 C 12.800 253.969,12.972 254.723,13.182 255.105 C 13.392 255.487,13.950 257.150,14.422 258.800 C 15.273 261.772,15.764 263.152,16.447 264.495 C 16.641 264.877,16.800 265.537,16.800 265.961 C 16.800 266.386,16.978 266.793,17.197 266.867 C 17.415 266.940,17.634 267.495,17.684 268.100 C 17.734 268.705,17.915 269.200,18.087 269.200 C 18.259 269.200,18.400 269.650,18.400 270.200 C 18.400 270.750,18.580 271.200,18.800 271.200 C 19.020 271.200,19.200 271.560,19.200 272.000 C 19.200 272.440,19.380 272.800,19.600 272.800 C 19.820 272.800,20.000 273.155,20.000 273.588 C 20.000 274.021,20.360 275.017,20.800 275.800 C 21.240 276.583,21.600 277.489,21.600 277.812 C 21.600 278.135,21.780 278.400,22.000 278.400 C 22.220 278.400,22.400 278.760,22.400 279.200 C 22.400 279.640,22.580 280.000,22.800 280.000 C 23.020 280.000,23.200 280.439,23.200 280.976 C 23.200 281.513,23.380 282.064,23.600 282.200 C 23.820 282.336,24.000 282.797,24.000 283.224 C 24.000 283.651,24.180 284.000,24.400 284.000 C 24.620 284.000,24.800 284.371,24.800 284.824 C 24.800 285.277,24.980 285.536,25.200 285.400 C 25.427 285.260,25.600 285.596,25.600 286.176 C 25.600 286.739,25.736 287.200,25.902 287.200 C 26.069 287.200,26.453 287.785,26.756 288.500 C 28.026 291.497,28.510 292.400,28.846 292.400 C 29.041 292.400,29.200 292.760,29.200 293.200 C 29.200 293.640,29.380 294.000,29.600 294.000 C 29.820 294.000,30.000 294.360,30.000 294.800 C 30.000 295.240,30.180 295.600,30.400 295.600 C 30.620 295.600,30.800 295.836,30.800 296.125 C 30.800 296.413,31.115 297.005,31.500 297.440 C 31.885 297.875,32.259 298.494,32.330 298.816 C 32.402 299.137,32.627 299.460,32.830 299.533 C 33.034 299.607,33.200 300.012,33.200 300.433 C 33.200 300.855,33.380 301.200,33.600 301.200 C 33.820 301.200,34.000 301.470,34.000 301.800 C 34.000 302.130,34.180 302.400,34.400 302.400 C 34.620 302.400,34.800 302.670,34.800 303.000 C 34.800 303.330,34.980 303.600,35.200 303.600 C 35.420 303.600,35.600 303.825,35.600 304.100 C 35.601 304.375,36.051 305.123,36.600 305.762 C 37.150 306.401,37.600 307.049,37.600 307.201 C 37.600 307.353,37.915 307.850,38.300 308.305 C 40.165 310.510,40.400 310.840,40.400 311.258 C 40.400 311.504,40.728 311.997,41.129 312.353 C 41.529 312.709,42.333 313.707,42.914 314.571 C 43.847 315.959,44.005 316.053,44.263 315.371 C 44.424 314.947,44.745 314.404,44.978 314.163 C 45.210 313.923,45.850 313.126,46.400 312.392 C 46.950 311.658,47.850 310.507,48.400 309.834 C 48.950 309.161,49.760 308.171,50.200 307.634 C 58.022 298.079,71.914 284.617,80.592 278.181 C 82.563 276.719,83.535 275.946,84.216 275.300 C 84.506 275.025,84.921 274.800,85.138 274.800 C 85.355 274.800,85.593 274.648,85.667 274.461 C 85.836 274.030,95.471 267.600,100.200 264.762 C 111.930 257.722,125.612 251.439,138.000 247.404 C 140.530 246.580,142.913 245.747,143.295 245.553 C 143.677 245.359,144.431 245.200,144.971 245.200 C 145.511 245.200,146.051 245.041,146.171 244.846 C 146.292 244.651,146.887 244.393,147.495 244.271 C 148.103 244.149,149.365 243.858,150.300 243.625 C 156.719 242.021,157.466 241.855,164.900 240.384 C 182.370 236.927,206.697 236.280,225.000 238.786 C 230.279 239.508,236.341 240.523,239.300 241.179 C 243.988 242.218,244.703 242.382,246.400 242.807 C 247.390 243.055,248.787 243.355,249.504 243.473 C 250.221 243.592,250.906 243.849,251.027 244.044 C 251.148 244.240,251.689 244.400,252.229 244.400 C 252.769 244.400,253.523 244.562,253.905 244.761 C 254.287 244.960,255.410 245.347,256.400 245.623 C 267.645 248.751,281.018 254.409,294.800 261.870 C 302.000 265.767,310.913 271.708,319.997 278.662 C 330.519 286.718,341.239 297.433,353.149 311.800 C 353.514 312.240,354.349 313.361,355.006 314.291 C 356.490 316.394,356.395 316.404,357.817 314.008 C 358.468 312.912,359.135 312.012,359.300 312.008 C 359.465 312.004,359.600 311.680,359.600 311.288 C 359.600 310.897,359.960 310.317,360.400 310.000 C 360.840 309.683,361.200 309.221,361.200 308.974 C 361.200 308.726,361.560 308.198,362.000 307.800 C 362.440 307.402,362.800 306.916,362.800 306.721 C 362.800 306.526,363.160 305.980,363.600 305.508 C 364.040 305.036,364.400 304.413,364.400 304.125 C 364.400 303.836,364.552 303.600,364.737 303.600 C 364.923 303.600,365.507 302.745,366.037 301.700 C 366.566 300.655,367.314 299.451,367.699 299.025 C 368.085 298.598,368.400 298.013,368.400 297.725 C 368.400 297.436,368.591 297.200,368.824 297.200 C 369.057 297.200,369.145 297.035,369.020 296.832 C 368.895 296.630,369.064 296.193,369.396 295.861 C 369.728 295.529,370.000 294.974,370.000 294.629 C 370.000 294.283,370.180 294.000,370.400 294.000 C 370.620 294.000,370.800 293.640,370.800 293.200 C 370.800 292.760,370.980 292.400,371.200 292.400 C 371.420 292.400,371.600 292.130,371.600 291.800 C 371.600 291.470,371.780 291.200,372.000 291.200 C 372.220 291.200,372.400 290.855,372.400 290.433 C 372.400 290.012,372.535 289.607,372.700 289.533 C 373.174 289.323,375.200 285.362,375.200 284.646 C 375.200 284.291,375.380 284.000,375.600 284.000 C 375.820 284.000,376.000 283.651,376.000 283.224 C 376.000 282.797,376.180 282.336,376.400 282.200 C 376.620 282.064,376.800 281.513,376.800 280.976 C 376.800 280.439,376.980 280.000,377.200 280.000 C 377.420 280.000,377.600 279.640,377.600 279.200 C 377.600 278.760,377.780 278.400,378.000 278.400 C 378.220 278.400,378.400 278.040,378.400 277.600 C 378.400 277.160,378.580 276.800,378.800 276.800 C 379.020 276.800,379.200 276.528,379.200 276.195 C 379.200 275.862,379.359 275.277,379.553 274.895 C 379.748 274.513,380.129 273.660,380.400 273.000 C 380.671 272.340,381.052 271.487,381.247 271.105 C 381.441 270.723,381.600 270.138,381.600 269.805 C 381.600 269.472,381.742 269.200,381.915 269.200 C 382.088 269.200,382.260 268.798,382.297 268.307 C 382.334 267.816,382.552 267.006,382.782 266.507 C 383.012 266.008,383.401 265.105,383.647 264.500 C 383.892 263.895,384.252 263.087,384.447 262.705 C 384.641 262.323,384.800 261.659,384.800 261.229 C 384.800 260.799,384.980 260.336,385.200 260.200 C 385.420 260.064,385.600 259.511,385.600 258.971 C 385.600 258.431,385.762 257.677,385.961 257.295 C 386.160 256.913,386.544 255.790,386.815 254.800 C 387.517 252.237,388.080 250.295,388.322 249.600 C 388.437 249.270,388.606 248.370,388.699 247.600 C 388.791 246.830,389.032 246.140,389.233 246.067 C 389.435 245.993,389.600 245.239,389.600 244.390 C 389.600 243.542,389.780 242.736,390.000 242.600 C 390.220 242.464,390.400 241.654,390.400 240.800 C 390.400 239.946,390.569 239.143,390.775 239.016 C 390.981 238.888,391.144 238.473,391.138 238.092 C 391.109 236.258,391.751 230.800,391.996 230.800 C 392.149 230.800,392.312 229.585,392.359 228.100 C 392.406 226.615,392.614 225.340,392.822 225.267 C 393.030 225.193,393.200 223.438,393.200 221.367 C 393.200 219.177,393.364 217.600,393.591 217.600 C 393.841 217.600,393.983 211.209,393.983 200.000 C 393.983 188.791,393.841 182.400,393.591 182.400 C 393.364 182.400,393.200 180.811,393.200 178.600 C 393.200 176.333,393.039 174.800,392.800 174.800 C 392.574 174.800,392.400 173.659,392.400 172.176 C 392.400 170.733,392.246 169.648,392.058 169.764 C 391.776 169.938,391.133 164.400,391.146 161.908 C 391.147 161.527,390.981 161.112,390.775 160.984 C 390.569 160.857,390.400 160.079,390.400 159.256 C 390.400 158.433,390.229 157.589,390.019 157.379 C 389.810 157.170,389.592 156.311,389.536 155.471 C 389.479 154.631,389.290 153.856,389.116 153.748 C 388.942 153.641,388.800 152.969,388.800 152.256 C 388.800 151.543,388.631 150.789,388.425 150.580 C 388.218 150.371,387.985 149.712,387.906 149.115 C 387.828 148.518,387.637 147.903,387.482 147.748 C 387.327 147.593,387.200 146.987,387.200 146.400 C 387.200 145.813,387.077 145.210,386.926 145.059 C 386.487 144.620,385.613 141.881,385.606 140.924 C 385.603 140.442,385.420 139.936,385.200 139.800 C 384.980 139.664,384.800 139.201,384.800 138.771 C 384.800 138.341,384.620 137.632,384.400 137.195 C 384.180 136.758,383.820 136.042,383.600 135.605 C 383.380 135.168,383.200 134.448,383.200 134.005 C 383.200 133.562,383.053 133.200,382.872 133.200 C 382.692 133.200,382.300 132.300,382.000 131.200 C 381.700 130.100,381.308 129.200,381.128 129.200 C 380.947 129.200,380.800 128.750,380.800 128.200 C 380.800 127.650,380.620 127.200,380.400 127.200 C 380.180 127.200,380.000 126.761,380.000 126.224 C 380.000 125.687,379.820 125.136,379.600 125.000 C 379.380 124.864,379.200 124.403,379.200 123.976 C 379.200 123.549,379.020 123.200,378.800 123.200 C 378.580 123.200,378.400 122.840,378.400 122.400 C 378.400 121.960,378.220 121.600,378.000 121.600 C 377.780 121.600,377.600 121.240,377.600 120.800 C 377.600 120.360,377.420 120.000,377.200 120.000 C 376.980 120.000,376.794 119.595,376.787 119.100 C 376.780 118.605,376.516 117.858,376.200 117.441 C 375.884 117.024,375.720 116.529,375.836 116.341 C 375.952 116.153,375.885 116.000,375.688 116.000 C 375.490 116.000,375.090 115.280,374.800 114.400 C 374.510 113.520,374.110 112.800,373.912 112.800 C 373.715 112.800,373.664 112.620,373.800 112.400 C 373.936 112.180,373.857 112.000,373.624 112.000 C 373.391 112.000,373.200 111.640,373.200 111.200 C 373.200 110.760,373.020 110.400,372.800 110.400 C 372.580 110.400,372.400 110.040,372.400 109.600 C 372.400 109.160,372.220 108.800,372.000 108.800 C 371.780 108.800,371.600 108.530,371.600 108.200 C 371.600 107.870,371.409 107.600,371.176 107.600 C 370.943 107.600,370.855 107.435,370.980 107.232 C 371.105 107.030,370.936 106.593,370.604 106.261 C 370.272 105.929,370.000 105.374,370.000 105.029 C 370.000 104.683,369.820 104.400,369.600 104.400 C 369.380 104.400,369.200 104.040,369.200 103.600 C 369.200 103.160,369.020 102.800,368.800 102.800 C 368.580 102.800,368.400 102.564,368.400 102.275 C 368.400 101.987,368.040 101.364,367.600 100.892 C 367.160 100.420,366.800 99.756,366.800 99.417 C 366.800 99.078,366.620 98.800,366.400 98.800 C 366.180 98.800,366.000 98.519,366.000 98.176 C 366.000 97.833,365.820 97.664,365.600 97.800 C 365.380 97.936,365.200 97.759,365.200 97.407 C 365.200 97.055,364.840 96.380,364.400 95.908 C 363.960 95.436,363.600 94.813,363.600 94.525 C 363.600 94.236,363.420 94.000,363.200 94.000 C 362.980 94.000,362.800 93.770,362.800 93.488 C 362.800 93.207,362.440 92.717,362.000 92.400 C 361.560 92.083,361.200 91.543,361.200 91.200 C 361.200 90.857,360.840 90.317,360.400 90.000 C 359.960 89.683,359.600 89.103,359.600 88.712 C 359.600 88.320,359.432 88.000,359.227 88.000 C 359.022 88.000,358.746 87.660,358.614 87.245 C 358.482 86.829,357.939 86.019,357.406 85.445 C 356.874 84.870,356.547 84.400,356.680 84.400 C 356.813 84.400,356.507 84.040,356.000 83.600 C 355.493 83.160,355.240 82.795,355.439 82.788 C 355.637 82.781,355.485 82.592,355.100 82.368 C 354.715 82.144,354.400 81.742,354.400 81.476 C 354.400 81.210,354.040 80.768,353.600 80.493 C 353.160 80.218,352.800 79.789,352.800 79.540 C 352.800 79.291,352.260 78.571,351.600 77.940 C 350.940 77.309,350.400 76.628,350.400 76.427 C 350.400 76.226,349.140 74.786,347.600 73.228 C 346.060 71.669,344.800 70.205,344.800 69.974 C 344.800 69.742,344.620 69.664,344.400 69.800 C 344.180 69.936,344.000 69.762,344.000 69.414 C 344.000 68.751,330.703 55.200,330.054 55.200 C 329.849 55.200,328.762 54.300,327.639 53.200 C 326.515 52.100,325.406 51.200,325.174 51.200 C 324.943 51.200,324.851 51.041,324.971 50.847 C 325.091 50.653,324.606 50.207,323.894 49.856 C 323.182 49.505,322.749 49.214,322.931 49.209 C 323.307 49.199,321.020 47.200,320.632 47.200 C 320.492 47.200,319.768 46.644,319.021 45.965 C 318.275 45.286,317.600 44.791,317.522 44.865 C 317.444 44.939,317.115 44.771,316.790 44.492 C 314.657 42.656,313.739 42.001,313.300 42.000 C 313.025 42.000,312.800 41.850,312.800 41.668 C 312.800 41.485,312.305 41.081,311.700 40.770 C 311.095 40.460,310.309 39.889,309.953 39.503 C 309.597 39.116,309.102 38.800,308.853 38.800 C 308.604 38.800,308.400 38.650,308.400 38.468 C 308.400 38.285,307.905 37.888,307.300 37.586 C 306.695 37.284,305.840 36.739,305.400 36.375 C 304.960 36.012,304.028 35.470,303.329 35.172 C 302.630 34.874,302.145 34.488,302.252 34.315 C 302.360 34.142,302.167 34.000,301.824 34.000 C 301.481 34.000,301.200 33.820,301.200 33.600 C 301.200 33.380,300.840 33.200,300.400 33.200 C 299.960 33.200,299.600 33.042,299.600 32.849 C 299.600 32.655,299.060 32.273,298.400 32.000 C 297.740 31.727,297.200 31.345,297.200 31.151 C 297.200 30.958,296.947 30.800,296.638 30.800 C 295.907 30.800,292.820 29.198,291.830 28.305 C 291.407 27.923,290.461 27.498,289.730 27.360 C 288.998 27.223,288.400 26.951,288.400 26.755 C 288.400 26.560,288.040 26.400,287.600 26.400 C 287.160 26.400,286.800 26.220,286.800 26.000 C 286.800 25.780,286.530 25.600,286.200 25.600 C 285.870 25.600,285.600 25.420,285.600 25.200 C 285.600 24.980,285.139 24.800,284.576 24.800 C 283.996 24.800,283.660 24.627,283.800 24.400 C 283.936 24.180,283.687 24.000,283.247 24.000 C 282.807 24.000,282.336 23.820,282.200 23.600 C 282.064 23.380,281.513 23.200,280.976 23.200 C 280.439 23.200,280.000 23.020,280.000 22.800 C 280.000 22.580,279.640 22.400,279.200 22.400 C 278.760 22.400,278.400 22.220,278.400 22.000 C 278.400 21.780,278.040 21.600,277.600 21.600 C 277.160 21.600,276.800 21.420,276.800 21.200 C 276.800 20.980,276.440 20.800,276.000 20.800 C 275.560 20.800,275.200 20.620,275.200 20.400 C 275.200 20.180,274.660 20.000,274.000 20.000 C 273.340 20.000,272.799 19.865,272.797 19.700 C 272.792 19.248,270.769 18.400,269.697 18.400 C 269.169 18.400,268.862 18.224,269.000 18.000 C 269.144 17.767,268.737 17.600,268.024 17.600 C 267.351 17.600,266.800 17.459,266.800 17.287 C 266.800 17.115,265.945 16.743,264.900 16.461 C 263.855 16.178,262.687 15.779,262.305 15.573 C 261.923 15.368,261.284 15.200,260.885 15.200 C 260.486 15.200,259.989 15.031,259.780 14.825 C 259.571 14.618,258.950 14.376,258.400 14.286 C 257.850 14.196,257.085 14.005,256.700 13.861 C 256.315 13.718,255.685 13.481,255.300 13.337 C 254.915 13.192,254.060 12.998,253.400 12.906 C 252.740 12.814,252.140 12.572,252.066 12.367 C 251.992 12.162,251.782 12.087,251.599 12.200 C 251.417 12.313,250.757 12.206,250.134 11.963 C 249.510 11.719,248.460 11.430,247.800 11.320 C 247.140 11.211,246.302 10.961,245.938 10.767 C 245.574 10.572,243.999 10.294,242.438 10.149 C 240.877 10.004,239.600 9.731,239.600 9.543 C 239.600 9.354,238.621 9.200,237.424 9.200 C 236.227 9.200,235.136 9.020,235.000 8.800 C 234.864 8.580,233.763 8.400,232.553 8.400 C 231.188 8.400,230.447 8.248,230.600 8.000 C 230.757 7.747,229.730 7.600,227.800 7.600 C 225.870 7.600,224.843 7.453,225.000 7.200 C 225.158 6.944,223.871 6.800,221.424 6.800 C 219.141 6.800,217.600 6.639,217.600 6.400 C 217.600 6.139,211.467 6.000,200.000 6.000 C 188.533 6.000,182.400 6.139,182.400 6.400 M212.000 63.134 C 220.716 64.761,226.187 66.527,233.600 70.104 C 236.460 71.484,244.946 76.756,245.600 77.559 C 245.710 77.694,246.520 78.330,247.400 78.973 C 249.470 80.485,257.115 88.130,258.627 90.200 C 259.270 91.080,259.908 91.890,260.046 92.000 C 260.632 92.466,265.678 100.475,266.751 102.640 C 268.670 106.513,270.255 110.099,270.799 111.800 C 271.081 112.680,271.441 113.760,271.600 114.200 C 272.379 116.355,272.800 117.936,272.800 118.705 C 272.800 119.171,272.961 119.652,273.158 119.774 C 273.355 119.895,273.608 120.671,273.721 121.497 C 273.833 122.324,274.164 124.350,274.456 126.000 C 275.120 129.758,275.152 144.704,274.505 148.600 C 274.064 151.251,273.727 152.909,272.874 156.600 C 271.111 164.236,265.245 176.513,260.550 182.391 C 255.799 188.339,251.716 192.583,247.400 196.060 C 240.624 201.519,231.534 206.520,224.200 208.825 C 222.660 209.309,221.040 209.848,220.600 210.022 C 220.160 210.197,219.260 210.453,218.600 210.591 C 217.940 210.730,216.590 211.015,215.600 211.225 C 206.835 213.087,192.599 213.271,186.200 211.604 C 185.540 211.432,183.920 211.072,182.600 210.804 C 181.280 210.536,179.840 210.176,179.400 210.004 C 178.960 209.832,177.790 209.458,176.800 209.173 C 175.810 208.889,174.190 208.310,173.200 207.888 C 172.210 207.466,171.040 206.980,170.600 206.809 C 165.445 204.804,155.973 199.052,151.800 195.393 C 140.229 185.245,132.239 173.378,128.373 160.600 C 128.107 159.720,127.748 158.640,127.575 158.200 C 127.402 157.760,127.147 156.860,127.009 156.200 C 126.870 155.540,126.577 154.190,126.357 153.200 C 125.297 148.422,125.057 145.548,125.057 137.600 C 125.057 128.465,125.345 125.890,127.203 118.400 C 127.448 117.410,127.749 116.103,127.871 115.495 C 127.993 114.887,128.251 114.292,128.446 114.171 C 128.641 114.051,128.800 113.601,128.800 113.171 C 128.800 112.741,128.959 112.077,129.153 111.695 C 129.348 111.313,129.689 110.550,129.913 110.000 C 132.067 104.691,134.033 100.917,137.101 96.200 C 138.532 94.000,139.825 92.110,139.974 92.000 C 140.124 91.890,140.510 91.413,140.833 90.940 C 142.768 88.101,149.111 81.789,153.902 77.934 C 161.032 72.196,173.317 66.285,182.000 64.413 C 183.210 64.152,184.753 63.772,185.428 63.569 C 186.104 63.366,187.274 63.182,188.028 63.160 C 188.783 63.138,189.850 62.970,190.400 62.787 C 191.748 62.337,209.238 62.619,212.000 63.134 " stroke="none" fill="#e3ebfc" fill-rule="evenodd"></path><path id="path2" d="M197.900 62.695 C 199.055 62.776,200.945 62.776,202.100 62.695 C 203.255 62.614,202.310 62.548,200.000 62.548 C 197.690 62.548,196.745 62.614,197.900 62.695 M192.705 63.083 C 193.202 63.179,193.922 63.175,194.305 63.075 C 194.687 62.975,194.280 62.896,193.400 62.901 C 192.520 62.905,192.207 62.987,192.705 63.083 M205.905 63.083 C 206.402 63.179,207.122 63.175,207.505 63.075 C 207.887 62.975,207.480 62.896,206.600 62.901 C 205.720 62.905,205.407 62.987,205.905 63.083 M189.100 63.482 C 189.595 63.578,190.405 63.578,190.900 63.482 C 191.395 63.387,190.990 63.309,190.000 63.309 C 189.010 63.309,188.605 63.387,189.100 63.482 M209.100 63.482 C 209.595 63.578,210.405 63.578,210.900 63.482 C 211.395 63.387,210.990 63.309,210.000 63.309 C 209.010 63.309,208.605 63.387,209.100 63.482 M184.500 64.276 C 184.885 64.376,185.515 64.376,185.900 64.276 C 186.285 64.175,185.970 64.093,185.200 64.093 C 184.430 64.093,184.115 64.175,184.500 64.276 M180.200 65.200 C 179.696 65.417,179.622 65.544,180.000 65.544 C 180.330 65.544,180.960 65.389,181.400 65.200 C 181.904 64.983,181.978 64.856,181.600 64.856 C 181.270 64.856,180.640 65.011,180.200 65.200 M151.281 80.603 C 149.676 82.031,148.529 83.200,148.732 83.200 C 148.936 83.200,149.349 82.900,149.651 82.534 C 149.953 82.168,151.244 80.998,152.521 79.934 C 153.797 78.870,154.697 78.001,154.521 78.003 C 154.344 78.005,152.887 79.175,151.281 80.603 M248.488 80.613 C 249.086 81.243,249.647 81.677,249.735 81.579 C 249.823 81.480,249.333 80.965,248.647 80.434 L 247.400 79.469 248.488 80.613 M252.820 84.621 C 253.799 85.733,254.681 86.581,254.781 86.507 C 254.880 86.433,254.079 85.523,253.001 84.486 L 251.040 82.600 252.820 84.621 M142.260 89.693 C 141.486 90.625,140.931 91.465,141.027 91.560 C 141.122 91.655,141.247 91.658,141.304 91.567 C 141.361 91.475,142.000 90.635,142.723 89.700 C 144.425 87.499,144.086 87.495,142.260 89.693 M257.640 90.000 C 258.587 91.210,259.415 92.275,259.481 92.367 C 259.546 92.458,259.596 92.368,259.592 92.167 C 259.587 91.965,258.759 90.900,257.751 89.800 L 255.919 87.800 257.640 90.000 M135.800 98.800 C 135.459 99.460,135.269 100.000,135.379 100.000 C 135.489 100.000,135.859 99.460,136.200 98.800 C 136.541 98.140,136.731 97.600,136.621 97.600 C 136.511 97.600,136.141 98.140,135.800 98.800 M134.200 101.600 C 133.859 102.260,133.669 102.800,133.779 102.800 C 133.889 102.800,134.259 102.260,134.600 101.600 C 134.941 100.940,135.131 100.400,135.021 100.400 C 134.911 100.400,134.541 100.940,134.200 101.600 M131.665 106.617 C 130.995 108.088,131.123 108.402,131.847 107.065 C 132.186 106.440,132.388 105.854,132.296 105.763 C 132.205 105.671,131.921 106.056,131.665 106.617 M271.444 115.800 C 271.773 117.271,272.002 117.590,271.994 116.567 C 271.991 116.145,271.805 115.530,271.582 115.200 C 271.285 114.762,271.248 114.924,271.444 115.800 M272.258 118.800 C 272.575 120.525,272.802 120.851,272.794 119.567 C 272.791 119.035,272.611 118.330,272.394 118.000 C 272.118 117.578,272.077 117.815,272.258 118.800 M127.050 120.050 C 126.717 121.717,127.040 122.040,127.400 120.400 C 127.552 119.709,127.593 119.059,127.491 118.958 C 127.389 118.856,127.191 119.347,127.050 120.050 M273.228 123.033 C 273.244 123.675,273.416 124.560,273.610 125.000 C 273.847 125.534,273.886 125.202,273.727 124.000 C 273.446 121.880,273.188 121.380,273.228 123.033 M126.449 123.000 C 126.416 123.440,126.296 124.250,126.183 124.800 L 125.977 125.800 126.406 124.819 C 126.642 124.279,126.761 123.469,126.672 123.019 C 126.513 122.221,126.507 122.221,126.449 123.000 M274.109 128.000 C 274.109 128.990,274.187 129.395,274.282 128.900 C 274.378 128.405,274.378 127.595,274.282 127.100 C 274.187 126.605,274.109 127.010,274.109 128.000 M125.429 129.629 C 125.276 130.979,125.233 132.166,125.333 132.267 C 125.434 132.367,125.644 131.347,125.800 130.000 C 125.956 128.653,125.999 127.466,125.895 127.362 C 125.791 127.258,125.581 128.278,125.429 129.629 M274.493 131.200 C 274.493 131.970,274.575 132.285,274.676 131.900 C 274.776 131.515,274.776 130.885,274.676 130.500 C 274.575 130.115,274.493 130.430,274.493 131.200 M125.276 143.400 C 125.267 144.060,125.403 145.410,125.580 146.400 C 125.878 148.078,125.902 148.105,125.927 146.800 C 125.942 146.030,125.805 144.680,125.623 143.800 C 125.337 142.420,125.290 142.365,125.276 143.400 M274.188 145.388 C 274.031 147.064,273.989 148.523,274.095 148.629 C 274.201 148.734,274.412 147.446,274.565 145.765 C 274.717 144.084,274.759 142.626,274.658 142.524 C 274.557 142.423,274.345 143.712,274.188 145.388 M126.258 150.800 C 126.575 152.525,126.802 152.851,126.794 151.567 C 126.791 151.035,126.611 150.330,126.394 150.000 C 126.118 149.578,126.077 149.815,126.258 150.800 M273.456 150.484 C 273.321 150.988,273.228 151.850,273.249 152.400 C 273.272 152.989,273.431 152.671,273.636 151.625 C 274.003 149.752,273.873 148.927,273.456 150.484 M127.844 157.800 C 128.173 159.271,128.402 159.590,128.394 158.567 C 128.391 158.145,128.205 157.530,127.982 157.200 C 127.685 156.762,127.648 156.924,127.844 157.800 M129.233 162.096 C 129.182 162.553,131.273 167.749,131.688 168.200 C 131.891 168.420,131.704 167.700,131.272 166.600 C 130.072 163.543,129.269 161.768,129.233 162.096 M267.872 168.619 C 266.932 170.589,267.064 170.924,268.047 169.062 C 268.493 168.216,268.787 167.454,268.701 167.367 C 268.614 167.281,268.241 167.844,267.872 168.619 M132.000 168.947 C 132.000 169.380,133.988 173.200,134.213 173.200 C 134.323 173.200,133.939 172.255,133.359 171.100 C 132.243 168.879,132.000 168.494,132.000 168.947 M265.400 173.600 C 265.059 174.260,264.869 174.800,264.979 174.800 C 265.089 174.800,265.459 174.260,265.800 173.600 C 266.141 172.940,266.331 172.400,266.221 172.400 C 266.111 172.400,265.741 172.940,265.400 173.600 M134.415 173.800 C 134.417 174.020,134.786 174.650,135.236 175.200 C 135.779 175.864,135.915 175.931,135.640 175.400 C 134.966 174.095,134.412 173.372,134.415 173.800 M263.814 176.235 C 263.441 176.804,263.227 177.361,263.339 177.472 C 263.450 177.583,263.829 177.118,264.181 176.437 C 264.959 174.933,264.744 174.815,263.814 176.235 M137.328 178.600 C 137.674 179.260,138.427 180.340,139.001 181.000 C 139.669 181.769,139.520 181.410,138.586 180.000 C 136.859 177.394,136.465 176.955,137.328 178.600 M260.092 181.829 C 259.597 182.583,259.272 183.200,259.369 183.200 C 259.647 183.200,261.304 180.771,261.139 180.606 C 261.057 180.524,260.586 181.074,260.092 181.829 M255.422 187.575 L 253.844 189.400 255.603 187.714 C 256.570 186.786,257.280 185.965,257.180 185.888 C 257.081 185.812,256.290 186.571,255.422 187.575 M146.980 190.287 C 149.168 192.535,151.043 194.290,151.146 194.187 C 151.249 194.084,151.253 193.955,151.154 193.900 C 151.056 193.845,149.181 192.090,146.987 190.000 L 143.000 186.200 146.980 190.287 M250.987 192.100 L 248.600 194.600 251.100 192.213 C 252.475 190.899,253.600 189.774,253.600 189.713 C 253.600 189.417,253.205 189.778,250.987 192.100 M240.927 199.927 C 239.787 200.730,238.911 201.444,238.979 201.513 C 239.146 201.680,242.715 199.261,243.013 198.779 C 243.347 198.239,243.233 198.301,240.927 199.927 M161.600 201.779 C 161.600 201.889,162.140 202.259,162.800 202.600 C 163.460 202.941,164.000 203.131,164.000 203.021 C 164.000 202.911,163.460 202.541,162.800 202.200 C 162.140 201.859,161.600 201.669,161.600 201.779 M237.000 202.400 C 236.340 202.837,235.980 203.192,236.200 203.188 C 236.601 203.182,238.776 201.623,238.400 201.612 C 238.290 201.608,237.660 201.963,237.000 202.400 M233.200 204.400 C 231.990 205.039,231.141 205.571,231.313 205.581 C 231.738 205.607,235.600 203.636,235.600 203.393 C 235.600 203.126,235.655 203.103,233.200 204.400 M166.200 204.356 C 166.420 204.577,167.320 205.057,168.200 205.421 C 170.290 206.287,169.713 205.701,167.505 204.715 C 166.567 204.296,165.980 204.135,166.200 204.356 M182.400 210.400 C 183.768 210.838,184.819 210.838,183.800 210.400 C 183.360 210.211,182.640 210.062,182.200 210.068 C 181.557 210.077,181.596 210.143,182.400 210.400 M216.400 210.418 C 215.962 210.715,216.124 210.752,217.000 210.556 C 218.471 210.227,218.790 209.998,217.767 210.006 C 217.345 210.009,216.730 210.195,216.400 210.418 M186.400 211.200 C 187.768 211.638,188.819 211.638,187.800 211.200 C 187.360 211.011,186.640 210.862,186.200 210.868 C 185.557 210.877,185.596 210.943,186.400 211.200 M212.200 211.219 C 211.642 211.471,211.885 211.507,213.000 211.338 C 213.880 211.204,214.675 211.028,214.767 210.947 C 215.110 210.644,212.968 210.871,212.200 211.219 M191.600 212.020 C 194.150 212.474,196.421 212.436,194.200 211.977 C 193.320 211.795,191.970 211.658,191.200 211.673 C 189.895 211.698,189.922 211.722,191.600 212.020 M205.600 212.000 C 203.512 212.439,205.946 212.457,208.400 212.020 L 210.200 211.700 208.600 211.703 C 207.720 211.704,206.370 211.838,205.600 212.000 M186.800 238.000 L 184.600 238.270 186.800 238.288 C 188.010 238.298,190.170 238.175,191.600 238.014 L 194.200 237.722 191.600 237.726 C 190.170 237.729,188.010 237.852,186.800 238.000 M208.200 238.013 C 209.740 238.171,211.900 238.297,213.000 238.292 L 215.000 238.282 212.600 237.985 C 211.280 237.821,209.120 237.696,207.800 237.706 L 205.400 237.726 208.200 238.013 M178.200 238.800 L 176.600 239.086 178.000 239.096 C 178.770 239.101,179.940 238.968,180.600 238.800 C 182.228 238.386,180.513 238.386,178.200 238.800 M219.400 238.780 C 220.634 239.115,223.464 239.318,223.167 239.050 C 223.075 238.968,221.920 238.800,220.600 238.677 C 219.022 238.530,218.611 238.565,219.400 238.780 M226.000 239.580 C 226.999 239.920,229.482 240.132,229.167 239.851 C 229.075 239.769,228.100 239.599,227.000 239.472 C 225.651 239.316,225.326 239.351,226.000 239.580 M167.000 240.400 C 165.911 240.677,165.893 240.707,166.800 240.725 C 167.350 240.735,168.160 240.589,168.600 240.400 C 169.586 239.976,168.666 239.976,167.000 240.400 M231.400 240.381 C 232.168 240.729,234.310 240.956,233.967 240.653 C 233.875 240.572,233.080 240.396,232.200 240.262 C 231.085 240.093,230.842 240.129,231.400 240.381 M162.800 241.200 C 161.996 241.457,161.957 241.523,162.600 241.532 C 163.040 241.538,163.760 241.389,164.200 241.200 C 165.219 240.762,164.168 240.762,162.800 241.200 M236.000 241.200 C 236.330 241.413,236.960 241.578,237.400 241.566 L 238.200 241.544 237.400 241.200 C 236.204 240.686,235.205 240.686,236.000 241.200 M158.600 242.000 C 157.493 242.282,157.477 242.309,158.400 242.347 C 158.950 242.369,159.670 242.213,160.000 242.000 C 160.681 241.560,160.329 241.560,158.600 242.000 M240.000 241.982 C 240.330 242.205,240.945 242.391,241.367 242.394 C 242.390 242.402,242.071 242.173,240.600 241.844 C 239.724 241.648,239.562 241.685,240.000 241.982 M155.200 242.800 C 154.376 243.064,154.341 243.126,155.000 243.154 C 155.440 243.173,156.070 243.013,156.400 242.800 C 157.101 242.347,156.614 242.347,155.200 242.800 M243.600 242.782 C 243.930 243.005,244.545 243.191,244.967 243.194 C 245.990 243.202,245.671 242.973,244.200 242.644 C 243.324 242.448,243.162 242.485,243.600 242.782 M151.800 243.600 C 150.693 243.882,150.677 243.909,151.600 243.947 C 152.150 243.969,152.870 243.813,153.200 243.600 C 153.881 243.160,153.529 243.160,151.800 243.600 M148.800 244.400 C 147.976 244.664,147.941 244.726,148.600 244.754 C 149.040 244.773,149.670 244.613,150.000 244.400 C 150.701 243.947,150.214 243.947,148.800 244.400 M250.000 244.382 C 250.330 244.605,250.945 244.791,251.367 244.794 C 252.390 244.802,252.071 244.573,250.600 244.244 C 249.724 244.048,249.562 244.085,250.000 244.382 M146.000 245.200 C 145.176 245.464,145.141 245.526,145.800 245.554 C 146.240 245.573,146.870 245.413,147.200 245.200 C 147.901 244.747,147.414 244.747,146.000 245.200 M255.600 245.982 C 255.930 246.205,256.545 246.391,256.967 246.394 C 257.990 246.402,257.671 246.173,256.200 245.844 C 255.324 245.648,255.162 245.685,255.600 245.982 M141.200 246.625 C 140.430 246.916,140.094 247.165,140.454 247.177 C 140.814 247.190,141.714 246.937,142.454 246.616 C 144.120 245.892,143.116 245.900,141.200 246.625 M110.300 259.429 C 109.695 259.757,109.200 260.110,109.200 260.213 C 109.200 260.599,109.832 260.357,110.800 259.600 C 111.989 258.670,111.811 258.609,110.300 259.429 M289.200 259.564 C 289.750 260.014,290.380 260.383,290.600 260.385 C 291.028 260.388,290.305 259.834,289.000 259.160 C 288.469 258.885,288.536 259.021,289.200 259.564 M295.200 262.820 C 296.587 263.761,297.378 264.035,296.400 263.236 C 295.850 262.786,295.220 262.417,295.000 262.415 C 294.780 262.413,294.870 262.596,295.200 262.820 M303.000 267.407 C 303.440 267.766,304.160 268.235,304.600 268.451 L 305.400 268.844 304.600 268.193 C 304.160 267.834,303.440 267.365,303.000 267.149 L 302.200 266.756 303.000 267.407 M86.600 274.032 C 84.230 275.824,83.927 276.302,86.080 274.854 C 87.113 274.159,88.069 273.412,88.203 273.195 C 88.574 272.594,88.339 272.717,86.600 274.032 M311.605 273.073 C 311.608 273.253,312.257 273.819,313.048 274.332 C 313.840 274.845,314.372 275.078,314.231 274.851 C 313.841 274.218,311.599 272.701,311.605 273.073 M82.400 277.249 C 81.006 278.471,81.005 278.472,82.288 277.619 C 82.996 277.148,83.682 276.591,83.812 276.381 C 84.197 275.757,83.877 275.954,82.400 277.249 M316.000 276.087 C 316.000 276.202,318.265 278.127,321.033 280.364 C 323.801 282.600,325.951 284.244,325.810 284.016 C 325.669 283.788,323.719 282.132,321.477 280.335 C 319.235 278.538,317.085 276.799,316.700 276.472 C 316.315 276.144,316.000 275.971,316.000 276.087 M72.770 285.100 L 71.800 286.200 73.000 285.200 C 73.660 284.650,74.275 284.155,74.367 284.100 C 74.458 284.045,74.355 284.000,74.136 284.000 C 73.918 284.000,73.303 284.495,72.770 285.100 M327.774 285.893 C 328.640 286.824,329.435 287.499,329.541 287.393 C 329.647 287.287,329.656 287.155,329.562 287.100 C 329.468 287.045,328.673 286.370,327.796 285.601 L 326.200 284.201 327.774 285.893 M69.385 288.100 L 67.400 290.200 69.500 288.215 C 70.655 287.123,71.600 286.178,71.600 286.115 C 71.600 285.817,71.229 286.149,69.385 288.100 M330.000 287.725 C 330.000 287.794,330.585 288.379,331.300 289.025 L 332.600 290.200 331.425 288.900 C 330.330 287.688,330.000 287.416,330.000 287.725 M62.611 294.389 C 61.089 295.922,59.924 297.231,60.022 297.297 C 60.120 297.363,61.447 296.108,62.971 294.508 C 66.501 290.803,66.252 290.720,62.611 294.389 M338.873 296.388 C 339.052 296.879,344.072 302.061,344.223 301.910 C 344.291 301.842,343.087 300.493,341.547 298.913 C 340.007 297.333,338.804 296.197,338.873 296.388 M57.044 300.337 L 54.688 303.000 57.200 300.489 C 58.582 299.109,59.642 297.911,59.556 297.827 C 59.470 297.743,58.340 298.873,57.044 300.337 M345.654 303.931 C 346.394 304.773,347.068 305.409,347.152 305.345 C 347.378 305.173,345.057 302.462,344.654 302.429 C 344.463 302.413,344.913 303.089,345.654 303.931 M52.077 305.827 C 49.324 309.163,49.648 309.146,52.585 305.800 C 53.840 304.370,54.717 303.212,54.534 303.227 C 54.350 303.242,53.244 304.412,52.077 305.827 M46.800 312.400 C 46.103 313.280,45.623 314.000,45.733 314.000 C 45.843 314.000,46.503 313.280,47.200 312.400 C 47.897 311.520,48.377 310.800,48.267 310.800 C 48.157 310.800,47.497 311.520,46.800 312.400 M354.429 314.607 C 355.074 315.418,355.037 316.800,354.371 316.800 C 354.167 316.800,354.000 317.030,354.000 317.312 C 354.000 317.593,353.640 318.083,353.200 318.400 C 352.760 318.717,352.400 319.163,352.400 319.390 C 352.400 319.618,351.725 320.535,350.900 321.428 C 348.593 323.924,346.306 327.351,348.232 325.425 C 348.580 325.077,349.030 324.895,349.232 325.020 C 349.435 325.145,349.600 324.920,349.600 324.520 C 349.600 324.120,349.960 323.568,350.400 323.293 C 350.840 323.018,351.200 322.602,351.200 322.368 C 351.200 321.779,352.250 320.783,352.552 321.086 C 352.689 321.222,352.800 321.048,352.800 320.700 C 352.800 320.352,352.966 320.007,353.170 319.933 C 353.374 319.860,353.599 319.532,353.670 319.204 C 353.742 318.876,354.306 318.119,354.923 317.521 C 356.131 316.354,356.027 315.542,354.522 314.374 C 353.844 313.848,353.839 313.862,354.429 314.607 M44.570 315.389 C 43.989 316.277,43.985 316.442,44.532 316.989 C 45.754 318.211,46.437 317.611,45.394 316.233 C 44.963 315.664,44.928 315.328,45.256 314.933 C 45.499 314.640,45.590 314.400,45.458 314.400 C 45.326 314.400,44.927 314.845,44.570 315.389 M46.301 318.900 C 46.426 319.395,47.035 320.228,47.656 320.751 C 48.276 321.275,48.687 321.860,48.568 322.051 C 48.450 322.243,48.644 322.400,49.000 322.400 C 49.356 322.400,49.550 322.557,49.432 322.748 C 49.313 322.940,49.573 323.508,50.008 324.010 C 50.444 324.512,50.800 324.797,50.800 324.643 C 50.800 324.489,51.250 324.814,51.800 325.364 C 52.350 325.914,52.800 326.570,52.800 326.821 C 52.800 327.073,53.306 327.756,53.925 328.340 C 54.543 328.923,55.167 329.715,55.312 330.100 C 55.457 330.485,55.773 330.800,56.016 330.800 C 56.618 330.800,57.621 331.845,57.314 332.152 C 57.178 332.289,57.389 332.400,57.782 332.400 C 58.606 332.400,58.453 332.152,55.931 329.402 C 53.678 326.944,52.802 325.922,51.655 324.411 C 51.075 323.647,50.015 322.394,49.300 321.627 C 48.585 320.861,48.000 320.118,48.000 319.978 C 48.000 319.649,46.574 318.000,46.291 318.000 C 46.172 318.000,46.177 318.405,46.301 318.900 M345.045 328.394 C 343.979 329.519,343.205 330.539,343.325 330.659 C 343.645 330.978,347.280 327.239,347.119 326.757 C 347.044 326.531,346.110 327.268,345.045 328.394 M58.400 333.400 C 58.400 333.740,58.759 334.000,59.229 334.000 C 59.965 334.000,59.990 333.933,59.457 333.400 C 59.127 333.070,58.754 332.800,58.629 332.800 C 58.503 332.800,58.400 333.070,58.400 333.400 M337.387 336.539 C 335.400 338.562,333.462 340.662,333.079 341.208 C 332.697 341.754,332.253 342.149,332.092 342.086 C 331.932 342.024,330.376 343.279,328.636 344.876 C 326.897 346.473,324.827 348.247,324.036 348.820 C 323.246 349.392,322.048 350.387,321.374 351.030 C 320.700 351.674,319.108 352.920,317.837 353.800 C 316.565 354.680,315.137 355.731,314.663 356.135 C 314.188 356.539,313.530 357.023,313.200 357.210 C 312.720 357.482,312.700 357.651,313.100 358.055 C 313.475 358.434,313.600 358.440,313.600 358.080 C 313.600 357.816,313.881 357.600,314.224 357.600 C 314.567 357.600,314.736 357.420,314.600 357.200 C 314.464 356.980,314.723 356.800,315.176 356.800 C 315.629 356.800,316.000 356.616,316.000 356.391 C 316.000 356.167,316.444 355.780,316.987 355.533 C 317.531 355.285,317.880 354.929,317.764 354.742 C 317.648 354.554,317.851 354.400,318.216 354.400 C 318.581 354.400,319.383 353.860,320.000 353.200 C 320.617 352.540,321.282 352.000,321.478 352.000 C 321.674 352.000,322.517 351.280,323.351 350.400 C 324.185 349.520,325.040 348.800,325.251 348.800 C 325.462 348.800,327.067 347.352,328.817 345.583 C 330.568 343.813,332.000 342.559,332.000 342.796 C 332.000 343.033,332.630 342.597,333.400 341.827 C 334.170 341.057,334.800 340.241,334.800 340.013 C 334.800 339.786,335.081 339.600,335.424 339.600 C 335.767 339.600,335.936 339.420,335.800 339.200 C 335.664 338.980,335.863 338.800,336.243 338.800 C 336.623 338.800,336.822 338.689,336.686 338.552 C 336.413 338.280,337.009 337.651,338.217 336.937 C 338.648 336.683,338.955 336.278,338.900 336.037 C 338.845 335.797,339.025 335.645,339.300 335.700 C 339.575 335.755,339.755 335.575,339.700 335.300 C 339.645 335.025,339.881 334.800,340.224 334.800 C 340.567 334.800,340.736 334.620,340.600 334.400 C 340.464 334.180,340.603 334.000,340.910 334.000 C 341.216 334.000,341.467 333.730,341.467 333.400 C 341.467 332.451,341.211 332.648,337.387 336.539 M60.133 335.000 C 60.133 335.330,60.384 335.600,60.690 335.600 C 60.997 335.600,61.136 335.780,61.000 336.000 C 60.864 336.220,61.033 336.400,61.376 336.400 C 61.719 336.400,61.955 336.625,61.900 336.900 C 61.845 337.175,62.025 337.355,62.300 337.300 C 62.575 337.245,62.755 337.425,62.700 337.700 C 62.645 337.975,62.825 338.155,63.100 338.100 C 63.375 338.045,63.555 338.225,63.500 338.500 C 63.445 338.775,63.625 338.955,63.900 338.900 C 64.175 338.845,64.355 339.025,64.300 339.300 C 64.245 339.575,64.438 339.751,64.730 339.690 C 65.021 339.630,65.165 339.733,65.050 339.919 C 64.827 340.280,65.945 341.334,66.728 341.500 C 67.595 341.684,67.221 341.209,63.806 337.794 C 60.122 334.111,60.133 334.119,60.133 335.000 M67.600 341.863 C 67.600 342.061,67.960 342.483,68.400 342.800 C 68.840 343.117,69.200 343.637,69.200 343.955 C 69.200 344.273,69.312 344.421,69.449 344.285 C 69.585 344.148,70.381 344.748,71.217 345.618 C 72.053 346.488,72.976 347.200,73.269 347.199 C 73.561 347.199,72.720 346.164,71.399 344.899 C 68.449 342.075,67.600 341.396,67.600 341.863 M74.504 348.286 C 73.911 348.499,74.839 349.600,75.611 349.600 C 75.868 349.600,76.583 350.140,77.200 350.800 C 77.817 351.460,78.529 352.000,78.784 352.000 C 79.039 352.000,79.137 352.178,79.003 352.395 C 78.863 352.622,79.023 352.689,79.379 352.553 C 79.752 352.410,80.001 352.531,80.002 352.857 C 80.004 353.366,84.087 356.600,84.726 356.600 C 84.887 356.600,85.545 357.088,86.188 357.684 C 86.831 358.280,87.862 358.977,88.479 359.233 C 89.095 359.488,89.600 359.855,89.600 360.049 C 89.600 360.242,89.870 360.400,90.200 360.400 C 90.530 360.400,90.800 360.220,90.800 360.000 C 90.800 359.780,90.530 359.600,90.200 359.600 C 89.870 359.600,89.600 359.420,89.600 359.200 C 89.600 358.980,89.330 358.800,89.000 358.800 C 88.670 358.800,88.400 358.659,88.400 358.486 C 88.400 358.314,87.867 357.857,87.215 357.472 C 86.563 357.087,85.798 356.547,85.515 356.273 C 85.232 355.998,84.370 355.338,83.600 354.806 C 82.830 354.273,81.909 353.514,81.553 353.119 C 81.197 352.724,80.703 352.400,80.455 352.400 C 80.207 352.400,79.172 351.579,78.154 350.576 C 77.056 349.493,76.071 348.841,75.731 348.971 C 75.416 349.092,75.261 349.025,75.386 348.823 C 75.671 348.361,75.160 348.050,74.504 348.286 M309.830 359.624 C 309.359 360.098,309.254 360.400,309.559 360.400 C 310.063 360.400,311.200 359.450,311.200 359.029 C 311.200 358.590,310.594 358.853,309.830 359.624 M91.200 360.629 C 91.200 361.052,92.338 362.000,92.847 362.000 C 93.134 362.000,92.981 361.656,92.492 361.200 C 91.628 360.395,91.200 360.206,91.200 360.629 M307.600 361.107 C 307.270 361.479,307.043 361.916,307.095 362.078 C 307.148 362.239,306.927 362.270,306.605 362.147 C 305.993 361.912,304.800 362.844,304.800 363.559 C 304.800 363.788,304.521 363.868,304.180 363.737 C 303.831 363.603,303.174 363.861,302.680 364.325 C 302.196 364.780,301.620 365.189,301.400 365.234 C 301.180 365.279,300.329 365.740,299.508 366.258 C 298.687 366.776,297.844 367.200,297.635 367.200 C 297.425 367.200,297.139 367.563,296.998 368.006 C 296.857 368.449,296.582 368.712,296.385 368.591 C 295.814 368.238,292.800 369.954,292.800 370.632 C 292.800 370.970,292.983 371.134,293.207 370.996 C 293.430 370.858,293.509 370.577,293.383 370.372 C 293.256 370.168,293.748 369.997,294.476 369.994 C 295.478 369.989,295.654 369.893,295.200 369.600 C 294.736 369.300,294.863 369.211,295.757 369.206 C 296.515 369.202,297.308 368.787,298.060 368.000 C 298.691 367.340,299.475 366.800,299.803 366.800 C 300.132 366.800,300.400 366.620,300.400 366.400 C 300.400 366.180,300.649 366.000,300.954 366.000 C 301.920 366.000,303.711 364.907,303.128 364.674 C 302.838 364.558,303.061 364.449,303.625 364.432 C 304.188 364.414,305.036 364.040,305.508 363.600 C 305.980 363.160,306.520 362.800,306.708 362.800 C 307.189 362.800,308.800 361.248,308.800 360.784 C 308.800 360.206,308.273 360.348,307.600 361.107 M93.757 362.633 C 93.891 362.981,94.000 363.341,94.000 363.433 C 94.000 363.525,94.394 363.600,94.875 363.600 L 95.751 363.600 94.892 362.800 C 93.859 361.837,93.428 361.774,93.757 362.633 M96.093 364.100 C 96.180 364.375,96.645 364.778,97.126 364.995 C 97.607 365.212,98.000 365.527,98.000 365.695 C 98.000 365.863,98.358 366.000,98.797 366.000 C 99.235 366.000,99.818 366.360,100.093 366.800 C 100.368 367.240,100.721 367.600,100.879 367.600 C 101.036 367.600,102.081 368.140,103.200 368.800 C 104.319 369.460,105.632 370.003,106.118 370.006 C 106.834 370.011,106.887 370.085,106.400 370.400 C 105.934 370.701,106.051 370.789,106.924 370.794 C 107.542 370.797,107.960 370.942,107.852 371.115 C 107.660 371.427,109.468 372.400,110.155 372.355 C 110.351 372.342,110.621 372.493,110.755 372.690 C 111.494 373.771,114.800 375.145,114.800 374.372 C 114.800 373.867,114.524 373.600,114.000 373.600 C 113.560 373.600,113.200 373.420,113.200 373.200 C 113.200 372.980,112.840 372.800,112.400 372.800 C 111.960 372.800,111.600 372.641,111.600 372.447 C 111.600 372.120,110.339 371.546,109.400 371.443 C 109.180 371.420,108.856 371.175,108.680 370.900 C 108.504 370.625,108.099 370.400,107.780 370.400 C 107.461 370.400,107.200 370.262,107.200 370.094 C 107.200 369.827,104.330 368.400,103.793 368.400 C 103.682 368.400,102.536 367.680,101.247 366.800 C 99.958 365.920,98.700 365.200,98.451 365.200 C 98.203 365.200,98.000 365.020,98.000 364.800 C 98.000 364.580,97.730 364.400,97.400 364.400 C 97.070 364.400,96.800 364.220,96.800 364.000 C 96.800 363.780,96.605 363.600,96.367 363.600 C 96.128 363.600,96.005 363.825,96.093 364.100 M290.900 370.944 C 290.405 371.189,290.000 371.527,290.000 371.695 C 290.000 371.863,289.640 372.000,289.200 372.000 C 288.760 372.000,288.400 372.180,288.400 372.400 C 288.400 372.620,288.040 372.800,287.600 372.800 C 287.160 372.800,286.800 372.980,286.800 373.200 C 286.800 373.420,286.440 373.600,286.000 373.600 C 285.560 373.600,285.200 373.780,285.200 374.000 C 285.200 374.220,284.840 374.400,284.400 374.400 C 283.960 374.400,283.600 374.580,283.600 374.800 C 283.600 375.349,284.046 375.304,285.851 374.571 C 289.045 373.274,289.600 372.997,289.600 372.702 C 289.600 372.536,289.960 372.400,290.400 372.400 C 290.840 372.400,291.200 372.220,291.200 372.000 C 291.200 371.780,291.470 371.600,291.800 371.600 C 292.130 371.600,292.400 371.330,292.400 371.000 C 292.400 370.321,292.176 370.312,290.900 370.944 M118.400 376.400 C 118.400 376.620,118.760 376.800,119.200 376.800 C 119.640 376.800,120.000 376.620,120.000 376.400 C 120.000 376.180,119.640 376.000,119.200 376.000 C 118.760 376.000,118.400 376.180,118.400 376.400 M280.400 376.400 C 280.400 376.620,280.670 376.800,281.000 376.800 C 281.330 376.800,281.600 376.620,281.600 376.400 C 281.600 376.180,281.330 376.000,281.000 376.000 C 280.670 376.000,280.400 376.180,280.400 376.400 M120.400 377.200 C 119.912 377.515,119.964 377.589,120.676 377.594 C 121.158 377.597,121.664 377.780,121.800 378.000 C 122.135 378.542,123.200 378.509,123.200 377.957 C 123.200 377.714,122.923 377.621,122.585 377.750 C 122.235 377.885,121.872 377.731,121.742 377.393 C 121.477 376.703,121.225 376.667,120.400 377.200 M274.800 378.800 C 274.800 379.020,275.070 379.200,275.400 379.200 C 275.730 379.200,276.000 379.020,276.000 378.800 C 276.000 378.580,275.730 378.400,275.400 378.400 C 275.070 378.400,274.800 378.580,274.800 378.800 M126.400 379.429 C 126.400 379.554,126.657 379.914,126.971 380.229 C 127.627 380.884,128.800 380.994,128.800 380.400 C 128.800 380.180,128.440 380.000,128.000 380.000 C 127.560 380.000,127.200 379.820,127.200 379.600 C 127.200 379.380,127.020 379.200,126.800 379.200 C 126.580 379.200,126.400 379.303,126.400 379.429 M272.800 379.787 C 272.800 380.145,273.035 380.285,273.400 380.145 C 273.730 380.018,274.000 379.754,274.000 379.557 C 274.000 379.361,273.730 379.200,273.400 379.200 C 273.070 379.200,272.800 379.464,272.800 379.787 M130.000 381.200 C 130.000 381.420,130.270 381.600,130.600 381.600 C 130.930 381.600,131.200 381.420,131.200 381.200 C 131.200 380.980,130.930 380.800,130.600 380.800 C 130.270 380.800,130.000 380.980,130.000 381.200 M132.000 381.813 C 132.000 382.136,132.270 382.400,132.600 382.400 C 132.930 382.400,133.200 382.239,133.200 382.043 C 133.200 381.846,132.930 381.582,132.600 381.455 C 132.235 381.315,132.000 381.455,132.000 381.813 M267.300 381.465 C 266.604 381.746,266.673 382.400,267.400 382.400 C 267.730 382.400,268.000 382.130,268.000 381.800 C 268.000 381.470,267.955 381.214,267.900 381.232 C 267.845 381.249,267.575 381.354,267.300 381.465 M134.400 382.613 C 134.400 382.936,134.670 383.200,135.000 383.200 C 135.330 383.200,135.600 383.039,135.600 382.843 C 135.600 382.646,135.330 382.382,135.000 382.255 C 134.635 382.115,134.400 382.255,134.400 382.613 M265.067 382.267 C 264.600 382.733,264.779 383.200,265.424 383.200 C 265.767 383.200,265.945 383.035,265.821 382.834 C 265.697 382.633,265.821 382.377,266.098 382.266 C 266.428 382.132,266.384 382.052,265.967 382.032 C 265.618 382.014,265.213 382.120,265.067 382.267 M137.038 383.800 C 137.677 384.349,138.605 384.799,139.100 384.800 C 140.135 384.800,140.302 384.202,139.367 383.843 C 138.483 383.504,138.315 383.538,138.600 384.000 C 138.736 384.220,138.663 384.400,138.438 384.400 C 138.212 384.400,137.835 384.040,137.600 383.600 C 137.365 383.160,136.880 382.800,136.524 382.800 C 136.063 382.800,136.212 383.090,137.038 383.800 M263.100 383.076 C 262.175 383.317,262.200 384.000,263.133 384.000 C 263.537 384.000,263.867 383.730,263.867 383.400 C 263.867 383.070,263.852 382.821,263.833 382.846 C 263.815 382.872,263.485 382.975,263.100 383.076 M260.267 383.867 C 259.858 384.275,259.949 384.800,260.429 384.800 C 260.664 384.800,261.127 384.530,261.457 384.200 C 261.990 383.667,261.972 383.600,261.295 383.600 C 260.876 383.600,260.413 383.720,260.267 383.867 M140.905 384.656 C 141.293 384.769,141.507 385.027,141.381 385.230 C 141.256 385.434,141.448 385.600,141.810 385.600 C 142.842 385.600,142.250 384.609,141.169 384.526 C 140.576 384.481,140.473 384.531,140.905 384.656 M257.855 385.000 C 257.692 385.426,257.892 385.600,258.546 385.600 C 259.098 385.600,259.467 385.360,259.467 385.000 C 259.467 384.670,259.156 384.400,258.776 384.400 C 258.396 384.400,257.982 384.670,257.855 385.000 M143.444 385.771 C 143.728 386.510,144.945 386.635,144.700 385.900 C 144.609 385.625,144.234 385.342,143.868 385.271 C 143.404 385.181,143.276 385.332,143.444 385.771 M255.400 385.600 C 255.264 385.820,254.634 386.000,254.000 386.000 C 253.366 386.000,252.729 386.192,252.584 386.427 C 252.151 387.126,252.779 387.406,253.613 386.885 C 254.040 386.618,254.764 386.400,255.223 386.400 C 255.682 386.400,256.327 386.130,256.657 385.800 C 257.190 385.267,257.168 385.200,256.452 385.200 C 256.009 385.200,255.536 385.380,255.400 385.600 M145.900 386.282 C 146.395 386.378,146.800 386.623,146.800 386.828 C 146.800 387.033,146.980 387.200,147.200 387.200 C 147.420 387.200,147.600 386.930,147.600 386.600 C 147.600 386.179,147.213 386.016,146.300 386.054 C 145.360 386.094,145.249 386.157,145.900 386.282 M148.533 387.342 C 148.533 387.640,148.908 387.888,149.367 387.894 C 152.025 387.924,152.619 388.048,151.800 388.400 C 151.157 388.676,151.291 388.749,152.487 388.772 C 153.652 388.794,153.925 388.670,153.745 388.200 C 153.595 387.811,152.975 387.600,151.981 387.600 C 151.137 387.600,150.336 387.420,150.200 387.200 C 149.832 386.605,148.533 386.716,148.533 387.342 M249.780 387.171 C 249.571 387.376,248.770 387.601,248.000 387.671 C 246.385 387.820,246.270 388.537,247.830 388.731 C 248.507 388.814,248.790 388.707,248.619 388.431 C 248.445 388.149,248.949 387.998,250.076 387.994 C 251.230 387.990,251.615 387.871,251.242 387.634 C 250.794 387.350,250.833 387.243,251.442 387.087 C 252.017 386.940,251.954 386.882,251.180 386.846 C 250.619 386.821,249.989 386.967,249.780 387.171 M154.533 388.939 C 154.533 389.623,156.472 389.588,156.700 388.900 C 156.808 388.576,156.455 388.400,155.700 388.400 C 154.988 388.400,154.533 388.610,154.533 388.939 M243.478 388.656 C 243.007 389.126,243.636 389.600,244.724 389.594 C 245.502 389.589,245.646 389.490,245.242 389.234 C 244.794 388.950,244.833 388.843,245.442 388.687 C 245.926 388.563,245.754 388.476,244.967 388.446 C 244.288 388.421,243.618 388.515,243.478 388.656 M157.902 389.449 C 158.179 389.569,158.295 389.847,158.160 390.065 C 158.014 390.301,158.376 390.409,159.057 390.331 C 160.667 390.147,160.482 389.417,158.800 389.314 C 158.030 389.267,157.626 389.328,157.902 389.449 M239.878 389.456 C 239.420 389.913,240.023 390.400,241.047 390.400 C 241.597 390.400,241.945 390.235,241.821 390.034 C 241.697 389.833,241.821 389.577,242.098 389.466 C 242.374 389.354,242.045 389.249,241.367 389.232 C 240.688 389.214,240.018 389.315,239.878 389.456 M161.506 390.283 C 162.004 390.379,162.300 390.638,162.163 390.859 C 162.013 391.102,162.356 391.210,163.027 391.131 C 165.070 390.890,164.659 389.995,162.533 390.054 C 161.470 390.084,161.008 390.187,161.506 390.283 M235.800 390.400 C 235.505 390.877,235.467 390.860,237.095 390.997 C 237.806 391.057,238.299 390.961,238.190 390.783 C 238.080 390.606,238.307 390.378,238.695 390.277 C 239.083 390.176,238.646 390.072,237.724 390.046 C 236.802 390.021,235.936 390.180,235.800 390.400 M164.802 391.100 C 164.803 391.265,165.703 391.451,166.802 391.513 C 167.981 391.579,168.800 391.456,168.800 391.213 C 168.800 390.984,167.907 390.800,166.800 390.800 C 165.700 390.800,164.801 390.935,164.802 391.100 M231.400 391.200 C 231.110 391.670,232.933 391.670,234.400 391.200 C 235.219 390.938,235.060 390.873,233.524 390.840 C 232.492 390.818,231.536 390.980,231.400 391.200 M171.200 392.000 C 171.200 392.220,171.830 392.400,172.600 392.400 C 173.370 392.400,174.000 392.220,174.000 392.000 C 174.000 391.780,173.370 391.600,172.600 391.600 C 171.830 391.600,171.200 391.780,171.200 392.000 M226.000 392.000 C 226.000 392.220,226.630 392.400,227.400 392.400 C 228.170 392.400,228.800 392.220,228.800 392.000 C 228.800 391.780,228.170 391.600,227.400 391.600 C 226.630 391.600,226.000 391.780,226.000 392.000 M176.400 392.800 C 176.400 393.020,177.300 393.200,178.400 393.200 C 179.500 393.200,180.400 393.020,180.400 392.800 C 180.400 392.580,179.500 392.400,178.400 392.400 C 177.300 392.400,176.400 392.580,176.400 392.800 M219.600 392.800 C 219.600 393.020,220.601 393.200,221.824 393.200 C 223.204 393.200,223.953 393.048,223.800 392.800 C 223.664 392.580,222.663 392.400,221.576 392.400 C 220.489 392.400,219.600 392.580,219.600 392.800 M184.400 393.600 C 183.987 393.867,184.884 393.990,187.276 393.994 C 189.188 393.997,190.864 393.820,191.000 393.600 C 191.325 393.074,185.213 393.074,184.400 393.600 M208.800 393.537 C 208.800 393.741,210.780 393.937,213.200 393.973 C 215.620 394.008,217.600 393.877,217.600 393.680 C 217.600 393.482,215.620 393.287,213.200 393.244 C 210.715 393.200,208.800 393.328,208.800 393.537 " stroke="none" fill="#8bbcfc" fill-rule="evenodd"></path><path id="path3" d="M190.400 62.816 C 189.773 63.026,190.370 63.066,192.000 62.923 C 193.430 62.797,194.675 62.628,194.767 62.547 C 195.095 62.258,191.380 62.486,190.400 62.816 M205.633 62.550 C 205.725 62.632,206.880 62.804,208.200 62.931 C 209.755 63.080,210.248 63.042,209.600 62.821 C 208.614 62.484,205.310 62.259,205.633 62.550 M185.600 63.600 C 184.836 64.094,185.658 64.094,187.200 63.600 L 188.200 63.280 187.200 63.246 C 186.650 63.227,185.930 63.387,185.600 63.600 M212.800 63.600 C 214.342 64.094,215.164 64.094,214.400 63.600 C 214.070 63.387,213.350 63.227,212.800 63.246 L 211.800 63.280 212.800 63.600 M181.800 64.400 C 180.781 64.838,181.832 64.838,183.200 64.400 C 184.004 64.143,184.043 64.077,183.400 64.068 C 182.960 64.062,182.240 64.211,181.800 64.400 M216.800 64.400 C 218.168 64.838,219.219 64.838,218.200 64.400 C 217.760 64.211,217.040 64.062,216.600 64.068 C 215.957 64.077,215.996 64.143,216.800 64.400 M178.800 65.200 C 178.267 65.545,178.267 65.588,178.800 65.588 C 179.130 65.588,179.670 65.413,180.000 65.200 C 180.533 64.855,180.533 64.812,180.000 64.812 C 179.670 64.812,179.130 64.987,178.800 65.200 M220.000 65.200 C 220.330 65.413,220.870 65.588,221.200 65.588 C 221.733 65.588,221.733 65.545,221.200 65.200 C 220.870 64.987,220.330 64.812,220.000 64.812 C 219.467 64.812,219.467 64.855,220.000 65.200 M162.000 72.453 C 160.570 73.337,159.220 74.259,159.000 74.503 C 158.780 74.747,159.103 74.634,159.718 74.253 C 160.332 73.871,161.772 73.009,162.918 72.337 C 165.250 70.968,165.492 70.790,164.967 70.823 C 164.765 70.836,163.430 71.570,162.000 72.453 M234.833 70.958 C 235.253 71.356,238.953 73.251,238.600 72.887 C 238.137 72.410,235.298 70.800,234.921 70.800 C 234.781 70.800,234.742 70.871,234.833 70.958 M155.705 76.525 C 154.993 77.006,154.408 77.544,154.405 77.720 C 154.402 77.897,155.030 77.560,155.800 76.973 C 156.570 76.386,157.200 75.836,157.200 75.753 C 157.200 75.527,157.119 75.569,155.705 76.525 M151.951 79.631 L 150.200 81.262 152.100 79.746 C 153.145 78.913,154.000 78.179,154.000 78.115 C 154.000 77.807,153.563 78.130,151.951 79.631 M247.600 79.508 C 248.590 80.394,249.477 81.045,249.571 80.955 C 249.748 80.786,249.057 80.191,247.000 78.742 C 246.340 78.278,246.610 78.622,247.600 79.508 M146.978 84.110 C 144.371 86.820,144.346 86.862,146.572 84.799 C 147.876 83.589,149.202 82.366,149.519 82.081 C 149.836 81.795,150.019 81.486,149.926 81.392 C 149.832 81.299,148.506 82.522,146.978 84.110 M253.000 84.400 C 254.750 86.160,256.271 87.600,256.381 87.600 C 256.491 87.600,255.150 86.160,253.400 84.400 C 251.650 82.640,250.129 81.200,250.019 81.200 C 249.909 81.200,251.250 82.640,253.000 84.400 M142.355 89.100 C 141.081 90.508,140.256 91.600,140.466 91.600 C 140.557 91.600,141.308 90.790,142.135 89.800 C 143.787 87.824,143.935 87.353,142.355 89.100 M257.865 89.800 C 259.531 91.794,260.113 92.214,258.833 90.500 C 257.284 88.424,256.911 88.000,256.636 88.000 C 256.484 88.000,257.037 88.810,257.865 89.800 M138.193 94.486 C 135.807 98.132,135.017 99.445,135.477 99.000 C 136.161 98.339,140.079 92.346,139.927 92.194 C 139.849 92.116,139.069 93.148,138.193 94.486 M260.002 92.233 C 260.003 92.435,260.468 93.140,261.035 93.800 L 262.066 95.000 261.163 93.600 C 260.004 91.804,260.000 91.799,260.002 92.233 M263.149 97.000 C 263.365 97.440,263.834 98.160,264.193 98.600 L 264.844 99.400 264.451 98.600 C 264.235 98.160,263.766 97.440,263.407 97.000 L 262.756 96.200 263.149 97.000 M134.200 100.800 C 133.859 101.460,133.669 102.000,133.779 102.000 C 133.889 102.000,134.259 101.460,134.600 100.800 C 134.941 100.140,135.131 99.600,135.021 99.600 C 134.911 99.600,134.541 100.140,134.200 100.800 M265.646 101.196 C 266.139 102.073,266.608 102.726,266.687 102.646 C 266.859 102.474,265.206 99.600,264.935 99.600 C 264.833 99.600,265.152 100.318,265.646 101.196 M126.649 120.215 C 126.512 120.573,126.415 121.166,126.434 121.533 C 126.453 121.900,126.627 121.669,126.821 121.020 C 127.198 119.758,127.065 119.133,126.649 120.215 M272.828 119.876 C 272.918 120.915,273.544 121.796,273.572 120.924 C 273.587 120.442,273.420 119.936,273.200 119.800 C 272.980 119.664,272.813 119.698,272.828 119.876 M273.862 124.200 C 273.996 125.080,274.172 125.875,274.253 125.967 C 274.556 126.310,274.329 124.168,273.981 123.400 C 273.729 122.842,273.693 123.085,273.862 124.200 M125.849 123.815 C 125.712 124.173,125.618 124.856,125.641 125.333 C 125.667 125.881,125.803 125.686,126.010 124.803 C 126.360 123.316,126.265 122.733,125.849 123.815 M274.702 131.000 C 274.817 132.980,274.976 134.675,275.055 134.767 C 275.338 135.093,275.115 129.383,274.806 128.400 C 274.634 127.850,274.587 129.020,274.702 131.000 M125.056 128.884 C 124.921 129.388,124.834 130.880,124.861 132.200 C 124.911 134.574,124.915 134.565,125.218 131.400 C 125.534 128.097,125.482 127.294,125.056 128.884 M124.828 143.033 C 124.844 144.555,125.004 146.160,125.184 146.600 C 125.369 147.053,125.420 145.927,125.302 144.000 C 125.045 139.821,124.790 139.302,124.828 143.033 M274.876 142.450 C 274.834 143.688,274.711 145.308,274.601 146.050 L 274.403 147.400 274.820 146.070 C 275.050 145.339,275.174 143.719,275.095 142.470 L 274.951 140.200 274.876 142.450 M125.606 149.833 C 125.609 150.475,125.796 151.270,126.021 151.600 C 126.314 152.030,126.354 151.746,126.162 150.600 C 125.830 148.616,125.598 148.296,125.606 149.833 M274.054 149.867 C 274.025 150.344,273.896 151.064,273.770 151.467 C 273.552 152.161,273.564 152.162,273.996 151.488 C 274.247 151.097,274.375 150.377,274.281 149.888 C 274.109 149.001,274.109 149.001,274.054 149.867 M126.406 153.833 C 126.409 154.255,126.595 154.870,126.818 155.200 C 127.115 155.638,127.152 155.476,126.956 154.600 C 126.627 153.129,126.398 152.810,126.406 153.833 M133.000 172.000 C 133.557 173.100,134.103 174.000,134.213 174.000 C 134.323 174.000,133.957 173.100,133.400 172.000 C 132.843 170.900,132.297 170.000,132.187 170.000 C 132.077 170.000,132.443 170.900,133.000 172.000 M265.753 173.700 C 264.376 176.036,264.286 176.235,264.987 175.400 C 265.800 174.432,266.500 173.200,266.238 173.200 C 266.133 173.200,265.915 173.425,265.753 173.700 M262.326 179.244 C 261.295 180.760,260.575 181.996,260.726 181.992 C 261.043 181.982,264.521 176.782,264.328 176.606 C 264.258 176.542,263.357 177.729,262.326 179.244 M137.964 180.333 C 138.180 180.736,138.671 181.321,139.055 181.633 C 139.487 181.984,139.390 181.704,138.801 180.900 C 137.751 179.465,137.357 179.198,137.964 180.333 M140.044 183.000 C 141.038 184.481,142.400 186.064,142.394 185.731 C 142.391 185.549,141.740 184.680,140.948 183.800 C 140.156 182.920,139.749 182.560,140.044 183.000 M258.975 183.868 C 258.359 184.676,258.059 185.211,258.309 185.056 C 258.821 184.740,260.553 182.400,260.275 182.400 C 260.176 182.400,259.591 183.061,258.975 183.868 M256.181 187.300 L 254.600 189.000 256.300 187.419 C 257.881 185.948,258.184 185.600,257.881 185.600 C 257.816 185.600,257.051 186.365,256.181 187.300 M144.200 188.000 C 145.059 188.880,145.852 189.600,145.962 189.600 C 146.072 189.600,145.459 188.880,144.600 188.000 C 143.741 187.120,142.948 186.400,142.838 186.400 C 142.728 186.400,143.341 187.120,144.200 188.000 M252.860 190.642 C 252.562 190.978,252.399 191.332,252.495 191.429 C 252.592 191.526,252.998 191.244,253.398 190.802 C 253.797 190.361,253.961 190.007,253.762 190.015 C 253.563 190.024,253.157 190.305,252.860 190.642 M149.000 192.800 C 150.083 193.900,151.060 194.800,151.170 194.800 C 151.280 194.800,150.483 193.900,149.400 192.800 C 148.317 191.700,147.340 190.800,147.230 190.800 C 147.120 190.800,147.917 191.700,149.000 192.800 M249.374 194.107 L 247.800 195.799 249.396 194.399 C 250.273 193.630,251.068 192.955,251.162 192.900 C 251.256 192.845,251.247 192.713,251.141 192.607 C 251.035 192.501,250.240 193.176,249.374 194.107 M152.669 196.109 C 154.760 197.791,155.414 198.105,153.800 196.652 C 152.920 195.860,152.051 195.209,151.869 195.206 C 151.687 195.203,152.047 195.609,152.669 196.109 M245.800 197.044 L 244.200 198.476 245.900 197.204 C 247.363 196.110,247.891 195.583,247.500 195.606 C 247.445 195.609,246.680 196.256,245.800 197.044 M237.900 202.229 C 237.295 202.557,236.800 202.910,236.800 203.013 C 236.800 203.399,237.432 203.157,238.400 202.400 C 239.589 201.470,239.411 201.409,237.900 202.229 M179.400 210.000 C 179.536 210.220,180.042 210.387,180.524 210.372 C 181.369 210.345,181.371 210.331,180.600 210.000 C 179.499 209.527,179.108 209.527,179.400 210.000 M182.600 210.800 C 183.040 210.989,183.760 211.138,184.200 211.132 C 184.843 211.123,184.804 211.057,184.000 210.800 C 182.632 210.362,181.581 210.362,182.600 210.800 M216.200 210.800 C 215.093 211.082,215.077 211.109,216.000 211.147 C 216.550 211.169,217.270 211.013,217.600 210.800 C 218.281 210.360,217.929 210.360,216.200 210.800 M186.200 211.597 C 186.964 211.928,189.914 212.155,189.567 211.856 C 189.475 211.777,188.500 211.609,187.400 211.482 C 186.113 211.333,185.685 211.374,186.200 211.597 M211.800 211.600 L 210.200 211.886 211.600 211.915 C 212.370 211.931,213.360 211.789,213.800 211.600 C 214.743 211.195,214.062 211.195,211.800 211.600 M196.300 212.698 C 198.335 212.771,201.665 212.771,203.700 212.698 C 205.735 212.625,204.070 212.566,200.000 212.566 C 195.930 212.566,194.265 212.625,196.300 212.698 M194.900 237.499 C 197.705 237.568,202.295 237.568,205.100 237.499 C 207.905 237.430,205.610 237.374,200.000 237.374 C 194.390 237.374,192.095 237.430,194.900 237.499 M185.500 237.882 C 185.995 237.978,186.805 237.978,187.300 237.882 C 187.795 237.787,187.390 237.709,186.400 237.709 C 185.410 237.709,185.005 237.787,185.500 237.882 M212.700 237.882 C 213.195 237.978,214.005 237.978,214.500 237.882 C 214.995 237.787,214.590 237.709,213.600 237.709 C 212.610 237.709,212.205 237.787,212.700 237.882 M180.307 238.290 C 181.026 238.379,182.106 238.377,182.707 238.286 C 183.308 238.195,182.720 238.122,181.400 238.124 C 180.080 238.126,179.588 238.201,180.307 238.290 M216.033 238.144 C 216.125 238.224,217.820 238.385,219.800 238.503 C 222.248 238.649,222.888 238.610,221.800 238.382 C 220.220 238.050,215.710 237.865,216.033 238.144 M172.000 239.202 C 171.400 239.395,172.040 239.437,173.600 239.306 C 175.030 239.186,176.275 239.023,176.367 238.944 C 176.689 238.665,172.988 238.884,172.000 239.202 M223.633 238.944 C 223.725 239.023,224.970 239.186,226.400 239.306 C 227.960 239.437,228.600 239.395,228.000 239.202 C 227.012 238.884,223.311 238.665,223.633 238.944 M166.800 240.012 C 166.381 240.291,166.742 240.333,168.000 240.150 C 170.241 239.825,170.560 239.598,168.767 239.606 C 168.015 239.609,167.130 239.792,166.800 240.012 M230.033 239.744 C 230.125 239.824,231.010 239.996,232.000 240.127 C 233.202 240.286,233.534 240.247,233.000 240.010 C 232.236 239.672,229.686 239.443,230.033 239.744 M162.800 240.806 C 162.378 241.082,162.615 241.123,163.600 240.942 C 165.325 240.625,165.651 240.398,164.367 240.406 C 163.835 240.409,163.130 240.589,162.800 240.806 M234.433 240.544 C 234.525 240.624,235.410 240.806,236.400 240.950 C 237.658 241.133,238.019 241.091,237.600 240.812 C 237.060 240.453,234.032 240.197,234.433 240.544 M158.800 241.595 C 158.391 241.855,158.710 241.899,159.800 241.732 C 161.777 241.429,162.114 241.198,160.567 241.206 C 159.925 241.209,159.130 241.384,158.800 241.595 M238.833 241.343 C 238.925 241.421,239.630 241.601,240.400 241.742 C 241.385 241.923,241.622 241.882,241.200 241.606 C 240.658 241.250,238.437 241.003,238.833 241.343 M155.200 242.418 C 154.762 242.715,154.924 242.752,155.800 242.556 C 157.271 242.227,157.590 241.998,156.567 242.006 C 156.145 242.009,155.530 242.195,155.200 242.418 M243.200 242.400 C 244.742 242.894,245.564 242.894,244.800 242.400 C 244.470 242.187,243.750 242.027,243.200 242.046 L 242.200 242.080 243.200 242.400 M152.000 243.218 C 151.562 243.515,151.724 243.552,152.600 243.356 C 154.071 243.027,154.390 242.798,153.367 242.806 C 152.945 242.809,152.330 242.995,152.000 243.218 M246.033 242.944 C 246.125 243.023,246.740 243.208,247.400 243.356 C 248.276 243.552,248.438 243.515,248.000 243.218 C 247.460 242.853,245.632 242.598,246.033 242.944 M249.800 244.000 C 250.901 244.473,251.292 244.473,251.000 244.000 C 250.864 243.780,250.358 243.613,249.876 243.628 C 249.031 243.655,249.029 243.669,249.800 244.000 M125.600 251.890 C 125.270 252.015,123.870 252.631,122.490 253.259 C 121.109 253.886,119.815 254.400,119.614 254.400 C 119.412 254.400,119.136 254.579,119.001 254.799 C 118.675 255.326,119.973 254.827,126.000 252.106 C 127.016 251.647,126.697 251.475,125.600 251.890 M274.758 252.437 C 275.725 252.866,276.588 253.145,276.675 253.058 C 276.848 252.886,273.765 251.582,273.292 251.628 C 273.131 251.644,273.791 252.008,274.758 252.437 M277.401 253.601 C 277.536 253.821,277.819 254.000,278.028 254.000 C 278.337 254.000,281.220 255.218,282.500 255.890 C 282.665 255.976,282.800 255.951,282.800 255.834 C 282.800 255.623,280.183 254.354,278.178 253.592 C 277.501 253.334,277.238 253.337,277.401 253.601 M105.600 261.633 L 104.600 262.448 105.900 261.814 C 106.615 261.465,107.200 261.094,107.200 260.990 C 107.200 260.592,106.563 260.848,105.600 261.633 M295.600 262.590 C 295.600 262.694,296.185 263.065,296.900 263.414 L 298.200 264.048 297.200 263.233 C 296.237 262.448,295.600 262.192,295.600 262.590 M299.200 264.767 C 300.163 265.552,300.800 265.808,300.800 265.410 C 300.800 265.306,300.215 264.935,299.500 264.586 L 298.200 263.952 299.200 264.767 M95.600 267.600 C 94.610 268.258,93.939 268.797,94.109 268.798 C 94.457 268.800,97.600 266.774,97.600 266.547 C 97.600 266.292,97.442 266.375,95.600 267.600 M302.400 266.529 C 302.400 266.627,303.615 267.491,305.100 268.450 C 306.585 269.409,309.330 271.247,311.200 272.535 C 313.070 273.824,314.240 274.520,313.800 274.083 C 312.673 272.963,302.400 266.157,302.400 266.529 M87.507 272.926 C 86.466 273.626,85.611 274.335,85.607 274.499 C 85.603 274.664,86.500 274.152,87.600 273.362 C 88.700 272.572,89.600 271.852,89.600 271.762 C 89.600 271.521,89.558 271.545,87.507 272.926 M78.800 279.634 L 77.000 281.265 78.900 279.784 C 80.566 278.486,81.059 277.997,80.700 278.001 C 80.645 278.002,79.790 278.736,78.800 279.634 M74.400 283.257 L 72.200 285.289 74.299 283.608 C 76.139 282.134,77.113 281.173,76.724 281.213 C 76.656 281.220,75.610 282.140,74.400 283.257 M324.600 282.594 C 330.500 288.087,334.000 291.224,334.000 291.021 C 334.000 290.690,329.567 286.582,326.000 283.607 C 324.350 282.231,323.720 281.775,324.600 282.594 M69.680 287.256 C 68.515 288.377,67.625 289.358,67.704 289.437 C 67.783 289.516,68.820 288.595,70.010 287.390 C 72.733 284.633,72.505 284.540,69.680 287.256 M60.234 296.485 C 56.585 300.272,53.600 303.496,53.600 303.650 C 53.600 303.805,54.718 302.731,56.084 301.265 C 57.451 299.799,60.553 296.575,62.978 294.100 C 65.403 291.625,67.270 289.600,67.127 289.600 C 66.984 289.600,63.882 292.698,60.234 296.485 M337.200 294.189 C 338.850 295.942,340.245 297.457,340.300 297.555 C 340.355 297.653,340.485 297.649,340.588 297.545 C 340.691 297.442,339.296 295.927,337.488 294.179 L 334.200 291.000 337.200 294.189 M343.400 300.800 C 344.483 301.900,345.460 302.800,345.570 302.800 C 345.680 302.800,344.883 301.900,343.800 300.800 C 342.717 299.700,341.740 298.800,341.630 298.800 C 341.520 298.800,342.317 299.700,343.400 300.800 M52.159 305.300 C 50.407 307.321,49.887 308.000,50.090 308.000 C 50.207 308.000,50.967 307.190,51.779 306.200 C 53.281 304.366,53.579 303.663,52.159 305.300 M351.355 310.119 C 352.203 311.153,352.980 312.000,353.082 312.000 C 353.355 312.000,350.821 308.860,350.277 308.524 C 350.022 308.366,350.507 309.084,351.355 310.119 M353.642 313.100 C 356.124 316.321,356.670 316.700,354.800 313.905 C 354.250 313.083,353.643 312.408,353.451 312.405 C 353.259 312.402,353.345 312.715,353.642 313.100 " stroke="none" fill="#a4c9fc" fill-rule="evenodd"></path><path id="path4" d="M124.937 137.400 C 124.939 139.160,125.009 139.830,125.093 138.889 C 125.178 137.949,125.177 136.509,125.091 135.689 C 125.005 134.870,124.936 135.640,124.937 137.400 M274.934 137.600 C 274.934 139.250,275.005 139.925,275.091 139.100 C 275.178 138.275,275.178 136.925,275.091 136.100 C 275.005 135.275,274.934 135.950,274.934 137.600 " stroke="none" fill="#94bcfc" fill-rule="evenodd"></path></g></svg>