<?xml version="1.0" standalone="no"?>
<!DOCTYPE svg PUBLIC "-//W3C//DTD SVG 20010904//EN"
 "http://www.w3.org/TR/2001/REC-SVG-20010904/DTD/svg10.dtd">
<svg version="1.0" xmlns="http://www.w3.org/2000/svg"
 width="512.000000pt" height="512.000000pt" viewBox="0 0 512.000000 512.000000"
 preserveAspectRatio="xMidYMid meet">

<g transform="translate(0.000000,512.000000) scale(0.100000,-0.100000)"
fill="#ffffff" stroke="none">
<path d="M3132 4758 l3 -292 100 -37 c491 -178 880 -526 1110 -994 422 -855
174 -1890 -589 -2462 -171 -128 -323 -210 -521 -282 l-100 -37 -3 -292 c-1
-160 1 -292 5 -292 21 0 229 62 313 93 732 270 1320 887 1549 1625 83 268 114
478 114 772 0 294 -31 504 -114 772 -229 738 -817 1355 -1549 1625 -84 31
-292 93 -313 93 -4 0 -6 -132 -5 -292z"/>
<path d="M1845 4120 l-710 -710 -567 0 -568 0 0 -850 0 -850 567 0 568 0 712
-712 713 -713 0 2273 c0 1249 -1 2272 -3 2272 -1 0 -322 -319 -712 -710z"/>
<path d="M3130 2560 c0 -627 4 -1140 8 -1140 4 0 41 20 82 45 332 205 547 530
605 915 76 499 -166 1007 -606 1274 -42 25 -79 46 -83 46 -3 0 -6 -513 -6
-1140z"/>
</g>
</svg>
