<svg id="svg" version="1.1" xmlns="http://www.w3.org/2000/svg" xmlns:xlink="http://www.w3.org/1999/xlink" width="400" height="400" viewBox="0, 0, 400,400"><g id="svgg"><path id="path0" d="M257.200 19.600 C 256.870 19.813,255.205 19.991,253.500 19.994 C 251.704 19.997,250.400 20.168,250.400 20.400 C 250.400 20.620,249.410 20.800,248.200 20.800 C 246.990 20.800,246.000 20.980,246.000 21.200 C 246.000 21.420,245.280 21.600,244.400 21.600 C 243.520 21.600,242.800 21.780,242.800 22.000 C 242.800 22.220,242.091 22.400,241.224 22.400 C 240.357 22.400,239.536 22.580,239.400 22.800 C 239.264 23.020,238.533 23.200,237.776 23.200 C 237.019 23.200,236.400 23.380,236.400 23.600 C 236.400 23.820,235.860 24.000,235.200 24.000 C 234.540 24.000,234.000 24.180,234.000 24.400 C 234.000 24.620,233.460 24.800,232.800 24.800 C 232.140 24.800,231.600 24.980,231.600 25.200 C 231.600 25.420,231.161 25.600,230.624 25.600 C 230.087 25.600,229.536 25.780,229.400 26.000 C 229.264 26.220,228.803 26.400,228.376 26.400 C 227.949 26.400,227.600 26.580,227.600 26.800 C 227.600 27.020,227.239 27.200,226.798 27.200 C 226.357 27.200,225.063 27.650,223.923 28.200 C 222.783 28.750,221.614 29.200,221.325 29.200 C 221.036 29.200,220.800 29.380,220.800 29.600 C 220.800 29.820,220.455 30.000,220.033 30.000 C 219.612 30.000,219.207 30.135,219.133 30.300 C 219.060 30.465,218.145 31.033,217.100 31.563 C 216.055 32.092,215.200 32.677,215.200 32.863 C 215.200 33.048,214.840 33.200,214.400 33.200 C 213.960 33.200,213.600 33.380,213.600 33.600 C 213.600 33.820,213.330 34.000,213.000 34.000 C 212.670 34.000,212.400 34.180,212.400 34.400 C 212.400 34.620,212.130 34.800,211.800 34.800 C 211.470 34.800,211.200 34.980,211.200 35.200 C 211.200 35.420,210.970 35.600,210.688 35.600 C 210.407 35.600,209.917 35.960,209.600 36.400 C 209.283 36.840,208.775 37.200,208.472 37.200 C 208.169 37.200,207.417 37.740,206.800 38.400 C 206.183 39.060,205.463 39.600,205.200 39.600 C 204.937 39.600,204.217 40.140,203.600 40.800 C 202.983 41.460,202.281 42.000,202.040 42.000 C 201.798 42.000,201.600 42.180,201.600 42.400 C 201.600 42.620,201.409 42.800,201.177 42.800 C 200.737 42.800,198.229 45.033,195.561 47.800 C 194.712 48.680,192.844 50.612,191.409 52.093 C 189.974 53.574,188.800 54.947,188.800 55.144 C 188.800 55.342,188.080 56.245,187.200 57.152 C 186.320 58.059,185.600 58.979,185.600 59.197 C 185.600 59.415,185.060 60.109,184.400 60.740 C 183.740 61.371,183.200 62.010,183.200 62.160 C 183.200 62.310,182.840 62.820,182.400 63.292 C 181.960 63.764,181.600 64.387,181.600 64.675 C 181.600 64.964,181.442 65.200,181.249 65.200 C 181.055 65.200,180.673 65.740,180.400 66.400 C 180.127 67.060,179.745 67.600,179.551 67.600 C 179.358 67.600,179.200 67.960,179.200 68.400 C 179.200 68.840,179.053 69.200,178.874 69.200 C 178.476 69.200,177.200 71.801,177.200 72.614 C 177.200 72.936,177.020 73.200,176.800 73.200 C 176.580 73.200,176.400 73.560,176.400 74.000 C 176.400 74.440,176.220 74.800,176.000 74.800 C 175.780 74.800,175.600 75.160,175.600 75.600 C 175.600 76.040,175.465 76.401,175.300 76.403 C 174.941 76.407,174.000 78.344,174.000 79.080 C 174.000 79.366,173.820 79.600,173.600 79.600 C 173.380 79.600,173.200 80.050,173.200 80.600 C 173.200 81.150,173.020 81.600,172.800 81.600 C 172.580 81.600,172.400 81.960,172.400 82.400 C 172.400 82.840,172.220 83.200,172.000 83.200 C 171.780 83.200,171.600 83.740,171.600 84.400 C 171.600 85.060,171.420 85.600,171.200 85.600 C 170.980 85.600,170.800 86.140,170.800 86.800 C 170.800 87.460,170.620 88.000,170.400 88.000 C 170.180 88.000,170.000 88.540,170.000 89.200 C 170.000 89.860,169.820 90.400,169.600 90.400 C 169.380 90.400,169.200 90.940,169.200 91.600 C 169.200 92.260,169.020 92.800,168.800 92.800 C 168.580 92.800,168.400 93.419,168.400 94.176 C 168.400 94.933,168.220 95.664,168.000 95.800 C 167.780 95.936,167.600 96.656,167.600 97.400 C 167.600 98.144,167.420 98.864,167.200 99.000 C 166.980 99.136,166.800 100.036,166.800 101.000 C 166.800 101.964,166.620 102.864,166.400 103.000 C 166.180 103.136,166.000 104.407,166.000 105.824 C 166.000 107.275,165.825 108.400,165.600 108.400 C 165.342 108.400,165.200 112.725,165.200 120.576 C 165.200 128.263,165.348 132.844,165.600 133.000 C 165.820 133.136,166.000 134.191,166.000 135.344 C 166.000 136.497,166.163 137.611,166.361 137.820 C 166.560 138.029,166.830 139.055,166.961 140.100 C 167.562 144.881,167.703 145.600,168.040 145.600 C 168.238 145.600,168.400 146.219,168.400 146.976 C 168.400 147.733,168.580 148.464,168.800 148.600 C 170.349 149.558,169.144 150.400,166.224 150.400 C 164.587 150.400,163.136 150.580,163.000 150.800 C 162.864 151.020,161.413 151.200,159.776 151.200 C 158.059 151.200,156.800 151.369,156.800 151.600 C 156.800 151.822,155.733 152.000,154.400 152.000 C 153.067 152.000,152.000 152.178,152.000 152.400 C 152.000 152.620,151.291 152.800,150.424 152.800 C 149.557 152.800,148.736 152.980,148.600 153.200 C 148.464 153.420,147.733 153.600,146.976 153.600 C 146.219 153.600,145.600 153.780,145.600 154.000 C 145.600 154.220,144.970 154.400,144.200 154.400 C 143.430 154.400,142.800 154.580,142.800 154.800 C 142.800 155.020,142.260 155.200,141.600 155.200 C 140.940 155.200,140.400 155.380,140.400 155.600 C 140.400 155.820,139.860 156.000,139.200 156.000 C 138.540 156.000,138.000 156.180,138.000 156.400 C 138.000 156.620,137.460 156.800,136.800 156.800 C 136.140 156.800,135.600 156.980,135.600 157.200 C 135.600 157.420,135.060 157.600,134.400 157.600 C 133.740 157.600,133.200 157.780,133.200 158.000 C 133.200 158.220,132.840 158.400,132.400 158.400 C 131.960 158.400,131.600 158.580,131.600 158.800 C 131.600 159.020,131.150 159.200,130.600 159.200 C 130.050 159.200,129.600 159.380,129.600 159.600 C 129.600 159.820,129.285 160.001,128.900 160.002 C 128.515 160.004,127.684 160.274,127.054 160.602 C 126.424 160.931,125.659 161.200,125.354 161.200 C 125.049 161.200,124.800 161.380,124.800 161.600 C 124.800 161.820,124.440 162.000,124.000 162.000 C 123.560 162.000,123.200 162.180,123.200 162.400 C 123.200 162.620,122.855 162.800,122.433 162.800 C 122.012 162.800,121.607 162.935,121.533 163.100 C 121.460 163.265,120.545 163.833,119.500 164.363 C 118.455 164.892,117.600 165.477,117.600 165.663 C 117.600 165.848,117.240 166.000,116.800 166.000 C 116.360 166.000,116.000 166.180,116.000 166.400 C 116.000 166.620,115.764 166.800,115.475 166.800 C 115.187 166.800,114.564 167.160,114.092 167.600 C 113.620 168.040,113.046 168.400,112.817 168.400 C 112.588 168.400,112.400 168.580,112.400 168.800 C 112.400 169.020,112.130 169.200,111.800 169.200 C 111.470 169.200,111.200 169.380,111.200 169.600 C 111.200 169.820,110.970 170.000,110.688 170.000 C 110.407 170.000,109.917 170.360,109.600 170.800 C 109.283 171.240,108.820 171.600,108.571 171.600 C 108.322 171.600,107.554 172.140,106.863 172.800 C 106.172 173.460,105.447 174.000,105.252 174.000 C 105.056 174.000,104.194 174.675,103.336 175.500 C 102.478 176.325,101.061 177.493,100.188 178.096 C 99.315 178.699,97.577 180.229,96.326 181.496 C 89.616 188.296,88.000 190.025,88.000 190.404 C 88.000 190.633,87.235 191.602,86.300 192.556 C 84.394 194.502,83.820 195.185,82.405 197.200 C 81.864 197.970,81.102 198.949,80.711 199.375 C 80.320 199.802,80.000 200.387,80.000 200.675 C 80.000 200.964,79.832 201.200,79.627 201.200 C 79.422 201.200,79.146 201.539,79.015 201.952 C 78.884 202.366,78.422 203.114,77.988 203.614 C 77.555 204.113,77.200 204.855,77.200 205.261 C 77.200 205.668,77.020 206.000,76.800 206.000 C 76.580 206.000,76.400 206.320,76.400 206.712 C 76.400 207.103,76.040 207.683,75.600 208.000 C 75.160 208.317,74.800 208.897,74.800 209.288 C 74.800 209.680,74.654 210.000,74.475 210.000 C 74.296 210.000,73.902 210.630,73.600 211.400 C 73.298 212.170,72.904 212.800,72.725 212.800 C 72.546 212.800,72.400 213.160,72.400 213.600 C 72.400 214.040,72.220 214.400,72.000 214.400 C 71.780 214.400,71.600 214.760,71.600 215.200 C 71.600 215.640,71.420 216.000,71.200 216.000 C 70.980 216.000,70.800 216.272,70.800 216.605 C 70.800 216.938,70.620 217.568,70.400 218.005 C 70.180 218.442,69.820 219.158,69.600 219.595 C 69.380 220.032,69.200 220.662,69.200 220.995 C 69.200 221.328,69.020 221.600,68.800 221.600 C 68.580 221.600,68.400 221.949,68.400 222.376 C 68.400 222.803,68.220 223.264,68.000 223.400 C 67.780 223.536,67.600 224.087,67.600 224.624 C 67.600 225.161,67.420 225.600,67.200 225.600 C 66.980 225.600,66.800 226.039,66.800 226.576 C 66.800 227.113,66.620 227.664,66.400 227.800 C 66.180 227.936,66.000 228.476,66.000 229.000 C 66.000 229.524,65.820 230.064,65.600 230.200 C 65.380 230.336,65.200 230.876,65.200 231.400 C 65.200 231.924,65.020 232.464,64.800 232.600 C 64.580 232.736,64.400 233.467,64.400 234.224 C 64.400 234.981,64.220 235.600,64.000 235.600 C 63.780 235.600,63.600 236.320,63.600 237.200 C 63.600 238.080,63.438 238.800,63.240 238.800 C 63.042 238.800,62.781 239.565,62.659 240.500 C 62.537 241.435,62.241 243.280,62.001 244.600 C 61.761 245.920,61.369 248.260,61.132 249.800 C 60.565 253.472,60.574 277.302,61.143 281.200 C 61.385 282.850,61.693 285.100,61.830 286.200 C 61.966 287.300,62.240 288.371,62.439 288.580 C 62.637 288.789,62.800 289.734,62.800 290.680 C 62.800 291.626,62.980 292.400,63.200 292.400 C 63.420 292.400,63.600 293.019,63.600 293.776 C 63.600 294.533,63.780 295.264,64.000 295.400 C 64.220 295.536,64.400 296.166,64.400 296.800 C 64.400 297.434,64.580 298.064,64.800 298.200 C 65.020 298.336,65.200 298.966,65.200 299.600 C 65.200 300.234,65.380 300.864,65.600 301.000 C 65.820 301.136,66.000 301.599,66.000 302.029 C 66.000 302.459,66.159 303.123,66.353 303.505 C 66.548 303.887,66.884 304.650,67.100 305.200 C 68.010 307.515,68.570 308.400,69.264 308.620 C 69.669 308.749,70.000 309.022,70.000 309.227 C 70.000 309.871,73.478 309.633,74.765 308.900 C 75.441 308.515,75.996 307.900,75.997 307.533 C 75.999 307.167,76.225 306.791,76.500 306.699 C 76.894 306.567,76.898 306.326,76.519 305.565 C 70.954 294.385,67.611 270.584,69.389 254.800 C 76.978 187.411,140.097 145.020,205.800 163.187 C 272.812 181.716,303.541 263.937,265.435 322.752 C 258.721 333.116,248.954 344.188,241.566 349.813 C 234.218 355.407,231.649 357.216,227.863 359.464 C 220.721 363.703,214.713 366.479,208.030 368.626 C 203.199 370.179,202.751 370.298,199.800 370.814 C 198.260 371.083,196.370 371.487,195.600 371.712 C 193.704 372.265,144.800 372.618,144.800 372.078 C 144.800 371.862,147.455 369.564,150.700 366.973 C 160.803 358.904,161.115 357.887,154.933 353.167 C 153.660 352.195,152.344 351.184,152.009 350.919 C 146.054 346.216,144.471 344.862,144.681 344.652 C 144.820 344.513,153.146 344.400,163.183 344.400 C 182.452 344.400,186.655 344.119,193.800 342.355 C 217.321 336.547,237.513 320.064,247.059 298.879 C 250.249 291.800,251.559 287.906,252.737 282.000 C 252.979 280.790,253.401 278.810,253.677 277.600 C 254.378 274.519,254.376 257.067,253.673 253.600 C 250.410 237.498,245.440 226.368,236.795 215.800 C 234.354 212.816,227.265 205.674,225.600 204.521 C 225.050 204.141,224.152 203.417,223.604 202.914 C 223.056 202.412,222.496 202.000,222.359 202.000 C 222.222 202.000,221.410 201.443,220.555 200.761 C 205.799 189.008,179.046 183.811,158.038 188.615 C 153.454 189.663,151.227 193.663,153.797 196.233 C 154.820 197.256,160.400 197.735,160.400 196.800 C 160.400 196.580,161.300 196.400,162.400 196.400 C 163.500 196.400,164.400 196.220,164.400 196.000 C 164.400 195.765,165.792 195.600,167.776 195.600 C 169.633 195.600,171.264 195.420,171.400 195.200 C 171.728 194.669,179.600 194.669,179.600 195.200 C 179.600 195.435,181.000 195.600,183.000 195.600 C 185.000 195.600,186.400 195.765,186.400 196.000 C 186.400 196.220,187.300 196.400,188.400 196.400 C 189.500 196.400,190.400 196.580,190.400 196.800 C 190.400 197.020,191.120 197.200,192.000 197.200 C 192.880 197.200,193.600 197.380,193.600 197.600 C 193.600 197.820,194.230 198.000,195.000 198.000 C 195.770 198.000,196.400 198.180,196.400 198.400 C 196.400 198.620,196.940 198.800,197.600 198.800 C 198.260 198.800,198.800 198.980,198.800 199.200 C 198.800 199.420,199.149 199.600,199.576 199.600 C 200.003 199.600,200.464 199.780,200.600 200.000 C 200.736 200.220,201.287 200.400,201.824 200.400 C 202.361 200.400,202.800 200.580,202.800 200.800 C 202.800 201.020,203.160 201.200,203.600 201.200 C 204.040 201.200,204.400 201.380,204.400 201.600 C 204.400 201.820,204.760 202.000,205.200 202.000 C 205.640 202.000,206.000 202.180,206.000 202.400 C 206.000 202.620,206.360 202.800,206.800 202.800 C 207.240 202.800,207.600 202.980,207.600 203.200 C 207.600 203.420,207.960 203.600,208.400 203.600 C 208.840 203.600,209.200 203.736,209.200 203.902 C 209.200 204.069,209.785 204.464,210.500 204.780 C 211.215 205.097,212.149 205.680,212.575 206.078 C 213.002 206.475,213.587 206.800,213.875 206.800 C 214.164 206.800,214.400 206.959,214.400 207.154 C 214.400 207.349,215.051 207.818,215.846 208.195 C 216.642 208.573,217.838 209.403,218.506 210.041 C 219.173 210.678,219.879 211.200,220.075 211.200 C 220.816 211.200,228.624 219.478,231.599 223.418 C 232.588 224.728,233.489 225.890,233.600 226.000 C 233.711 226.110,234.056 226.695,234.368 227.300 C 234.680 227.905,235.085 228.400,235.268 228.400 C 235.450 228.400,235.600 228.678,235.600 229.017 C 235.600 229.356,235.960 230.020,236.400 230.492 C 236.840 230.964,237.200 231.587,237.200 231.875 C 237.200 232.164,237.380 232.400,237.600 232.400 C 237.820 232.400,238.000 232.760,238.000 233.200 C 238.000 233.640,238.180 234.000,238.400 234.000 C 238.620 234.000,238.800 234.360,238.800 234.800 C 238.800 235.240,238.980 235.600,239.200 235.600 C 239.420 235.600,239.600 235.872,239.600 236.205 C 239.600 236.538,239.780 237.168,240.000 237.605 C 240.220 238.042,240.580 238.758,240.800 239.195 C 241.020 239.632,241.200 240.262,241.200 240.595 C 241.200 240.928,241.380 241.200,241.600 241.200 C 241.820 241.200,242.000 241.650,242.000 242.200 C 242.000 242.750,242.180 243.200,242.400 243.200 C 242.620 243.200,242.800 243.740,242.800 244.400 C 242.800 245.060,242.959 245.600,243.153 245.600 C 243.347 245.600,243.632 246.949,243.787 248.597 C 243.941 250.246,244.233 251.696,244.434 251.821 C 244.635 251.945,244.800 252.991,244.800 254.144 C 244.800 255.297,244.987 256.427,245.216 256.656 C 245.999 257.439,245.249 278.342,244.400 279.400 C 244.223 279.620,243.950 281.018,243.792 282.506 C 243.635 283.994,243.347 285.309,243.153 285.429 C 242.959 285.549,242.800 286.177,242.800 286.824 C 242.800 287.471,242.620 288.000,242.400 288.000 C 242.180 288.000,242.000 288.349,242.000 288.776 C 242.000 289.203,241.820 289.664,241.600 289.800 C 241.380 289.936,241.200 290.487,241.200 291.024 C 241.200 291.561,241.020 292.000,240.800 292.000 C 240.580 292.000,240.400 292.360,240.400 292.800 C 240.400 293.240,240.220 293.600,240.000 293.600 C 239.780 293.600,239.600 294.050,239.600 294.600 C 239.600 295.150,239.420 295.600,239.200 295.600 C 238.980 295.600,238.800 295.945,238.800 296.367 C 238.800 296.788,238.665 297.193,238.500 297.267 C 238.124 297.434,236.825 299.564,236.529 300.500 C 236.407 300.885,236.148 301.200,235.953 301.200 C 235.759 301.200,235.600 301.520,235.600 301.912 C 235.600 302.303,235.240 302.883,234.800 303.200 C 234.360 303.517,234.000 304.057,234.000 304.400 C 234.000 304.743,233.640 305.283,233.200 305.600 C 232.760 305.917,232.400 306.380,232.400 306.629 C 232.400 306.878,231.905 307.607,231.300 308.250 C 230.695 308.892,229.720 310.057,229.134 310.838 C 227.668 312.790,221.336 319.200,220.873 319.200 C 220.666 319.200,219.755 319.920,218.848 320.800 C 217.941 321.680,216.969 322.400,216.688 322.400 C 216.407 322.400,215.917 322.760,215.600 323.200 C 215.283 323.640,214.827 324.000,214.587 324.000 C 214.347 324.000,213.802 324.315,213.375 324.700 C 212.949 325.085,212.060 325.670,211.400 326.000 C 210.740 326.330,209.962 326.825,209.671 327.100 C 209.381 327.375,208.796 327.600,208.371 327.600 C 207.947 327.600,207.600 327.780,207.600 328.000 C 207.600 328.220,207.240 328.400,206.800 328.400 C 206.360 328.400,206.000 328.580,206.000 328.800 C 206.000 329.020,205.640 329.200,205.200 329.200 C 204.760 329.200,204.400 329.347,204.400 329.528 C 204.400 329.708,203.500 330.100,202.400 330.400 C 201.300 330.700,200.400 331.092,200.400 331.272 C 200.400 331.453,199.961 331.600,199.424 331.600 C 198.887 331.600,198.336 331.780,198.200 332.000 C 198.064 332.220,197.513 332.400,196.976 332.400 C 196.439 332.400,196.000 332.560,196.000 332.756 C 196.000 333.091,195.078 333.317,191.497 333.858 C 190.671 333.982,189.895 334.245,189.774 334.442 C 189.652 334.639,188.663 334.800,187.576 334.800 C 186.489 334.800,185.600 334.980,185.600 335.200 C 185.600 335.465,155.667 335.600,96.600 335.600 C 37.533 335.600,7.600 335.735,7.600 336.000 C 7.600 336.220,7.142 336.400,6.582 336.400 C 5.503 336.400,3.600 337.997,3.600 338.902 C 3.600 339.198,3.380 339.660,3.110 339.930 C 2.723 340.317,2.723 340.585,3.110 341.205 C 3.380 341.636,3.600 342.180,3.600 342.413 C 3.600 343.895,5.553 344.800,8.748 344.800 C 10.922 344.800,11.997 344.959,12.135 345.300 C 12.296 345.700,12.343 345.700,12.368 345.300 C 12.393 344.908,16.421 344.801,31.100 344.804 L 49.800 344.807 54.400 348.415 C 56.930 350.399,59.270 352.245,59.600 352.517 C 59.930 352.788,61.767 354.139,63.682 355.519 C 67.764 358.461,67.766 358.332,63.582 361.439 C 61.834 362.738,58.018 365.666,55.102 367.946 L 49.800 372.092 27.900 371.930 C 15.855 371.840,6.000 371.910,6.000 372.084 C 6.000 372.258,5.717 372.400,5.371 372.400 C 4.427 372.400,3.600 373.414,3.600 374.571 C 3.600 375.137,3.420 375.600,3.200 375.600 C 2.980 375.600,2.800 375.870,2.800 376.200 C 2.800 376.530,2.980 376.800,3.200 376.800 C 3.420 376.800,3.600 377.274,3.600 377.853 C 3.600 378.507,4.018 379.266,4.700 379.853 L 5.800 380.799 200.000 380.799 L 394.200 380.799 395.345 379.814 C 396.390 378.916,396.489 378.603,396.475 376.237 L 396.460 373.645 393.930 371.042 C 392.539 369.610,389.960 366.884,388.200 364.984 C 386.440 363.083,382.750 359.213,380.000 356.382 C 377.250 353.551,373.200 349.319,371.000 346.976 C 368.800 344.634,365.110 340.764,362.800 338.376 C 360.490 335.988,356.620 331.955,354.200 329.413 C 344.820 319.562,336.308 310.815,334.627 309.300 C 333.572 308.349,329.200 307.947,329.200 308.800 C 329.200 309.020,328.995 309.200,328.744 309.200 C 327.359 309.200,327.226 310.406,327.213 323.100 L 327.200 335.600 321.824 335.600 C 318.671 335.600,316.345 335.765,316.200 336.000 C 316.064 336.220,315.489 336.400,314.923 336.400 C 312.602 336.400,311.619 338.644,312.766 341.320 C 314.074 344.372,314.185 344.402,324.189 344.387 C 336.146 344.370,335.329 345.225,335.600 332.439 L 335.800 323.000 337.600 324.822 C 338.590 325.823,344.976 332.483,351.791 339.622 C 358.606 346.760,366.616 355.120,369.591 358.201 C 379.989 368.967,382.400 371.561,382.400 371.979 C 382.400 372.526,223.677 372.563,222.812 372.016 C 222.488 371.811,222.308 371.589,222.412 371.522 C 222.515 371.455,224.013 370.680,225.741 369.800 C 235.035 365.065,244.396 358.229,254.267 348.967 L 259.133 344.400 272.878 344.400 C 288.335 344.400,287.784 344.501,289.247 341.390 C 290.450 338.830,289.364 336.400,287.017 336.400 C 286.458 336.400,286.000 336.220,286.000 336.000 C 286.000 335.745,282.667 335.600,276.800 335.600 C 270.933 335.600,267.600 335.455,267.600 335.200 C 267.600 334.980,267.750 334.800,267.932 334.800 C 268.115 334.800,268.519 334.305,268.830 333.700 C 269.140 333.095,269.667 332.330,270.000 332.000 C 270.333 331.670,270.860 330.905,271.170 330.300 C 271.481 329.695,271.885 329.200,272.068 329.200 C 272.250 329.200,272.400 328.922,272.400 328.583 C 272.400 328.244,272.760 327.580,273.200 327.108 C 273.640 326.636,274.000 326.013,274.000 325.725 C 274.000 325.436,274.153 325.200,274.340 325.200 C 274.527 325.200,275.013 324.390,275.422 323.400 C 275.830 322.410,276.307 321.600,276.482 321.600 C 276.657 321.600,276.800 321.240,276.800 320.800 C 276.800 320.360,276.980 320.000,277.200 320.000 C 277.420 320.000,277.600 319.640,277.600 319.200 C 277.600 318.760,277.780 318.400,278.000 318.400 C 278.220 318.400,278.400 318.040,278.400 317.600 C 278.400 317.160,278.580 316.800,278.800 316.800 C 279.020 316.800,279.200 316.440,279.200 316.000 C 279.200 315.560,279.380 315.200,279.600 315.200 C 279.820 315.200,280.000 314.840,280.000 314.400 C 280.000 313.960,280.180 313.600,280.400 313.600 C 280.620 313.600,280.800 313.240,280.800 312.800 C 280.800 312.360,280.980 312.000,281.200 312.000 C 281.420 312.000,281.600 311.728,281.600 311.395 C 281.600 311.062,281.759 310.477,281.953 310.095 C 282.148 309.713,282.508 308.905,282.753 308.300 C 282.999 307.695,283.401 306.705,283.647 306.100 C 283.892 305.495,284.252 304.687,284.447 304.305 C 284.641 303.923,284.800 303.248,284.800 302.805 C 284.800 302.362,284.980 302.000,285.200 302.000 C 285.420 302.000,285.600 301.471,285.600 300.824 C 285.600 300.177,285.780 299.536,286.000 299.400 C 286.220 299.264,286.400 298.533,286.400 297.776 C 286.400 297.019,286.580 296.400,286.800 296.400 C 287.020 296.400,287.200 295.781,287.200 295.024 C 287.200 294.267,287.380 293.536,287.600 293.400 C 287.820 293.264,288.000 292.544,288.000 291.800 C 288.000 291.056,288.180 290.336,288.400 290.200 C 288.620 290.064,288.800 289.189,288.800 288.256 C 288.800 287.323,288.964 286.389,289.165 286.180 C 289.530 285.800,289.662 284.808,290.441 276.600 C 290.994 270.782,290.999 259.638,290.451 254.400 C 290.210 252.090,289.904 249.120,289.771 247.800 C 289.638 246.480,289.365 245.229,289.165 245.020 C 288.964 244.811,288.800 243.866,288.800 242.920 C 288.800 241.974,288.638 241.200,288.440 241.200 C 288.242 241.200,287.981 240.435,287.859 239.500 C 287.434 236.240,287.109 234.791,286.756 234.573 C 286.560 234.452,286.400 233.834,286.400 233.200 C 286.400 232.566,286.220 231.936,286.000 231.800 C 285.780 231.664,285.600 231.124,285.600 230.600 C 285.600 230.076,285.420 229.536,285.200 229.400 C 284.980 229.264,284.800 228.713,284.800 228.176 C 284.800 227.639,284.620 227.200,284.400 227.200 C 284.180 227.200,284.000 226.660,284.000 226.000 C 284.000 225.340,283.820 224.800,283.600 224.800 C 283.380 224.800,283.200 224.440,283.200 224.000 C 283.200 223.560,283.020 223.200,282.800 223.200 C 282.580 223.200,282.400 222.660,282.400 222.000 C 282.400 221.340,282.220 220.800,282.000 220.800 C 281.780 220.800,281.600 220.440,281.600 220.000 C 281.600 219.560,281.420 219.200,281.200 219.200 C 280.980 219.200,280.800 218.840,280.800 218.400 C 280.800 217.960,280.620 217.600,280.400 217.600 C 280.180 217.600,280.000 217.251,280.000 216.824 C 280.000 216.397,279.820 215.936,279.600 215.800 C 279.380 215.664,279.200 215.203,279.200 214.776 C 279.200 214.349,279.054 214.000,278.875 214.000 C 278.696 214.000,278.302 213.370,278.000 212.600 C 277.698 211.830,277.304 211.200,277.125 211.200 C 276.946 211.200,276.800 210.930,276.800 210.600 C 276.800 210.270,276.620 210.000,276.400 210.000 C 276.180 210.000,276.000 209.640,276.000 209.200 C 276.000 208.760,275.820 208.400,275.600 208.400 C 275.380 208.400,275.200 208.053,275.200 207.629 C 275.200 207.204,274.930 206.587,274.600 206.257 C 274.270 205.927,274.000 205.374,274.000 205.029 C 274.000 204.683,273.842 204.400,273.649 204.400 C 273.455 204.400,273.073 203.860,272.800 203.200 C 272.527 202.540,272.145 202.000,271.951 202.000 C 271.758 202.000,271.600 201.764,271.600 201.475 C 271.600 201.187,271.280 200.602,270.889 200.175 C 270.498 199.749,269.736 198.770,269.195 198.000 C 267.713 195.890,267.123 195.170,265.700 193.730 C 264.985 193.006,264.400 192.228,264.400 192.001 C 264.400 191.251,250.525 177.200,249.784 177.200 C 249.516 177.200,248.555 176.480,247.648 175.600 C 246.741 174.720,245.802 174.000,245.560 174.000 C 245.319 174.000,244.617 173.460,244.000 172.800 C 243.383 172.140,242.635 171.600,242.336 171.600 C 242.037 171.600,241.568 171.240,241.293 170.800 C 241.018 170.360,240.525 170.000,240.197 170.000 C 239.868 170.000,239.600 169.850,239.600 169.668 C 239.600 169.485,239.105 169.080,238.500 168.768 C 237.895 168.455,237.051 167.885,236.625 167.500 C 236.198 167.115,235.613 166.800,235.325 166.800 C 235.036 166.800,234.800 166.620,234.800 166.400 C 234.800 166.180,234.440 166.000,234.000 166.000 C 233.560 166.000,233.200 165.850,233.200 165.668 C 233.200 165.485,232.706 165.080,232.102 164.768 C 231.497 164.455,230.642 163.879,230.202 163.486 C 228.269 161.765,226.582 160.412,226.359 160.406 C 226.226 160.403,225.244 159.275,224.175 157.900 C 223.106 156.525,221.953 155.130,221.613 154.800 C 221.273 154.470,220.740 153.705,220.430 153.100 C 220.119 152.495,219.715 152.000,219.532 152.000 C 219.350 152.000,219.200 151.764,219.200 151.475 C 219.200 151.187,218.840 150.564,218.400 150.092 C 217.960 149.620,217.600 148.956,217.600 148.617 C 217.600 148.278,217.454 148.000,217.275 148.000 C 217.096 148.000,216.702 147.370,216.400 146.600 C 216.098 145.830,215.704 145.200,215.525 145.200 C 215.346 145.200,215.200 144.840,215.200 144.400 C 215.200 143.960,215.020 143.600,214.800 143.600 C 214.580 143.600,214.400 143.240,214.400 142.800 C 214.400 142.360,214.220 142.000,214.000 142.000 C 213.780 142.000,213.600 141.460,213.600 140.800 C 213.600 140.140,213.420 139.600,213.200 139.600 C 212.980 139.600,212.800 139.060,212.800 138.400 C 212.800 137.740,212.620 137.200,212.400 137.200 C 212.180 137.200,212.000 136.671,212.000 136.024 C 212.000 135.377,211.820 134.736,211.600 134.600 C 211.380 134.464,211.200 133.553,211.200 132.576 C 211.200 131.599,211.020 130.800,210.800 130.800 C 210.561 130.800,210.400 129.267,210.400 127.000 C 210.400 124.733,210.239 123.200,210.000 123.200 C 209.780 123.200,209.600 122.390,209.600 121.400 C 209.600 120.410,209.780 119.600,210.000 119.600 C 210.239 119.600,210.400 118.067,210.400 115.800 C 210.400 113.533,210.561 112.000,210.800 112.000 C 211.020 112.000,211.200 111.201,211.200 110.224 C 211.200 109.247,211.380 108.336,211.600 108.200 C 211.820 108.064,212.000 107.333,212.000 106.576 C 212.000 105.819,212.180 105.200,212.400 105.200 C 212.620 105.200,212.800 104.660,212.800 104.000 C 212.800 103.340,212.980 102.800,213.200 102.800 C 213.420 102.800,213.600 102.260,213.600 101.600 C 213.600 100.940,213.780 100.400,214.000 100.400 C 214.220 100.400,214.400 100.040,214.400 99.600 C 214.400 99.160,214.580 98.800,214.800 98.800 C 215.020 98.800,215.200 98.440,215.200 98.000 C 215.200 97.560,215.380 97.200,215.600 97.200 C 215.820 97.200,216.000 96.966,216.000 96.680 C 216.000 95.944,216.941 94.007,217.300 94.003 C 217.465 94.001,217.600 93.640,217.600 93.200 C 217.600 92.760,217.736 92.400,217.902 92.400 C 218.069 92.400,218.426 91.905,218.697 91.300 C 218.968 90.695,219.731 89.570,220.394 88.800 C 221.056 88.030,221.599 87.257,221.599 87.083 C 221.600 86.909,221.956 86.384,222.392 85.917 C 222.827 85.449,223.682 84.336,224.292 83.442 C 225.532 81.622,229.403 77.600,229.913 77.600 C 230.095 77.600,230.898 77.015,231.698 76.300 C 232.499 75.585,234.079 74.460,235.210 73.800 C 236.341 73.140,237.477 72.409,237.733 72.175 C 237.990 71.942,238.785 71.493,239.500 71.178 C 240.215 70.863,240.800 70.469,240.800 70.302 C 240.800 70.136,241.160 70.000,241.600 70.000 C 242.040 70.000,242.400 69.820,242.400 69.600 C 242.400 69.380,242.760 69.200,243.200 69.200 C 243.640 69.200,244.000 69.020,244.000 68.800 C 244.000 68.580,244.360 68.400,244.800 68.400 C 245.240 68.400,245.600 68.220,245.600 68.000 C 245.600 67.780,246.140 67.600,246.800 67.600 C 247.460 67.600,248.000 67.420,248.000 67.200 C 248.000 66.980,248.540 66.800,249.200 66.800 C 249.860 66.800,250.400 66.620,250.400 66.400 C 250.400 66.180,251.030 66.000,251.800 66.000 C 252.570 66.000,253.200 65.820,253.200 65.600 C 253.200 65.380,253.999 65.200,254.976 65.200 C 255.953 65.200,256.864 65.020,257.000 64.800 C 257.153 64.553,260.604 64.400,266.024 64.400 C 271.608 64.400,274.800 64.545,274.800 64.800 C 274.800 65.020,275.700 65.200,276.800 65.200 C 277.900 65.200,278.800 65.380,278.800 65.600 C 278.800 65.820,279.430 66.000,280.200 66.000 C 280.970 66.000,281.600 66.180,281.600 66.400 C 281.600 66.620,282.129 66.800,282.776 66.800 C 283.423 66.800,284.064 66.980,284.200 67.200 C 284.336 67.420,284.887 67.600,285.424 67.600 C 285.961 67.600,286.400 67.747,286.400 67.928 C 286.400 68.108,287.300 68.500,288.400 68.800 C 289.500 69.100,290.400 69.492,290.400 69.672 C 290.400 69.853,290.760 70.000,291.200 70.000 C 291.640 70.000,292.000 70.180,292.000 70.400 C 292.000 70.620,292.268 70.800,292.595 70.800 C 292.923 70.800,293.558 71.115,294.006 71.500 C 294.780 72.165,296.424 73.205,298.931 74.616 C 299.554 74.966,300.615 75.781,301.291 76.426 C 301.966 77.072,302.683 77.600,302.884 77.600 C 303.418 77.600,310.000 84.390,310.000 84.941 C 310.000 85.198,310.413 85.856,310.917 86.404 C 311.421 86.952,312.446 88.300,313.194 89.400 C 313.942 90.500,314.699 91.460,314.877 91.533 C 315.055 91.607,315.200 92.012,315.200 92.433 C 315.200 92.855,315.380 93.200,315.600 93.200 C 315.820 93.200,316.000 93.560,316.000 94.000 C 316.000 94.440,316.180 94.800,316.400 94.800 C 316.620 94.800,316.800 95.160,316.800 95.600 C 316.800 96.040,316.980 96.400,317.200 96.400 C 317.420 96.400,317.600 96.760,317.600 97.200 C 317.600 97.640,317.780 98.000,318.000 98.000 C 318.220 98.000,318.400 98.360,318.400 98.800 C 318.400 99.240,318.580 99.600,318.800 99.600 C 319.020 99.600,319.200 100.140,319.200 100.800 C 319.200 101.460,319.380 102.000,319.600 102.000 C 319.820 102.000,320.000 102.439,320.000 102.976 C 320.000 103.513,320.180 104.064,320.400 104.200 C 320.620 104.336,320.800 104.966,320.800 105.600 C 320.800 106.234,320.980 106.864,321.200 107.000 C 321.420 107.136,321.600 107.957,321.600 108.824 C 321.600 109.691,321.780 110.400,322.000 110.400 C 322.229 110.400,322.400 111.600,322.400 113.200 L 322.400 116.000 316.700 116.013 C 310.894 116.027,309.200 116.467,309.200 117.964 C 309.200 118.204,309.020 118.400,308.800 118.400 C 308.580 118.400,308.400 119.390,308.400 120.600 C 308.400 121.810,308.580 122.800,308.800 122.800 C 309.020 122.800,309.200 123.070,309.200 123.400 C 309.200 123.730,309.360 124.000,309.557 124.000 C 309.753 124.000,310.026 124.450,310.164 125.000 C 310.302 125.550,310.592 126.000,310.808 126.000 C 311.023 126.000,311.200 126.236,311.200 126.525 C 311.200 126.813,311.515 127.398,311.900 127.825 C 312.285 128.251,312.855 129.095,313.168 129.700 C 313.480 130.305,313.885 130.800,314.068 130.800 C 314.250 130.800,314.400 131.036,314.400 131.325 C 314.400 131.613,314.715 132.198,315.100 132.625 C 315.485 133.051,316.055 133.895,316.368 134.500 C 316.680 135.105,317.085 135.600,317.268 135.600 C 317.450 135.600,317.600 135.836,317.600 136.125 C 317.600 136.413,317.915 136.998,318.300 137.425 C 318.685 137.851,319.255 138.695,319.568 139.300 C 319.880 139.905,320.285 140.400,320.468 140.400 C 320.650 140.400,320.800 140.630,320.800 140.912 C 320.800 141.193,321.160 141.683,321.600 142.000 C 322.040 142.317,322.400 142.857,322.400 143.200 C 322.400 143.543,322.760 144.083,323.200 144.400 C 323.640 144.717,324.000 145.257,324.000 145.600 C 324.000 145.943,324.360 146.483,324.800 146.800 C 325.240 147.117,325.600 147.631,325.600 147.941 C 325.600 148.252,325.927 148.797,326.328 149.153 C 326.728 149.509,327.171 150.112,327.312 150.492 C 327.641 151.378,332.324 158.352,333.277 159.375 C 333.675 159.802,334.000 160.387,334.000 160.675 C 334.000 160.964,334.150 161.200,334.332 161.200 C 334.515 161.200,334.919 161.695,335.230 162.300 C 335.540 162.905,336.111 163.691,336.497 164.047 C 336.884 164.403,337.200 164.948,337.200 165.259 C 337.200 165.569,337.560 166.083,338.000 166.400 C 338.440 166.717,338.800 167.257,338.800 167.600 C 338.800 167.943,339.160 168.483,339.600 168.800 C 340.040 169.117,340.400 169.613,340.400 169.902 C 340.400 170.980,344.095 174.000,345.414 174.000 C 346.760 174.000,349.600 172.120,349.600 171.229 C 349.600 170.993,349.750 170.800,349.932 170.800 C 350.115 170.800,350.520 170.305,350.832 169.700 C 351.145 169.095,351.715 168.251,352.100 167.825 C 352.485 167.398,352.800 166.896,352.800 166.708 C 352.800 166.520,353.160 165.980,353.600 165.508 C 354.040 165.036,354.400 164.413,354.400 164.125 C 354.400 163.836,354.550 163.600,354.732 163.600 C 354.915 163.600,355.320 163.105,355.632 162.500 C 355.945 161.895,356.515 161.051,356.900 160.625 C 357.285 160.198,357.600 159.613,357.600 159.325 C 357.600 159.036,357.768 158.800,357.973 158.800 C 358.178 158.800,358.474 158.395,358.630 157.900 C 358.787 157.405,359.249 156.709,359.657 156.353 C 360.066 155.997,360.400 155.452,360.400 155.141 C 360.400 154.831,360.760 154.317,361.200 154.000 C 361.640 153.683,362.000 153.143,362.000 152.800 C 362.000 152.457,362.360 151.917,362.800 151.600 C 363.240 151.283,363.600 150.743,363.600 150.400 C 363.600 150.057,363.960 149.517,364.400 149.200 C 364.840 148.883,365.200 148.369,365.200 148.059 C 365.200 147.748,365.516 147.203,365.903 146.847 C 366.289 146.491,366.860 145.705,367.170 145.100 C 367.481 144.495,367.885 144.000,368.068 144.000 C 368.250 144.000,368.400 143.764,368.400 143.475 C 368.400 143.187,368.725 142.602,369.123 142.175 C 370.076 141.152,374.759 134.178,375.088 133.292 C 375.229 132.912,375.672 132.309,376.072 131.953 C 376.473 131.597,376.800 131.052,376.800 130.741 C 376.800 130.431,377.160 129.917,377.600 129.600 C 378.040 129.283,378.400 128.743,378.400 128.400 C 378.400 128.057,378.760 127.517,379.200 127.200 C 379.640 126.883,380.000 126.369,380.000 126.059 C 380.000 125.748,380.315 125.201,380.700 124.843 C 382.231 123.418,383.244 118.400,382.000 118.400 C 381.780 118.400,381.600 118.040,381.600 117.600 C 381.600 117.067,381.333 116.800,380.800 116.800 C 380.360 116.800,380.000 116.620,380.000 116.400 C 380.000 116.151,377.667 116.000,373.800 116.000 L 367.600 116.000 367.600 112.224 C 367.600 110.137,367.421 108.337,367.200 108.200 C 366.980 108.064,366.800 106.793,366.800 105.376 C 366.800 103.925,366.625 102.800,366.400 102.800 C 366.180 102.800,366.000 101.900,366.000 100.800 C 366.000 99.700,365.820 98.800,365.600 98.800 C 365.380 98.800,365.200 98.091,365.200 97.224 C 365.200 96.357,365.020 95.536,364.800 95.400 C 364.580 95.264,364.400 94.623,364.400 93.976 C 364.400 93.329,364.220 92.800,364.000 92.800 C 363.780 92.800,363.600 92.080,363.600 91.200 C 363.600 90.320,363.420 89.600,363.200 89.600 C 362.980 89.600,362.800 89.060,362.800 88.400 C 362.800 87.740,362.620 87.200,362.400 87.200 C 362.180 87.200,362.000 86.761,362.000 86.224 C 362.000 85.687,361.820 85.136,361.600 85.000 C 361.380 84.864,361.200 84.403,361.200 83.976 C 361.200 83.549,361.020 83.200,360.800 83.200 C 360.580 83.200,360.400 82.761,360.400 82.224 C 360.400 81.687,360.220 81.136,360.000 81.000 C 359.780 80.864,359.600 80.403,359.600 79.976 C 359.600 79.549,359.440 79.200,359.245 79.200 C 359.049 79.200,358.771 78.570,358.626 77.800 C 358.482 77.030,358.192 76.400,357.982 76.400 C 357.772 76.400,357.600 76.040,357.600 75.600 C 357.600 75.160,357.420 74.800,357.200 74.800 C 356.980 74.800,356.800 74.440,356.800 74.000 C 356.800 73.560,356.620 73.200,356.400 73.200 C 356.180 73.200,356.000 72.840,356.000 72.400 C 356.000 71.960,355.820 71.600,355.600 71.600 C 355.380 71.600,355.200 71.240,355.200 70.800 C 355.200 70.360,355.020 70.000,354.800 70.000 C 354.580 70.000,354.400 69.764,354.400 69.475 C 354.400 69.187,354.040 68.564,353.600 68.092 C 353.160 67.620,352.800 67.038,352.800 66.800 C 352.800 66.562,352.440 65.980,352.000 65.508 C 351.560 65.036,351.200 64.413,351.200 64.125 C 351.200 63.836,351.062 63.600,350.894 63.600 C 350.726 63.600,350.144 62.880,349.600 62.000 C 349.056 61.120,348.474 60.400,348.306 60.400 C 348.138 60.400,348.000 60.220,348.000 60.000 C 348.000 59.781,347.280 58.859,346.400 57.952 C 345.520 57.045,344.800 56.141,344.800 55.941 C 344.800 55.742,344.035 54.787,343.100 53.819 C 342.165 52.850,340.950 51.511,340.400 50.841 C 339.850 50.172,339.096 49.619,338.724 49.612 C 338.352 49.605,337.936 49.420,337.800 49.200 C 337.018 47.934,334.204 49.355,333.417 51.413 C 332.217 54.551,332.337 54.819,337.718 61.028 C 341.105 64.936,346.535 73.044,348.950 77.800 C 351.313 82.454,353.200 86.684,353.200 87.330 C 353.200 87.611,353.348 88.011,353.528 88.220 C 353.708 88.429,354.270 89.950,354.776 91.600 C 355.283 93.250,355.843 95.050,356.022 95.600 C 357.401 99.832,358.734 108.441,359.190 116.058 C 359.673 124.110,359.919 124.400,366.265 124.400 C 369.733 124.400,370.076 124.467,369.908 125.109 C 369.358 127.213,345.690 161.552,345.112 161.084 C 344.455 160.552,341.926 156.858,329.268 137.949 C 324.611 130.991,320.800 125.096,320.800 124.849 C 320.800 124.546,322.146 124.400,324.945 124.400 C 331.436 124.400,332.519 121.725,330.614 110.400 C 321.846 58.258,258.886 37.342,221.192 74.049 C 213.079 81.949,206.230 93.972,203.674 104.800 C 203.440 105.790,203.141 107.050,203.008 107.600 C 199.540 121.962,202.370 140.183,210.117 153.376 C 212.370 157.213,212.434 157.124,208.324 155.880 C 200.019 153.368,191.815 151.867,183.674 151.370 C 178.135 151.032,178.495 151.440,176.415 143.132 C 171.717 124.359,173.257 101.038,180.175 86.200 C 180.483 85.540,181.054 84.190,181.445 83.200 C 182.125 81.476,183.781 78.200,185.871 74.441 C 194.912 58.190,213.100 41.821,229.200 35.447 C 230.190 35.055,231.540 34.492,232.200 34.195 C 235.141 32.875,243.084 30.546,248.400 29.447 C 255.862 27.903,270.455 27.354,277.400 28.355 C 287.082 29.751,295.716 31.963,301.096 34.424 C 302.028 34.851,302.888 35.200,303.006 35.200 C 303.124 35.200,304.931 36.010,307.021 37.000 C 312.139 39.423,312.902 39.352,316.300 36.131 C 316.901 35.562,316.954 34.542,316.400 34.200 C 316.180 34.064,316.000 33.541,316.000 33.038 C 316.000 32.090,314.887 30.800,314.069 30.800 C 313.811 30.800,313.600 30.620,313.600 30.400 C 313.600 30.180,313.240 30.000,312.800 30.000 C 312.360 30.000,312.000 29.820,312.000 29.600 C 312.000 29.380,311.735 29.200,311.412 29.200 C 311.089 29.200,310.202 28.851,309.442 28.424 C 308.682 27.997,307.417 27.527,306.630 27.379 C 305.844 27.232,305.200 26.951,305.200 26.755 C 305.200 26.560,304.851 26.400,304.424 26.400 C 303.997 26.400,303.536 26.220,303.400 26.000 C 303.264 25.780,302.713 25.600,302.176 25.600 C 301.639 25.600,301.200 25.420,301.200 25.200 C 301.200 24.980,300.660 24.800,300.000 24.800 C 299.340 24.800,298.800 24.620,298.800 24.400 C 298.800 24.180,298.260 24.000,297.600 24.000 C 296.940 24.000,296.400 23.820,296.400 23.600 C 296.400 23.380,295.680 23.200,294.800 23.200 C 293.920 23.200,293.200 23.020,293.200 22.800 C 293.200 22.580,292.581 22.400,291.824 22.400 C 291.067 22.400,290.336 22.220,290.200 22.000 C 290.064 21.780,289.243 21.600,288.376 21.600 C 287.509 21.600,286.800 21.420,286.800 21.200 C 286.800 20.980,285.821 20.800,284.624 20.800 C 283.427 20.800,282.336 20.620,282.200 20.400 C 282.064 20.180,280.433 20.000,278.576 20.000 C 276.592 20.000,275.200 19.835,275.200 19.600 C 275.200 19.071,258.018 19.071,257.200 19.600 M323.200 39.200 C 323.200 39.420,322.864 39.600,322.452 39.600 C 321.672 39.600,321.214 41.167,321.204 43.864 C 321.195 46.693,324.639 48.001,327.618 46.300 C 330.027 44.924,329.877 39.600,327.429 39.600 C 327.083 39.600,326.800 39.420,326.800 39.200 C 326.800 38.980,325.990 38.800,325.000 38.800 C 324.010 38.800,323.200 38.980,323.200 39.200 M242.800 84.400 C 242.800 84.620,242.517 84.800,242.171 84.800 C 241.363 84.800,240.400 85.763,240.400 86.571 C 240.400 86.917,240.220 87.200,240.000 87.200 C 239.434 87.200,239.503 89.441,240.100 90.483 C 241.221 92.440,242.318 93.200,244.020 93.200 L 245.677 93.200 245.405 95.300 C 244.978 98.590,245.039 104.421,245.520 106.400 C 245.760 107.390,246.078 108.695,246.225 109.300 C 246.373 109.905,246.652 110.400,246.847 110.400 C 247.041 110.400,247.200 110.634,247.200 110.920 C 247.200 111.656,248.141 113.593,248.500 113.597 C 248.665 113.599,248.800 113.848,248.800 114.152 C 248.800 114.455,249.521 115.446,250.402 116.354 L 252.003 118.004 250.802 119.261 C 250.141 119.953,249.600 120.722,249.600 120.971 C 249.600 121.220,249.240 121.683,248.800 122.000 C 248.360 122.317,248.000 122.897,248.000 123.288 C 248.000 123.680,247.820 124.000,247.600 124.000 C 247.380 124.000,247.200 124.360,247.200 124.800 C 247.200 125.240,247.020 125.600,246.800 125.600 C 246.580 125.600,246.400 126.039,246.400 126.576 C 246.400 127.113,246.239 127.652,246.042 127.774 C 245.186 128.303,244.803 136.060,245.405 140.700 L 245.677 142.800 244.239 142.800 C 243.447 142.800,242.800 142.980,242.800 143.200 C 242.800 143.420,242.476 143.600,242.080 143.600 C 241.158 143.600,240.400 144.358,240.400 145.280 C 240.400 145.676,240.220 146.000,240.000 146.000 C 239.780 146.000,239.600 146.630,239.600 147.400 C 239.600 148.170,239.780 148.800,240.000 148.800 C 240.220 148.800,240.400 149.078,240.400 149.418 C 240.400 149.758,240.842 150.478,241.382 151.018 L 242.364 152.000 266.485 152.000 L 290.606 152.000 291.903 150.587 C 293.203 149.170,293.845 145.600,292.800 145.600 C 292.580 145.600,292.400 145.272,292.400 144.872 C 292.400 144.435,291.881 143.916,291.100 143.572 L 289.800 143.000 289.690 136.210 C 289.629 132.475,289.404 129.244,289.190 129.030 C 288.975 128.815,288.800 128.136,288.800 127.520 C 288.800 126.904,288.620 126.400,288.400 126.400 C 288.180 126.400,288.000 126.040,288.000 125.600 C 288.000 125.160,287.820 124.800,287.600 124.800 C 287.380 124.800,287.200 124.440,287.200 124.000 C 287.200 123.560,287.020 123.200,286.800 123.200 C 286.580 123.200,286.400 122.916,286.400 122.569 C 286.400 122.221,285.680 121.246,284.800 120.400 C 282.769 118.448,282.964 117.198,285.681 114.753 C 286.076 114.397,286.400 113.812,286.400 113.453 C 286.400 113.094,286.535 112.799,286.700 112.797 C 287.059 112.793,288.000 110.856,288.000 110.120 C 288.000 109.834,288.180 109.600,288.400 109.600 C 288.620 109.600,288.800 109.060,288.800 108.400 C 288.800 107.740,288.980 107.200,289.200 107.200 C 289.451 107.200,289.600 104.600,289.600 100.200 C 289.600 95.649,289.745 93.200,290.013 93.200 C 292.838 93.200,294.090 87.928,291.846 85.478 L 290.492 84.000 266.646 84.000 C 251.015 84.000,242.800 84.138,242.800 84.400 M280.955 97.781 C 281.460 104.582,280.634 107.383,276.925 111.443 C 272.495 116.292,272.458 120.176,276.799 124.600 C 280.558 128.431,282.232 136.240,280.648 142.552 L 280.385 143.600 267.416 143.600 C 260.283 143.600,254.349 143.442,254.230 143.249 C 254.111 143.055,253.976 140.310,253.930 137.149 C 253.833 130.353,254.477 128.363,257.969 124.670 C 262.250 120.144,262.329 116.305,258.235 111.800 C 254.402 107.582,253.866 106.016,253.941 99.258 C 253.976 96.100,254.106 93.352,254.229 93.153 C 254.359 92.943,259.994 92.834,267.527 92.895 L 280.600 93.000 280.955 97.781 M140.147 195.109 C 138.326 196.584,137.902 200.759,139.420 202.277 C 141.018 203.875,146.400 202.287,146.400 200.218 C 146.400 199.878,146.580 199.600,146.800 199.600 C 147.951 199.600,147.058 197.324,145.347 195.900 C 143.327 194.219,141.575 193.952,140.147 195.109 M127.600 203.083 C 125.904 203.704,118.727 210.507,115.028 215.000 C 111.580 219.188,111.656 219.086,109.395 222.563 C 103.998 230.865,100.308 239.715,98.373 249.000 C 96.094 259.938,96.284 274.905,98.819 284.200 C 100.706 291.117,102.489 295.868,105.234 301.296 C 106.095 302.999,106.800 304.934,106.800 305.596 C 106.800 306.258,106.980 306.800,107.200 306.800 C 107.420 306.800,107.600 306.993,107.600 307.229 C 107.600 307.866,108.653 308.800,109.371 308.800 C 109.717 308.800,110.000 308.980,110.000 309.200 C 110.000 309.420,110.810 309.600,111.800 309.600 C 112.790 309.600,113.600 309.420,113.600 309.200 C 113.600 308.980,113.883 308.800,114.229 308.800 C 115.526 308.800,116.000 307.737,116.000 304.829 C 116.000 303.210,115.829 302.000,115.600 302.000 C 115.380 302.000,115.200 301.764,115.200 301.475 C 115.200 301.187,114.840 300.564,114.400 300.092 C 113.960 299.620,113.600 298.956,113.600 298.617 C 113.600 298.278,113.420 298.000,113.200 298.000 C 112.980 298.000,112.800 297.640,112.800 297.200 C 112.800 296.760,112.620 296.400,112.400 296.400 C 112.180 296.400,112.000 296.040,112.000 295.600 C 112.000 295.160,111.820 294.800,111.600 294.800 C 111.380 294.800,111.200 294.451,111.200 294.024 C 111.200 293.597,111.020 293.136,110.800 293.000 C 110.580 292.864,110.400 292.403,110.400 291.976 C 110.400 291.549,110.220 291.200,110.000 291.200 C 109.780 291.200,109.600 290.870,109.600 290.467 C 109.600 290.063,109.465 289.599,109.300 289.435 C 109.135 289.270,108.786 288.115,108.525 286.868 C 108.264 285.621,107.935 284.060,107.795 283.400 C 107.655 282.740,107.384 281.840,107.195 281.400 C 106.773 280.422,106.410 278.186,106.157 275.000 C 106.053 273.680,105.785 272.234,105.562 271.786 C 105.082 270.822,105.337 260.832,105.954 256.400 C 106.184 254.750,106.487 252.590,106.627 251.600 C 106.767 250.610,107.044 249.629,107.241 249.420 C 107.438 249.211,107.600 248.446,107.600 247.720 C 107.600 246.994,107.762 246.400,107.961 246.400 C 108.159 246.400,108.447 245.320,108.600 244.000 C 108.753 242.680,109.041 241.600,109.239 241.600 C 109.438 241.600,109.600 241.240,109.600 240.800 C 109.600 240.360,109.780 240.000,110.000 240.000 C 110.220 240.000,110.400 239.550,110.400 239.000 C 110.400 238.450,110.580 238.000,110.800 238.000 C 111.020 238.000,111.200 237.640,111.200 237.200 C 111.200 236.760,111.380 236.400,111.600 236.400 C 111.820 236.400,112.000 236.040,112.000 235.600 C 112.000 235.160,112.180 234.800,112.400 234.800 C 112.620 234.800,112.800 234.440,112.800 234.000 C 112.800 233.560,112.980 233.200,113.200 233.200 C 113.420 233.200,113.600 232.840,113.600 232.400 C 113.600 231.960,113.780 231.600,114.000 231.600 C 114.220 231.600,114.400 231.280,114.400 230.888 C 114.400 230.497,114.760 229.917,115.200 229.600 C 115.640 229.283,116.000 228.743,116.000 228.400 C 116.000 228.057,116.360 227.517,116.800 227.200 C 117.240 226.883,117.600 226.343,117.600 226.000 C 117.600 225.657,117.960 225.117,118.400 224.800 C 118.840 224.483,119.200 224.059,119.200 223.859 C 119.200 223.658,119.519 223.203,119.908 222.847 C 120.297 222.491,121.119 221.570,121.733 220.800 C 124.356 217.513,125.098 216.643,126.874 214.773 C 127.905 213.688,128.911 212.800,129.110 212.800 C 130.395 212.800,134.000 208.211,134.000 206.577 C 134.000 204.391,129.997 202.205,127.600 203.083 M203.600 229.600 C 203.600 229.820,202.880 230.000,202.000 230.000 C 201.120 230.000,200.400 230.180,200.400 230.400 C 200.400 230.620,200.128 230.800,199.795 230.800 C 199.165 230.800,198.038 231.373,196.648 232.400 C 196.202 232.730,189.773 239.030,182.363 246.400 C 174.952 253.770,167.807 260.857,166.484 262.148 L 164.079 264.497 161.797 262.290 C 160.542 261.077,159.310 259.876,159.058 259.621 C 158.806 259.366,157.193 257.727,155.473 255.979 C 153.753 254.230,152.088 252.800,151.773 252.800 C 151.458 252.800,151.200 252.620,151.200 252.400 C 151.200 252.180,150.851 252.000,150.424 252.000 C 149.997 252.000,149.536 251.820,149.400 251.600 C 149.264 251.380,148.544 251.200,147.800 251.200 C 147.056 251.200,146.336 251.020,146.200 250.800 C 146.064 250.580,144.703 250.400,143.176 250.400 C 141.592 250.400,140.400 250.572,140.400 250.800 C 140.400 251.020,139.680 251.200,138.800 251.200 C 137.920 251.200,137.200 251.380,137.200 251.600 C 137.200 251.820,136.840 252.000,136.400 252.000 C 135.960 252.000,135.600 252.180,135.600 252.400 C 135.600 252.620,135.313 252.800,134.963 252.800 C 133.990 252.800,129.515 257.549,128.394 259.772 C 126.416 263.696,127.378 276.000,129.663 276.000 C 129.848 276.000,130.000 276.274,130.000 276.609 C 130.000 277.392,155.424 302.800,156.209 302.800 C 156.534 302.800,156.800 302.980,156.800 303.200 C 156.800 303.420,157.160 303.600,157.600 303.600 C 158.040 303.600,158.400 303.780,158.400 304.000 C 158.400 304.220,158.839 304.400,159.376 304.400 C 159.913 304.400,160.464 304.580,160.600 304.800 C 160.736 305.020,162.356 305.200,164.200 305.200 C 166.044 305.200,167.664 305.020,167.800 304.800 C 167.936 304.580,168.380 304.400,168.786 304.400 C 169.815 304.400,172.696 302.805,173.838 301.603 C 174.362 301.051,176.862 298.530,179.395 296.000 C 184.267 291.132,188.548 286.852,195.899 279.500 C 198.374 277.025,202.244 273.155,204.499 270.900 C 206.755 268.646,210.490 264.910,212.800 262.600 C 215.110 260.289,217.675 257.748,218.500 256.951 C 219.325 256.155,220.000 255.255,220.000 254.952 C 220.000 254.648,220.136 254.400,220.302 254.400 C 220.469 254.400,220.840 253.815,221.129 253.100 C 221.417 252.385,221.821 251.487,222.026 251.105 C 222.532 250.165,222.509 240.915,222.000 240.600 C 221.780 240.464,221.600 240.003,221.600 239.576 C 221.600 239.149,221.420 238.800,221.200 238.800 C 220.980 238.800,220.800 238.440,220.800 238.000 C 220.800 237.560,220.632 237.200,220.427 237.200 C 220.222 237.200,219.934 236.823,219.788 236.362 C 219.495 235.440,216.530 232.400,215.923 232.400 C 215.714 232.400,215.264 232.121,214.923 231.780 C 214.582 231.440,213.785 231.057,213.152 230.930 C 212.518 230.804,212.000 230.543,212.000 230.350 C 212.000 230.157,211.280 230.000,210.400 230.000 C 209.520 230.000,208.800 229.820,208.800 229.600 C 208.800 229.374,207.667 229.200,206.200 229.200 C 204.733 229.200,203.600 229.374,203.600 229.600 M210.169 239.171 C 213.331 240.911,214.847 245.476,213.407 248.922 C 213.016 249.857,205.038 258.128,190.045 273.141 C 164.882 298.338,166.139 297.300,162.309 296.036 C 161.028 295.613,138.313 273.405,136.497 270.800 C 134.304 267.654,136.133 262.080,140.008 260.100 C 144.348 257.882,146.078 258.760,155.213 267.813 C 162.305 274.841,162.742 275.200,164.216 275.200 C 165.865 275.200,168.144 273.043,193.924 247.076 C 203.194 237.740,205.516 236.610,210.169 239.171 M299.653 336.314 C 296.812 336.617,295.835 338.680,297.198 341.500 C 299.127 345.493,302.909 345.479,304.837 341.472 C 306.569 337.875,304.483 335.800,299.653 336.314 M100.165 349.949 C 103.995 353.002,107.949 356.088,108.951 356.808 C 110.965 358.254,110.961 358.636,108.917 360.105 C 107.578 361.067,99.438 367.389,95.532 370.500 L 93.147 372.400 77.986 372.400 C 61.765 372.400,61.750 372.398,64.530 370.500 C 65.255 370.006,66.197 369.284,66.624 368.897 C 67.051 368.510,68.209 367.564,69.199 366.796 C 80.136 358.305,80.143 358.467,68.498 349.416 C 65.395 347.004,62.945 344.889,63.052 344.716 C 63.159 344.542,69.987 344.400,78.224 344.400 L 93.201 344.400 100.165 349.949 M134.465 346.996 C 136.299 348.424,138.430 350.101,139.200 350.722 C 139.970 351.344,142.443 353.255,144.695 354.971 C 149.530 358.653,149.613 358.076,143.590 362.713 C 141.065 364.656,137.234 367.631,135.075 369.323 L 131.149 372.400 118.787 372.400 C 104.579 372.400,105.194 372.680,110.448 368.600 C 123.827 358.210,123.763 358.644,113.152 350.327 C 109.459 347.433,106.529 344.915,106.642 344.732 C 106.755 344.549,112.311 344.400,118.989 344.400 L 131.130 344.400 134.465 346.996 " stroke="none" fill="#050404" fill-rule="evenodd"></path><path id="path1" d="M264.700 27.889 C 265.415 27.978,266.585 27.978,267.300 27.889 C 268.015 27.801,267.430 27.728,266.000 27.728 C 264.570 27.728,263.985 27.801,264.700 27.889 M257.500 28.289 C 258.215 28.378,259.385 28.378,260.100 28.289 C 260.815 28.201,260.230 28.128,258.800 28.128 C 257.370 28.128,256.785 28.201,257.500 28.289 M272.707 28.290 C 273.426 28.379,274.506 28.377,275.107 28.286 C 275.708 28.195,275.120 28.122,273.800 28.124 C 272.480 28.126,271.988 28.201,272.707 28.290 M251.300 29.076 C 251.685 29.176,252.315 29.176,252.700 29.076 C 253.085 28.975,252.770 28.893,252.000 28.893 C 251.230 28.893,250.915 28.975,251.300 29.076 M310.262 38.900 C 310.364 39.065,311.056 39.200,311.800 39.200 C 312.544 39.200,313.236 39.065,313.338 38.900 C 313.440 38.735,312.748 38.600,311.800 38.600 C 310.852 38.600,310.160 38.735,310.262 38.900 M216.100 42.446 C 214.737 43.319,214.295 43.906,215.500 43.243 C 216.418 42.739,217.856 41.627,217.600 41.619 C 217.490 41.616,216.815 41.988,216.100 42.446 M320.901 43.400 C 320.905 44.280,320.987 44.593,321.083 44.095 C 321.179 43.598,321.175 42.878,321.075 42.495 C 320.975 42.113,320.896 42.520,320.901 43.400 M213.000 44.635 L 211.800 45.666 213.100 44.806 C 213.815 44.333,214.400 43.868,214.400 43.773 C 214.400 43.473,214.231 43.578,213.000 44.635 M322.088 46.213 C 322.686 46.843,323.247 47.277,323.335 47.179 C 323.423 47.080,322.933 46.565,322.247 46.034 L 321.000 45.069 322.088 46.213 M203.775 52.100 L 202.600 53.400 203.900 52.225 C 204.615 51.579,205.200 50.994,205.200 50.925 C 205.200 50.616,204.870 50.888,203.775 52.100 M263.491 55.489 C 264.201 55.577,265.461 55.579,266.291 55.492 C 267.121 55.405,266.540 55.333,265.000 55.331 C 263.460 55.329,262.781 55.400,263.491 55.489 M197.975 57.900 C 195.522 60.497,194.226 62.000,194.439 62.000 C 194.537 62.000,195.840 60.650,197.334 59.000 C 200.348 55.672,200.781 54.929,197.975 57.900 M255.300 56.276 C 255.685 56.376,256.315 56.376,256.700 56.276 C 257.085 56.175,256.770 56.093,256.000 56.093 C 255.230 56.093,254.915 56.175,255.300 56.276 M274.900 56.276 C 275.285 56.376,275.915 56.376,276.300 56.276 C 276.685 56.175,276.370 56.093,275.600 56.093 C 274.830 56.093,274.515 56.175,274.900 56.276 M282.833 57.744 C 282.925 57.823,283.540 58.008,284.200 58.156 C 285.076 58.352,285.238 58.315,284.800 58.018 C 284.260 57.653,282.432 57.398,282.833 57.744 M335.200 58.525 C 335.200 58.594,335.785 59.179,336.500 59.825 L 337.800 61.000 336.625 59.700 C 335.530 58.488,335.200 58.216,335.200 58.525 M223.970 71.100 L 223.000 72.200 224.200 71.200 C 224.860 70.650,225.475 70.155,225.567 70.100 C 225.658 70.045,225.555 70.000,225.336 70.000 C 225.118 70.000,224.503 70.495,223.970 71.100 M312.600 74.800 C 313.683 75.900,314.660 76.800,314.770 76.800 C 314.880 76.800,314.083 75.900,313.000 74.800 C 311.917 73.700,310.940 72.800,310.830 72.800 C 310.720 72.800,311.517 73.700,312.600 74.800 M217.759 77.300 C 216.007 79.321,215.487 80.000,215.690 80.000 C 215.807 80.000,216.567 79.190,217.379 78.200 C 218.881 76.366,219.179 75.663,217.759 77.300 M254.229 93.153 C 254.106 93.352,253.976 96.100,253.941 99.258 C 253.866 106.016,254.402 107.582,258.235 111.800 C 262.329 116.305,262.250 120.144,257.969 124.670 C 254.477 128.363,253.833 130.353,253.930 137.149 C 253.976 140.310,254.111 143.055,254.230 143.249 C 254.349 143.442,260.283 143.600,267.416 143.600 L 280.385 143.600 280.648 142.552 C 282.232 136.240,280.558 128.431,276.799 124.600 C 272.458 120.176,272.495 116.292,276.925 111.443 C 280.634 107.383,281.460 104.582,280.955 97.781 L 280.600 93.000 267.527 92.895 C 259.994 92.834,254.359 92.943,254.229 93.153 M358.501 110.200 C 358.505 111.080,358.587 111.393,358.683 110.895 C 358.779 110.398,358.775 109.678,358.675 109.295 C 358.575 108.913,358.496 109.320,358.501 110.200 M174.093 111.200 C 174.093 111.970,174.175 112.285,174.276 111.900 C 174.376 111.515,174.376 110.885,174.276 110.500 C 174.175 110.115,174.093 110.430,174.093 111.200 M358.893 113.600 C 358.893 114.370,358.975 114.685,359.076 114.300 C 359.176 113.915,359.176 113.285,359.076 112.900 C 358.975 112.515,358.893 112.830,358.893 113.600 M173.693 114.400 C 173.693 115.170,173.775 115.485,173.876 115.100 C 173.976 114.715,173.976 114.085,173.876 113.700 C 173.775 113.315,173.693 113.630,173.693 114.400 M331.342 118.600 C 331.341 120.580,331.408 121.440,331.492 120.512 C 331.576 119.584,331.577 117.964,331.495 116.912 C 331.412 115.860,331.343 116.620,331.342 118.600 M320.806 125.100 C 320.810 125.578,320.909 125.647,321.119 125.318 C 321.306 125.023,322.743 124.782,324.813 124.699 L 328.200 124.563 324.500 124.481 C 321.210 124.409,320.801 124.478,320.806 125.100 M366.100 124.698 C 368.025 124.771,369.600 124.926,369.600 125.042 C 369.600 125.158,369.410 125.646,369.178 126.126 C 368.770 126.970,368.777 126.974,369.378 126.224 C 370.655 124.630,370.240 124.395,366.300 124.482 L 362.600 124.565 366.100 124.698 M173.693 126.800 C 173.693 127.570,173.775 127.885,173.876 127.500 C 173.976 127.115,173.976 126.485,173.876 126.100 C 173.775 125.715,173.693 126.030,173.693 126.800 M174.093 130.000 C 174.093 130.770,174.175 131.085,174.276 130.700 C 174.376 130.315,174.376 129.685,174.276 129.300 C 174.175 128.915,174.093 129.230,174.093 130.000 M202.468 134.000 C 202.488 135.039,203.118 136.746,203.132 135.800 C 203.138 135.360,202.989 134.640,202.800 134.200 C 202.589 133.710,202.461 133.632,202.468 134.000 M178.749 150.500 C 179.171 151.038,179.820 151.183,181.549 151.126 L 183.800 151.052 181.612 150.902 C 180.409 150.820,179.149 150.538,178.812 150.276 C 178.276 149.859,178.268 149.887,178.749 150.500 M184.900 151.476 C 185.285 151.576,185.915 151.576,186.300 151.476 C 186.685 151.375,186.370 151.293,185.600 151.293 C 184.830 151.293,184.515 151.375,184.900 151.476 M164.600 159.237 C 99.906 165.924,56.031 229.055,72.193 292.200 C 73.105 295.765,76.086 304.925,76.520 305.500 C 76.811 305.884,80.356 306.000,91.849 306.000 C 109.197 306.000,107.852 306.473,105.234 301.296 C 102.489 295.868,100.706 291.117,98.819 284.200 C 95.661 272.622,96.127 256.064,99.989 242.600 C 102.094 235.265,107.808 223.933,112.111 218.563 C 122.282 205.869,127.931 201.456,131.322 203.552 C 133.035 204.611,134.010 204.623,135.108 203.600 C 135.580 203.160,136.109 202.800,136.283 202.800 C 137.482 202.798,138.837 200.805,138.578 199.426 C 137.765 195.090,141.912 192.877,145.231 195.876 C 146.632 197.141,146.974 197.284,147.627 196.876 C 148.046 196.614,148.662 196.400,148.995 196.400 C 149.328 196.400,149.600 196.220,149.600 196.000 C 149.600 195.780,150.074 195.600,150.653 195.600 C 152.023 195.600,153.200 194.213,153.200 192.597 C 153.200 189.802,155.481 188.771,164.765 187.369 C 183.008 184.613,207.732 190.548,220.555 200.761 C 221.410 201.443,222.222 202.000,222.359 202.000 C 222.496 202.000,223.056 202.412,223.604 202.914 C 224.152 203.417,225.050 204.141,225.600 204.521 C 227.265 205.674,234.354 212.816,236.795 215.800 C 245.440 226.368,250.410 237.498,253.673 253.600 C 254.341 256.896,254.379 274.510,253.725 277.400 C 253.476 278.500,253.053 280.480,252.785 281.800 C 251.525 288.010,250.271 291.750,247.059 298.879 C 237.513 320.064,217.321 336.547,193.800 342.355 C 186.655 344.119,182.452 344.400,163.183 344.400 C 153.146 344.400,144.820 344.513,144.681 344.652 C 144.460 344.873,148.509 348.299,152.420 351.200 C 153.162 351.750,154.929 353.174,156.347 354.364 C 157.765 355.554,158.797 356.319,158.639 356.064 C 158.430 355.726,159.308 355.599,161.876 355.595 C 166.645 355.588,177.107 354.574,183.000 353.547 C 240.624 343.505,274.877 288.858,257.206 235.159 C 251.697 218.416,239.437 202.270,224.400 191.951 C 219.369 188.499,214.927 186.048,208.115 182.967 C 188.354 174.031,159.422 173.790,140.159 182.402 C 123.324 189.929,111.523 199.511,100.999 214.200 C 99.738 215.960,98.608 217.670,98.488 218.000 C 98.368 218.330,97.959 219.050,97.580 219.600 C 95.172 223.090,91.116 232.418,89.187 238.904 C 88.041 242.757,87.630 244.559,86.341 251.400 C 85.180 257.562,85.709 275.373,87.227 281.249 C 88.286 285.347,88.190 287.472,86.885 288.776 C 84.590 291.071,80.905 289.805,80.284 286.507 C 78.749 278.353,78.313 275.257,77.948 269.926 C 75.767 238.022,89.222 208.905,116.095 187.373 C 121.015 183.431,131.447 177.537,138.400 174.771 C 144.952 172.165,149.113 171.002,158.200 169.235 C 165.219 167.871,181.145 167.845,188.000 169.187 C 188.990 169.381,190.970 169.757,192.400 170.023 C 193.830 170.290,195.990 170.769,197.200 171.088 C 198.410 171.408,199.940 171.812,200.600 171.986 C 218.483 176.713,236.433 189.059,250.272 206.151 C 256.798 214.212,264.108 229.475,266.772 240.600 C 267.035 241.700,267.410 243.230,267.605 244.000 C 269.848 252.871,270.189 269.096,268.357 279.800 C 267.458 285.057,265.007 294.192,263.635 297.400 C 263.447 297.840,262.784 299.460,262.161 301.000 C 246.895 338.755,207.538 363.205,162.038 363.201 L 156.276 363.200 157.038 362.300 C 157.793 361.408,157.793 361.406,157.000 362.025 C 149.389 367.973,144.800 371.752,144.800 372.073 C 144.800 372.618,193.686 372.271,195.600 371.712 C 196.370 371.487,198.260 371.083,199.800 370.814 C 202.751 370.298,203.199 370.179,208.030 368.626 C 214.713 366.479,220.721 363.703,227.863 359.464 C 231.649 357.216,234.218 355.407,241.566 349.813 C 243.102 348.643,246.612 345.396,250.006 342.004 C 305.377 286.666,286.594 194.860,213.993 165.990 C 199.788 160.341,180.041 157.641,164.600 159.237 M195.392 245.700 L 191.400 249.800 195.500 245.808 C 197.755 243.612,199.600 241.767,199.600 241.708 C 199.600 241.418,199.101 241.892,195.392 245.700 M189.200 251.800 C 188.228 252.790,187.523 253.600,187.633 253.600 C 187.743 253.600,188.628 252.790,189.600 251.800 C 190.572 250.810,191.277 250.000,191.167 250.000 C 191.057 250.000,190.172 250.810,189.200 251.800 M178.600 262.400 C 175.306 265.700,172.700 268.400,172.810 268.400 C 172.920 268.400,175.706 265.700,179.000 262.400 C 182.294 259.100,184.900 256.400,184.790 256.400 C 184.680 256.400,181.894 259.100,178.600 262.400 M142.505 259.487 C 143.114 259.579,144.014 259.577,144.505 259.482 C 144.997 259.387,144.500 259.311,143.400 259.314 C 142.300 259.317,141.897 259.395,142.505 259.487 M154.800 267.800 C 158.645 271.650,161.881 274.800,161.991 274.800 C 162.101 274.800,159.045 271.650,155.200 267.800 C 151.355 263.950,148.119 260.800,148.009 260.800 C 147.899 260.800,150.955 263.950,154.800 267.800 M135.714 267.000 C 135.717 268.100,135.795 268.503,135.887 267.895 C 135.979 267.286,135.977 266.386,135.882 265.895 C 135.787 265.403,135.711 265.900,135.714 267.000 M170.400 270.600 C 169.428 271.590,168.723 272.400,168.833 272.400 C 168.943 272.400,169.828 271.590,170.800 270.600 C 171.772 269.610,172.477 268.800,172.367 268.800 C 172.257 268.800,171.372 269.610,170.400 270.600 M166.894 274.012 C 166.175 274.665,165.737 275.200,165.919 275.200 C 166.101 275.200,166.768 274.660,167.400 274.000 C 168.870 272.465,168.586 272.472,166.894 274.012 M163.505 296.283 C 164.002 296.379,164.722 296.375,165.105 296.275 C 165.487 296.175,165.080 296.096,164.200 296.101 C 163.320 296.105,163.007 296.187,163.505 296.283 M335.596 331.286 C 335.590 340.791,335.433 342.058,334.094 343.397 L 333.091 344.400 324.234 344.400 C 314.196 344.400,314.072 344.367,312.780 341.353 L 312.028 339.600 308.847 339.600 L 305.665 339.600 304.779 341.560 C 302.979 345.543,299.059 345.444,297.143 341.368 L 296.312 339.600 293.200 339.600 L 290.088 339.600 289.257 341.368 C 287.783 344.504,288.346 344.400,272.878 344.400 L 259.133 344.400 254.267 348.967 C 244.396 358.229,235.035 365.065,225.741 369.800 C 224.013 370.680,222.515 371.455,222.412 371.522 C 222.308 371.589,222.488 371.811,222.812 372.016 C 223.677 372.563,382.400 372.526,382.400 371.979 C 382.400 371.561,379.989 368.967,369.591 358.201 C 358.392 346.605,339.431 326.731,338.267 325.368 C 335.590 322.234,335.601 322.211,335.596 331.286 M106.628 344.755 C 106.507 344.950,106.722 345.355,107.104 345.655 C 107.733 346.147,107.747 346.133,107.256 345.506 C 106.742 344.851,107.406 344.805,119.056 344.700 L 131.400 344.588 119.124 344.494 C 112.301 344.442,106.750 344.558,106.628 344.755 M341.144 354.649 C 344.919 355.404,345.564 360.195,342.126 361.953 C 341.505 362.271,332.230 362.400,310.000 362.400 C 287.770 362.400,278.495 362.271,277.874 361.953 C 274.511 360.234,274.945 355.928,278.600 354.740 C 279.628 354.406,339.492 354.318,341.144 354.649 M106.806 371.700 C 106.800 372.354,107.615 372.394,119.100 372.306 L 131.400 372.212 119.420 372.100 C 110.453 372.016,107.361 371.864,107.126 371.494 C 106.905 371.147,106.810 371.208,106.806 371.700 " stroke="none" fill="#f85d3b" fill-rule="evenodd"></path><path id="path2" d="M258.000 28.379 C 232.018 30.765,210.330 42.658,193.060 63.989 C 189.145 68.825,183.234 79.265,180.485 86.200 C 172.484 106.384,171.564 126.064,177.652 146.800 C 178.804 150.725,178.710 150.641,182.300 150.938 C 192.105 151.748,199.728 153.062,207.151 155.223 C 210.854 156.301,212.506 156.479,211.388 155.678 C 210.255 154.867,205.659 145.272,204.260 140.800 C 200.920 130.122,200.592 115.601,203.446 104.800 C 212.965 68.774,247.905 48.083,283.200 57.570 C 283.970 57.777,285.050 58.063,285.600 58.206 C 286.150 58.350,286.960 58.614,287.400 58.793 C 287.840 58.972,288.830 59.341,289.600 59.613 C 311.391 67.294,328.596 89.340,331.175 112.884 C 332.310 123.252,331.700 124.471,325.247 124.730 C 323.021 124.820,321.200 125.060,321.200 125.264 C 321.200 125.576,325.497 132.161,326.509 133.400 C 326.688 133.620,330.922 139.911,335.918 147.381 C 340.913 154.850,345.180 161.011,345.400 161.072 C 345.620 161.133,348.500 157.121,351.800 152.157 C 355.100 147.193,358.070 142.729,358.400 142.237 C 358.730 141.744,361.385 137.790,364.300 133.449 C 367.215 129.108,369.600 125.407,369.600 125.225 C 369.600 125.042,367.779 124.820,365.553 124.730 C 360.206 124.516,359.200 123.636,359.200 119.170 C 359.200 111.621,357.475 101.243,354.778 92.574 C 350.767 79.678,344.116 68.189,334.645 57.800 C 333.598 56.652,332.798 55.374,332.767 54.800 C 332.666 52.975,332.870 51.865,333.475 50.941 C 334.048 50.067,333.982 49.937,331.975 48.013 C 329.629 45.764,329.069 45.632,327.016 46.843 C 323.377 48.990,319.757 45.542,321.267 41.366 C 321.776 39.958,321.127 38.800,319.829 38.800 C 319.483 38.800,319.200 38.620,319.200 38.400 C 319.200 38.180,318.930 38.000,318.600 38.000 C 318.270 38.000,318.000 37.820,318.000 37.600 C 318.000 37.380,317.745 37.200,317.433 37.200 C 317.122 37.200,316.775 36.975,316.664 36.700 C 316.525 36.359,316.356 36.334,316.130 36.621 C 314.310 38.942,311.693 39.677,309.512 38.480 C 301.822 34.262,290.599 30.697,279.106 28.822 C 275.625 28.254,262.387 27.976,258.000 28.379 M277.961 34.776 C 278.973 34.964,281.060 35.338,282.600 35.606 C 284.140 35.875,286.390 36.359,287.600 36.682 C 288.810 37.005,290.340 37.412,291.000 37.586 C 319.480 45.113,344.216 71.329,350.834 101.000 C 353.103 111.170,352.831 114.290,349.614 114.997 C 346.533 115.674,345.217 113.965,344.383 108.200 C 340.576 81.890,320.902 56.956,296.600 47.642 C 295.280 47.136,293.840 46.573,293.400 46.391 C 267.802 35.785,232.918 43.303,211.553 64.032 C 207.772 67.699,200.000 77.183,200.000 78.129 C 200.000 78.256,199.487 79.134,198.859 80.080 C 188.998 94.947,185.240 117.565,189.381 137.126 C 190.489 142.362,189.979 144.388,187.389 145.039 C 184.584 145.743,183.193 144.290,182.086 139.500 C 174.770 107.842,186.485 74.108,212.000 53.355 C 229.840 38.846,257.673 31.006,277.961 34.776 M350.955 123.583 C 353.912 124.707,354.290 135.393,351.453 137.691 C 349.392 139.361,346.219 138.112,345.585 135.380 C 343.776 127.576,346.384 121.845,350.955 123.583 M202.800 239.258 C 202.030 239.698,193.479 247.966,183.798 257.629 L 166.197 275.200 164.222 275.200 L 162.248 275.200 154.824 267.899 C 146.340 259.556,146.402 259.600,143.285 259.600 C 138.899 259.600,135.999 262.569,136.001 267.054 C 136.004 270.370,136.117 270.512,149.161 283.554 C 162.107 296.497,161.488 296.000,164.647 296.000 L 166.947 296.000 189.662 273.300 C 215.483 247.495,215.222 247.823,213.415 243.497 C 211.547 239.028,206.633 237.065,202.800 239.258 M107.434 345.513 C 107.892 345.891,108.866 346.650,109.597 347.200 C 110.328 347.750,113.013 349.864,115.563 351.899 L 120.200 355.598 132.600 355.598 L 145.000 355.599 143.912 354.700 C 143.313 354.205,141.080 352.450,138.950 350.800 C 136.820 349.150,134.253 347.125,133.246 346.300 L 131.415 344.800 119.007 344.813 C 107.224 344.826,106.642 344.861,107.434 345.513 M112.458 367.300 C 109.586 369.555,107.228 371.535,107.218 371.700 C 107.208 371.865,112.645 371.995,119.300 371.989 L 131.400 371.977 136.117 368.226 C 138.711 366.163,141.231 364.198,141.717 363.859 C 142.521 363.297,141.484 363.240,130.140 363.221 L 117.679 363.200 112.458 367.300 " stroke="none" fill="#f3c427" fill-rule="evenodd"></path><path id="path3" d="M258.800 34.400 C 219.990 37.881,187.755 67.461,181.209 105.600 C 179.898 113.237,179.690 127.292,180.796 133.400 C 182.668 143.736,183.902 145.914,187.389 145.039 C 189.979 144.388,190.489 142.362,189.381 137.126 C 185.240 117.565,188.998 94.947,198.859 80.080 C 199.487 79.134,200.000 78.256,200.000 78.129 C 200.000 77.183,207.772 67.699,211.553 64.032 C 232.918 43.303,267.802 35.785,293.400 46.391 C 293.840 46.573,295.280 47.136,296.600 47.642 C 320.902 56.956,340.576 81.890,344.383 108.200 C 345.217 113.965,346.533 115.674,349.614 114.997 C 352.831 114.290,353.103 111.170,350.834 101.000 C 344.216 71.329,319.480 45.113,291.000 37.586 C 290.340 37.412,288.810 37.005,287.600 36.682 C 286.390 36.359,284.140 35.875,282.600 35.606 C 281.060 35.338,278.973 34.964,277.961 34.776 C 275.152 34.254,263.071 34.017,258.800 34.400 M347.092 123.908 C 344.568 125.472,344.407 135.772,346.876 137.671 C 350.478 140.443,353.200 137.488,353.200 130.806 C 353.200 124.003,350.981 121.497,347.092 123.908 M163.400 168.624 C 147.905 170.265,133.746 175.398,120.954 184.013 C 116.315 187.137,116.748 186.809,111.800 190.923 C 88.809 210.037,75.912 240.137,77.948 269.926 C 78.313 275.257,78.749 278.353,80.284 286.507 C 80.905 289.805,84.590 291.071,86.885 288.776 C 88.190 287.472,88.286 285.347,87.227 281.249 C 85.709 275.373,85.180 257.562,86.341 251.400 C 87.630 244.559,88.041 242.757,89.187 238.904 C 91.116 232.418,95.172 223.090,97.580 219.600 C 97.959 219.050,98.368 218.330,98.488 218.000 C 98.608 217.670,99.738 215.960,100.999 214.200 C 111.523 199.511,123.324 189.929,140.159 182.402 C 159.422 173.790,188.354 174.031,208.115 182.967 C 218.470 187.651,224.750 191.604,232.600 198.381 C 243.350 207.661,252.811 221.802,257.206 235.159 C 274.877 288.858,240.624 343.505,183.000 353.547 C 177.116 354.573,166.647 355.588,161.895 355.595 L 158.389 355.600 158.980 357.013 C 159.701 358.740,159.314 360.017,157.497 361.900 L 156.243 363.200 162.022 363.201 C 207.539 363.205,246.892 338.761,262.161 301.000 C 262.784 299.460,263.447 297.840,263.635 297.400 C 265.007 294.192,267.458 285.057,268.357 279.800 C 270.189 269.096,269.848 252.871,267.605 244.000 C 267.410 243.230,267.035 241.700,266.772 240.600 C 264.108 229.475,256.798 214.212,250.272 206.151 C 236.409 189.028,218.934 177.005,200.600 171.974 C 196.532 170.858,193.193 170.125,188.000 169.208 C 181.536 168.066,171.024 167.817,163.400 168.624 M278.600 354.740 C 274.945 355.928,274.511 360.234,277.874 361.953 C 278.495 362.271,287.770 362.400,310.000 362.400 C 332.230 362.400,341.505 362.271,342.126 361.953 C 345.564 360.195,344.919 355.404,341.144 354.649 C 339.492 354.318,279.628 354.406,278.600 354.740 M77.120 356.080 C 78.229 357.189,77.700 360.265,76.139 361.781 L 74.677 363.200 89.377 363.200 C 105.684 363.200,104.360 363.396,107.636 360.498 C 108.206 359.994,109.006 359.338,109.413 359.040 C 110.254 358.425,110.047 358.110,107.738 356.487 C 106.242 355.435,76.074 355.034,77.120 356.080 M120.400 355.976 C 120.400 356.183,120.580 356.464,120.800 356.600 C 121.893 357.275,121.217 359.985,119.552 361.600 L 117.904 363.200 130.194 363.200 C 142.351 363.200,142.496 363.190,143.571 362.300 C 144.169 361.805,145.258 360.950,145.992 360.400 C 148.594 358.450,148.592 358.463,146.709 356.966 L 145.000 355.608 132.700 355.604 C 125.278 355.602,120.400 355.749,120.400 355.976 " stroke="none" fill="#f9d4bc" fill-rule="evenodd"></path><path id="path4" d="M63.052 344.716 C 62.945 344.889,65.395 347.004,68.498 349.416 C 80.143 358.467,80.136 358.305,69.199 366.796 C 68.209 367.564,67.051 368.510,66.624 368.897 C 66.197 369.284,65.255 370.006,64.530 370.500 C 61.750 372.398,61.765 372.400,77.986 372.400 L 93.147 372.400 95.532 370.500 C 99.438 367.389,107.578 361.067,108.917 360.105 C 110.961 358.636,110.965 358.254,108.951 356.808 C 107.949 356.088,103.995 353.002,100.165 349.949 L 93.201 344.400 78.224 344.400 C 69.987 344.400,63.159 344.542,63.052 344.716 M12.490 345.271 C 12.577 345.531,12.982 345.936,13.390 346.171 C 13.798 346.407,14.844 347.275,15.714 348.100 C 16.584 348.925,17.473 349.600,17.688 349.600 C 17.903 349.600,18.583 350.140,19.200 350.800 C 19.817 351.460,20.518 352.000,20.760 352.000 C 21.001 352.000,21.963 352.720,22.897 353.600 C 23.831 354.480,24.807 355.200,25.064 355.200 C 25.322 355.200,25.593 355.335,25.667 355.500 C 25.740 355.665,26.464 356.370,27.276 357.067 C 28.714 358.301,28.528 359.994,26.953 360.002 C 26.759 360.003,25.708 360.813,24.617 361.802 C 23.526 362.791,22.491 363.600,22.317 363.600 C 22.143 363.600,21.259 364.320,20.352 365.200 C 19.445 366.080,18.527 366.800,18.312 366.800 C 18.097 366.800,17.417 367.340,16.800 368.000 C 16.183 368.660,15.526 369.206,15.340 369.213 C 14.685 369.237,12.756 371.206,13.000 371.601 C 13.159 371.857,19.811 372.000,31.576 372.000 L 49.905 372.000 55.154 367.900 C 58.041 365.645,61.834 362.738,63.582 361.439 C 67.766 358.332,67.764 358.461,63.682 355.519 C 61.767 354.139,59.930 352.788,59.600 352.517 C 59.270 352.245,56.930 350.399,54.400 348.415 L 49.800 344.807 31.067 344.804 C 16.862 344.801,12.371 344.914,12.490 345.271 M144.400 354.925 C 144.400 355.024,145.061 355.609,145.868 356.225 C 146.676 356.841,147.211 357.141,147.056 356.891 C 146.740 356.379,144.400 354.647,144.400 354.925 M107.738 356.487 C 110.047 358.110,110.254 358.425,109.413 359.040 C 109.006 359.338,108.206 359.994,107.636 360.498 C 104.360 363.396,105.684 363.200,89.377 363.200 L 74.677 363.200 76.139 361.781 C 77.700 360.265,78.229 357.189,77.120 356.080 C 76.074 355.034,106.242 355.435,107.738 356.487 M120.378 356.674 C 120.976 357.913,120.901 359.278,120.177 360.311 C 119.835 360.800,119.716 361.200,119.913 361.200 C 121.044 361.200,121.537 357.774,120.578 356.576 C 119.977 355.826,119.970 355.830,120.378 356.674 M158.893 358.400 C 158.893 359.170,158.975 359.485,159.076 359.100 C 159.176 358.715,159.176 358.085,159.076 357.700 C 158.975 357.315,158.893 357.630,158.893 358.400 " stroke="none" fill="#43c6a4" fill-rule="evenodd"></path></g></svg>