<svg id="svg" version="1.1" xmlns="http://www.w3.org/2000/svg" xmlns:xlink="http://www.w3.org/1999/xlink" width="400" height="400" viewBox="0, 0, 400,400"><g id="svgg"><path id="path0" d="M192.600 48.472 C 186.936 49.879,184.335 50.585,182.373 51.248 C 181.149 51.661,179.764 52.000,179.297 52.000 C 178.830 52.000,178.336 52.180,178.200 52.400 C 178.064 52.620,177.524 52.800,177.000 52.800 C 176.476 52.800,175.936 52.980,175.800 53.200 C 175.664 53.420,175.034 53.600,174.400 53.600 C 173.766 53.600,173.136 53.780,173.000 54.000 C 172.864 54.220,172.234 54.400,171.600 54.400 C 170.966 54.400,170.336 54.580,170.200 54.800 C 170.064 55.020,169.434 55.200,168.800 55.200 C 168.166 55.200,167.536 55.380,167.400 55.600 C 167.264 55.820,166.724 56.000,166.200 56.000 C 165.676 56.000,165.136 56.180,165.000 56.400 C 164.864 56.620,164.311 56.800,163.771 56.800 C 163.231 56.800,162.477 56.962,162.095 57.161 C 161.713 57.360,160.590 57.737,159.600 58.000 C 158.610 58.263,157.487 58.640,157.105 58.839 C 156.723 59.038,156.059 59.200,155.629 59.200 C 155.199 59.200,154.736 59.380,154.600 59.600 C 154.464 59.820,153.982 60.000,153.529 60.000 C 152.675 60.000,147.926 61.424,146.705 62.046 C 146.323 62.241,145.745 62.400,145.419 62.400 C 145.094 62.400,144.057 62.649,143.114 62.953 C 142.171 63.258,138.970 64.267,136.000 65.195 C 133.030 66.124,130.240 67.025,129.800 67.196 C 129.360 67.368,128.190 67.727,127.200 67.993 C 126.210 68.260,125.087 68.640,124.705 68.839 C 124.323 69.038,123.659 69.200,123.229 69.200 C 122.799 69.200,122.336 69.380,122.200 69.600 C 122.064 69.820,121.511 70.000,120.971 70.000 C 120.431 70.000,119.632 70.180,119.195 70.400 C 118.758 70.620,118.042 70.980,117.605 71.200 C 117.168 71.420,116.459 71.600,116.029 71.600 C 115.599 71.600,115.136 71.780,115.000 72.000 C 114.864 72.220,114.324 72.400,113.800 72.400 C 113.276 72.400,112.736 72.580,112.600 72.800 C 112.464 73.020,111.924 73.200,111.400 73.200 C 110.876 73.200,110.336 73.380,110.200 73.600 C 110.064 73.820,109.524 74.000,109.000 74.000 C 108.476 74.000,107.936 74.180,107.800 74.400 C 107.664 74.620,107.124 74.800,106.600 74.800 C 106.076 74.800,105.536 74.980,105.400 75.200 C 105.264 75.420,104.724 75.600,104.200 75.600 C 103.676 75.600,103.136 75.780,103.000 76.000 C 102.864 76.220,102.324 76.400,101.800 76.400 C 101.276 76.400,100.736 76.580,100.600 76.800 C 100.464 77.020,99.924 77.200,99.400 77.200 C 98.876 77.200,98.336 77.380,98.200 77.600 C 98.064 77.820,97.543 78.000,97.043 78.000 C 96.543 78.000,96.032 78.102,95.907 78.226 C 95.783 78.350,92.468 79.527,88.541 80.840 C 84.613 82.154,81.040 83.392,80.600 83.593 C 80.160 83.793,78.090 84.516,76.000 85.200 C 72.280 86.417,70.904 86.935,69.505 87.647 C 69.123 87.841,68.536 88.000,68.200 88.000 C 67.864 88.000,67.187 88.208,66.695 88.462 C 64.738 89.474,64.374 89.600,63.405 89.600 C 62.852 89.600,62.400 89.780,62.400 90.000 C 62.400 90.220,62.051 90.400,61.624 90.400 C 61.197 90.400,60.736 90.580,60.600 90.800 C 60.464 91.020,59.913 91.200,59.376 91.200 C 58.839 91.200,58.400 91.380,58.400 91.600 C 58.400 91.820,57.961 92.000,57.424 92.000 C 56.887 92.000,56.336 92.180,56.200 92.400 C 56.064 92.620,55.513 92.800,54.976 92.800 C 54.439 92.800,54.000 92.980,54.000 93.200 C 54.000 93.420,53.638 93.600,53.196 93.600 C 52.479 93.600,49.810 94.626,47.905 95.633 C 47.523 95.835,46.983 95.999,46.705 95.999 C 46.267 95.998,40.092 98.220,37.800 99.204 C 37.360 99.393,36.280 99.776,35.400 100.055 C 34.520 100.335,33.629 100.707,33.420 100.882 C 33.211 101.057,32.804 101.200,32.516 101.200 C 32.227 101.200,31.138 101.578,30.096 102.040 C 29.053 102.502,27.840 103.018,27.400 103.186 C 26.960 103.355,26.105 103.697,25.500 103.946 C 24.895 104.196,23.950 104.580,23.400 104.800 C 20.953 105.779,20.155 106.116,19.505 106.447 C 19.123 106.641,18.448 106.800,18.005 106.800 C 17.562 106.800,17.200 106.980,17.200 107.200 C 17.200 107.420,16.885 107.606,16.500 107.613 C 15.164 107.637,13.958 109.249,11.777 113.928 C 8.062 121.898,12.220 132.967,20.400 136.888 C 24.358 138.785,45.407 146.858,55.800 150.464 C 56.460 150.693,57.360 151.024,57.800 151.200 C 58.240 151.376,59.230 151.736,60.000 152.000 C 61.444 152.496,62.542 152.920,64.100 153.583 C 64.595 153.794,66.350 154.414,68.000 154.961 C 69.650 155.508,74.690 157.243,79.200 158.816 C 83.710 160.389,92.800 163.464,99.400 165.650 C 106.000 167.836,111.760 169.785,112.200 169.981 C 112.640 170.177,116.510 171.452,120.800 172.814 C 125.090 174.176,131.570 176.251,135.200 177.426 C 138.830 178.600,143.870 180.185,146.400 180.947 C 148.930 181.710,151.810 182.594,152.800 182.913 C 153.790 183.232,156.490 184.077,158.800 184.790 C 161.110 185.504,163.810 186.359,164.800 186.691 C 165.790 187.023,167.140 187.439,167.800 187.615 C 169.200 187.987,174.282 189.504,183.800 192.390 C 191.420 194.700,197.414 196.464,204.800 198.570 C 207.550 199.354,210.880 200.340,212.200 200.761 C 215.910 201.945,217.025 202.089,218.674 201.596 C 220.957 200.913,224.174 199.986,226.800 199.255 C 227.570 199.041,230.090 198.296,232.400 197.600 C 234.710 196.904,237.140 196.184,237.800 196.001 C 239.447 195.544,252.505 191.536,257.400 189.986 C 259.600 189.289,261.940 188.579,262.600 188.408 C 263.260 188.237,265.690 187.471,268.000 186.705 C 270.310 185.939,276.295 183.983,281.300 182.359 C 290.392 179.408,290.400 179.404,290.400 178.247 C 290.400 177.023,289.470 176.034,288.300 176.013 C 287.915 176.006,287.600 175.820,287.600 175.600 C 287.600 175.380,287.355 175.200,287.056 175.200 C 286.757 175.200,285.452 174.670,284.156 174.022 C 281.873 172.880,276.414 170.284,269.000 166.812 C 267.020 165.885,263.150 164.044,260.400 162.720 C 257.650 161.396,253.600 159.447,251.400 158.387 C 244.744 155.182,238.349 152.148,235.564 150.874 C 233.134 149.762,230.195 148.357,217.000 141.998 C 214.360 140.725,211.030 139.141,209.600 138.476 C 196.069 132.187,195.337 131.759,194.190 129.459 C 192.463 125.998,194.931 121.254,198.798 120.600 C 200.969 120.234,201.758 120.494,208.603 123.839 C 210.585 124.808,212.430 125.600,212.703 125.600 C 212.976 125.600,213.200 125.780,213.200 126.000 C 213.200 126.220,213.560 126.400,214.000 126.400 C 214.440 126.400,214.800 126.580,214.800 126.800 C 214.800 127.020,215.027 127.200,215.304 127.200 C 215.582 127.200,217.517 128.032,219.604 129.049 C 223.187 130.795,225.659 131.970,234.200 135.985 C 237.664 137.613,240.797 139.113,251.600 144.313 C 256.863 146.846,263.113 149.812,267.800 152.002 C 269.340 152.721,273.030 154.471,276.000 155.891 C 300.086 167.401,301.283 168.023,302.300 169.559 L 303.200 170.918 303.206 212.959 C 303.209 236.082,303.366 255.242,303.553 255.538 C 303.826 255.969,304.452 255.831,306.714 254.838 C 308.265 254.157,309.741 253.600,309.995 253.600 C 311.528 253.600,316.001 249.538,317.043 247.200 C 317.386 246.430,317.832 245.487,318.034 245.105 C 318.246 244.703,318.400 232.098,318.400 215.159 L 318.400 185.907 317.500 186.120 C 317.005 186.237,314.980 186.899,313.000 187.591 C 311.020 188.283,308.095 189.269,306.500 189.782 L 303.600 190.715 303.600 182.806 L 303.600 174.897 305.100 174.489 C 306.524 174.102,311.685 172.316,313.400 171.617 C 314.580 171.137,317.177 170.471,319.000 170.182 C 319.880 170.043,320.780 169.798,321.000 169.639 C 321.220 169.479,322.750 168.923,324.400 168.402 C 326.050 167.882,327.571 167.308,327.780 167.128 C 327.989 166.948,328.574 166.800,329.080 166.800 C 329.586 166.800,330.000 166.620,330.000 166.400 C 330.000 166.180,330.362 166.000,330.805 166.000 C 331.248 166.000,331.968 165.820,332.405 165.600 C 332.842 165.380,333.558 165.020,333.995 164.800 C 334.432 164.580,335.064 164.400,335.400 164.400 C 335.736 164.400,336.368 164.220,336.805 164.000 C 337.242 163.780,337.958 163.420,338.395 163.200 C 338.832 162.980,339.541 162.800,339.971 162.800 C 340.401 162.800,340.864 162.620,341.000 162.400 C 341.136 162.180,341.687 162.000,342.224 162.000 C 342.761 162.000,343.200 161.820,343.200 161.600 C 343.200 161.380,343.562 161.200,344.005 161.200 C 344.448 161.200,345.168 161.020,345.605 160.800 C 346.042 160.580,346.758 160.220,347.195 160.000 C 347.632 159.780,348.352 159.600,348.795 159.600 C 349.238 159.600,349.600 159.420,349.600 159.200 C 349.600 158.980,349.962 158.800,350.405 158.800 C 350.848 158.800,351.523 158.641,351.905 158.447 C 353.224 157.776,354.612 157.233,358.000 156.060 C 361.452 154.866,364.351 153.799,365.800 153.189 C 366.240 153.004,367.320 152.624,368.200 152.345 C 369.080 152.065,369.971 151.693,370.180 151.518 C 370.389 151.343,370.884 151.200,371.280 151.200 C 371.676 151.200,372.000 151.053,372.000 150.872 C 372.000 150.692,372.911 150.296,374.025 149.993 C 375.139 149.690,376.140 149.297,376.249 149.121 C 376.358 148.944,376.797 148.800,377.224 148.800 C 377.651 148.800,378.000 148.620,378.000 148.400 C 378.000 148.180,378.362 148.000,378.805 148.000 C 379.248 148.000,379.923 147.841,380.305 147.647 C 380.687 147.452,381.540 147.071,382.200 146.800 C 382.860 146.529,383.713 146.148,384.095 145.953 C 384.477 145.759,385.062 145.600,385.395 145.600 C 385.728 145.600,386.000 145.420,386.000 145.200 C 386.000 144.980,386.342 144.800,386.759 144.800 C 389.248 144.800,395.108 140.633,397.482 137.176 C 399.935 133.603,401.178 121.816,399.300 119.940 C 399.025 119.665,398.800 119.116,398.800 118.720 C 398.800 118.324,398.620 118.000,398.400 118.000 C 398.180 118.000,398.000 117.727,398.000 117.393 C 398.000 116.721,393.242 111.605,392.603 111.591 C 392.381 111.586,391.750 111.230,391.200 110.800 C 390.650 110.370,389.885 110.014,389.500 110.009 C 389.115 110.004,388.800 109.820,388.800 109.600 C 388.800 109.380,388.350 109.200,387.800 109.200 C 387.250 109.200,386.800 109.020,386.800 108.800 C 386.800 108.580,386.350 108.400,385.800 108.400 C 385.250 108.400,384.800 108.253,384.800 108.072 C 384.800 107.892,383.900 107.500,382.800 107.200 C 381.700 106.900,380.800 106.508,380.800 106.328 C 380.800 106.147,380.451 106.000,380.024 106.000 C 379.597 106.000,379.136 105.820,379.000 105.600 C 378.864 105.380,378.313 105.200,377.776 105.200 C 377.239 105.200,376.800 105.053,376.800 104.872 C 376.800 104.692,375.900 104.300,374.800 104.000 C 373.700 103.700,372.800 103.347,372.800 103.215 C 372.800 103.083,371.945 102.725,370.900 102.420 C 369.855 102.115,368.730 101.737,368.400 101.579 C 368.070 101.422,367.350 101.116,366.800 100.900 C 366.250 100.684,365.350 100.321,364.800 100.093 C 363.763 99.663,361.535 98.839,356.400 96.987 C 352.273 95.499,349.920 94.571,348.705 93.953 C 348.323 93.759,347.659 93.600,347.229 93.600 C 346.799 93.600,346.336 93.420,346.200 93.200 C 346.064 92.980,345.513 92.800,344.976 92.800 C 344.439 92.800,344.000 92.620,344.000 92.400 C 344.000 92.180,343.460 92.000,342.800 92.000 C 342.140 92.000,341.600 91.820,341.600 91.600 C 341.600 91.380,341.238 91.200,340.795 91.200 C 340.352 91.200,339.632 91.020,339.195 90.800 C 338.758 90.580,338.042 90.220,337.605 90.000 C 337.168 89.780,336.448 89.600,336.005 89.600 C 335.562 89.600,335.200 89.420,335.200 89.200 C 335.200 88.980,334.761 88.800,334.224 88.800 C 333.687 88.800,333.136 88.620,333.000 88.400 C 332.864 88.180,332.313 88.000,331.776 88.000 C 331.239 88.000,330.800 87.820,330.800 87.600 C 330.800 87.380,330.438 87.200,329.995 87.200 C 329.552 87.200,328.787 86.992,328.295 86.738 C 326.374 85.744,325.984 85.600,325.229 85.600 C 324.799 85.600,324.336 85.420,324.200 85.200 C 324.064 84.980,323.601 84.800,323.171 84.800 C 322.741 84.800,322.077 84.641,321.695 84.447 C 320.666 83.923,319.199 83.371,317.400 82.829 C 316.520 82.564,315.440 82.195,315.000 82.010 C 314.560 81.825,312.130 81.000,309.600 80.177 C 307.070 79.354,304.687 78.528,304.305 78.341 C 303.923 78.153,303.259 78.000,302.829 78.000 C 302.399 78.000,301.936 77.820,301.800 77.600 C 301.664 77.380,301.124 77.200,300.600 77.200 C 300.076 77.200,299.536 77.020,299.400 76.800 C 299.264 76.580,298.724 76.400,298.200 76.400 C 297.676 76.400,297.136 76.220,297.000 76.000 C 296.864 75.780,296.324 75.600,295.800 75.600 C 295.276 75.600,294.736 75.420,294.600 75.200 C 294.464 74.980,293.924 74.800,293.400 74.800 C 292.876 74.800,292.336 74.620,292.200 74.400 C 292.064 74.180,291.524 74.000,291.000 74.000 C 290.476 74.000,289.936 73.820,289.800 73.600 C 289.664 73.380,289.124 73.200,288.600 73.200 C 288.076 73.200,287.536 73.020,287.400 72.800 C 287.264 72.580,286.713 72.400,286.176 72.400 C 285.639 72.400,285.200 72.220,285.200 72.000 C 285.200 71.780,284.660 71.600,284.000 71.600 C 283.340 71.600,282.800 71.420,282.800 71.200 C 282.800 70.980,282.271 70.800,281.624 70.800 C 280.977 70.800,280.336 70.620,280.200 70.400 C 280.064 70.180,279.549 70.000,279.056 70.000 C 278.563 70.000,277.989 69.851,277.780 69.670 C 277.571 69.488,276.590 69.103,275.600 68.815 C 271.910 67.742,270.990 67.429,270.620 67.118 C 270.411 66.943,269.747 66.800,269.144 66.800 C 268.541 66.800,267.936 66.620,267.800 66.400 C 267.664 66.180,267.124 66.000,266.600 66.000 C 266.076 66.000,265.536 65.820,265.400 65.600 C 265.264 65.380,264.801 65.200,264.371 65.200 C 263.941 65.200,263.277 65.037,262.895 64.839 C 261.638 64.185,255.564 62.400,254.596 62.400 C 254.074 62.400,253.536 62.220,253.400 62.000 C 253.264 61.780,252.801 61.600,252.371 61.600 C 251.941 61.600,251.277 61.442,250.895 61.249 C 249.728 60.660,247.392 60.000,246.472 60.000 C 245.992 60.000,245.600 59.820,245.600 59.600 C 245.600 59.380,245.148 59.200,244.595 59.200 C 244.042 59.200,243.277 59.038,242.895 58.839 C 242.513 58.640,241.390 58.263,240.400 58.000 C 239.410 57.737,238.287 57.360,237.905 57.161 C 237.523 56.962,236.859 56.800,236.429 56.800 C 235.999 56.800,235.536 56.620,235.400 56.400 C 235.264 56.180,234.634 56.000,234.000 56.000 C 233.366 56.000,232.736 55.820,232.600 55.600 C 232.464 55.380,231.823 55.200,231.176 55.200 C 230.529 55.200,230.000 55.020,230.000 54.800 C 230.000 54.580,229.608 54.400,229.128 54.400 C 228.208 54.400,225.872 53.740,224.705 53.151 C 224.323 52.958,223.569 52.800,223.029 52.800 C 222.489 52.800,221.949 52.641,221.829 52.446 C 221.708 52.251,221.113 51.996,220.505 51.879 C 219.897 51.762,218.725 51.471,217.900 51.233 C 217.075 50.995,215.770 50.620,215.000 50.400 C 214.230 50.180,212.925 49.805,212.100 49.567 C 211.275 49.328,209.700 48.950,208.600 48.725 C 205.851 48.163,194.560 47.985,192.600 48.472 M285.000 196.895 C 282.360 197.776,279.840 198.643,279.400 198.822 C 278.960 199.001,277.970 199.338,277.200 199.571 C 276.430 199.805,273.550 200.718,270.800 201.600 C 268.050 202.482,265.260 203.370,264.600 203.572 C 263.471 203.919,261.008 204.678,246.800 209.059 C 239.906 211.185,236.373 212.248,234.200 212.850 C 233.320 213.093,232.150 213.438,231.600 213.615 C 230.399 214.003,226.473 215.174,222.496 216.330 C 220.899 216.795,218.379 217.533,216.896 217.971 C 211.993 219.419,208.229 220.320,206.000 220.578 C 204.790 220.719,203.125 220.932,202.300 221.052 L 200.800 221.270 200.800 255.635 C 200.800 285.895,200.872 290.005,201.400 290.044 C 202.968 290.161,203.513 290.132,205.000 289.853 C 205.880 289.688,207.590 289.220,208.800 288.813 C 210.010 288.406,211.990 287.843,213.200 287.562 C 214.410 287.280,215.580 286.927,215.800 286.776 C 216.020 286.626,217.190 286.267,218.400 285.979 C 219.610 285.690,220.771 285.307,220.980 285.127 C 221.189 284.947,221.864 284.800,222.480 284.800 C 223.096 284.800,223.600 284.620,223.600 284.400 C 223.600 284.180,223.992 284.000,224.472 284.000 C 225.392 284.000,227.728 283.340,228.895 282.751 C 229.277 282.558,229.941 282.400,230.371 282.400 C 230.801 282.400,231.264 282.220,231.400 282.000 C 231.536 281.780,232.177 281.600,232.824 281.600 C 233.471 281.600,234.000 281.440,234.000 281.245 C 234.000 280.910,234.376 280.794,237.500 280.169 C 238.215 280.026,238.800 279.750,238.800 279.555 C 238.800 279.360,239.329 279.200,239.976 279.200 C 240.623 279.200,241.264 279.020,241.400 278.800 C 241.536 278.580,242.076 278.400,242.600 278.400 C 243.124 278.400,243.664 278.220,243.800 278.000 C 243.936 277.780,244.476 277.600,245.000 277.600 C 245.524 277.600,246.064 277.420,246.200 277.200 C 246.336 276.980,246.876 276.800,247.400 276.800 C 247.924 276.800,248.464 276.620,248.600 276.400 C 248.736 276.180,249.287 276.000,249.824 276.000 C 250.361 276.000,250.800 275.820,250.800 275.600 C 250.800 275.380,251.329 275.200,251.976 275.200 C 252.623 275.200,253.264 275.020,253.400 274.800 C 253.536 274.580,253.999 274.400,254.429 274.400 C 254.859 274.400,255.523 274.241,255.905 274.047 C 257.103 273.437,258.457 272.955,263.400 271.378 C 266.040 270.535,268.380 269.738,268.600 269.606 C 268.820 269.475,269.720 269.137,270.600 268.857 C 272.277 268.323,273.726 267.748,274.895 267.153 C 275.277 266.959,275.952 266.800,276.395 266.800 C 276.838 266.800,277.200 266.620,277.200 266.400 C 277.200 266.180,277.562 266.000,278.005 266.000 C 278.448 266.000,279.168 265.820,279.605 265.600 C 280.042 265.380,280.758 265.020,281.195 264.800 C 281.632 264.580,282.352 264.400,282.795 264.400 C 283.238 264.400,283.600 264.220,283.600 264.000 C 283.600 263.780,284.039 263.600,284.576 263.600 C 285.113 263.600,285.664 263.420,285.800 263.200 C 285.936 262.980,286.397 262.800,286.824 262.800 C 287.251 262.800,287.600 262.620,287.600 262.400 C 287.600 262.180,288.014 262.000,288.520 262.000 C 289.026 262.000,289.656 261.784,289.920 261.520 C 290.465 260.975,290.643 195.163,290.100 195.246 C 289.935 195.272,287.640 196.013,285.000 196.895 " stroke="none" fill="#335b7b" fill-rule="evenodd"></path><path id="path1" d="M197.406 121.724 C 192.997 124.368,193.573 130.197,198.472 132.509 C 199.202 132.854,201.330 133.849,203.200 134.721 C 207.663 136.802,214.942 140.268,221.400 143.388 C 224.260 144.770,227.770 146.446,229.200 147.113 C 230.630 147.780,234.140 149.443,237.000 150.808 C 239.860 152.174,243.910 154.097,246.000 155.083 C 248.090 156.068,251.966 157.938,254.612 159.237 C 257.259 160.537,259.644 161.600,259.912 161.600 C 260.181 161.600,260.400 161.780,260.400 162.000 C 260.400 162.220,260.628 162.400,260.906 162.400 C 261.184 162.400,262.489 162.925,263.806 163.568 C 267.603 165.420,278.354 170.536,281.156 171.825 C 282.561 172.471,285.351 173.819,287.356 174.820 L 291.000 176.640 290.914 218.420 C 290.771 287.473,290.751 288.000,288.229 288.000 C 287.663 288.000,287.200 288.180,287.200 288.400 C 287.200 288.620,286.840 288.800,286.400 288.800 C 285.960 288.800,285.600 288.980,285.600 289.200 C 285.600 289.420,285.330 289.600,285.000 289.600 C 284.670 289.600,284.400 289.780,284.400 290.000 C 284.400 290.220,284.223 290.400,284.007 290.400 C 283.791 290.400,282.769 291.210,281.735 292.200 C 280.702 293.190,279.709 294.000,279.528 294.000 C 279.348 294.000,279.200 294.264,279.200 294.586 C 279.200 294.908,278.855 295.357,278.433 295.583 C 278.010 295.809,277.546 296.535,277.401 297.197 C 277.255 297.859,276.971 298.400,276.768 298.400 C 276.566 298.400,276.400 298.850,276.400 299.400 C 276.400 299.950,276.220 300.400,276.000 300.400 C 275.780 300.400,275.600 300.839,275.600 301.376 C 275.600 301.913,275.420 302.464,275.200 302.600 C 274.980 302.736,274.800 303.726,274.800 304.800 C 274.800 305.874,274.620 306.864,274.400 307.000 C 274.141 307.160,274.000 315.137,274.000 329.624 L 274.000 352.000 297.000 352.000 L 320.000 352.000 320.000 329.824 C 320.000 315.471,319.859 307.560,319.600 307.400 C 319.380 307.264,319.200 306.173,319.200 304.976 C 319.200 303.779,319.020 302.800,318.800 302.800 C 318.580 302.800,318.400 302.260,318.400 301.600 C 318.400 300.940,318.220 300.400,318.000 300.400 C 317.780 300.400,317.600 300.166,317.600 299.880 C 317.600 299.144,316.659 297.207,316.300 297.203 C 316.135 297.201,316.000 296.956,316.000 296.659 C 316.000 296.361,315.505 295.636,314.900 295.047 C 311.336 291.581,309.026 289.600,308.546 289.600 C 308.246 289.600,308.000 289.420,308.000 289.200 C 308.000 288.980,307.640 288.800,307.200 288.800 C 306.760 288.800,306.400 288.620,306.400 288.400 C 306.400 288.180,306.027 288.000,305.571 288.000 C 303.610 288.000,303.600 287.920,303.600 271.509 C 303.600 262.044,303.450 256.010,303.209 255.769 C 302.961 255.521,302.778 240.049,302.709 213.371 C 302.590 167.371,302.738 170.296,300.430 168.513 C 299.744 167.983,299.828 168.025,290.800 163.704 C 287.390 162.072,282.620 159.782,280.200 158.615 C 273.909 155.581,268.245 152.895,257.000 147.615 C 255.020 146.685,250.970 144.751,248.000 143.317 C 240.661 139.772,236.924 137.989,232.200 135.775 C 224.600 132.215,219.781 129.925,214.600 127.413 C 202.340 121.468,201.704 121.199,199.927 121.224 C 198.977 121.236,197.843 121.461,197.406 121.724 " stroke="none" fill="#f2de83" fill-rule="evenodd"></path><path id="path2" d="M192.000 48.400 C 192.000 48.869,192.307 48.869,193.400 48.400 C 194.109 48.095,194.075 48.053,193.100 48.028 C 192.495 48.013,192.000 48.180,192.000 48.400 M206.600 48.400 C 207.693 48.869,208.000 48.869,208.000 48.400 C 208.000 48.180,207.505 48.013,206.900 48.028 C 205.925 48.053,205.891 48.095,206.600 48.400 M150.400 60.288 C 149.850 60.387,149.229 60.632,149.020 60.834 C 148.811 61.035,148.237 61.200,147.744 61.200 C 147.251 61.200,146.736 61.380,146.600 61.600 C 146.464 61.820,145.958 62.003,145.476 62.006 C 144.994 62.009,144.330 62.195,144.000 62.418 C 143.318 62.880,145.204 62.583,146.600 62.009 C 147.040 61.828,148.435 61.375,149.700 61.003 C 151.593 60.445,152.863 59.843,151.700 60.054 C 151.535 60.084,150.950 60.190,150.400 60.288 M248.400 60.394 C 248.730 60.611,249.394 60.791,249.876 60.794 C 250.358 60.797,250.864 60.980,251.000 61.200 C 251.136 61.420,251.676 61.600,252.200 61.600 C 252.724 61.600,253.252 61.760,253.373 61.956 C 253.494 62.151,254.212 62.384,254.968 62.472 C 255.725 62.561,256.256 62.490,256.148 62.316 C 256.041 62.142,255.524 62.000,255.000 62.000 C 254.476 62.000,253.936 61.820,253.800 61.600 C 253.664 61.380,253.059 61.200,252.456 61.200 C 251.853 61.200,251.189 61.044,250.980 60.853 C 250.771 60.662,249.970 60.392,249.200 60.253 C 248.213 60.076,247.977 60.117,248.400 60.394 M141.200 63.200 C 141.200 63.701,141.624 63.701,142.400 63.200 C 142.885 62.886,142.828 62.811,142.100 62.806 C 141.605 62.803,141.200 62.980,141.200 63.200 M97.200 77.488 C 96.650 77.587,96.029 77.832,95.820 78.034 C 95.611 78.235,95.026 78.400,94.520 78.400 C 94.014 78.400,93.600 78.555,93.600 78.745 C 93.600 79.173,95.532 78.833,95.830 78.352 C 95.949 78.159,96.476 78.000,97.000 78.000 C 97.524 78.000,98.064 77.820,98.200 77.600 C 98.336 77.380,98.392 77.225,98.324 77.254 C 98.256 77.284,97.750 77.390,97.200 77.488 M301.774 77.557 C 301.924 77.801,302.476 78.000,303.000 78.000 C 303.524 78.000,304.051 78.159,304.171 78.354 C 304.292 78.549,304.938 78.788,305.608 78.886 C 307.720 79.197,306.260 78.505,302.450 77.392 C 301.802 77.202,301.587 77.255,301.774 77.557 M86.400 81.200 C 86.400 81.701,86.824 81.701,87.600 81.200 C 88.085 80.886,88.028 80.811,87.300 80.806 C 86.805 80.803,86.400 80.980,86.400 81.200 M50.800 93.861 C 49.984 94.130,48.350 94.817,47.505 95.247 C 47.123 95.441,46.549 95.600,46.229 95.600 C 45.909 95.600,45.546 95.763,45.423 95.963 C 45.186 96.346,46.455 96.156,47.800 95.607 C 51.066 94.274,53.047 93.120,50.800 93.861 M348.616 94.026 C 348.743 94.232,349.109 94.400,349.429 94.400 C 349.749 94.400,350.323 94.559,350.705 94.753 C 351.994 95.409,353.394 95.948,354.400 96.177 L 355.400 96.404 354.400 95.948 C 350.496 94.166,348.239 93.416,348.616 94.026 M38.800 98.400 C 38.800 98.901,39.224 98.901,40.000 98.400 C 40.485 98.086,40.428 98.011,39.700 98.006 C 39.205 98.003,38.800 98.180,38.800 98.400 M14.400 108.000 C 14.400 108.220,14.051 108.400,13.624 108.400 C 13.197 108.400,12.736 108.580,12.600 108.800 C 12.464 109.020,11.913 109.200,11.376 109.200 C 10.839 109.200,10.400 109.366,10.400 109.568 C 10.400 109.771,9.833 110.061,9.140 110.213 C 8.447 110.365,7.502 110.831,7.040 111.248 C 6.578 111.665,5.615 112.471,4.900 113.039 C 4.185 113.607,3.600 114.285,3.600 114.547 C 3.600 114.809,3.240 115.283,2.800 115.600 C 2.360 115.917,2.000 116.497,2.000 116.888 C 2.000 117.280,1.864 117.600,1.698 117.600 C 0.287 117.600,-0.684 134.240,0.700 134.700 C 0.975 134.792,1.200 135.212,1.200 135.633 C 1.200 136.055,1.380 136.400,1.600 136.400 C 1.820 136.400,2.000 136.652,2.000 136.959 C 2.000 137.267,2.887 138.392,3.971 139.459 C 6.596 142.045,7.057 142.400,7.783 142.400 C 8.122 142.400,8.400 142.580,8.400 142.800 C 8.400 143.020,8.760 143.200,9.200 143.200 C 9.640 143.200,10.000 143.336,10.000 143.502 C 10.000 143.669,10.585 144.040,11.300 144.329 C 12.015 144.617,12.913 145.021,13.295 145.226 C 13.677 145.432,14.262 145.600,14.595 145.600 C 14.928 145.600,15.200 145.780,15.200 146.000 C 15.200 146.220,15.639 146.400,16.176 146.400 C 16.713 146.400,17.264 146.580,17.400 146.800 C 17.536 147.020,17.997 147.200,18.424 147.200 C 18.851 147.200,19.200 147.380,19.200 147.600 C 19.200 147.820,19.740 148.000,20.400 148.000 C 21.060 148.000,21.600 148.180,21.600 148.400 C 21.600 148.620,21.960 148.800,22.400 148.800 C 22.840 148.800,23.200 148.980,23.200 149.200 C 23.200 149.420,23.740 149.600,24.400 149.600 C 25.060 149.600,25.600 149.780,25.600 150.000 C 25.600 150.220,25.960 150.400,26.400 150.400 C 26.840 150.400,27.200 150.580,27.200 150.800 C 27.200 151.020,27.650 151.200,28.200 151.200 C 28.750 151.200,29.200 151.380,29.200 151.600 C 29.200 151.820,29.639 152.000,30.176 152.000 C 30.713 152.000,31.264 152.180,31.400 152.400 C 31.536 152.620,31.997 152.800,32.424 152.800 C 32.851 152.800,33.200 152.980,33.200 153.200 C 33.200 153.420,33.740 153.600,34.400 153.600 C 35.060 153.600,35.600 153.747,35.600 153.928 C 35.600 154.108,36.500 154.500,37.600 154.800 C 38.700 155.100,39.600 155.492,39.600 155.672 C 39.600 155.853,40.140 156.000,40.800 156.000 C 41.460 156.000,42.000 156.147,42.000 156.328 C 42.000 156.508,42.900 156.900,44.000 157.200 C 45.100 157.500,46.000 157.872,46.000 158.027 C 46.000 158.182,46.806 158.430,47.791 158.578 C 48.776 158.725,49.686 159.016,49.814 159.223 C 49.942 159.430,50.487 159.600,51.024 159.600 C 51.561 159.600,52.000 159.780,52.000 160.000 C 52.000 160.220,52.540 160.400,53.200 160.400 C 53.860 160.400,54.400 160.580,54.400 160.800 C 54.400 161.020,54.839 161.200,55.376 161.200 C 55.913 161.200,56.464 161.380,56.600 161.600 C 56.736 161.820,57.197 162.000,57.624 162.000 C 58.051 162.000,58.400 162.180,58.400 162.400 C 58.400 162.620,58.839 162.800,59.376 162.800 C 59.913 162.800,60.464 162.980,60.600 163.200 C 60.736 163.420,61.287 163.600,61.824 163.600 C 62.361 163.600,62.800 163.780,62.800 164.000 C 62.800 164.220,63.162 164.400,63.605 164.400 C 64.048 164.400,64.768 164.580,65.205 164.800 C 65.642 165.020,66.358 165.380,66.795 165.600 C 67.232 165.820,67.952 166.000,68.395 166.000 C 68.838 166.000,69.200 166.180,69.200 166.400 C 69.200 166.620,69.740 166.800,70.400 166.800 C 71.060 166.800,71.600 166.980,71.600 167.200 C 71.600 167.420,72.140 167.600,72.800 167.600 C 73.460 167.600,74.000 167.780,74.000 168.000 C 74.000 168.220,74.362 168.400,74.805 168.400 C 75.248 168.400,75.968 168.580,76.405 168.800 C 76.842 169.020,77.558 169.380,77.995 169.600 C 78.432 169.820,79.064 170.000,79.400 170.000 C 79.736 170.000,80.413 170.208,80.905 170.462 C 81.397 170.716,82.070 171.051,82.400 171.206 C 82.926 171.452,83.013 176.063,83.102 208.544 C 83.159 229.206,83.358 245.600,83.552 245.600 C 83.743 245.600,84.004 246.118,84.130 246.752 C 84.257 247.385,84.640 248.182,84.980 248.523 C 85.321 248.864,85.600 249.293,85.600 249.476 C 85.600 249.659,86.159 250.257,86.842 250.804 C 87.525 251.352,88.322 252.025,88.613 252.300 C 88.905 252.575,89.426 252.800,89.771 252.800 C 90.117 252.800,90.400 252.980,90.400 253.200 C 90.400 253.420,90.760 253.600,91.200 253.600 C 91.640 253.600,92.000 253.780,92.000 254.000 C 92.000 254.220,92.272 254.400,92.605 254.400 C 92.938 254.400,93.523 254.559,93.905 254.753 C 94.581 255.097,95.866 255.637,97.700 256.349 C 98.195 256.541,99.410 257.075,100.400 257.534 C 101.390 257.994,102.875 258.487,103.700 258.629 C 104.525 258.772,105.200 259.049,105.200 259.245 C 105.200 259.440,105.740 259.600,106.400 259.600 C 107.060 259.600,107.600 259.780,107.600 260.000 C 107.600 260.220,107.960 260.400,108.400 260.400 C 108.840 260.400,109.200 260.580,109.200 260.800 C 109.200 261.020,109.650 261.200,110.200 261.200 C 110.750 261.200,111.200 261.380,111.200 261.600 C 111.200 261.820,111.549 262.000,111.976 262.000 C 112.403 262.000,112.864 262.180,113.000 262.400 C 113.136 262.620,113.687 262.800,114.224 262.800 C 114.761 262.800,115.200 262.980,115.200 263.200 C 115.200 263.420,115.740 263.600,116.400 263.600 C 117.060 263.600,117.600 263.780,117.600 264.000 C 117.600 264.220,117.960 264.400,118.400 264.400 C 118.840 264.400,119.200 264.580,119.200 264.800 C 119.200 265.020,119.740 265.200,120.400 265.200 C 121.060 265.200,121.600 265.380,121.600 265.600 C 121.600 265.820,122.140 266.000,122.800 266.000 C 123.460 266.000,124.000 266.180,124.000 266.400 C 124.000 266.620,124.360 266.800,124.800 266.800 C 125.240 266.800,125.600 266.980,125.600 267.200 C 125.600 267.420,126.039 267.600,126.576 267.600 C 127.113 267.600,127.664 267.780,127.800 268.000 C 127.936 268.220,128.487 268.400,129.024 268.400 C 129.561 268.400,130.000 268.580,130.000 268.800 C 130.000 269.020,130.540 269.200,131.200 269.200 C 131.860 269.200,132.400 269.380,132.400 269.600 C 132.400 269.820,132.762 270.000,133.205 270.000 C 133.648 270.000,134.413 270.208,134.905 270.462 C 136.831 271.458,137.217 271.600,137.995 271.600 C 138.438 271.600,138.800 271.780,138.800 272.000 C 138.800 272.220,139.340 272.400,140.000 272.400 C 140.660 272.400,141.200 272.580,141.200 272.800 C 141.200 273.020,141.740 273.200,142.400 273.200 C 143.060 273.200,143.600 273.380,143.600 273.600 C 143.600 273.820,144.039 274.000,144.576 274.000 C 145.113 274.000,145.656 274.167,145.783 274.372 C 145.909 274.577,147.000 274.867,148.206 275.018 C 149.413 275.169,150.400 275.451,150.400 275.646 C 150.400 275.841,150.940 276.000,151.600 276.000 C 152.260 276.000,152.800 276.180,152.800 276.400 C 152.800 276.620,153.340 276.800,154.000 276.800 C 154.660 276.800,155.200 276.980,155.200 277.200 C 155.200 277.420,155.740 277.600,156.400 277.600 C 157.060 277.600,157.600 277.780,157.600 278.000 C 157.600 278.220,158.140 278.400,158.800 278.400 C 159.460 278.400,160.000 278.580,160.000 278.800 C 160.000 279.020,160.439 279.200,160.976 279.200 C 161.513 279.200,162.064 279.380,162.200 279.600 C 162.336 279.820,162.887 280.000,163.424 280.000 C 163.961 280.000,164.400 280.180,164.400 280.400 C 164.400 280.620,164.940 280.800,165.600 280.800 C 166.260 280.800,166.800 280.980,166.800 281.200 C 166.800 281.420,167.329 281.600,167.976 281.600 C 168.623 281.600,169.264 281.780,169.400 282.000 C 169.536 282.220,170.267 282.400,171.024 282.400 C 171.781 282.400,172.400 282.580,172.400 282.800 C 172.400 283.020,172.940 283.200,173.600 283.200 C 174.260 283.200,174.800 283.380,174.800 283.600 C 174.800 283.820,175.340 284.000,176.000 284.000 C 176.660 284.000,177.200 284.180,177.200 284.400 C 177.200 284.620,177.729 284.800,178.376 284.800 C 179.023 284.800,179.664 284.980,179.800 285.200 C 179.936 285.420,180.577 285.600,181.224 285.600 C 181.871 285.600,182.400 285.780,182.400 286.000 C 182.400 286.220,182.929 286.400,183.576 286.400 C 184.223 286.400,184.864 286.580,185.000 286.800 C 185.136 287.020,185.867 287.200,186.624 287.200 C 187.381 287.200,188.000 287.380,188.000 287.600 C 188.000 287.820,188.540 288.000,189.200 288.000 C 189.860 288.000,190.400 288.180,190.400 288.400 C 190.400 288.620,190.792 288.800,191.272 288.800 C 192.192 288.800,194.528 289.460,195.695 290.049 C 196.077 290.242,197.067 290.403,197.895 290.406 C 198.723 290.409,199.645 290.567,199.944 290.757 C 200.573 291.156,202.000 290.875,202.000 290.353 C 202.000 290.159,201.730 290.000,201.400 290.000 C 200.871 290.000,200.800 285.915,200.800 255.635 L 200.800 221.270 202.300 221.052 C 203.125 220.932,204.790 220.719,206.000 220.578 C 208.209 220.322,211.961 219.427,216.800 218.001 C 218.230 217.580,220.750 216.842,222.400 216.361 C 226.613 215.132,230.425 213.995,231.600 213.615 C 232.150 213.438,233.320 213.093,234.200 212.850 C 236.373 212.248,239.906 211.185,246.800 209.059 C 261.008 204.678,263.471 203.919,264.600 203.572 C 265.260 203.370,268.050 202.482,270.800 201.600 C 273.550 200.718,276.430 199.805,277.200 199.571 C 277.970 199.338,278.960 199.002,279.400 198.825 C 279.840 198.647,282.000 197.930,284.200 197.231 C 286.400 196.532,288.695 195.767,289.300 195.532 L 290.400 195.103 290.400 187.351 C 290.400 183.088,290.251 179.600,290.068 179.600 C 289.775 179.600,282.208 182.038,268.200 186.645 C 265.780 187.441,263.260 188.233,262.600 188.405 C 261.940 188.578,259.600 189.289,257.400 189.986 C 252.505 191.536,239.447 195.544,237.800 196.001 C 237.140 196.184,234.710 196.904,232.400 197.600 C 230.090 198.296,227.570 199.041,226.800 199.255 C 226.030 199.470,224.815 199.815,224.100 200.023 C 223.385 200.230,222.215 200.566,221.500 200.770 C 220.785 200.973,219.513 201.345,218.674 201.596 C 217.025 202.089,215.910 201.945,212.200 200.761 C 210.880 200.340,207.550 199.354,204.800 198.570 C 197.414 196.464,191.420 194.700,183.800 192.390 C 174.282 189.504,169.200 187.987,167.800 187.615 C 167.140 187.439,165.790 187.023,164.800 186.691 C 163.810 186.359,161.110 185.504,158.800 184.790 C 156.490 184.077,153.790 183.232,152.800 182.913 C 151.810 182.594,148.930 181.710,146.400 180.947 C 143.870 180.185,138.830 178.600,135.200 177.426 C 131.570 176.251,125.090 174.176,120.800 172.814 C 116.510 171.452,112.640 170.177,112.200 169.981 C 111.760 169.785,106.000 167.836,99.400 165.650 C 92.800 163.464,83.710 160.389,79.200 158.816 C 74.690 157.243,69.650 155.508,68.000 154.961 C 66.350 154.414,64.550 153.770,64.000 153.530 C 62.734 152.977,61.761 152.605,60.000 152.000 C 59.230 151.736,58.240 151.376,57.800 151.200 C 57.360 151.024,56.460 150.693,55.800 150.464 C 45.407 146.858,24.358 138.785,20.400 136.888 C 13.882 133.764,9.920 126.540,10.548 118.928 C 10.829 115.523,13.352 109.664,15.200 108.125 C 15.726 107.687,15.713 107.624,15.100 107.613 C 14.715 107.606,14.400 107.780,14.400 108.000 M391.200 110.800 C 391.750 111.230,392.470 111.585,392.800 111.588 C 393.130 111.592,392.860 111.237,392.200 110.800 C 390.655 109.777,389.892 109.777,391.200 110.800 M394.705 113.368 C 395.526 114.120,396.268 114.666,396.354 114.580 C 396.566 114.368,394.005 112.000,393.564 112.000 C 393.370 112.000,393.883 112.616,394.705 113.368 M397.045 137.788 C 396.680 138.344,396.522 138.800,396.695 138.800 C 397.084 138.800,398.119 137.186,397.882 136.949 C 397.786 136.853,397.410 137.231,397.045 137.788 M355.905 156.763 C 354.862 157.145,353.887 157.579,353.738 157.729 C 353.589 157.878,353.147 158.000,352.757 158.000 C 352.367 158.000,351.946 158.163,351.823 158.363 C 351.455 158.959,353.915 158.262,356.095 157.153 C 356.477 156.959,357.051 156.800,357.371 156.800 C 357.691 156.800,358.064 156.620,358.200 156.400 C 358.524 155.876,358.180 155.931,355.905 156.763 M318.400 170.261 C 317.169 170.448,314.477 171.178,313.400 171.617 C 311.685 172.316,306.524 174.102,305.100 174.489 L 303.600 174.897 303.600 182.806 L 303.600 190.715 306.500 189.782 C 308.095 189.269,311.020 188.283,313.000 187.591 C 314.980 186.899,317.005 186.237,317.500 186.120 C 318.394 185.908,318.400 185.857,318.400 178.353 C 318.400 172.043,318.495 170.800,318.976 170.800 C 319.293 170.800,319.664 170.620,319.800 170.400 C 319.936 170.180,319.902 170.025,319.724 170.054 C 319.546 170.084,318.950 170.177,318.400 170.261 M314.466 250.641 C 313.733 251.388,313.294 252.000,313.491 252.000 C 313.940 252.000,316.204 249.668,315.971 249.445 C 315.877 249.355,315.200 249.893,314.466 250.641 M307.800 254.378 C 306.920 254.795,306.504 255.150,306.876 255.168 C 307.248 255.185,307.664 255.020,307.800 254.800 C 307.936 254.580,308.397 254.400,308.824 254.400 C 309.251 254.400,309.600 254.220,309.600 254.000 C 309.600 253.500,309.701 253.479,307.800 254.378 M261.600 272.000 C 261.115 272.314,261.172 272.389,261.900 272.394 C 262.395 272.397,262.800 272.220,262.800 272.000 C 262.800 271.499,262.376 271.499,261.600 272.000 M259.400 272.667 C 258.588 272.844,257.167 273.405,255.905 274.047 C 255.523 274.241,254.859 274.400,254.429 274.400 C 253.999 274.400,253.556 274.547,253.445 274.728 C 253.333 274.908,253.775 274.977,254.426 274.882 C 255.077 274.786,255.708 274.549,255.829 274.354 C 255.949 274.159,256.476 274.000,257.000 274.000 C 257.524 274.000,258.064 273.820,258.200 273.600 C 258.336 273.380,258.887 273.200,259.424 273.200 C 259.961 273.200,260.400 273.020,260.400 272.800 C 260.400 272.580,260.355 272.421,260.300 272.446 C 260.245 272.472,259.840 272.571,259.400 272.667 M210.000 288.400 C 209.515 288.714,209.572 288.789,210.300 288.794 C 210.795 288.797,211.200 288.620,211.200 288.400 C 211.200 287.899,210.776 287.899,210.000 288.400 M204.400 290.000 L 203.400 290.320 204.476 290.360 C 205.068 290.382,205.664 290.220,205.800 290.000 C 206.081 289.545,205.820 289.545,204.400 290.000 " stroke="none" fill="#2c4c64" fill-rule="evenodd"></path><path id="path3" d="M199.300 120.676 C 199.685 120.776,200.315 120.776,200.700 120.676 C 201.085 120.575,200.770 120.493,200.000 120.493 C 199.230 120.493,198.915 120.575,199.300 120.676 M196.200 121.835 L 195.000 122.866 196.200 122.090 C 196.860 121.663,197.670 121.213,198.000 121.089 C 198.533 120.888,198.533 120.860,198.000 120.834 C 197.670 120.817,196.860 121.268,196.200 121.835 M204.572 122.266 C 206.243 123.171,208.400 124.045,208.400 123.817 C 208.400 123.592,204.118 121.592,203.688 121.616 C 203.530 121.625,203.927 121.918,204.572 122.266 M193.867 124.667 C 193.500 125.033,193.529 128.709,193.900 128.938 C 194.065 129.040,194.200 128.061,194.200 126.762 C 194.200 125.463,194.185 124.400,194.167 124.400 C 194.148 124.400,194.013 124.520,193.867 124.667 M220.800 130.000 C 222.010 130.639,223.180 131.162,223.400 131.162 C 223.620 131.162,222.810 130.639,221.600 130.000 C 220.390 129.361,219.220 128.838,219.000 128.838 C 218.780 128.838,219.590 129.361,220.800 130.000 M194.400 129.871 C 194.400 130.920,199.424 134.073,203.700 135.707 C 205.685 136.466,203.919 135.418,200.263 133.667 C 197.897 132.534,195.757 131.217,195.263 130.589 C 194.788 129.986,194.400 129.663,194.400 129.871 M232.400 135.358 C 232.400 135.471,233.795 136.208,235.500 136.997 C 237.205 137.785,239.107 138.710,239.728 139.054 C 240.348 139.397,240.950 139.583,241.067 139.467 C 241.183 139.351,240.405 138.866,239.339 138.390 C 237.486 137.563,233.332 135.634,232.700 135.308 C 232.535 135.223,232.400 135.245,232.400 135.358 M206.000 136.800 C 206.770 137.222,207.580 137.566,207.800 137.566 C 208.020 137.566,207.570 137.222,206.800 136.800 C 206.030 136.378,205.220 136.034,205.000 136.034 C 204.780 136.034,205.230 136.378,206.000 136.800 M247.738 142.847 C 248.584 143.293,249.360 143.574,249.463 143.471 C 249.689 143.244,247.257 141.993,246.639 142.018 C 246.397 142.027,246.892 142.400,247.738 142.847 M220.000 143.395 C 220.000 143.605,222.735 144.811,223.149 144.783 C 223.470 144.762,220.701 143.239,220.300 143.217 C 220.135 143.208,220.000 143.288,220.000 143.395 M225.200 145.794 C 225.200 145.887,226.595 146.625,228.300 147.434 C 230.005 148.243,232.397 149.387,233.616 149.977 C 236.293 151.273,237.200 151.633,237.200 151.397 C 237.200 151.300,236.348 150.832,235.306 150.357 C 234.265 149.883,231.880 148.744,230.006 147.827 C 226.236 145.980,225.200 145.542,225.200 145.794 M265.200 150.994 C 265.200 151.213,271.079 154.006,271.489 153.982 C 271.660 153.971,270.565 153.353,269.056 152.608 C 265.916 151.056,265.200 150.757,265.200 150.994 M238.800 152.400 C 239.570 152.822,240.380 153.166,240.600 153.166 C 240.820 153.166,240.370 152.822,239.600 152.400 C 238.830 151.978,238.020 151.634,237.800 151.634 C 237.580 151.634,238.030 151.978,238.800 152.400 M272.000 154.175 C 272.000 154.381,274.989 155.926,276.532 156.519 C 278.055 157.103,277.038 156.381,274.900 155.361 C 273.635 154.757,272.465 154.193,272.300 154.108 C 272.135 154.023,272.000 154.053,272.000 154.175 M259.600 162.189 C 259.600 162.400,267.137 166.008,267.520 165.979 C 267.825 165.956,261.962 162.943,260.500 162.372 C 260.005 162.178,259.600 162.096,259.600 162.189 M300.825 168.438 C 301.608 169.228,302.444 170.488,302.683 171.238 C 302.989 172.194,303.130 172.350,303.159 171.759 C 303.210 170.708,301.724 168.490,300.400 167.641 C 299.688 167.184,299.810 167.413,300.825 168.438 M289.698 176.521 C 290.353 177.051,290.403 179.681,290.500 219.043 L 290.604 261.000 290.702 218.914 L 290.800 176.828 289.900 176.392 C 289.089 175.999,289.069 176.012,289.698 176.521 " stroke="none" fill="#7a907c" fill-rule="evenodd"></path><path id="path4" d="M199.100 121.082 C 199.595 121.178,200.405 121.178,200.900 121.082 C 201.395 120.987,200.990 120.909,200.000 120.909 C 199.010 120.909,198.605 120.987,199.100 121.082 M195.144 123.277 C 193.090 126.156,194.109 130.453,197.242 132.125 C 198.553 132.824,198.565 132.824,197.601 132.125 C 194.209 129.665,193.340 125.718,195.645 123.244 C 196.105 122.751,196.392 122.259,196.284 122.151 C 196.176 122.042,195.663 122.549,195.144 123.277 M207.200 123.795 C 207.200 124.005,209.935 125.211,210.349 125.183 C 210.670 125.162,207.901 123.639,207.500 123.617 C 207.335 123.608,207.200 123.688,207.200 123.795 M214.000 126.991 C 214.000 127.156,220.556 130.370,223.136 131.471 C 223.871 131.785,224.356 131.852,224.213 131.621 C 224.070 131.389,223.789 131.200,223.590 131.200 C 223.390 131.200,221.412 130.316,219.193 129.235 C 214.738 127.065,214.000 126.746,214.000 126.991 M229.341 134.446 C 231.069 135.329,232.569 135.965,232.674 135.859 C 232.875 135.658,227.050 132.785,226.511 132.820 C 226.340 132.831,227.614 133.562,229.341 134.446 M204.000 135.371 C 204.000 135.571,208.378 137.609,208.748 137.581 C 209.064 137.557,204.709 135.245,204.300 135.219 C 204.135 135.208,204.000 135.277,204.000 135.371 M209.200 137.758 C 209.200 137.870,209.875 138.271,210.700 138.648 C 211.525 139.026,212.335 139.405,212.500 139.491 C 212.665 139.577,212.800 139.555,212.800 139.442 C 212.800 139.330,212.125 138.929,211.300 138.552 C 210.475 138.174,209.665 137.795,209.500 137.709 C 209.335 137.623,209.200 137.645,209.200 137.758 M240.000 139.365 C 240.000 139.609,242.431 140.800,242.928 140.800 C 243.151 140.800,243.249 140.716,243.146 140.613 C 242.833 140.300,240.000 139.177,240.000 139.365 M216.400 141.346 C 220.066 143.174,221.200 143.664,221.200 143.419 C 221.200 143.220,213.606 139.592,213.259 139.625 C 213.117 139.639,214.530 140.414,216.400 141.346 M248.400 143.374 C 248.400 143.543,249.529 144.099,256.000 147.113 C 257.210 147.676,258.335 148.207,258.500 148.292 C 258.665 148.377,258.800 148.356,258.800 148.245 C 258.800 148.133,257.045 147.200,254.900 146.171 C 250.084 143.859,248.400 143.135,248.400 143.374 M232.000 148.800 C 233.210 149.439,234.380 149.962,234.600 149.962 C 234.820 149.962,234.010 149.439,232.800 148.800 C 231.590 148.161,230.420 147.638,230.200 147.638 C 229.980 147.638,230.790 148.161,232.000 148.800 M261.340 149.646 C 262.627 150.310,263.764 150.770,263.866 150.668 C 264.049 150.484,259.736 148.382,259.252 148.419 C 259.113 148.430,260.053 148.982,261.340 149.646 M240.400 152.800 C 241.610 153.439,242.780 153.962,243.000 153.962 C 243.220 153.962,242.410 153.439,241.200 152.800 C 239.990 152.161,238.820 151.638,238.600 151.638 C 238.380 151.638,239.190 152.161,240.400 152.800 M243.600 154.158 C 243.600 154.271,244.995 155.025,246.700 155.834 C 248.405 156.643,250.797 157.787,252.016 158.377 C 254.669 159.662,255.600 160.033,255.600 159.806 C 255.600 159.650,254.271 158.999,246.800 155.490 C 245.370 154.818,244.065 154.198,243.900 154.111 C 243.735 154.024,243.600 154.045,243.600 154.158 M279.600 158.192 C 279.600 158.444,287.281 162.052,287.453 161.880 C 287.535 161.798,286.117 161.028,284.301 160.169 C 280.256 158.256,279.600 157.980,279.600 158.192 M288.000 162.146 C 288.000 162.453,298.092 167.242,298.300 167.034 C 298.402 166.931,297.882 166.590,297.143 166.277 C 296.014 165.798,289.258 162.615,288.300 162.111 C 288.135 162.024,288.000 162.040,288.000 162.146 M267.200 165.600 C 268.850 166.458,270.380 167.160,270.600 167.160 C 270.820 167.160,269.650 166.458,268.000 165.600 C 266.350 164.742,264.820 164.040,264.600 164.040 C 264.380 164.040,265.550 164.742,267.200 165.600 M299.400 167.840 C 299.840 168.178,300.391 168.577,300.624 168.727 C 300.857 168.877,301.352 169.445,301.724 169.989 C 302.096 170.533,302.400 170.764,302.400 170.502 C 302.400 169.871,299.707 167.197,299.087 167.213 C 298.819 167.220,298.960 167.502,299.400 167.840 M272.800 168.171 C 272.800 168.371,277.178 170.409,277.548 170.381 C 277.864 170.357,273.509 168.045,273.100 168.019 C 272.935 168.008,272.800 168.077,272.800 168.171 M278.000 170.555 C 278.000 170.667,279.755 171.600,281.900 172.629 C 286.716 174.941,288.400 175.665,288.400 175.426 C 288.400 175.257,287.271 174.701,280.800 171.687 C 279.590 171.124,278.465 170.593,278.300 170.508 C 278.135 170.423,278.000 170.444,278.000 170.555 M302.709 213.322 C 302.769 236.453,302.949 255.509,303.109 255.669 C 303.269 255.829,303.310 236.994,303.200 213.813 C 303.090 190.633,302.910 171.576,302.800 171.466 C 302.690 171.356,302.649 190.192,302.709 213.322 M290.800 218.320 L 291.000 260.200 291.102 218.622 C 291.158 195.754,291.068 176.908,290.902 176.742 C 290.736 176.576,290.690 195.286,290.800 218.320 " stroke="none" fill="#9ca47c" fill-rule="evenodd"></path></g></svg>